<svg height="200" width="200" version="1.1" xmlns="http://www.w3.org/2000/svg" id="example"><line stroke="black" x1="67.35940488008981" y1="162.69097521901338" x2="97.92283870846606" y2="166.37812446105573"/><line stroke="black" x1="97.92283870846606" y1="166.37812446105573" x2="128.83866640295267" y2="163.52887715542164"/><line stroke="black" x1="128.83866640295267" y1="163.52887715542164" x2="155.04911281783362" y2="154.9007834200286"/><line stroke="black" x1="155.04911281783362" y1="154.9007834200286" x2="173.32804376007894" y2="142.53969219763974"/><line stroke="black" x1="173.32804376007894" y1="142.53969219763974" x2="182.93034115694064" y2="128.75990954038127"/><line stroke="black" x1="182.93034115694064" y1="128.75990954038127" x2="184.9039637761075" y2="115.35994561421114"/><line stroke="black" x1="184.9039637761075" y1="115.35994561421114" x2="181.02210989319568" y2="103.39441105954491"/><line stroke="black" x1="181.02210989319568" y1="103.39441105954491" x2="173.03191327747055" y2="93.31327588800985"/><line stroke="black" x1="173.03191327747055" y1="93.31327588800985" x2="162.33296063215494" y2="85.19756255446163"/><line stroke="black" x1="162.33296063215494" y1="85.19756255446163" x2="149.92956150683517" y2="78.95138048879508"/><line stroke="black" x1="149.92956150683517" y1="78.95138048879508" x2="136.4976192841944" y2="74.42189434560032"/><line stroke="black" x1="136.4976192841944" y1="74.42189434560032" x2="122.47707020465934" y2="71.46337063303596"/><line stroke="black" x1="122.47707020465934" y1="71.46337063303596" x2="108.15538255775996" y2="69.96748697561009"/><line stroke="black" x1="108.15538255775996" y1="69.96748697561009" x2="93.73521525362972" y2="69.87606034656415"/><line stroke="black" x1="93.73521525362972" y1="69.87606034656415" x2="79.39019952914323" y2="71.18546627218788"/><line stroke="black" x1="79.39019952914323" y1="71.18546627218788" x2="65.31618217828046" y2="73.94686656982816"/><line stroke="black" x1="65.31618217828046" y1="73.94686656982816" x2="51.78596339471772" y2="78.26248332390051"/><line stroke="black" x1="51.78596339471772" y1="78.26248332390051" x2="39.21505203090027" y2="84.27436043909846"/><line stroke="black" x1="39.21505203090027" y1="84.27436043909846" x2="28.243126669811105" y2="92.13712137100048"/><line stroke="black" x1="28.243126669811105" y1="92.13712137100048" x2="19.826438383858537" y2="101.95953157996767"/><line stroke="black" x1="19.826438383858537" y1="101.95953157996767" x2="15.311643104531713" y2="113.69315815907467"/><line stroke="black" x1="15.311643104531713" y1="113.69315815907467" x2="16.410790162766485" y2="126.94972645590688"/><line stroke="black" x1="16.410790162766485" y1="126.94972645590688" x2="24.926439642778686" y2="140.7662780846036"/><line stroke="black" x1="24.926439642778686" y1="140.7662780846036" x2="42.05996079084363" y2="153.43989338928188"/><line stroke="black" x1="42.05996079084363" y1="153.43989338928188" x2="67.35940488008981" y2="162.69097521901338"/></svg>