<svg height="200" width="200" version="1.1" xmlns="http://www.w3.org/2000/svg" id="example"><polygon points="118.10784943763235, 174.660098684453, 103.51470715753554, 177.36560350559813, 88.5424292239753, 176.36811135882732, 74.7927557660093, 171.81828342056784, 63.60063842875399, 164.3716362012948, 55.79743932490182, 154.99172068019902, 51.66262679718996, 144.70756434722557, 51.02972314773295, 134.42504566619, 53.45710641138326, 124.83452641560693, 58.38624444025533, 116.40195884329444, 65.25081023923487, 109.40763200410053, 73.53394643399372, 104.00021139638596, 82.78651688635757, 100.24679582828011, 92.6213021363926, 98.17115157965901, 102.69448216817749, 97.77882077787514, 112.68137086053571, 99.07026166766838, 122.25026419726541, 102.04326344599059, 131.03693820759082, 106.68491272430136, 138.6228149109849, 112.95224877684147, 144.5221053203021, 120.74020827957229, 148.18715047174203, 129.8366142872072, 149.04556319083642, 139.86839572607158, 146.58416473875337, 150.25243547647207, 140.48641205741617, 160.17759834493663, 130.80463804504748, 168.65440259220935" fill="rgb(255,255,255)" fill-opacity="1.0" stroke="black"/><polygon points="96.15093863569162, 47.24650496028792, 101.40720042879283, 47.10628987956383, 102.69448216817749, 97.77882077787514, 92.6213021363926, 98.17115157965901" fill="rgb(255,255,255)" fill-opacity="1.0" stroke="black"/><polygon points="101.40720042879283, 47.10628987956383, 106.59758475303944, 47.56661059613475, 112.68137086053571, 99.07026166766838, 102.69448216817749, 97.77882077787514" fill="rgb(255,255,255)" fill-opacity="1.0" stroke="black"/><polygon points="91.07559967033897, 47.98292378518727, 96.15093863569162, 47.24650496028792, 92.6213021363926, 98.17115157965901, 82.78651688635757, 100.24679582828011" fill="rgb(255,255,255)" fill-opacity="1.0" stroke="black"/><polygon points="106.59758475303944, 47.56661059613475, 111.47498654367523, 48.61305828810805, 122.25026419726541, 102.04326344599059, 112.68137086053571, 99.07026166766838" fill="rgb(255,255,255)" fill-opacity="1.0" stroke="black"/><polygon points="86.4286900151802, 49.29197334267482, 91.07559967033897, 47.98292378518727, 82.78651688635757, 100.24679582828011, 73.53394643399372, 104.00021139638596" fill="rgb(255,255,255)" fill-opacity="1.0" stroke="black"/><polygon points="111.47498654367523, 48.61305828810805, 115.79159766215213, 50.2108608095825, 131.03693820759082, 106.68491272430136, 122.25026419726541, 102.04326344599059" fill="rgb(255,255,255)" fill-opacity="1.0" stroke="black"/><polygon points="82.45774985834173, 51.12829992093384, 86.4286900151802, 49.29197334267482, 73.53394643399372, 104.00021139638596, 65.25081023923487, 109.40763200410053" fill="rgb(255,255,255)" fill-opacity="1.0" stroke="black"/><polygon points="115.79159766215213, 50.2108608095825, 119.30142124694585, 52.301418301641576, 138.6228149109849, 112.95224877684147, 131.03693820759082, 106.68491272430136" fill="rgb(255,255,255)" fill-opacity="1.0" stroke="black"/><polygon points="79.40570159870735, 53.42066190207328, 82.45774985834173, 51.12829992093384, 65.25081023923487, 109.40763200410053, 58.38624444025533, 116.40195884329444" fill="rgb(255,255,255)" fill-opacity="1.0" stroke="black"/><polygon points="119.30142124694585, 52.301418301641576, 121.76795327370407, 54.79772259055758, 144.5221053203021, 120.74020827957229, 138.6228149109849, 112.95224877684147" fill="rgb(255,255,255)" fill-opacity="1.0" stroke="black"/><polygon points="77.5000652401024, 56.06723788096974, 79.40570159870735, 53.42066190207328, 58.38624444025533, 116.40195884329444, 53.45710641138326, 124.83452641560693" fill="rgb(255,255,255)" fill-opacity="1.0" stroke="black"/><polygon points="121.76795327370407, 54.79772259055758, 122.97894482142489, 57.579978961077614, 148.18715047174203, 129.8366142872072, 144.5221053203021, 120.74020827957229" fill="rgb(255,255,255)" fill-opacity="1.0" stroke="black"/><polygon points="76.93449637591118, 58.93198934996684, 77.5000652401024, 56.06723788096974, 53.45710641138326, 124.83452641560693, 51.02972314773295, 134.42504566619" fill="rgb(255,255,255)" fill-opacity="1.0" stroke="black"/><polygon points="122.97894482142489, 57.579978961077614, 122.76912190219582, 60.4934454241087, 149.04556319083642, 139.86839572607158, 148.18715047174203, 129.8366142872072" fill="rgb(255,255,255)" fill-opacity="1.0" stroke="black"/><polygon points="77.8426110764578, 61.84439585735913, 76.93449637591118, 58.93198934996684, 51.02972314773295, 134.42504566619, 51.66262679718996, 144.70756434722557" fill="rgb(255,255,255)" fill-opacity="1.0" stroke="black"/><polygon points="122.76912190219582, 60.4934454241087, 121.04960455793245, 63.35106949254373, 146.58416473875337, 150.25243547647207, 149.04556319083642, 139.86839572607158" fill="rgb(255,255,255)" fill-opacity="1.0" stroke="black"/><polygon points="80.26676935039167, 64.60523774983966, 77.8426110764578, 61.84439585735913, 51.66262679718996, 144.70756434722557, 55.79743932490182, 154.99172068019902" fill="rgb(255,255,255)" fill-opacity="1.0" stroke="black"/><polygon points="121.04960455793245, 63.35106949254373, 117.83946970099828, 65.94347233120482, 140.48641205741617, 160.17759834493663, 146.58416473875337, 150.25243547647207" fill="rgb(255,255,255)" fill-opacity="1.0" stroke="black"/><polygon points="84.12813460977983, 67.00059593257731, 80.26676935039167, 64.60523774983966, 55.79743932490182, 154.99172068019902, 63.60063842875399, 164.3716362012948" fill="rgb(255,255,255)" fill-opacity="1.0" stroke="black"/><polygon points="117.83946970099828, 65.94347233120482, 113.29120286384232, 68.05764059063958, 130.80463804504748, 168.65440259220935, 140.48641205741617, 160.17759834493663" fill="rgb(255,255,255)" fill-opacity="1.0" stroke="black"/><polygon points="89.20763898804361, 68.82437677037001, 84.12813460977983, 67.00059593257731, 63.60063842875399, 164.3716362012948, 74.7927557660093, 171.81828342056784" fill="rgb(255,255,255)" fill-opacity="1.0" stroke="black"/><polygon points="113.29120286384232, 68.05764059063958, 107.69953654661211, 69.50306640406646, 118.10784943763235, 174.660098684453, 130.80463804504748, 168.65440259220935" fill="rgb(255,255,255)" fill-opacity="1.0" stroke="black"/><polygon points="95.1482208383702, 69.906510945098, 89.20763898804361, 68.82437677037001, 74.7927557660093, 171.81828342056784, 88.5424292239753, 176.36811135882732" fill="rgb(255,255,255)" fill-opacity="1.0" stroke="black"/><polygon points="107.69953654661211, 69.50306640406646, 101.48475944136814, 70.14059480999975, 103.51470715753554, 177.36560350559813, 118.10784943763235, 174.660098684453" fill="rgb(255,255,255)" fill-opacity="1.0" stroke="black"/><polygon points="101.48475944136814, 70.14059480999975, 95.1482208383702, 69.906510945098, 88.5424292239753, 176.36811135882732, 103.51470715753554, 177.36560350559813" fill="rgb(255,255,255)" fill-opacity="1.0" stroke="black"/><polygon points="113.29120286384232, 68.05764059063958, 117.83946970099828, 65.94347233120482, 121.04960455793245, 63.35106949254373, 122.76912190219582, 60.4934454241087, 122.97894482142489, 57.579978961077614, 121.76795327370407, 54.79772259055758, 119.30142124694585, 52.301418301641576, 115.79159766215213, 50.2108608095825, 111.47498654367523, 48.61305828810805, 106.59758475303944, 47.56661059613475, 101.40720042879283, 47.10628987956383, 96.15093863569162, 47.24650496028792, 91.07559967033897, 47.98292378518727, 86.4286900151802, 49.29197334267482, 82.45774985834173, 51.12829992093384, 79.40570159870735, 53.42066190207328, 77.5000652401024, 56.06723788096974, 76.93449637591118, 58.93198934996684, 77.8426110764578, 61.84439585735913, 80.26676935039167, 64.60523774983966, 84.12813460977983, 67.00059593257731, 89.20763898804361, 68.82437677037001, 95.1482208383702, 69.906510945098, 101.48475944136814, 70.14059480999975, 107.69953654661211, 69.50306640406646" fill="rgb(255,255,255)" fill-opacity="1.0" stroke="black"/></svg>