<svg height="200" width="200" version="1.1" xmlns="http://www.w3.org/2000/svg" id="example"><polygon points="106.8735984514532, 107.22204492038445, 104.38774790794415, 117.87689277724292, 96.67346483652764, 117.76097305484596, 94.79101715029667, 107.05284982146352" fill="rgb(255,255,255)" fill-opacity="1.0" stroke="black"/><polygon points="94.79101715029667, 107.05284982146352, 96.67346483652764, 117.76097305484596, 89.1820301969576, 119.31321591172981, 82.96485917042293, 109.33029320804921" fill="rgb(255,255,255)" fill-opacity="1.0" stroke="black"/><polygon points="106.8735984514532, 107.22204492038445, 94.79101715029667, 107.05284982146352, 92.92250126146317, 26.703248876322135, 109.34310956738172, 26.806776422991334" fill="rgb(255,255,255)" fill-opacity="1.0" stroke="black"/><polygon points="94.79101715029667, 107.05284982146352, 82.96485917042293, 109.33029320804921, 76.72405472412993, 28.104029251284715, 92.92250126146317, 26.703248876322135" fill="rgb(255,255,255)" fill-opacity="1.0" stroke="black"/><polygon points="118.61638825044199, 109.83788537728812, 111.80738412324696, 119.6568103037998, 104.38774790794415, 117.87689277724292, 106.8735984514532, 107.22204492038445" fill="rgb(255,255,255)" fill-opacity="1.0" stroke="black"/><polygon points="118.61638825044199, 109.83788537728812, 106.8735984514532, 107.22204492038445, 109.34310956738172, 26.806776422991334, 125.4683927843583, 28.418381528275262" fill="rgb(255,255,255)" fill-opacity="1.0" stroke="black"/><polygon points="82.96485917042293, 109.33029320804921, 89.1820301969576, 119.31321591172981, 82.43876313375688, 122.47499664500576, 72.02525202810179, 114.04951014234169" fill="rgb(255,255,255)" fill-opacity="1.0" stroke="black"/><polygon points="82.96485917042293, 109.33029320804921, 72.02525202810179, 114.04951014234169, 61.32620583743255, 31.057387465641767, 76.72405472412993, 28.104029251284715" fill="rgb(255,255,255)" fill-opacity="1.0" stroke="black"/><polygon points="129.3785068149357, 114.89293400483231, 118.40471525068108, 123.03244808105183, 111.80738412324696, 119.6568103037998, 118.61638825044199, 109.83788537728812" fill="rgb(255,255,255)" fill-opacity="1.0" stroke="black"/><polygon points="129.3785068149357, 114.89293400483231, 118.61638825044199, 109.83788537728812, 125.4683927843583, 28.418381528275262, 140.7001625664816, 31.592563792529006" fill="rgb(255,255,255)" fill-opacity="1.0" stroke="black"/><polygon points="72.02525202810179, 114.04951014234169, 82.43876313375688, 122.47499664500576, 76.9890268576681, 127.10742721999515, 62.70985715125828, 121.16502304270766" fill="rgb(255,255,255)" fill-opacity="1.0" stroke="black"/><polygon points="72.02525202810179, 114.04951014234169, 62.70985715125828, 121.16502304270766, 47.515357168048645, 35.64439015324422, 61.32620583743255, 31.057387465641767" fill="rgb(255,255,255)" fill-opacity="1.0" stroke="black"/><polygon points="138.40255558725713, 122.330909851058, 123.63158167483006, 127.85147845699827, 118.40471525068108, 123.03244808105183, 129.3785068149357, 114.89293400483231" fill="rgb(255,255,255)" fill-opacity="1.0" stroke="black"/><polygon points="138.40255558725713, 122.330909851058, 129.3785068149357, 114.89293400483231, 140.7001625664816, 31.592563792529006, 154.2110421500977, 36.411850956014746" fill="rgb(255,255,255)" fill-opacity="1.0" stroke="black"/><polygon points="104.38774790794415, 117.87689277724292, 106.12440351754825, 33.50424450960665, 95.35819047996104, 33.42944329592021, 96.67346483652764, 117.76097305484596" fill="rgb(255,255,255)" fill-opacity="1.0" stroke="black"/><polygon points="96.67346483652764, 117.76097305484596, 95.35819047996104, 33.42944329592021, 84.84542484161103, 34.434722859367724, 89.1820301969576, 119.31321591172981" fill="rgb(255,255,255)" fill-opacity="1.0" stroke="black"/><polygon points="111.80738412324696, 119.6568103037998, 116.55501273639743, 34.658313634456135, 106.12440351754825, 33.50424450960665, 104.38774790794415, 117.87689277724292" fill="rgb(255,255,255)" fill-opacity="1.0" stroke="black"/><polygon points="89.1820301969576, 119.31321591172981, 84.84542484161103, 34.434722859367724, 75.20053273012766, 36.50701503418932, 82.43876313375688, 122.47499664500576" fill="rgb(255,255,255)" fill-opacity="1.0" stroke="black"/><polygon points="118.40471525068108, 123.03244808105183, 126.02762005697872, 36.87585131288898, 116.55501273639743, 34.658313634456135, 111.80738412324696, 119.6568103037998" fill="rgb(255,255,255)" fill-opacity="1.0" stroke="black"/><polygon points="62.70985715125828, 121.16502304270766, 76.9890268576681, 127.10742721999515, 73.39039237422776, 132.9579672940527, 55.915058844699686, 130.51119919825135" fill="rgb(255,255,255)" fill-opacity="1.0" stroke="black"/><polygon points="62.70985715125828, 121.16502304270766, 55.915058844699686, 130.51119919825135, 36.44140226447742, 41.9277247809284, 47.515357168048645, 35.64439015324422" fill="rgb(255,255,255)" fill-opacity="1.0" stroke="black"/><polygon points="144.76882196687944, 131.96057498698332, 126.93115976856659, 133.84243391920057, 123.63158167483006, 127.85147845699827, 138.40255558725713, 122.330909851058" fill="rgb(255,255,255)" fill-opacity="1.0" stroke="black"/><polygon points="144.76882196687944, 131.96057498698332, 138.40255558725713, 122.330909851058, 154.2110421500977, 36.411850956014746, 164.7891612910108, 42.929627883695844" fill="rgb(255,255,255)" fill-opacity="1.0" stroke="black"/><polygon points="82.43876313375688, 122.47499664500576, 75.20053273012766, 36.50701503418932, 67.1159259631498, 39.6042973183861, 76.9890268576681, 127.10742721999515" fill="rgb(255,255,255)" fill-opacity="1.0" stroke="black"/><polygon points="123.63158167483006, 127.85147845699827, 133.83596018845446, 40.10869510986521, 126.02762005697872, 36.87585131288898, 118.40471525068108, 123.03244808105183" fill="rgb(255,255,255)" fill-opacity="1.0" stroke="black"/><polygon points="76.9890268576681, 127.10742721999515, 67.1159259631498, 39.6042973183861, 61.3900556137374, 43.623512720671584, 73.39039237422776, 132.9579672940527" fill="rgb(255,255,255)" fill-opacity="1.0" stroke="black"/><polygon points="126.93115976856659, 133.84243391920057, 139.16732078125762, 44.24187779163066, 133.83596018845446, 40.10869510986521, 123.63158167483006, 127.85147845699827" fill="rgb(255,255,255)" fill-opacity="1.0" stroke="black"/><polygon points="55.915058844699686, 130.51119919825135, 73.39039237422776, 132.9579672940527, 72.16905776514005, 139.61979138098098, 52.68846551962729, 141.6749781041362" fill="rgb(255,255,255)" fill-opacity="1.0" stroke="black"/><polygon points="55.915058844699686, 130.51119919825135, 52.68846551962729, 141.6749781041362, 29.74667365210275, 49.845973019166934, 36.44140226447742, 41.9277247809284" fill="rgb(255,255,255)" fill-opacity="1.0" stroke="black"/><polygon points="147.4152216711306, 143.32238124442227, 127.78765607377682, 140.57427339167617, 126.93115976856659, 133.84243391920057, 144.76882196687944, 131.96057498698332" fill="rgb(255,255,255)" fill-opacity="1.0" stroke="black"/><polygon points="147.4152216711306, 143.32238124442227, 144.76882196687944, 131.96057498698332, 164.7891612910108, 42.929627883695844, 170.71983956131547, 51.05478071247808" fill="rgb(255,255,255)" fill-opacity="1.0" stroke="black"/><polygon points="73.39039237422776, 132.9579672940527, 61.3900556137374, 43.623512720671584, 58.90018458780071, 48.35284484101035, 72.16905776514005, 139.61979138098098" fill="rgb(255,255,255)" fill-opacity="1.0" stroke="black"/><polygon points="127.78765607377682, 140.57427339167617, 141.14065908039328, 49.04425065200397, 139.16732078125762, 44.24187779163066, 126.93115976856659, 133.84243391920057" fill="rgb(255,255,255)" fill-opacity="1.0" stroke="black"/><polygon points="52.68846551962729, 141.6749781041362, 72.16905776514005, 139.61979138098098, 73.72804530025012, 146.50264512131173, 54.10124476684328, 153.83805167623225" fill="rgb(255,255,255)" fill-opacity="1.0" stroke="black"/><polygon points="72.16905776514005, 139.61979138098098, 58.90018458780071, 48.35284484101035, 60.47665966243893, 53.418968010396156, 73.72804530025012, 146.50264512131173" fill="rgb(255,255,255)" fill-opacity="1.0" stroke="black"/><polygon points="145.2872889993777, 155.53035982721704, 125.82508537338404, 147.43098973048032, 127.78765607377682, 140.57427339167617, 147.4152216711306, 143.32238124442227" fill="rgb(255,255,255)" fill-opacity="1.0" stroke="black"/><polygon points="125.82508537338404, 147.43098973048032, 138.94934881767404, 54.1168193187371, 141.14065908039328, 49.04425065200397, 127.78765607377682, 140.57427339167617" fill="rgb(255,255,255)" fill-opacity="1.0" stroke="black"/><polygon points="52.68846551962729, 141.6749781041362, 54.10124476684328, 153.83805167623225, 29.545591483334142, 59.03108475110599, 29.74667365210275, 49.845973019166934" fill="rgb(255,255,255)" fill-opacity="1.0" stroke="black"/><polygon points="145.2872889993777, 155.53035982721704, 147.4152216711306, 143.32238124442227, 170.71983956131547, 51.05478071247808, 169.84359432441357, 60.35839043958984" fill="rgb(255,255,255)" fill-opacity="1.0" stroke="black"/><polygon points="54.10124476684328, 153.83805167623225, 73.72804530025012, 146.50264512131173, 78.21056907769508, 152.84537250567084, 60.93505422012064, 165.65901996141397" fill="rgb(255,255,255)" fill-opacity="1.0" stroke="black"/><polygon points="73.72804530025012, 146.50264512131173, 60.47665966243893, 53.418968010396156, 66.64513202587692, 58.2582911824241, 78.21056907769508, 152.84537250567084" fill="rgb(255,255,255)" fill-opacity="1.0" stroke="black"/><polygon points="137.67920214425072, 167.1695831837768, 120.94814953858058, 153.6326256221832, 125.82508537338404, 147.43098973048032, 145.2872889993777, 155.53035982721704" fill="rgb(255,255,255)" fill-opacity="1.0" stroke="black"/><polygon points="120.94814953858058, 153.6326256221832, 132.1370189548915, 58.870813104282746, 138.94934881767404, 54.1168193187371, 125.82508537338404, 147.43098973048032" fill="rgb(255,255,255)" fill-opacity="1.0" stroke="black"/><polygon points="60.93505422012064, 165.65901996141397, 78.21056907769508, 152.84537250567084, 85.35520068954878, 157.80218346350077, 73.19536021450293, 175.3372823579141" fill="rgb(255,255,255)" fill-opacity="1.0" stroke="black"/><polygon points="78.21056907769508, 152.84537250567084, 66.64513202587692, 58.2582911824241, 77.27041655922847, 62.1600258519606, 85.35520068954878, 157.80218346350077" fill="rgb(255,255,255)" fill-opacity="1.0" stroke="black"/><polygon points="124.73358905079668, 176.39841793021873, 113.48300374172948, 158.3333328566006, 120.94814953858058, 153.6326256221832, 137.67920214425072, 167.1695831837768" fill="rgb(255,255,255)" fill-opacity="1.0" stroke="black"/><polygon points="113.48300374172948, 158.3333328566006, 120.95762231257801, 62.584561420621384, 132.1370189548915, 58.870813104282746, 120.94814953858058, 153.6326256221832" fill="rgb(255,255,255)" fill-opacity="1.0" stroke="black"/><polygon points="54.10124476684328, 153.83805167623225, 60.93505422012064, 165.65901996141397, 38.00308182174687, 68.57171752301886, 29.545591483334142, 59.03108475110599" fill="rgb(255,255,255)" fill-opacity="1.0" stroke="black"/><polygon points="137.67920214425072, 167.1695831837768, 145.2872889993777, 155.53035982721704, 169.84359432441357, 60.35839043958984, 160.0578282377751, 69.83768833945342" fill="rgb(255,255,255)" fill-opacity="1.0" stroke="black"/><polygon points="73.19536021450293, 175.3372823579141, 85.35520068954878, 157.80218346350077, 94.41760405701595, 160.61090432915074, 89.65995803523808, 181.00311763062845" fill="rgb(255,255,255)" fill-opacity="1.0" stroke="black"/><polygon points="85.35520068954878, 157.80218346350077, 77.27041655922847, 62.1600258519606, 91.26701694220426, 64.41942312432397, 94.41760405701595, 160.61090432915074" fill="rgb(255,255,255)" fill-opacity="1.0" stroke="black"/><polygon points="107.85869996236528, 181.38711098042882, 104.23936225847237, 160.79885535983829, 113.48300374172948, 158.3333328566006, 124.73358905079668, 176.39841793021873" fill="rgb(255,255,255)" fill-opacity="1.0" stroke="black"/><polygon points="104.23936225847237, 160.79885535983829, 106.63549414769061, 64.57189629112418, 120.95762231257801, 62.584561420621384, 113.48300374172948, 158.3333328566006" fill="rgb(255,255,255)" fill-opacity="1.0" stroke="black"/><polygon points="109.34310956738172, 26.806776422991334, 92.92250126146317, 26.703248876322135, 95.35819047996104, 33.42944329592021, 106.12440351754825, 33.50424450960665" fill="rgb(255,255,255)" fill-opacity="1.0" stroke="black"/><polygon points="92.92250126146317, 26.703248876322135, 76.72405472412993, 28.104029251284715, 84.84542484161103, 34.434722859367724, 95.35819047996104, 33.42944329592021" fill="rgb(255,255,255)" fill-opacity="1.0" stroke="black"/><polygon points="125.4683927843583, 28.418381528275262, 109.34310956738172, 26.806776422991334, 106.12440351754825, 33.50424450960665, 116.55501273639743, 34.658313634456135" fill="rgb(255,255,255)" fill-opacity="1.0" stroke="black"/><polygon points="89.65995803523808, 181.00311763062845, 94.41760405701595, 160.61090432915074, 104.23936225847237, 160.79885535983829, 107.85869996236528, 181.38711098042882" fill="rgb(255,255,255)" fill-opacity="1.0" stroke="black"/><polygon points="94.41760405701595, 160.61090432915074, 91.26701694220426, 64.41942312432397, 106.63549414769061, 64.57189629112418, 104.23936225847237, 160.79885535983829" fill="rgb(255,255,255)" fill-opacity="1.0" stroke="black"/><polygon points="76.72405472412993, 28.104029251284715, 61.32620583743255, 31.057387465641767, 75.20053273012766, 36.50701503418932, 84.84542484161103, 34.434722859367724" fill="rgb(255,255,255)" fill-opacity="1.0" stroke="black"/><polygon points="140.7001625664816, 31.592563792529006, 125.4683927843583, 28.418381528275262, 116.55501273639743, 34.658313634456135, 126.02762005697872, 36.87585131288898" fill="rgb(255,255,255)" fill-opacity="1.0" stroke="black"/><polygon points="60.93505422012064, 165.65901996141397, 73.19536021450293, 175.3372823579141, 56.24631195928744, 76.87823427468898, 38.00308182174687, 68.57171752301886" fill="rgb(255,255,255)" fill-opacity="1.0" stroke="black"/><polygon points="124.73358905079668, 176.39841793021873, 137.67920214425072, 167.1695831837768, 160.0578282377751, 69.83768833945342, 140.49981217512476, 77.8179043986091" fill="rgb(255,255,255)" fill-opacity="1.0" stroke="black"/><polygon points="61.32620583743255, 31.057387465641767, 47.515357168048645, 35.64439015324422, 67.1159259631498, 39.6042973183861, 75.20053273012766, 36.50701503418932" fill="rgb(255,255,255)" fill-opacity="1.0" stroke="black"/><polygon points="154.2110421500977, 36.411850956014746, 140.7001625664816, 31.592563792529006, 126.02762005697872, 36.87585131288898, 133.83596018845446, 40.10869510986521" fill="rgb(255,255,255)" fill-opacity="1.0" stroke="black"/><polygon points="73.19536021450293, 175.3372823579141, 89.65995803523808, 181.00311763062845, 82.83496061464436, 81.96480542517028, 56.24631195928744, 76.87823427468898" fill="rgb(255,255,255)" fill-opacity="1.0" stroke="black"/><polygon points="107.85869996236528, 181.38711098042882, 124.73358905079668, 176.39841793021873, 140.49981217512476, 77.8179043986091, 113.060916555374, 82.3158022106051" fill="rgb(255,255,255)" fill-opacity="1.0" stroke="black"/><polygon points="89.65995803523808, 181.00311763062845, 107.85869996236528, 181.38711098042882, 113.060916555374, 82.3158022106051, 82.83496061464436, 81.96480542517028" fill="rgb(255,255,255)" fill-opacity="1.0" stroke="black"/><polygon points="47.515357168048645, 35.64439015324422, 36.44140226447742, 41.9277247809284, 61.3900556137374, 43.623512720671584, 67.1159259631498, 39.6042973183861" fill="rgb(255,255,255)" fill-opacity="1.0" stroke="black"/><polygon points="164.7891612910108, 42.929627883695844, 154.2110421500977, 36.411850956014746, 133.83596018845446, 40.10869510986521, 139.16732078125762, 44.24187779163066" fill="rgb(255,255,255)" fill-opacity="1.0" stroke="black"/><polygon points="36.44140226447742, 41.9277247809284, 29.74667365210275, 49.845973019166934, 58.90018458780071, 48.35284484101035, 61.3900556137374, 43.623512720671584" fill="rgb(255,255,255)" fill-opacity="1.0" stroke="black"/><polygon points="170.71983956131547, 51.05478071247808, 164.7891612910108, 42.929627883695844, 139.16732078125762, 44.24187779163066, 141.14065908039328, 49.04425065200397" fill="rgb(255,255,255)" fill-opacity="1.0" stroke="black"/><polygon points="29.74667365210275, 49.845973019166934, 29.545591483334142, 59.03108475110599, 60.47665966243893, 53.418968010396156, 58.90018458780071, 48.35284484101035" fill="rgb(255,255,255)" fill-opacity="1.0" stroke="black"/><polygon points="169.84359432441357, 60.35839043958984, 170.71983956131547, 51.05478071247808, 141.14065908039328, 49.04425065200397, 138.94934881767404, 54.1168193187371" fill="rgb(255,255,255)" fill-opacity="1.0" stroke="black"/><polygon points="29.545591483334142, 59.03108475110599, 38.00308182174687, 68.57171752301886, 66.64513202587692, 58.2582911824241, 60.47665966243893, 53.418968010396156" fill="rgb(255,255,255)" fill-opacity="1.0" stroke="black"/><polygon points="160.0578282377751, 69.83768833945342, 169.84359432441357, 60.35839043958984, 138.94934881767404, 54.1168193187371, 132.1370189548915, 58.870813104282746" fill="rgb(255,255,255)" fill-opacity="1.0" stroke="black"/><polygon points="38.00308182174687, 68.57171752301886, 56.24631195928744, 76.87823427468898, 77.27041655922847, 62.1600258519606, 66.64513202587692, 58.2582911824241" fill="rgb(255,255,255)" fill-opacity="1.0" stroke="black"/><polygon points="140.49981217512476, 77.8179043986091, 160.0578282377751, 69.83768833945342, 132.1370189548915, 58.870813104282746, 120.95762231257801, 62.584561420621384" fill="rgb(255,255,255)" fill-opacity="1.0" stroke="black"/><polygon points="56.24631195928744, 76.87823427468898, 82.83496061464436, 81.96480542517028, 91.26701694220426, 64.41942312432397, 77.27041655922847, 62.1600258519606" fill="rgb(255,255,255)" fill-opacity="1.0" stroke="black"/><polygon points="113.060916555374, 82.3158022106051, 140.49981217512476, 77.8179043986091, 120.95762231257801, 62.584561420621384, 106.63549414769061, 64.57189629112418" fill="rgb(255,255,255)" fill-opacity="1.0" stroke="black"/><polygon points="82.83496061464436, 81.96480542517028, 113.060916555374, 82.3158022106051, 106.63549414769061, 64.57189629112418, 91.26701694220426, 64.41942312432397" fill="rgb(255,255,255)" fill-opacity="1.0" stroke="black"/></svg>