<svg height="200" width="200" version="1.1" xmlns="http://www.w3.org/2000/svg" id="example"><line stroke="black" x1="64.8443983761843" y1="72.2070565888071" x2="47.722474392100445" y2="65.1122356994938"/><line stroke="black" x1="47.722474392100445" y1="65.1122356994938" x2="62.150974168809455" y2="154.51752055596165"/><line stroke="black" x1="62.150974168809455" y1="154.51752055596165" x2="75.18428120671832" y2="165.39516096751265"/><line stroke="black" x1="75.18428120671832" y1="165.39516096751265" x2="64.8443983761843" y2="72.2070565888071"/><line stroke="black" x1="47.722474392100445" y1="65.1122356994938" x2="43.25968501138428" y2="57.15131044541519"/><line stroke="black" x1="43.25968501138428" y1="57.15131044541519" x2="57.70158954179341" y2="141.62740566171192"/><line stroke="black" x1="57.70158954179341" y1="141.62740566171192" x2="62.150974168809455" y2="154.51752055596165"/><line stroke="black" x1="43.25968501138428" y1="57.15131044541519" x2="48.99079974800545" y2="50.134110349787534"/><line stroke="black" x1="48.99079974800545" y1="50.134110349787534" x2="60.95324718796521" y2="129.6143406110716"/><line stroke="black" x1="60.95324718796521" y1="129.6143406110716" x2="57.70158954179341" y2="141.62740566171192"/><line stroke="black" x1="48.99079974800545" y1="50.134110349787534" x2="61.34806415993824" y2="44.865859272195564"/><line stroke="black" x1="61.34806415993824" y1="44.865859272195564" x2="69.8040073015226" y2="120.16280903195413"/><line stroke="black" x1="69.8040073015226" y1="120.16280903195413" x2="60.95324718796521" y2="129.6143406110716"/><line stroke="black" x1="61.34806415993824" y1="44.865859272195564" x2="77.42999844838556" y2="41.53833512830093"/><line stroke="black" x1="77.42999844838556" y1="41.53833512830093" x2="82.1356013454679" y2="113.99007812903493"/><line stroke="black" x1="82.1356013454679" y1="113.99007812903493" x2="69.8040073015226" y2="120.16280903195413"/><line stroke="black" x1="77.42999844838556" y1="41.53833512830093" x2="95.25070691039986" y2="40.11952156767552"/><line stroke="black" x1="95.25070691039986" y1="40.11952156767552" x2="96.21966841109924" y2="111.30841437637241"/><line stroke="black" x1="96.21966841109924" y1="111.30841437637241" x2="82.1356013454679" y2="113.99007812903493"/><line stroke="black" x1="95.25070691039986" y1="40.11952156767552" x2="113.40035061683355" y2="40.564529849565815"/><line stroke="black" x1="113.40035061683355" y1="40.564529849565815" x2="110.6475334439911" y2="112.15276557267995"/><line stroke="black" x1="110.6475334439911" y1="112.15276557267995" x2="96.21966841109924" y2="111.30841437637241"/><line stroke="black" x1="113.40035061683355" y1="40.564529849565815" x2="130.58959719570692" y2="42.8893106221372"/><line stroke="black" x1="130.58959719570692" y1="42.8893106221372" x2="124.08330223341177" y2="116.515697014237"/><line stroke="black" x1="124.08330223341177" y1="116.515697014237" x2="110.6475334439911" y2="112.15276557267995"/><line stroke="black" x1="130.58959719570692" y1="42.8893106221372" x2="145.1877521371368" y2="47.14873263548637"/><line stroke="black" x1="145.1877521371368" y1="47.14873263548637" x2="134.99011388532114" y2="124.30572147843087"/><line stroke="black" x1="134.99011388532114" y1="124.30572147843087" x2="124.08330223341177" y2="116.515697014237"/><line stroke="black" x1="145.1877521371368" y1="47.14873263548637" x2="154.79410488598396" y2="53.304913989375365"/><line stroke="black" x1="154.79410488598396" y1="53.304913989375365" x2="141.44138031003146" y2="135.12149671365722"/><line stroke="black" x1="141.44138031003146" y1="135.12149671365722" x2="134.99011388532114" y2="124.30572147843087"/><line stroke="black" x1="154.79410488598396" y1="53.304913989375365" x2="156.0878683758944" y2="60.93026302056782"/><line stroke="black" x1="156.0878683758944" y1="60.93026302056782" x2="141.23157624709683" y2="147.840186076037"/><line stroke="black" x1="141.23157624709683" y1="147.840186076037" x2="141.44138031003146" y2="135.12149671365722"/><line stroke="black" x1="156.0878683758944" y1="60.93026302056782" x2="145.68193861812398" y2="68.76748679998511"/><line stroke="black" x1="145.68193861812398" y1="68.76748679998511" x2="132.64212229481834" y2="160.19051052237788"/><line stroke="black" x1="132.64212229481834" y1="160.19051052237788" x2="141.23157624709683" y2="147.840186076037"/><line stroke="black" x1="145.68193861812398" y1="68.76748679998511" x2="122.82052220827933" y2="74.55193412746559"/><line stroke="black" x1="122.82052220827933" y1="74.55193412746559" x2="115.97645431156589" y2="168.87155158785086"/><line stroke="black" x1="115.97645431156589" y1="168.87155158785086" x2="132.64212229481834" y2="160.19051052237788"/><line stroke="black" x1="122.82052220827933" y1="74.55193412746559" x2="92.59173891522177" y2="75.91463251659107"/><line stroke="black" x1="92.59173891522177" y1="75.91463251659107" x2="94.83814811038155" y2="170.86573491216336"/><line stroke="black" x1="94.83814811038155" y1="170.86573491216336" x2="115.97645431156589" y2="168.87155158785086"/><line stroke="black" x1="92.59173891522177" y1="75.91463251659107" x2="64.8443983761843" y2="72.2070565888071"/><line stroke="black" x1="75.18428120671832" y1="165.39516096751265" x2="94.83814811038155" y2="170.86573491216336"/></svg>