<svg height="200" width="200" version="1.1" xmlns="http://www.w3.org/2000/svg" id="example"><polygon points="99.72533059169675, 38.31728580850461, 110.82034718609313, 38.70126110922595, 108.42740925203, 109.28407380126146, 99.7857869070507, 108.6507942790726" fill="rgb(255,255,255)" fill-opacity="1.0" stroke="black"/><polygon points="88.63717235861559, 38.74114970493224, 99.72533059169675, 38.31728580850461, 99.7857869070507, 108.6507942790726, 91.15131355198798, 109.34976354534416" fill="rgb(255,255,255)" fill-opacity="1.0" stroke="black"/><polygon points="81.9580725184781, 167.37180429004445, 71.75309913381199, 162.28255352690903, 64.1995817603098, 155.46732692289595, 59.683656234104035, 147.6965653901303, 58.192139384529206, 139.69476799680422, 59.435343906475204, 132.04793260448608, 62.98004861671303, 125.17593180511695, 68.3524547377979, 119.34887080910924, 75.09995077086201, 114.72288315324313, 82.81769463750457, 111.37804896489322, 91.15131355198798, 109.34976354534416, 99.7857869070507, 108.6507942790726, 108.42740925203, 109.28407380126146, 116.78299844769688, 111.2469766980807, 124.53904376864493, 114.52744782416161, 131.3434530175461, 119.09164645368486, 136.79395878940127, 124.86235967960822, 140.439924728537, 131.68806257214635, 141.80747814701425, 139.3051817041987, 140.4593153856762, 147.30186510559886, 136.0956913762716, 155.10012543838104, 128.68658618215403, 161.98070278411302, 118.59643352578905, 167.1722073375609, 106.63620436706474, 170.00293262003476, 93.98236085254979, 170.07286140398614" fill="rgb(255,255,255)" fill-opacity="1.0" stroke="black"/><polygon points="110.82034718609313, 38.70126110922595, 121.63855150206149, 39.898004427242114, 116.78299844769688, 111.2469766980807, 108.42740925203, 109.28407380126146" fill="rgb(255,255,255)" fill-opacity="1.0" stroke="black"/><polygon points="77.84043160466807, 39.978273040252645, 88.63717235861559, 38.74114970493224, 91.15131355198798, 109.34976354534416, 82.81769463750457, 111.37804896489322" fill="rgb(255,255,255)" fill-opacity="1.0" stroke="black"/><polygon points="121.63855150206149, 39.898004427242114, 131.86109588554348, 41.92053165993465, 124.53904376864493, 114.52744782416161, 116.78299844769688, 111.2469766980807" fill="rgb(255,255,255)" fill-opacity="1.0" stroke="black"/><polygon points="67.65662550798103, 42.04192300549062, 77.84043160466807, 39.978273040252645, 82.81769463750457, 111.37804896489322, 75.09995077086201, 114.72288315324313" fill="rgb(255,255,255)" fill-opacity="1.0" stroke="black"/><polygon points="131.86109588554348, 41.92053165993465, 141.09808080006843, 44.78232827388973, 131.3434530175461, 119.09164645368486, 124.53904376864493, 114.52744782416161" fill="rgb(255,255,255)" fill-opacity="1.0" stroke="black"/><polygon points="58.480059476046684, 44.94529537322265, 67.65662550798103, 42.04192300549062, 75.09995077086201, 114.72288315324313, 68.3524547377979, 119.34887080910924" fill="rgb(255,255,255)" fill-opacity="1.0" stroke="black"/><polygon points="141.09808080006843, 44.78232827388973, 148.85543330803483, 48.48262881727737, 136.79395878940127, 124.86235967960822, 131.3434530175461, 119.09164645368486" fill="rgb(255,255,255)" fill-opacity="1.0" stroke="black"/><polygon points="50.810665060863734, 48.68638245039895, 58.480059476046684, 44.94529537322265, 68.3524547377979, 119.34887080910924, 62.98004861671303, 125.17593180511695" fill="rgb(255,255,255)" fill-opacity="1.0" stroke="black"/><polygon points="148.85543330803483, 48.48262881727737, 154.5125837320313, 52.982153241349636, 140.439924728537, 131.68806257214635, 136.79395878940127, 124.86235967960822" fill="rgb(255,255,255)" fill-opacity="1.0" stroke="black"/><polygon points="45.275434552085, 53.22317879401436, 50.810665060863734, 48.68638245039895, 62.98004861671303, 125.17593180511695, 59.435343906475204, 132.04793260448608" fill="rgb(255,255,255)" fill-opacity="1.0" stroke="black"/><polygon points="154.5125837320313, 52.982153241349636, 157.3282253323665, 58.16762359480731, 141.80747814701425, 139.3051817041987, 140.439924728537, 131.68806257214635" fill="rgb(255,255,255)" fill-opacity="1.0" stroke="black"/><polygon points="42.62062330099786, 58.43765391367211, 45.275434552085, 53.22317879401436, 59.435343906475204, 132.04793260448608, 58.192139384529206, 139.69476799680422" fill="rgb(255,255,255)" fill-opacity="1.0" stroke="black"/><polygon points="157.3282253323665, 58.16762359480731, 156.5028645307265, 63.807541956492685, 140.4593153856762, 147.30186510559886, 141.80747814701425, 139.3051817041987" fill="rgb(255,255,255)" fill-opacity="1.0" stroke="black"/><polygon points="43.64549589832409, 64.09130989252407, 42.62062330099786, 58.43765391367211, 58.192139384529206, 139.69476799680422, 59.683656234104035, 147.6965653901303" fill="rgb(255,255,255)" fill-opacity="1.0" stroke="black"/><polygon points="91.13029963546882, 81.07042106393784, 109.77976983863252, 81.01447827437975, 127.21802145957612, 78.76578640846219, 141.46574584771338, 74.72070566167415, 151.33221836011504, 69.51155863505235, 156.5028645307265, 63.807541956492685, 157.3282253323665, 58.16762359480731, 154.5125837320313, 52.982153241349636, 148.85543330803483, 48.48262881727737, 141.09808080006843, 44.78232827388973, 131.86109588554348, 41.92053165993465, 121.63855150206149, 39.898004427242114, 110.82034718609313, 38.70126110922595, 99.72533059169675, 38.31728580850461, 88.63717235861559, 38.74114970493224, 77.84043160466807, 39.978273040252645, 67.65662550798103, 42.04192300549062, 58.480059476046684, 44.94529537322265, 50.810665060863734, 48.68638245039895, 45.275434552085, 53.22317879401436, 42.62062330099786, 58.43765391367211, 43.64549589832409, 64.09130989252407, 49.043745456026535, 69.78530284854622, 59.14036378703571, 74.95315215814429, 73.58081498722801, 78.92333471251258" fill="rgb(255,255,255)" fill-opacity="1.0" stroke="black"/><polygon points="156.5028645307265, 63.807541956492685, 151.33221836011504, 69.51155863505235, 136.0956913762716, 155.10012543838104, 140.4593153856762, 147.30186510559886" fill="rgb(255,255,255)" fill-opacity="1.0" stroke="black"/><polygon points="49.043745456026535, 69.78530284854622, 43.64549589832409, 64.09130989252407, 59.683656234104035, 147.6965653901303, 64.1995817603098, 155.46732692289595" fill="rgb(255,255,255)" fill-opacity="1.0" stroke="black"/><polygon points="151.33221836011504, 69.51155863505235, 141.46574584771338, 74.72070566167415, 128.68658618215403, 161.98070278411302, 136.0956913762716, 155.10012543838104" fill="rgb(255,255,255)" fill-opacity="1.0" stroke="black"/><polygon points="59.14036378703571, 74.95315215814429, 49.043745456026535, 69.78530284854622, 64.1995817603098, 155.46732692289595, 71.75309913381199, 162.28255352690903" fill="rgb(255,255,255)" fill-opacity="1.0" stroke="black"/><polygon points="141.46574584771338, 74.72070566167415, 127.21802145957612, 78.76578640846219, 118.59643352578905, 167.1722073375609, 128.68658618215403, 161.98070278411302" fill="rgb(255,255,255)" fill-opacity="1.0" stroke="black"/><polygon points="73.58081498722801, 78.92333471251258, 59.14036378703571, 74.95315215814429, 71.75309913381199, 162.28255352690903, 81.9580725184781, 167.37180429004445" fill="rgb(255,255,255)" fill-opacity="1.0" stroke="black"/><polygon points="127.21802145957612, 78.76578640846219, 109.77976983863252, 81.01447827437975, 106.63620436706474, 170.00293262003476, 118.59643352578905, 167.1722073375609" fill="rgb(255,255,255)" fill-opacity="1.0" stroke="black"/><polygon points="91.13029963546882, 81.07042106393784, 73.58081498722801, 78.92333471251258, 81.9580725184781, 167.37180429004445, 93.98236085254979, 170.07286140398614" fill="rgb(255,255,255)" fill-opacity="1.0" stroke="black"/><polygon points="109.77976983863252, 81.01447827437975, 91.13029963546882, 81.07042106393784, 93.98236085254979, 170.07286140398614, 106.63620436706474, 170.00293262003476" fill="rgb(255,255,255)" fill-opacity="1.0" stroke="black"/></svg>