<svg height="200" width="200" version="1.1" xmlns="http://www.w3.org/2000/svg" id="example"><polygon points="111.15804004791734, 59.08512767120476, 109.32613130916732, 65.80246439361153, 45.233602953704946, 92.0617386607989, 32.24624164441771, 90.17925097236102" fill="rgb(255,255,255)" fill-opacity="1.0" stroke="black"/><polygon points="175.52291716922508, 110.94687045199194, 168.04108517600645, 115.72133901959526, 109.32613130916732, 65.80246439361153, 111.15804004791734, 59.08512767120476" fill="rgb(255,255,255)" fill-opacity="1.0" stroke="black"/><polygon points="111.15804004791734, 59.08512767120476, 32.24624164441771, 90.17925097236102, 15.449552101400654, 46.021818774385764, 113.35575754193552, 17.877686581816533" fill="rgb(255,255,255)" fill-opacity="1.0" stroke="black"/><polygon points="175.52291716922508, 110.94687045199194, 111.15804004791734, 59.08512767120476, 113.35575754193552, 17.877686581816533, 197.00315008737346, 66.19260068750648" fill="rgb(255,255,255)" fill-opacity="1.0" stroke="black"/><polygon points="109.32613130916732, 65.80246439361153, 111.26235847193145, 23.761406127040686, 31.480021915892088, 47.802819614798494, 45.233602953704946, 92.0617386607989" fill="rgb(255,255,255)" fill-opacity="1.0" stroke="black"/><polygon points="168.04108517600645, 115.72133901959526, 187.98517356299044, 70.9978596402785, 111.26235847193145, 23.761406127040686, 109.32613130916732, 65.80246439361153" fill="rgb(255,255,255)" fill-opacity="1.0" stroke="black"/><polygon points="113.35575754193552, 17.877686581816533, 15.449552101400654, 46.021818774385764, 31.480021915892088, 47.802819614798494, 111.26235847193145, 23.761406127040686" fill="rgb(255,255,255)" fill-opacity="1.0" stroke="black"/><polygon points="197.00315008737346, 66.19260068750648, 113.35575754193552, 17.877686581816533, 111.26235847193145, 23.761406127040686, 187.98517356299044, 70.9978596402785" fill="rgb(255,255,255)" fill-opacity="1.0" stroke="black"/><polygon points="51.93412167683383, 123.41885789399167, 57.71231935758207, 111.05000962600178, 102.69333106602106, 90.12395579938809, 100, 99.99999999999997" fill="rgb(255,255,255)" fill-opacity="1.0" stroke="black"/><polygon points="100, 99.99999999999997, 102.69333106602106, 90.12395579938809, 143.3100753431085, 131.50322628988977, 134.20506679416965, 137.31351141311484" fill="rgb(255,255,255)" fill-opacity="1.0" stroke="black"/><polygon points="57.71231935758207, 111.05000962600178, 45.67696090766968, 66.29572173975461, 103.36077464599941, 45.96964337192145, 102.69333106602106, 90.12395579938809" fill="rgb(255,255,255)" fill-opacity="1.0" stroke="black"/><polygon points="102.69333106602106, 90.12395579938809, 103.36077464599941, 45.96964337192145, 157.28743624666822, 87.35525164171682, 143.3100753431085, 131.50322628988977" fill="rgb(255,255,255)" fill-opacity="1.0" stroke="black"/><polygon points="32.24624164441771, 90.17925097236102, 45.233602953704946, 92.0617386607989, 57.71231935758207, 111.05000962600178, 51.93412167683383, 123.41885789399167" fill="rgb(255,255,255)" fill-opacity="1.0" stroke="black"/><polygon points="45.233602953704946, 92.0617386607989, 31.480021915892088, 47.802819614798494, 45.67696090766968, 66.29572173975461, 57.71231935758207, 111.05000962600178" fill="rgb(255,255,255)" fill-opacity="1.0" stroke="black"/><polygon points="32.24624164441771, 90.17925097236102, 51.93412167683383, 123.41885789399167, 37.15902249462154, 78.88358211465412, 15.449552101400654, 46.021818774385764" fill="rgb(255,255,255)" fill-opacity="1.0" stroke="black"/><polygon points="51.93412167683383, 123.41885789399167, 100, 99.99999999999997, 100, 55.4154560481075, 37.15902249462154, 78.88358211465412" fill="rgb(255,255,255)" fill-opacity="1.0" stroke="black"/><polygon points="100, 99.99999999999997, 134.20506679416965, 137.31351141311484, 145.62864045335638, 93.56767997448914, 100, 55.4154560481075" fill="rgb(255,255,255)" fill-opacity="1.0" stroke="black"/><polygon points="175.52291716922508, 110.94687045199194, 197.00315008737346, 66.19260068750648, 187.98517356299044, 70.9978596402785, 168.04108517600645, 115.72133901959526" fill="rgb(255,255,255)" fill-opacity="1.0" stroke="black"/><polygon points="134.20506679416965, 137.31351141311484, 143.3100753431085, 131.50322628988977, 157.28743624666822, 87.35525164171682, 145.62864045335638, 93.56767997448914" fill="rgb(255,255,255)" fill-opacity="1.0" stroke="black"/><polygon points="37.15902249462154, 78.88358211465412, 100, 55.4154560481075, 103.36077464599941, 45.96964337192145, 45.67696090766968, 66.29572173975461" fill="rgb(255,255,255)" fill-opacity="1.0" stroke="black"/><polygon points="100, 55.4154560481075, 145.62864045335638, 93.56767997448914, 157.28743624666822, 87.35525164171682, 103.36077464599941, 45.96964337192145" fill="rgb(255,255,255)" fill-opacity="1.0" stroke="black"/><polygon points="15.449552101400654, 46.021818774385764, 37.15902249462154, 78.88358211465412, 45.67696090766968, 66.29572173975461, 31.480021915892088, 47.802819614798494" fill="rgb(255,255,255)" fill-opacity="1.0" stroke="black"/></svg>