<svg height="200" width="200" version="1.1" xmlns="http://www.w3.org/2000/svg" id="example"><polygon points="99.27828699864267, 68.4219628927797, 110.01931017238711, 68.72941657896138, 109.72711189814484, 78.95492749797897, 99.29924408215564, 78.61238465539455" fill="rgb(255,255,255)" fill-opacity="1.0" stroke="black"/><polygon points="88.54293023858996, 68.8249704662797, 99.27828699864267, 68.4219628927797, 99.29924408215564, 78.61238465539455, 88.87750556647663, 79.06136874337308" fill="rgb(255,255,255)" fill-opacity="1.0" stroke="black"/><polygon points="100, 106.2543423124425, 141.6780181371736, 156.6764862378754, 122.64695330556413, 161.623037378018, 101.4516718177467, 163.5168639643238, 80.11358617510838, 162.06612548738235, 60.688920916945044, 157.49546173180246, 44.784852074352486, 150.46689463574995, 33.281644118927, 141.86777419650082, 26.335733202801347, 132.58089911317052, 23.57668212863984, 123.32896705658173, 24.356435084821793, 114.617244403903, 27.952247243467166, 106.7480364199851, 33.69114884687925, 99.86815569191667, 41.00632626068226, 94.02110709499266, 49.4493306266489, 89.19041109848705, 58.67936981745112, 85.3306669441671, 68.44361599712752, 82.38779650596388, 78.5559767111348, 80.31132301981107, 88.87750556647663, 79.06136874337308, 99.29924408215564, 78.61238465539455, 109.72711189814484, 78.95492749797897, 120.06795038114898, 80.09621422316155, 130.21564059648327, 82.05970295997065, 140.03620676101303, 84.8835110988986, 149.3509714624763, 88.61700999560816, 157.9172820661002, 93.3143668569949" fill="rgb(255,255,255)" fill-opacity="1.0" stroke="black"/><polygon points="110.01931017238711, 68.72941657896138, 120.67969250630577, 69.75436704217972, 120.06795038114898, 80.09621422316155, 109.72711189814484, 78.95492749797897" fill="rgb(255,255,255)" fill-opacity="1.0" stroke="black"/><polygon points="77.90049169453597, 69.94764784122228, 88.54293023858996, 68.8249704662797, 88.87750556647663, 79.06136874337308, 78.5559767111348, 80.31132301981107" fill="rgb(255,255,255)" fill-opacity="1.0" stroke="black"/><polygon points="120.67969250630577, 69.75436704217972, 131.15982621881824, 71.51977807301853, 130.21564059648327, 82.05970295997065, 120.06795038114898, 80.09621422316155" fill="rgb(255,255,255)" fill-opacity="1.0" stroke="black"/><polygon points="67.45349874042728, 71.81502890306461, 77.90049169453597, 69.94764784122228, 78.5559767111348, 80.31132301981107, 68.44361599712752, 82.38779650596388" fill="rgb(255,255,255)" fill-opacity="1.0" stroke="black"/><polygon points="131.15982621881824, 71.51977807301853, 141.33137795204192, 74.06331771107995, 140.03620676101303, 84.8835110988986, 130.21564059648327, 82.05970295997065" fill="rgb(255,255,255)" fill-opacity="1.0" stroke="black"/><polygon points="57.33542958819522, 74.46659099941925, 67.45349874042728, 71.81502890306461, 68.44361599712752, 82.38779650596388, 58.67936981745112, 85.3306669441671" fill="rgb(255,255,255)" fill-opacity="1.0" stroke="black"/><polygon points="141.33137795204192, 74.06331771107995, 151.01954282405265, 77.4346145041124, 149.3509714624763, 88.61700999560816, 140.03620676101303, 84.8835110988986" fill="rgb(255,255,255)" fill-opacity="1.0" stroke="black"/><polygon points="47.728841208766326, 77.95323268826235, 57.33542958819522, 74.46659099941925, 58.67936981745112, 85.3306669441671, 49.4493306266489, 89.19041109848705" fill="rgb(255,255,255)" fill-opacity="1.0" stroke="black"/><polygon points="151.01954282405265, 77.4346145041124, 159.98223530934018, 81.68983458860947, 157.9172820661002, 93.3143668569949, 149.3509714624763, 88.61700999560816" fill="rgb(255,255,255)" fill-opacity="1.0" stroke="black"/><polygon points="38.88660242499099, 82.33136673129489, 47.728841208766326, 77.95323268826235, 49.4493306266489, 89.19041109848705, 41.00632626068226, 94.02110709499266" fill="rgb(255,255,255)" fill-opacity="1.0" stroke="black"/><polygon points="159.98223530934018, 81.68983458860947, 100, 93.49069856232055, 100, 106.2543423124425, 157.9172820661002, 93.3143668569949" fill="rgb(255,255,255)" fill-opacity="1.0" stroke="black"/><polygon points="31.15575521597338, 87.65216715309533, 38.88660242499099, 82.33136673129489, 41.00632626068226, 94.02110709499266, 33.69114884687925, 99.86815569191667" fill="rgb(255,255,255)" fill-opacity="1.0" stroke="black"/><polygon points="25.001087720426163, 93.94323999560964, 31.15575521597338, 87.65216715309533, 33.69114884687925, 99.86815569191667, 27.952247243467166, 106.7480364199851" fill="rgb(255,255,255)" fill-opacity="1.0" stroke="black"/><polygon points="100, 93.49069856232055, 144.22763338504882, 140.60728602961055, 141.6780181371736, 156.6764862378754, 100, 106.2543423124425" fill="rgb(255,255,255)" fill-opacity="1.0" stroke="black"/><polygon points="21.020883373175504, 101.17958019107417, 25.001087720426163, 93.94323999560964, 27.952247243467166, 106.7480364199851, 24.356435084821793, 114.617244403903" fill="rgb(255,255,255)" fill-opacity="1.0" stroke="black"/><polygon points="19.939863722316666, 109.24167504822783, 21.020883373175504, 101.17958019107417, 24.356435084821793, 114.617244403903, 23.57668212863984, 123.32896705658173" fill="rgb(255,255,255)" fill-opacity="1.0" stroke="black"/><polygon points="159.98223530934018, 81.68983458860947, 151.01954282405265, 77.4346145041124, 141.33137795204192, 74.06331771107995, 131.15982621881824, 71.51977807301853, 120.67969250630577, 69.75436704217972, 110.01931017238711, 68.72941657896138, 99.27828699864267, 68.4219628927797, 88.54293023858996, 68.8249704662797, 77.90049169453597, 69.94764784122228, 67.45349874042728, 71.81502890306461, 57.33542958819522, 74.46659099941925, 47.728841208766326, 77.95323268826235, 38.88660242499099, 82.33136673129489, 31.15575521597338, 87.65216715309533, 25.001087720426163, 93.94323999560964, 21.020883373175504, 101.17958019107417, 19.939863722316666, 109.24167504822783, 22.555121357828746, 117.86295696621345, 29.605625900139977, 126.57883603040561, 41.548273668835165, 134.70524907572266, 58.27081003284044, 141.38782695652912, 78.85272646107143, 145.75313921612943, 101.54458556107235, 147.14195200634427, 124.07868173501551, 145.32927761921022, 144.22763338504882, 140.60728602961055, 100, 93.49069856232055" fill="rgb(255,255,255)" fill-opacity="1.0" stroke="black"/><polygon points="22.555121357828746, 117.86295696621345, 19.939863722316666, 109.24167504822783, 23.57668212863984, 123.32896705658173, 26.335733202801347, 132.58089911317052" fill="rgb(255,255,255)" fill-opacity="1.0" stroke="black"/><polygon points="29.605625900139977, 126.57883603040561, 22.555121357828746, 117.86295696621345, 26.335733202801347, 132.58089911317052, 33.281644118927, 141.86777419650082" fill="rgb(255,255,255)" fill-opacity="1.0" stroke="black"/><polygon points="41.548273668835165, 134.70524907572266, 29.605625900139977, 126.57883603040561, 33.281644118927, 141.86777419650082, 44.784852074352486, 150.46689463574995" fill="rgb(255,255,255)" fill-opacity="1.0" stroke="black"/><polygon points="58.27081003284044, 141.38782695652912, 41.548273668835165, 134.70524907572266, 44.784852074352486, 150.46689463574995, 60.688920916945044, 157.49546173180246" fill="rgb(255,255,255)" fill-opacity="1.0" stroke="black"/><polygon points="144.22763338504882, 140.60728602961055, 124.07868173501551, 145.32927761921022, 122.64695330556413, 161.623037378018, 141.6780181371736, 156.6764862378754" fill="rgb(255,255,255)" fill-opacity="1.0" stroke="black"/><polygon points="78.85272646107143, 145.75313921612943, 58.27081003284044, 141.38782695652912, 60.688920916945044, 157.49546173180246, 80.11358617510838, 162.06612548738235" fill="rgb(255,255,255)" fill-opacity="1.0" stroke="black"/><polygon points="124.07868173501551, 145.32927761921022, 101.54458556107235, 147.14195200634427, 101.4516718177467, 163.5168639643238, 122.64695330556413, 161.623037378018" fill="rgb(255,255,255)" fill-opacity="1.0" stroke="black"/><polygon points="101.54458556107235, 147.14195200634427, 78.85272646107143, 145.75313921612943, 80.11358617510838, 162.06612548738235, 101.4516718177467, 163.5168639643238" fill="rgb(255,255,255)" fill-opacity="1.0" stroke="black"/></svg>