<svg height="200" width="200" version="1.1" xmlns="http://www.w3.org/2000/svg" id="example"><line stroke="black" x1="99.99999999999999" y1="93.10745468012513" x2="162.42673491720757" y2="140.6554291748291"/><line stroke="black" x1="162.42673491720757" y1="140.6554291748291" x2="158.51874487340436" y2="157.30953281338472"/><line stroke="black" x1="158.51874487340436" y1="157.30953281338472" x2="99.99999999999999" y2="106.59606581311293"/><line stroke="black" x1="99.99999999999999" y1="106.59606581311293" x2="99.99999999999999" y2="93.10745468012513"/><line stroke="black" x1="162.42673491720757" y1="140.6554291748291" x2="143.7059978061604" y2="148.2004887641042"/><line stroke="black" x1="143.7059978061604" y1="148.2004887641042" x2="140.8373181600382" y2="165.1666780154419"/><line stroke="black" x1="140.8373181600382" y1="165.1666780154419" x2="158.51874487340436" y2="157.30953281338472"/><line stroke="black" x1="143.7059978061604" y1="148.2004887641042" x2="120.69291156691652" y2="152.97250591791862"/><line stroke="black" x1="120.69291156691652" y1="152.97250591791862" x2="119.29520865536749" y2="170.10987135240646"/><line stroke="black" x1="119.29520865536749" y1="170.10987135240646" x2="140.8373181600382" y2="165.1666780154419"/><line stroke="black" x1="120.69291156691652" y1="152.97250591791862" x2="95.48651119364008" y2="154.19518531390156"/><line stroke="black" x1="95.48651119364008" y1="154.19518531390156" x2="95.7935770200859" y2="171.37315999578342"/><line stroke="black" x1="95.7935770200859" y1="171.37315999578342" x2="119.29520865536749" y2="170.10987135240646"/><line stroke="black" x1="95.48651119364008" y1="154.19518531390156" x2="70.76768677413892" y2="151.65591057586047"/><line stroke="black" x1="70.76768677413892" y1="151.65591057586047" x2="72.7268086278853" y2="168.74806762909944"/><line stroke="black" x1="72.7268086278853" y1="168.74806762909944" x2="95.7935770200859" y2="171.37315999578342"/><line stroke="black" x1="70.76768677413892" y1="151.65591057586047" x2="49.08381716029816" y2="145.78993353416823"/><line stroke="black" x1="49.08381716029816" y1="145.78993353416823" x2="52.37648786049294" y2="162.66195104212858"/><line stroke="black" x1="52.37648786049294" y1="162.66195104212858" x2="72.7268086278853" y2="168.74806762909944"/><line stroke="black" x1="49.08381716029816" y1="145.78993353416823" x2="32.20490421446618" y2="137.51137744565835"/><line stroke="black" x1="32.20490421446618" y1="137.51137744565835" x2="36.362836147384215" y2="154.0203489484764"/><line stroke="black" x1="36.362836147384215" y1="154.0203489484764" x2="52.37648786049294" y2="162.66195104212858"/><line stroke="black" x1="32.20490421446618" y1="137.51137744565835" x2="20.862613880924428" y2="127.9032640526607"/><line stroke="black" x1="20.862613880924428" y1="127.9032640526607" x2="25.407257667521844" y2="143.91323694188657"/><line stroke="black" x1="25.407257667521844" y1="143.91323694188657" x2="36.362836147384215" y2="154.0203489484764"/><line stroke="black" x1="20.862613880924428" y1="127.9032640526607" x2="14.89316263087982" y2="117.94028534599249"/><line stroke="black" x1="14.89316263087982" y1="117.94028534599249" x2="19.433191602980358" y2="133.34366665713912"/><line stroke="black" x1="19.433191602980358" y1="133.34366665713912" x2="25.407257667521844" y2="143.91323694188657"/><line stroke="black" x1="14.89316263087982" y1="117.94028534599249" x2="13.583431897696585" y2="108.34322929264893"/><line stroke="black" x1="13.583431897696585" y1="108.34322929264893" x2="17.850613023602037" y2="123.07536544299151"/><line stroke="black" x1="17.850613023602037" y1="123.07536544299151" x2="19.433191602980358" y2="133.34366665713912"/><line stroke="black" x1="13.583431897696585" y1="108.34322929264893" x2="16.009718664111638" y2="99.55954524102606"/><line stroke="black" x1="16.009718664111638" y1="99.55954524102606" x2="19.849773360398082" y2="113.60162928353066"/><line stroke="black" x1="19.849773360398082" y1="113.60162928353066" x2="17.850613023602037" y2="123.07536544299151"/><line stroke="black" x1="16.009718664111638" y1="99.55954524102606" x2="21.266553617537042" y2="91.81462648368748"/><line stroke="black" x1="21.266553617537042" y1="91.81462648368748" x2="24.610403866364237" y2="105.1875560261911"/><line stroke="black" x1="24.610403866364237" y1="105.1875560261911" x2="19.849773360398082" y2="113.60162928353066"/><line stroke="black" x1="21.266553617537042" y1="91.81462648368748" x2="28.579738001035626" y2="85.18258093558613"/><line stroke="black" x1="28.579738001035626" y1="85.18258093558613" x2="31.412988350700843" y2="97.93682748664037"/><line stroke="black" x1="31.412988350700843" y1="97.93682748664037" x2="24.610403866364237" y2="105.1875560261911"/><line stroke="black" x1="28.579738001035626" y1="85.18258093558613" x2="37.339046316437795" y2="79.64854707933384"/><line stroke="black" x1="37.339046316437795" y1="79.64854707933384" x2="39.67760276427168" y2="91.85400147361398"/><line stroke="black" x1="39.67760276427168" y1="91.85400147361398" x2="31.412988350700843" y2="97.93682748664037"/><line stroke="black" x1="37.339046316437795" y1="79.64854707933384" x2="47.08819968215096" y2="75.15380883682599"/><line stroke="black" x1="47.08819968215096" y1="75.15380883682599" x2="48.961499344631285" y2="86.89158836908291"/><line stroke="black" x1="48.961499344631285" y1="86.89158836908291" x2="39.67760276427168" y2="91.85400147361398"/><line stroke="black" x1="47.08819968215096" y1="75.15380883682599" x2="57.49789188303646" y2="71.62477733714022"/><line stroke="black" x1="57.49789188303646" y1="71.62477733714022" x2="58.93845944190146" y2="82.98149416639266"/><line stroke="black" x1="58.93845944190146" y1="82.98149416639266" x2="48.961499344631285" y2="86.89158836908291"/><line stroke="black" x1="57.49789188303646" y1="71.62477733714022" x2="68.33574269384842" y2="68.99004247230747"/><line stroke="black" x1="68.33574269384842" y1="68.99004247230747" x2="69.37317347538232" y2="80.0542703655322"/><line stroke="black" x1="69.37317347538232" y1="80.0542703655322" x2="58.93845944190146" y2="82.98149416639266"/><line stroke="black" x1="68.33574269384842" y1="68.99004247230747" x2="79.43909434812977" y2="67.18966918762425"/><line stroke="black" x1="79.43909434812977" y1="67.18966918762425" x2="80.09682546771013" y2="78.0500894941641"/><line stroke="black" x1="80.09682546771013" y1="78.0500894941641" x2="69.37317347538232" y2="80.0542703655322"/><line stroke="black" x1="79.43909434812977" y1="67.18966918762425" x2="90.69223648614816" y2="66.17988879052484"/><line stroke="black" x1="90.69223648614816" y1="66.17988879052484" x2="90.98594028248642" y2="76.92459419322546"/><line stroke="black" x1="90.98594028248642" y1="76.92459419322546" x2="80.09682546771013" y2="78.0500894941641"/><line stroke="black" x1="90.69223648614816" y1="66.17988879052484" x2="102.0076272919683" y2="65.93526028980051"/><line stroke="black" x1="102.0076272919683" y1="65.93526028980051" x2="101.94448872856734" y2="76.65178058331077"/><line stroke="black" x1="101.94448872856734" y1="76.65178058331077" x2="90.98594028248642" y2="76.92459419322546"/><line stroke="black" x1="102.0076272919683" y1="65.93526028980051" x2="113.30987777749466" y2="66.44953041623012"/><line stroke="black" x1="113.30987777749466" y1="66.44953041623012" x2="112.88834295481591" y2="77.22523407568806"/><line stroke="black" x1="112.88834295481591" y1="77.22523407568806" x2="101.94448872856734" y2="76.65178058331077"/><line stroke="black" x1="113.30987777749466" y1="66.44953041623012" x2="124.52100914096569" y2="67.73580516712187"/><line stroke="black" x1="124.52100914096569" y1="67.73580516712187" x2="123.73083572703511" y2="78.65838855060316"/><line stroke="black" x1="123.73083572703511" y1="78.65838855060316" x2="112.88834295481591" y2="77.22523407568806"/><line stroke="black" x1="124.52100914096569" y1="67.73580516712187" x2="135.5454348180854" y2="69.82617269296219"/><line stroke="black" x1="135.5454348180854" y1="69.82617269296219" x2="134.36807995487615" y2="80.98396345145113"/><line stroke="black" x1="134.36807995487615" y1="80.98396345145113" x2="123.73083572703511" y2="78.65838855060316"/><line stroke="black" x1="135.5454348180854" y1="69.82617269296219" x2="146.25312859764702" y2="72.77047964855616"/><line stroke="black" x1="146.25312859764702" y1="72.77047964855616" x2="144.66272303835575" y2="84.2522502275337"/><line stroke="black" x1="144.66272303835575" y1="84.2522502275337" x2="134.36807995487615" y2="80.98396345145113"/><line stroke="black" x1="146.25312859764702" y1="72.77047964855616" x2="156.45954481769155" y2="76.63345142408869"/><line stroke="black" x1="156.45954481769155" y1="76.63345142408869" x2="154.4249703681777" y2="88.52736714774548"/><line stroke="black" x1="154.4249703681777" y1="88.52736714774548" x2="144.66272303835575" y2="84.2522502275337"/><line stroke="black" x1="156.45954481769155" y1="76.63345142408869" x2="99.99999999999999" y2="93.10745468012513"/><line stroke="black" x1="99.99999999999999" y1="106.59606581311293" x2="154.4249703681777" y2="88.52736714774548"/></svg>