<svg height="200" width="200" version="1.1" xmlns="http://www.w3.org/2000/svg" id="example"><polygon points="102.80926814792059, 95.89363338825339, 96.28697352458964, 96.00628325697949, 90.20155430790223, 67.53601157450493, 107.40770216334658, 67.27471789973441" fill="rgb(255,255,255)" fill-opacity="1.0" stroke="black"/><polygon points="109.1118780414825, 97.38397098970981, 102.80926814792059, 95.89363338825339, 107.40770216334658, 67.27471789973441, 124.27741021033319, 70.76490074864427" fill="rgb(255,255,255)" fill-opacity="1.0" stroke="black"/><polygon points="107.40770216334658, 67.27471789973441, 90.20155430790223, 67.53601157450493, 88.27761548383253, 34.93187294357199, 108.8600305390144, 34.66831919820942" fill="rgb(255,255,255)" fill-opacity="1.0" stroke="black"/><polygon points="124.27741021033319, 70.76490074864427, 107.40770216334658, 67.27471789973441, 108.8600305390144, 34.66831919820942, 129.13307802625258, 38.19944929114672" fill="rgb(255,255,255)" fill-opacity="1.0" stroke="black"/><polygon points="96.28697352458964, 96.00628325697949, 90.05546583458728, 97.71533112478055, 73.44252825729926, 71.55081605310488, 90.20155430790223, 67.53601157450493" fill="rgb(255,255,255)" fill-opacity="1.0" stroke="black"/><polygon points="90.20155430790223, 67.53601157450493, 73.44252825729926, 71.55081605310488, 68.10710655617942, 38.99780561855346, 88.27761548383253, 34.93187294357199" fill="rgb(255,255,255)" fill-opacity="1.0" stroke="black"/><polygon points="114.68798511447929, 100.38810731455538, 109.1118780414825, 97.38397098970981, 124.27741021033319, 70.76490074864427, 139.9742542675593, 78.02614402087525" fill="rgb(255,255,255)" fill-opacity="1.0" stroke="black"/><polygon points="139.9742542675593, 78.02614402087525, 124.27741021033319, 70.76490074864427, 129.13307802625258, 38.19944929114672, 148.30137512091227, 45.62115865777946" fill="rgb(255,255,255)" fill-opacity="1.0" stroke="black"/><polygon points="90.05546583458728, 97.71533112478055, 84.62025131369334, 100.91775358637537, 57.984060024242254, 79.3387901338071, 73.44252825729926, 71.55081605310488" fill="rgb(255,255,255)" fill-opacity="1.0" stroke="black"/><polygon points="73.44252825729926, 71.55081605310488, 57.984060024242254, 79.3387901338071, 49.168039656505705, 46.97378976969455, 68.10710655617942, 38.99780561855346" fill="rgb(255,255,255)" fill-opacity="1.0" stroke="black"/><polygon points="119.04714823132045, 104.71288032040992, 114.68798511447929, 100.38810731455538, 139.9742542675593, 78.02614402087525, 153.49095220228054, 89.0443421362163" fill="rgb(255,255,255)" fill-opacity="1.0" stroke="black"/><polygon points="153.49095220228054, 89.0443421362163, 139.9742542675593, 78.02614402087525, 148.30137512091227, 45.62115865777946, 165.31967992466386, 57.08112222563736" fill="rgb(255,255,255)" fill-opacity="1.0" stroke="black"/><polygon points="84.62025131369334, 100.91775358637537, 80.46783341341445, 105.40487787615699, 44.86564269975513, 90.87288678707624, 57.984060024242254, 79.3387901338071" fill="rgb(255,255,255)" fill-opacity="1.0" stroke="black"/><polygon points="57.984060024242254, 79.3387901338071, 44.86564269975513, 90.87288678707624, 32.554716525510685, 59.00655505815746, 49.168039656505705, 46.97378976969455" fill="rgb(255,255,255)" fill-opacity="1.0" stroke="black"/><polygon points="121.74106409106196, 110.04807706898926, 119.04714823132045, 104.71288032040992, 153.49095220228054, 89.0443421362163, 163.55653117661393, 103.64454674304251" fill="rgb(255,255,255)" fill-opacity="1.0" stroke="black"/><polygon points="163.55653117661393, 103.64454674304251, 153.49095220228054, 89.0443421362163, 165.31967992466386, 57.08112222563736, 178.71807653667227, 72.64675445233648" fill="rgb(255,255,255)" fill-opacity="1.0" stroke="black"/><polygon points="80.46783341341445, 105.40487787615699, 78.03753516960313, 110.84919806711949, 35.39903009023618, 105.94077051950578, 44.86564269975513, 90.87288678707624" fill="rgb(255,255,255)" fill-opacity="1.0" stroke="black"/><polygon points="44.86564269975513, 90.87288678707624, 35.39903009023618, 105.94077051950578, 19.808447148319086, 75.13531320455718, 32.554716525510685, 59.00655505815746" fill="rgb(255,255,255)" fill-opacity="1.0" stroke="black"/><polygon points="103.09815933591666, 81.73404142723003, 95.90494368196377, 81.85084145489876, 96.28697352458964, 96.00628325697949, 102.80926814792059, 95.89363338825339" fill="rgb(255,255,255)" fill-opacity="1.0" stroke="black"/><polygon points="110.05541615087469, 83.28021139100514, 103.09815933591666, 81.73404142723003, 102.80926814792059, 95.89363338825339, 109.1118780414825, 97.38397098970981" fill="rgb(255,255,255)" fill-opacity="1.0" stroke="black"/><polygon points="95.90494368196377, 81.85084145489876, 89.02412305218365, 83.62425782671221, 90.05546583458728, 97.71533112478055, 96.28697352458964, 96.00628325697949" fill="rgb(255,255,255)" fill-opacity="1.0" stroke="black"/><polygon points="116.23015081699104, 86.40299569269357, 110.05541615087469, 83.28021139100514, 109.1118780414825, 97.38397098970981, 114.68798511447929, 100.38810731455538" fill="rgb(255,255,255)" fill-opacity="1.0" stroke="black"/><polygon points="89.02412305218365, 83.62425782671221, 83.00153046058867, 86.95440831375262, 84.62025131369334, 100.91775358637537, 90.05546583458728, 97.71533112478055" fill="rgb(255,255,255)" fill-opacity="1.0" stroke="black"/><polygon points="121.08674557146699, 90.91296009686044, 116.23015081699104, 86.40299569269357, 114.68798511447929, 100.38810731455538, 119.04714823132045, 104.71288032040992" fill="rgb(255,255,255)" fill-opacity="1.0" stroke="black"/><polygon points="83.00153046058867, 86.95440831375262, 78.36976447964364, 91.63617081498133, 80.46783341341445, 105.40487787615699, 84.62025131369334, 100.91775358637537" fill="rgb(255,255,255)" fill-opacity="1.0" stroke="black"/><polygon points="105.75900952494166, 66.04634623427211, 92.38447298508326, 66.24822799396662, 95.90494368196377, 81.85084145489876, 103.09815933591666, 81.73404142723003" fill="rgb(255,255,255)" fill-opacity="1.0" stroke="black"/><polygon points="118.80383269515853, 68.7336552774488, 105.75900952494166, 66.04634623427211, 103.09815933591666, 81.73404142723003, 110.05541615087469, 83.28021139100514" fill="rgb(255,255,255)" fill-opacity="1.0" stroke="black"/><polygon points="106.36760894722693, 48.341132781512584, 91.57881125725044, 48.545240324684215, 92.38447298508326, 66.24822799396662, 105.75900952494166, 66.04634623427211" fill="rgb(255,255,255)" fill-opacity="1.0" stroke="black"/><polygon points="120.819599311774, 51.06152884346804, 106.36760894722693, 48.341132781512584, 105.75900952494166, 66.04634623427211, 118.80383269515853, 68.7336552774488" fill="rgb(255,255,255)" fill-opacity="1.0" stroke="black"/><polygon points="92.38447298508326, 66.24822799396662, 79.44740172557806, 69.3360219020993, 89.02412305218365, 83.62425782671221, 95.90494368196377, 81.85084145489876" fill="rgb(255,255,255)" fill-opacity="1.0" stroke="black"/><polygon points="91.57881125725044, 48.545240324684215, 77.23714438539282, 51.67233984044745, 79.44740172557806, 69.3360219020993, 92.38447298508326, 66.24822799396662" fill="rgb(255,255,255)" fill-opacity="1.0" stroke="black"/><polygon points="122.40869806922103, 115.95708442220491, 121.74106409106196, 110.04807706898926, 163.55653117661393, 103.64454674304251, 168.62032152038333, 121.27683953898078" fill="rgb(255,255,255)" fill-opacity="1.0" stroke="black"/><polygon points="168.62032152038333, 121.27683953898078, 163.55653117661393, 103.64454674304251, 178.71807653667227, 72.64675445233648, 186.47945508302502, 92.04726185972459" fill="rgb(255,255,255)" fill-opacity="1.0" stroke="black"/><polygon points="124.1253265807562, 96.50013554457013, 121.08674557146699, 90.91296009686044, 119.04714823132045, 104.71288032040992, 121.74106409106196, 110.04807706898926" fill="rgb(255,255,255)" fill-opacity="1.0" stroke="black"/><polygon points="130.72364382688644, 74.26089737792275, 118.80383269515853, 68.7336552774488, 110.05541615087469, 83.28021139100514, 116.23015081699104, 86.40299569269357" fill="rgb(255,255,255)" fill-opacity="1.0" stroke="black"/><polygon points="134.11379463483377, 56.680434406574875, 120.819599311774, 51.06152884346804, 118.80383269515853, 68.7336552774488, 130.72364382688644, 74.26089737792275" fill="rgb(255,255,255)" fill-opacity="1.0" stroke="black"/><polygon points="78.36976447964364, 91.63617081498133, 75.62044529401682, 97.3413468063649, 78.03753516960313, 110.84919806711949, 80.46783341341445, 105.40487787615699" fill="rgb(255,255,255)" fill-opacity="1.0" stroke="black"/><polygon points="79.44740172557806, 69.3360219020993, 67.75196249200073, 75.25102309729954, 83.00153046058867, 86.95440831375262, 89.02412305218365, 83.62425782671221" fill="rgb(255,255,255)" fill-opacity="1.0" stroke="black"/><polygon points="77.23714438539282, 51.67233984044745, 64.17538418965839, 57.690351795481575, 67.75196249200073, 75.25102309729954, 79.44740172557806, 69.3360219020993" fill="rgb(255,255,255)" fill-opacity="1.0" stroke="black"/><polygon points="78.03753516960313, 110.84919806711949, 77.67346068218792, 116.79649468783776, 31.16673915056859, 123.91843358855095, 35.39903009023618, 105.94077051950578" fill="rgb(255,255,255)" fill-opacity="1.0" stroke="black"/><polygon points="35.39903009023618, 105.94077051950578, 31.16673915056859, 123.91843358855095, 13.023803207418961, 95.01249031571963, 19.808447148319086, 75.13531320455718" fill="rgb(255,255,255)" fill-opacity="1.0" stroke="black"/><polygon points="108.8600305390144, 34.66831919820942, 88.27761548383253, 34.93187294357199, 91.57881125725044, 48.545240324684215, 106.36760894722693, 48.341132781512584" fill="rgb(255,255,255)" fill-opacity="1.0" stroke="black"/><polygon points="129.13307802625258, 38.19944929114672, 108.8600305390144, 34.66831919820942, 106.36760894722693, 48.341132781512584, 120.819599311774, 51.06152884346804" fill="rgb(255,255,255)" fill-opacity="1.0" stroke="black"/><polygon points="88.27761548383253, 34.93187294357199, 68.10710655617942, 38.99780561855346, 77.23714438539282, 51.67233984044745, 91.57881125725044, 48.545240324684215" fill="rgb(255,255,255)" fill-opacity="1.0" stroke="black"/><polygon points="124.9306459524544, 102.718751112571, 124.1253265807562, 96.50013554457013, 121.74106409106196, 110.04807706898926, 122.40869806922103, 115.95708442220491" fill="rgb(255,255,255)" fill-opacity="1.0" stroke="black"/><polygon points="75.62044529401682, 97.3413468063649, 75.15160763165456, 103.60475970899043, 77.67346068218792, 116.79649468783776, 78.03753516960313, 110.84919806711949" fill="rgb(255,255,255)" fill-opacity="1.0" stroke="black"/><polygon points="140.638321094048, 82.48748038777988, 130.72364382688644, 74.26089737792275, 116.23015081699104, 86.40299569269357, 121.08674557146699, 90.91296009686044" fill="rgb(255,255,255)" fill-opacity="1.0" stroke="black"/><polygon points="145.31398079676924, 65.102782755308, 134.11379463483377, 56.680434406574875, 130.72364382688644, 74.26089737792275, 140.638321094048, 82.48748038777988" fill="rgb(255,255,255)" fill-opacity="1.0" stroke="black"/><polygon points="67.75196249200073, 75.25102309729954, 58.1931490177368, 83.83441733447117, 78.36976447964364, 91.63617081498133, 83.00153046058867, 86.95440831375262" fill="rgb(255,255,255)" fill-opacity="1.0" stroke="black"/><polygon points="64.17538418965839, 57.690351795481575, 53.350630074405316, 66.4885873547926, 58.1931490177368, 83.83441733447117, 67.75196249200073, 75.25102309729954" fill="rgb(255,255,255)" fill-opacity="1.0" stroke="black"/><polygon points="148.30137512091227, 45.62115865777946, 129.13307802625258, 38.19944929114672, 120.819599311774, 51.06152884346804, 134.11379463483377, 56.680434406574875" fill="rgb(255,255,255)" fill-opacity="1.0" stroke="black"/><polygon points="68.10710655617942, 38.99780561855346, 49.168039656505705, 46.97378976969455, 64.17538418965839, 57.690351795481575, 77.23714438539282, 51.67233984044745" fill="rgb(255,255,255)" fill-opacity="1.0" stroke="black"/><polygon points="120.84086108466553, 121.8842143045396, 122.40869806922103, 115.95708442220491, 168.62032152038333, 121.27683953898078, 167.0125597147317, 140.73043414691625" fill="rgb(255,255,255)" fill-opacity="1.0" stroke="black"/><polygon points="123.24681437664378, 108.98891666524399, 124.9306459524544, 102.718751112571, 122.40869806922103, 115.95708442220491, 120.84086108466553, 121.8842143045396" fill="rgb(255,255,255)" fill-opacity="1.0" stroke="black"/><polygon points="77.67346068218792, 116.79649468783776, 79.55777090445592, 122.67665740605568, 33.82653266655685, 143.4798663996123, 31.16673915056859, 123.91843358855095" fill="rgb(255,255,255)" fill-opacity="1.0" stroke="black"/><polygon points="75.15160763165456, 103.60475970899043, 77.18988578474008, 109.82970166575669, 79.55777090445592, 122.67665740605568, 77.67346068218792, 116.79649468783776" fill="rgb(255,255,255)" fill-opacity="1.0" stroke="black"/><polygon points="147.55869560576508, 93.10065346721588, 140.638321094048, 82.48748038777988, 121.08674557146699, 90.91296009686044, 124.1253265807562, 96.50013554457013" fill="rgb(255,255,255)" fill-opacity="1.0" stroke="black"/><polygon points="153.32251900404478, 76.0746962904315, 145.31398079676924, 65.102782755308, 140.638321094048, 82.48748038777988, 147.55869560576508, 93.10065346721588" fill="rgb(255,255,255)" fill-opacity="1.0" stroke="black"/><polygon points="167.0125597147317, 140.73043414691625, 168.62032152038333, 121.27683953898078, 186.47945508302502, 92.04726185972459, 186.11856072743706, 114.25633474265373" fill="rgb(255,255,255)" fill-opacity="1.0" stroke="black"/><polygon points="117.0533038024673, 127.19296863889892, 120.84086108466553, 121.8842143045396, 167.0125597147317, 140.73043414691625, 157.40664439274886, 159.8847019398077" fill="rgb(255,255,255)" fill-opacity="1.0" stroke="black"/><polygon points="119.06653268632348, 114.63274089008829, 123.24681437664378, 108.98891666524399, 120.84086108466553, 121.8842143045396, 117.0533038024673, 127.19296863889892" fill="rgb(255,255,255)" fill-opacity="1.0" stroke="black"/><polygon points="58.1931490177368, 83.83441733447117, 51.773908801078214, 94.74082062085066, 75.62044529401682, 97.3413468063649, 78.36976447964364, 91.63617081498133" fill="rgb(255,255,255)" fill-opacity="1.0" stroke="black"/><polygon points="53.350630074405316, 66.4885873547926, 45.88316084590676, 77.7810896039208, 51.773908801078214, 94.74082062085066, 58.1931490177368, 83.83441733447117" fill="rgb(255,255,255)" fill-opacity="1.0" stroke="black"/><polygon points="79.55777090445592, 122.67665740605568, 83.63805037482146, 127.84717993281933, 44.60034761232544, 162.3702513657674, 33.82653266655685, 143.4798663996123" fill="rgb(255,255,255)" fill-opacity="1.0" stroke="black"/><polygon points="77.18988578474008, 109.82970166575669, 81.70116084232795, 115.33007287801047, 83.63805037482146, 127.84717993281933, 79.55777090445592, 122.67665740605568" fill="rgb(255,255,255)" fill-opacity="1.0" stroke="black"/><polygon points="165.31967992466386, 57.08112222563736, 148.30137512091227, 45.62115865777946, 134.11379463483377, 56.680434406574875, 145.31398079676924, 65.102782755308" fill="rgb(255,255,255)" fill-opacity="1.0" stroke="black"/><polygon points="31.16673915056859, 123.91843358855095, 33.82653266655685, 143.4798663996123, 14.72210558614867, 117.466046052218, 13.023803207418961, 95.01249031571963" fill="rgb(255,255,255)" fill-opacity="1.0" stroke="black"/><polygon points="49.168039656505705, 46.97378976969455, 32.554716525510685, 59.00655505815746, 53.350630074405316, 66.4885873547926, 64.17538418965839, 57.690351795481575" fill="rgb(255,255,255)" fill-opacity="1.0" stroke="black"/><polygon points="112.7058208088765, 118.95677645215866, 119.06653268632348, 114.63274089008829, 117.0533038024673, 127.19296863889892, 111.34392066226775, 131.24354337503445" fill="rgb(255,255,255)" fill-opacity="1.0" stroke="black"/><polygon points="111.34392066226775, 131.24354337503445, 117.0533038024673, 127.19296863889892, 157.40664439274886, 159.8847019398077, 139.60493521162056, 175.75317556243812" fill="rgb(255,255,255)" fill-opacity="1.0" stroke="black"/><polygon points="81.70116084232795, 115.33007287801047, 88.32104337628095, 119.4193540070658, 89.57486880451127, 131.67601002856787, 83.63805037482146, 127.84717993281933" fill="rgb(255,255,255)" fill-opacity="1.0" stroke="black"/><polygon points="83.63805037482146, 127.84717993281933, 89.57486880451127, 131.67601002856787, 63.457971607675745, 177.51729757594313, 44.60034761232544, 162.3702513657674" fill="rgb(255,255,255)" fill-opacity="1.0" stroke="black"/><polygon points="104.82281104137977, 121.37454418820795, 112.7058208088765, 118.95677645215866, 111.34392066226775, 131.24354337503445, 104.30157213868651, 133.50210595126688" fill="rgb(255,255,255)" fill-opacity="1.0" stroke="black"/><polygon points="104.30157213868651, 133.50210595126688, 111.34392066226775, 131.24354337503445, 139.60493521162056, 175.75317556243812, 115.33552503328137, 185.1237979752623" fill="rgb(255,255,255)" fill-opacity="1.0" stroke="black"/><polygon points="88.32104337628095, 119.4193540070658, 96.34707207491655, 121.53673291601285, 96.74209059456275, 133.6534535946334, 89.57486880451127, 131.67601002856787" fill="rgb(255,255,255)" fill-opacity="1.0" stroke="black"/><polygon points="89.57486880451127, 131.67601002856787, 96.74209059456275, 133.6534535946334, 88.36875769053914, 185.76591316969768, 63.457971607675745, 177.51729757594313" fill="rgb(255,255,255)" fill-opacity="1.0" stroke="black"/><polygon points="96.34707207491655, 121.53673291601285, 104.82281104137977, 121.37454418820795, 104.30157213868651, 133.50210595126688, 96.74209059456275, 133.6534535946334" fill="rgb(255,255,255)" fill-opacity="1.0" stroke="black"/><polygon points="96.74209059456275, 133.6534535946334, 104.30157213868651, 133.50210595126688, 115.33552503328137, 185.1237979752623, 88.36875769053914, 185.76591316969768" fill="rgb(255,255,255)" fill-opacity="1.0" stroke="black"/><polygon points="150.43128259426277, 105.49966117697151, 147.55869560576508, 93.10065346721588, 124.1253265807562, 96.50013554457013, 124.9306459524544, 102.718751112571" fill="rgb(255,255,255)" fill-opacity="1.0" stroke="black"/><polygon points="156.90925122414455, 89.0468013982379, 153.32251900404478, 76.0746962904315, 147.55869560576508, 93.10065346721588, 150.43128259426277, 105.49966117697151" fill="rgb(255,255,255)" fill-opacity="1.0" stroke="black"/><polygon points="51.773908801078214, 94.74082062085066, 49.54714817087332, 107.31920217538848, 75.15160763165456, 103.60475970899043, 75.62044529401682, 97.3413468063649" fill="rgb(255,255,255)" fill-opacity="1.0" stroke="black"/><polygon points="45.88316084590676, 77.7810896039208, 43.01227585610905, 90.96458784612669, 49.54714817087332, 107.31920217538848, 51.773908801078214, 94.74082062085066" fill="rgb(255,255,255)" fill-opacity="1.0" stroke="black"/><polygon points="178.71807653667227, 72.64675445233648, 165.31967992466386, 57.08112222563736, 145.31398079676924, 65.102782755308, 153.32251900404478, 76.0746962904315" fill="rgb(255,255,255)" fill-opacity="1.0" stroke="black"/><polygon points="157.40664439274886, 159.8847019398077, 167.0125597147317, 140.73043414691625, 186.11856072743706, 114.25633474265373, 175.2345933393774, 136.996380970637" fill="rgb(255,255,255)" fill-opacity="1.0" stroke="black"/><polygon points="32.554716525510685, 59.00655505815746, 19.808447148319086, 75.13531320455718, 45.88316084590676, 77.7810896039208, 53.350630074405316, 66.4885873547926" fill="rgb(255,255,255)" fill-opacity="1.0" stroke="black"/><polygon points="33.82653266655685, 143.4798663996123, 44.60034761232544, 162.3702513657674, 27.208658425058484, 140.0134157747904, 14.72210558614867, 117.466046052218" fill="rgb(255,255,255)" fill-opacity="1.0" stroke="black"/><polygon points="148.29847006979523, 118.67571683079143, 150.43128259426277, 105.49966117697151, 124.9306459524544, 102.718751112571, 123.24681437664378, 108.98891666524399" fill="rgb(255,255,255)" fill-opacity="1.0" stroke="black"/><polygon points="49.54714817087332, 107.31920217538848, 52.436131690478604, 120.49698792122453, 77.18988578474008, 109.82970166575669, 75.15160763165456, 103.60475970899043" fill="rgb(255,255,255)" fill-opacity="1.0" stroke="black"/><polygon points="154.87997771223462, 103.01719939659986, 156.90925122414455, 89.0468013982379, 150.43128259426277, 105.49966117697151, 148.29847006979523, 118.67571683079143" fill="rgb(255,255,255)" fill-opacity="1.0" stroke="black"/><polygon points="43.01227585610905, 90.96458784612669, 45.90293397891606, 104.96350771043407, 52.436131690478604, 120.49698792122453, 49.54714817087332, 107.31920217538848" fill="rgb(255,255,255)" fill-opacity="1.0" stroke="black"/><polygon points="140.6029796704173, 131.16103439766547, 148.29847006979523, 118.67571683079143, 123.24681437664378, 108.98891666524399, 119.06653268632348, 114.63274089008829" fill="rgb(255,255,255)" fill-opacity="1.0" stroke="black"/><polygon points="52.436131690478604, 120.49698792122453, 60.911200542244046, 132.74711249375062, 81.70116084232795, 115.33007287801047, 77.18988578474008, 109.82970166575669" fill="rgb(255,255,255)" fill-opacity="1.0" stroke="black"/><polygon points="127.58556736134045, 141.15699738261424, 140.6029796704173, 131.16103439766547, 119.06653268632348, 114.63274089008829, 112.7058208088765, 118.95677645215866" fill="rgb(255,255,255)" fill-opacity="1.0" stroke="black"/><polygon points="60.911200542244046, 132.74711249375062, 74.59081186225531, 142.24949499999718, 88.32104337628095, 119.4193540070658, 81.70116084232795, 115.33007287801047" fill="rgb(255,255,255)" fill-opacity="1.0" stroke="black"/><polygon points="139.60493521162056, 175.75317556243812, 157.40664439274886, 159.8847019398077, 175.2345933393774, 136.996380970637, 152.77006065045163, 156.52891874943353" fill="rgb(255,255,255)" fill-opacity="1.0" stroke="black"/><polygon points="186.47945508302502, 92.04726185972459, 178.71807653667227, 72.64675445233648, 153.32251900404478, 76.0746962904315, 156.90925122414455, 89.0468013982379" fill="rgb(255,255,255)" fill-opacity="1.0" stroke="black"/><polygon points="44.60034761232544, 162.3702513657674, 63.457971607675745, 177.51729757594313, 51.22055500565976, 158.74069365226634, 27.208658425058484, 140.0134157747904" fill="rgb(255,255,255)" fill-opacity="1.0" stroke="black"/><polygon points="146.44064285825056, 116.4349714809855, 154.87997771223462, 103.01719939659986, 148.29847006979523, 118.67571683079143, 140.6029796704173, 131.16103439766547" fill="rgb(255,255,255)" fill-opacity="1.0" stroke="black"/><polygon points="110.58629621182277, 146.91812601149078, 127.58556736134045, 141.15699738261424, 112.7058208088765, 118.95677645215866, 104.82281104137977, 121.37454418820795" fill="rgb(255,255,255)" fill-opacity="1.0" stroke="black"/><polygon points="74.59081186225531, 142.24949499999718, 91.97571405823362, 147.30914672114451, 96.34707207491655, 121.53673291601285, 88.32104337628095, 119.4193540070658" fill="rgb(255,255,255)" fill-opacity="1.0" stroke="black"/><polygon points="19.808447148319086, 75.13531320455718, 13.023803207418961, 95.01249031571963, 43.01227585610905, 90.96458784612669, 45.88316084590676, 77.7810896039208" fill="rgb(255,255,255)" fill-opacity="1.0" stroke="black"/><polygon points="45.90293397891606, 104.96350771043407, 55.2536832500366, 118.15220672469292, 60.911200542244046, 132.74711249375062, 52.436131690478604, 120.49698792122453" fill="rgb(255,255,255)" fill-opacity="1.0" stroke="black"/><polygon points="91.97571405823362, 147.30914672114451, 110.58629621182277, 146.91812601149078, 104.82281104137977, 121.37454418820795, 96.34707207491655, 121.53673291601285" fill="rgb(255,255,255)" fill-opacity="1.0" stroke="black"/><polygon points="115.33552503328137, 185.1237979752623, 139.60493521162056, 175.75317556243812, 152.77006065045163, 156.52891874943353, 120.63645143880215, 168.37222368776855" fill="rgb(255,255,255)" fill-opacity="1.0" stroke="black"/><polygon points="63.457971607675745, 177.51729757594313, 88.36875769053914, 185.76591316969768, 84.33759101875819, 169.1924082500252, 51.22055500565976, 158.74069365226634" fill="rgb(255,255,255)" fill-opacity="1.0" stroke="black"/><polygon points="131.71943676164167, 127.30594532239704, 146.44064285825056, 116.4349714809855, 140.6029796704173, 131.16103439766547, 127.58556736134045, 141.15699738261424" fill="rgb(255,255,255)" fill-opacity="1.0" stroke="black"/><polygon points="55.2536832500366, 118.15220672469292, 70.76609669412012, 128.50108870177036, 74.59081186225531, 142.24949499999718, 60.911200542244046, 132.74711249375062" fill="rgb(255,255,255)" fill-opacity="1.0" stroke="black"/><polygon points="88.36875769053914, 185.76591316969768, 115.33552503328137, 185.1237979752623, 120.63645143880215, 168.37222368776855, 84.33759101875819, 169.1924082500252" fill="rgb(255,255,255)" fill-opacity="1.0" stroke="black"/><polygon points="186.11856072743706, 114.25633474265373, 186.47945508302502, 92.04726185972459, 156.90925122414455, 89.0468013982379, 154.87997771223462, 103.01719939659986" fill="rgb(255,255,255)" fill-opacity="1.0" stroke="black"/><polygon points="13.023803207418961, 95.01249031571963, 14.72210558614867, 117.466046052218, 45.90293397891606, 104.96350771043407, 43.01227585610905, 90.96458784612669" fill="rgb(255,255,255)" fill-opacity="1.0" stroke="black"/><polygon points="112.21013916348144, 133.62406194722737, 131.71943676164167, 127.30594532239704, 127.58556736134045, 141.15699738261424, 110.58629621182277, 146.91812601149078" fill="rgb(255,255,255)" fill-opacity="1.0" stroke="black"/><polygon points="70.76609669412012, 128.50108870177036, 90.74292905380312, 134.05429470624009, 91.97571405823362, 147.30914672114451, 74.59081186225531, 142.24949499999718" fill="rgb(255,255,255)" fill-opacity="1.0" stroke="black"/><polygon points="90.74292905380312, 134.05429470624009, 112.21013916348144, 133.62406194722737, 110.58629621182277, 146.91812601149078, 91.97571405823362, 147.30914672114451" fill="rgb(255,255,255)" fill-opacity="1.0" stroke="black"/><polygon points="175.2345933393774, 136.996380970637, 186.11856072743706, 114.25633474265373, 154.87997771223462, 103.01719939659986, 146.44064285825056, 116.4349714809855" fill="rgb(255,255,255)" fill-opacity="1.0" stroke="black"/><polygon points="14.72210558614867, 117.466046052218, 27.208658425058484, 140.0134157747904, 55.2536832500366, 118.15220672469292, 45.90293397891606, 104.96350771043407" fill="rgb(255,255,255)" fill-opacity="1.0" stroke="black"/><polygon points="152.77006065045163, 156.52891874943353, 175.2345933393774, 136.996380970637, 146.44064285825056, 116.4349714809855, 131.71943676164167, 127.30594532239704" fill="rgb(255,255,255)" fill-opacity="1.0" stroke="black"/><polygon points="27.208658425058484, 140.0134157747904, 51.22055500565976, 158.74069365226634, 70.76609669412012, 128.50108870177036, 55.2536832500366, 118.15220672469292" fill="rgb(255,255,255)" fill-opacity="1.0" stroke="black"/><polygon points="120.63645143880215, 168.37222368776855, 152.77006065045163, 156.52891874943353, 131.71943676164167, 127.30594532239704, 112.21013916348144, 133.62406194722737" fill="rgb(255,255,255)" fill-opacity="1.0" stroke="black"/><polygon points="51.22055500565976, 158.74069365226634, 84.33759101875819, 169.1924082500252, 90.74292905380312, 134.05429470624009, 70.76609669412012, 128.50108870177036" fill="rgb(255,255,255)" fill-opacity="1.0" stroke="black"/><polygon points="84.33759101875819, 169.1924082500252, 120.63645143880215, 168.37222368776855, 112.21013916348144, 133.62406194722737, 90.74292905380312, 134.05429470624009" fill="rgb(255,255,255)" fill-opacity="1.0" stroke="black"/></svg>