<svg height="200" width="200" version="1.1" xmlns="http://www.w3.org/2000/svg" id="example"><polygon points="124.76095034624358, 90.78570236480074, 89.06310401098422, 80.85871101623626, 79.71142911839013, 64.4918083976936" fill="rgb(255,255,255)" fill-opacity="1.0" stroke="black"/><polygon points="79.71142911839013, 64.4918083976936, 147.72678826671984, 82.23942029234725, 124.76095034624358, 90.78570236480074" fill="rgb(255,255,255)" fill-opacity="1.0" stroke="black"/><polygon points="44.17949282119413, 120.77249702054837, 79.71142911839013, 64.4918083976936, 89.06310401098422, 80.85871101623626" fill="rgb(255,255,255)" fill-opacity="1.0" stroke="black"/><polygon points="147.72678826671984, 82.23942029234725, 79.71142911839013, 64.4918083976936, 76.0114435652255, 34.095314008245936, 157.31622666359812, 52.316048229134" fill="rgb(255,255,255)" fill-opacity="1.0" stroke="black"/><polygon points="79.71142911839013, 64.4918083976936, 44.17949282119413, 120.77249702054837, 30.59910309254048, 93.91460707417258, 76.0114435652255, 34.095314008245936" fill="rgb(255,255,255)" fill-opacity="1.0" stroke="black"/><polygon points="73.2249059959357, 109.96382133617557, 44.17949282119413, 120.77249702054837, 89.06310401098422, 80.85871101623626" fill="rgb(255,255,255)" fill-opacity="1.0" stroke="black"/><polygon points="89.06310401098422, 80.85871101623626, 124.76095034624358, 90.78570236480074, 129.96244167433503, 61.29571887224418, 86.88163983405308, 50.878041217101526" fill="rgb(255,255,255)" fill-opacity="1.0" stroke="black"/><polygon points="73.2249059959357, 109.96382133617557, 89.06310401098422, 80.85871101623626, 86.88163983405308, 50.878041217101526, 67.0370456917612, 81.95279909834805" fill="rgb(255,255,255)" fill-opacity="1.0" stroke="black"/><polygon points="112.96251439233286, 122.68643993588603, 124.76095034624358, 90.78570236480074, 147.72678826671984, 82.23942029234725" fill="rgb(255,255,255)" fill-opacity="1.0" stroke="black"/><polygon points="128.57082464165305, 150.00343895741224, 112.96251439233286, 122.68643993588603, 147.72678826671984, 82.23942029234725" fill="rgb(255,255,255)" fill-opacity="1.0" stroke="black"/><polygon points="128.57082464165305, 150.00343895741224, 147.72678826671984, 82.23942029234725, 157.31622666359812, 52.316048229134, 136.4984158729352, 127.48243700261139" fill="rgb(255,255,255)" fill-opacity="1.0" stroke="black"/><polygon points="124.76095034624358, 90.78570236480074, 112.96251439233286, 122.68643993588603, 116.14440959912042, 96.05745382357156, 129.96244167433503, 61.29571887224418" fill="rgb(255,255,255)" fill-opacity="1.0" stroke="black"/><polygon points="76.0114435652255, 34.095314008245936, 86.88163983405308, 50.878041217101526, 129.96244167433503, 61.29571887224418" fill="rgb(255,255,255)" fill-opacity="1.0" stroke="black"/><polygon points="129.96244167433503, 61.29571887224418, 157.31622666359812, 52.316048229134, 76.0114435652255, 34.095314008245936" fill="rgb(255,255,255)" fill-opacity="1.0" stroke="black"/><polygon points="86.88163983405308, 50.878041217101526, 76.0114435652255, 34.095314008245936, 30.59910309254048, 93.91460707417258" fill="rgb(255,255,255)" fill-opacity="1.0" stroke="black"/><polygon points="112.96251439233286, 122.68643993588603, 44.17949282119413, 120.77249702054837, 73.2249059959357, 109.96382133617557" fill="rgb(255,255,255)" fill-opacity="1.0" stroke="black"/><polygon points="112.96251439233286, 122.68643993588603, 73.2249059959357, 109.96382133617557, 67.0370456917612, 81.95279909834805, 116.14440959912042, 96.05745382357156" fill="rgb(255,255,255)" fill-opacity="1.0" stroke="black"/><polygon points="44.17949282119413, 120.77249702054837, 112.96251439233286, 122.68643993588603, 128.57082464165305, 150.00343895741224" fill="rgb(255,255,255)" fill-opacity="1.0" stroke="black"/><polygon points="44.17949282119413, 120.77249702054837, 128.57082464165305, 150.00343895741224, 136.4984158729352, 127.48243700261139, 30.59910309254048, 93.91460707417258" fill="rgb(255,255,255)" fill-opacity="1.0" stroke="black"/><polygon points="86.88163983405308, 50.878041217101526, 30.59910309254048, 93.91460707417258, 67.0370456917612, 81.95279909834805" fill="rgb(255,255,255)" fill-opacity="1.0" stroke="black"/><polygon points="157.31622666359812, 52.316048229134, 129.96244167433503, 61.29571887224418, 116.14440959912042, 96.05745382357156" fill="rgb(255,255,255)" fill-opacity="1.0" stroke="black"/><polygon points="157.31622666359812, 52.316048229134, 116.14440959912042, 96.05745382357156, 136.4984158729352, 127.48243700261139" fill="rgb(255,255,255)" fill-opacity="1.0" stroke="black"/><polygon points="67.0370456917612, 81.95279909834805, 30.59910309254048, 93.91460707417258, 116.14440959912042, 96.05745382357156" fill="rgb(255,255,255)" fill-opacity="1.0" stroke="black"/><polygon points="136.4984158729352, 127.48243700261139, 116.14440959912042, 96.05745382357156, 30.59910309254048, 93.91460707417258" fill="rgb(255,255,255)" fill-opacity="1.0" stroke="black"/></svg>