<svg height="200" width="200" version="1.1" xmlns="http://www.w3.org/2000/svg" id="example"><polygon points="120.68268034944869, 76.85942213220143, 88.2329751826342, 65.42169702800166, 86.31532694831853, 29.329483978932018, 124.38418577506884, 39.27103094317897" fill="rgb(255,255,255)" fill-opacity="1.0" stroke="black"/><polygon points="88.2329751826342, 65.42169702800166, 33.53100541807799, 110.83853053495056, 18.296223786998954, 70.48734032074441, 86.31532694831853, 29.329483978932018" fill="rgb(255,255,255)" fill-opacity="1.0" stroke="black"/><polygon points="120.68268034944869, 76.85942213220143, 100, 100, 142.74067561451957, 118.30468689406887, 119.68433504256927, 157.84392499111397, 33.53100541807799, 110.83853053495056, 88.2329751826342, 65.42169702800166" fill="rgb(255,255,255)" fill-opacity="1.0" stroke="black"/><polygon points="100, 100, 120.68268034944869, 76.85942213220143, 124.38418577506884, 39.27103094317897, 100, 60.24501255358527" fill="rgb(255,255,255)" fill-opacity="1.0" stroke="black"/><polygon points="142.74067561451957, 118.30468689406887, 100, 100, 100, 60.24501255358527, 153.03341743671308, 77.70628062410006" fill="rgb(255,255,255)" fill-opacity="1.0" stroke="black"/><polygon points="86.31532694831853, 29.329483978932018, 18.296223786998954, 70.48734032074441, 125.7115531896213, 118.3308911369092, 153.03341743671308, 77.70628062410006, 100, 60.24501255358527, 124.38418577506884, 39.27103094317897" fill="rgb(255,255,255)" fill-opacity="1.0" stroke="black"/><polygon points="33.53100541807799, 110.83853053495056, 119.68433504256927, 157.84392499111397, 125.7115531896213, 118.3308911369092, 18.296223786998954, 70.48734032074441" fill="rgb(255,255,255)" fill-opacity="1.0" stroke="black"/><polygon points="119.68433504256927, 157.84392499111397, 142.74067561451957, 118.30468689406887, 153.03341743671308, 77.70628062410006, 125.7115531896213, 118.3308911369092" fill="rgb(255,255,255)" fill-opacity="1.0" stroke="black"/></svg>