<svg height="200" width="200" version="1.1" xmlns="http://www.w3.org/2000/svg" id="example"><polygon points="124.8333248904192, 62.88549002342393, 120.73093273320244, 69.01669779840819, 51.58121324931446, 83.91112773429212, 40.813561807934086, 80.33319073363852" fill="rgb(255,255,255)" fill-opacity="1.0" stroke="black"/><polygon points="124.8333248904192, 62.88549002342393, 40.813561807934086, 80.33319073363852, 27.65385018755211, 35.8326505479227, 129.6291243017478, 20.86441837534062" fill="rgb(255,255,255)" fill-opacity="1.0" stroke="black"/><polygon points="175.9690169982524, 125.24342084261268, 159.09942307060305, 119.63789538255001, 120.73093273320244, 69.01669779840819, 124.8333248904192, 62.88549002342393" fill="rgb(255,255,255)" fill-opacity="1.0" stroke="black"/><polygon points="175.9690169982524, 125.24342084261268, 124.8333248904192, 62.88549002342393, 129.6291243017478, 20.86441837534062, 199.10867394468954, 77.96045260396305" fill="rgb(255,255,255)" fill-opacity="1.0" stroke="black"/><polygon points="120.73093273320244, 69.01669779840819, 124.94404533363227, 26.042074081831373, 40.51684394899502, 38.9931895351356, 51.58121324931446, 83.91112773429212" fill="rgb(255,255,255)" fill-opacity="1.0" stroke="black"/><polygon points="159.09942307060305, 119.63789538255001, 176.4585591524767, 72.39514081160112, 124.94404533363227, 26.042074081831373, 120.73093273320244, 69.01669779840819" fill="rgb(255,255,255)" fill-opacity="1.0" stroke="black"/><polygon points="40.813561807934086, 80.33319073363852, 51.58121324931446, 83.91112773429212, 56.585768292993166, 103.0639099505063, 47.38429136378027, 113.31639022837851" fill="rgb(255,255,255)" fill-opacity="1.0" stroke="black"/><polygon points="40.813561807934086, 80.33319073363852, 47.38429136378027, 113.31639022837851, 32.56300987231134, 66.22917285691344, 27.65385018755211, 35.8326505479227" fill="rgb(255,255,255)" fill-opacity="1.0" stroke="black"/><polygon points="51.58121324931446, 83.91112773429212, 40.51684394899502, 38.9931895351356, 45.18370712579024, 56.469294988949514, 56.585768292993166, 103.0639099505063" fill="rgb(255,255,255)" fill-opacity="1.0" stroke="black"/><polygon points="129.6291243017478, 20.86441837534062, 27.65385018755211, 35.8326505479227, 40.51684394899502, 38.9931895351356, 124.94404533363227, 26.042074081831373" fill="rgb(255,255,255)" fill-opacity="1.0" stroke="black"/><polygon points="199.10867394468954, 77.96045260396305, 129.6291243017478, 20.86441837534062, 124.94404533363227, 26.042074081831373, 176.4585591524767, 72.39514081160112" fill="rgb(255,255,255)" fill-opacity="1.0" stroke="black"/><polygon points="47.38429136378027, 113.31639022837851, 56.585768292993166, 103.0639099505063, 105.96066589291252, 91.09151937061444, 100, 100" fill="rgb(255,255,255)" fill-opacity="1.0" stroke="black"/><polygon points="100, 100, 105.96066589291252, 91.09151937061444, 127.77468479323282, 129.24747191165338, 121.80656517332548, 142.78945308698547" fill="rgb(255,255,255)" fill-opacity="1.0" stroke="black"/><polygon points="56.585768292993166, 103.0639099505063, 45.18370712579024, 56.469294988949514, 107.39770717374448, 45.433187555016076, 105.96066589291252, 91.09151937061444" fill="rgb(255,255,255)" fill-opacity="1.0" stroke="black"/><polygon points="105.96066589291252, 91.09151937061444, 107.39770717374448, 45.433187555016076, 136.45336173249393, 81.99336099411299, 127.77468479323282, 129.24747191165338" fill="rgb(255,255,255)" fill-opacity="1.0" stroke="black"/><polygon points="47.38429136378027, 113.31639022837851, 100, 100, 100, 53.60866997991357, 32.56300987231134, 66.22917285691344" fill="rgb(255,255,255)" fill-opacity="1.0" stroke="black"/><polygon points="100, 100, 121.80656517332548, 142.78945308698547, 129.21678365625922, 96.00119340019918, 100, 53.60866997991357" fill="rgb(255,255,255)" fill-opacity="1.0" stroke="black"/><polygon points="27.65385018755211, 35.8326505479227, 32.56300987231134, 66.22917285691344, 45.18370712579024, 56.469294988949514, 40.51684394899502, 38.9931895351356" fill="rgb(255,255,255)" fill-opacity="1.0" stroke="black"/><polygon points="121.80656517332548, 142.78945308698547, 127.77468479323282, 129.24747191165338, 159.09942307060305, 119.63789538255001, 175.9690169982524, 125.24342084261268" fill="rgb(255,255,255)" fill-opacity="1.0" stroke="black"/><polygon points="127.77468479323282, 129.24747191165338, 136.45336173249393, 81.99336099411299, 176.4585591524767, 72.39514081160112, 159.09942307060305, 119.63789538255001" fill="rgb(255,255,255)" fill-opacity="1.0" stroke="black"/><polygon points="121.80656517332548, 142.78945308698547, 175.9690169982524, 125.24342084261268, 199.10867394468954, 77.96045260396305, 129.21678365625922, 96.00119340019918" fill="rgb(255,255,255)" fill-opacity="1.0" stroke="black"/><polygon points="32.56300987231134, 66.22917285691344, 100, 53.60866997991357, 107.39770717374448, 45.433187555016076, 45.18370712579024, 56.469294988949514" fill="rgb(255,255,255)" fill-opacity="1.0" stroke="black"/><polygon points="100, 53.60866997991357, 129.21678365625922, 96.00119340019918, 136.45336173249393, 81.99336099411299, 107.39770717374448, 45.433187555016076" fill="rgb(255,255,255)" fill-opacity="1.0" stroke="black"/><polygon points="129.21678365625922, 96.00119340019918, 199.10867394468954, 77.96045260396305, 176.4585591524767, 72.39514081160112, 136.45336173249393, 81.99336099411299" fill="rgb(255,255,255)" fill-opacity="1.0" stroke="black"/></svg>