<svg height="200" width="200" version="1.1" xmlns="http://www.w3.org/2000/svg" id="example"><polygon points="103.84304076768574, 100.31729790447031, 94.306679553934, 100.52368779754075, 96.5316219678904, 87.13230207234571, 102.34224323539453, 87.0159453569124" fill="rgb(255,255,255)" fill-opacity="1.0" stroke="black"/><polygon points="113.13529938065608, 102.22029797711225, 103.84304076768574, 100.31729790447031, 102.34224323539453, 87.0159453569124, 107.97243983565374, 88.08483362080565" fill="rgb(255,255,255)" fill-opacity="1.0" stroke="black"/><polygon points="76.94876234768189, 107.17349272046395, 85.13333290747022, 102.8334852737185, 94.306679553934, 100.52368779754075, 103.84304076768574, 100.31729790447031, 113.13529938065608, 102.22029797711225, 121.5635739915247, 106.17406650298406, 128.47027839446412, 112.03142522827618, 133.15950759141768, 119.50850756386859, 134.94272435090613, 128.12163153498784, 133.25232292537132, 137.13280677566007, 127.82690300653377, 145.54734977657756, 118.92544873952902, 152.2168558151826, 107.46432074376366, 156.07191576527816, 94.94802451467642, 156.4276284343149, 83.14875761502462, 153.21827906044666, 73.65521697771267, 147.02134218453563, 67.5120412730688, 138.85539783086676, 65.10043954142402, 129.87543046556465, 66.2442333454656, 121.11826014533952, 70.41909203169851, 113.37431692247712" fill="rgb(255,255,255)" fill-opacity="1.0" stroke="black"/><polygon points="94.306679553934, 100.52368779754075, 85.13333290747022, 102.8334852737185, 90.98875820406148, 88.42736524804072, 96.5316219678904, 87.13230207234571" fill="rgb(255,255,255)" fill-opacity="1.0" stroke="black"/><polygon points="121.5635739915247, 106.17406650298406, 113.13529938065608, 102.22029797711225, 107.97243983565374, 88.08483362080565, 112.97609997201737, 90.27749305221096" fill="rgb(255,255,255)" fill-opacity="1.0" stroke="black"/><polygon points="85.13333290747022, 102.8334852737185, 76.94876234768189, 107.17349272046395, 86.15858732045415, 90.82582755478714, 90.98875820406148, 88.42736524804072" fill="rgb(255,255,255)" fill-opacity="1.0" stroke="black"/><polygon points="128.47027839446412, 112.03142522827618, 121.5635739915247, 106.17406650298406, 112.97609997201737, 90.27749305221096, 116.91806400637618, 93.45780293700874" fill="rgb(255,255,255)" fill-opacity="1.0" stroke="black"/><polygon points="76.94876234768189, 107.17349272046395, 70.41909203169851, 113.37431692247712, 82.47220602976215, 94.17576405334363, 86.15858732045415, 90.82582755478714" fill="rgb(255,255,255)" fill-opacity="1.0" stroke="black"/><polygon points="133.15950759141768, 119.50850756386859, 128.47027839446412, 112.03142522827618, 116.91806400637618, 93.45780293700874, 119.39500468990225, 97.40381270709277" fill="rgb(255,255,255)" fill-opacity="1.0" stroke="black"/><polygon points="70.41909203169851, 113.37431692247712, 66.2442333454656, 121.11826014533952, 80.32279803554357, 98.23718976534272, 82.47220602976215, 94.17576405334363" fill="rgb(255,255,255)" fill-opacity="1.0" stroke="black"/><polygon points="134.94272435090613, 128.12163153498784, 133.15950759141768, 119.50850756386859, 119.39500468990225, 97.40381270709277, 120.0747073981111, 101.79842132652178" fill="rgb(255,255,255)" fill-opacity="1.0" stroke="black"/><polygon points="66.2442333454656, 121.11826014533952, 65.10043954142402, 129.87543046556465, 80.02239912763045, 102.67417277576817, 80.32279803554357, 98.23718976534272" fill="rgb(255,255,255)" fill-opacity="1.0" stroke="black"/><polygon points="133.25232292537132, 137.13280677566007, 134.94272435090613, 128.12163153498784, 120.0747073981111, 101.79842132652178, 118.75477878768524, 106.23194550165954" fill="rgb(255,255,255)" fill-opacity="1.0" stroke="black"/><polygon points="65.10043954142402, 129.87543046556465, 67.5120412730688, 138.85539783086676, 81.74006377863962, 107.06109759797476, 80.02239912763045, 102.67417277576817" fill="rgb(255,255,255)" fill-opacity="1.0" stroke="black"/><polygon points="127.82690300653377, 145.54734977657756, 133.25232292537132, 137.13280677566007, 118.75477878768524, 106.23194550165954, 115.4316728809353, 110.22820657150183" fill="rgb(255,255,255)" fill-opacity="1.0" stroke="black"/><polygon points="67.5120412730688, 138.85539783086676, 73.65521697771267, 147.02134218453563, 85.43302559753846, 110.91448972662266, 81.74006377863962, 107.06109759797476" fill="rgb(255,255,255)" fill-opacity="1.0" stroke="black"/><polygon points="102.34224323539453, 87.0159453569124, 96.5316219678904, 87.13230207234571, 92.51001756060853, 43.73531378913805, 105.05395989067128, 43.55020691191194" fill="rgb(255,255,255)" fill-opacity="1.0" stroke="black"/><polygon points="107.97243983565374, 88.08483362080565, 102.34224323539453, 87.0159453569124, 105.05395989067128, 43.55020691191194, 117.33242059735257, 45.26210144806626" fill="rgb(255,255,255)" fill-opacity="1.0" stroke="black"/><polygon points="96.5316219678904, 87.13230207234571, 90.98875820406148, 88.42736524804072, 80.36164340048852, 45.81617328512206, 92.51001756060853, 43.73531378913805" fill="rgb(255,255,255)" fill-opacity="1.0" stroke="black"/><polygon points="112.97609997201737, 90.27749305221096, 107.97243983565374, 88.08483362080565, 117.33242059735257, 45.26210144806626, 128.65459476137028, 48.856002940178854" fill="rgb(255,255,255)" fill-opacity="1.0" stroke="black"/><polygon points="90.98875820406148, 88.42736524804072, 86.15858732045415, 90.82582755478714, 69.31379053888251, 49.77250916802453, 80.36164340048852, 45.81617328512206" fill="rgb(255,255,255)" fill-opacity="1.0" stroke="black"/><polygon points="116.91806400637618, 93.45780293700874, 112.97609997201737, 90.27749305221096, 128.65459476137028, 48.856002940178854, 138.2322538252294, 54.2744607367888" fill="rgb(255,255,255)" fill-opacity="1.0" stroke="black"/><polygon points="86.15858732045415, 90.82582755478714, 82.47220602976215, 94.17576405334363, 60.17983983077491, 55.53290166650592, 69.31379053888251, 49.77250916802453" fill="rgb(255,255,255)" fill-opacity="1.0" stroke="black"/><polygon points="118.92544873952902, 152.2168558151826, 127.82690300653377, 145.54734977657756, 115.4316728809353, 110.22820657150183, 110.35766785665903, 113.30177457242723" fill="rgb(255,255,255)" fill-opacity="1.0" stroke="black"/><polygon points="73.65521697771267, 147.02134218453563, 83.14875761502462, 153.21827906044666, 90.7956418799523, 113.75632311749875, 85.43302559753846, 110.91448972662266" fill="rgb(255,255,255)" fill-opacity="1.0" stroke="black"/><polygon points="119.39500468990225, 97.40381270709277, 116.91806400637618, 93.45780293700874, 138.2322538252294, 54.2744607367888, 145.13815116083055, 61.359923201608865" fill="rgb(255,255,255)" fill-opacity="1.0" stroke="black"/><polygon points="82.47220602976215, 94.17576405334363, 80.32279803554357, 98.23718976534272, 53.91454301837506, 62.9107843068019, 60.17983983077491, 55.53290166650592" fill="rgb(255,255,255)" fill-opacity="1.0" stroke="black"/><polygon points="107.46432074376366, 156.07191576527816, 118.92544873952902, 152.2168558151826, 110.35766785665903, 113.30177457242723, 104.05440289649357, 115.04185278135284" fill="rgb(255,255,255)" fill-opacity="1.0" stroke="black"/><polygon points="120.0747073981111, 101.79842132652178, 119.39500468990225, 97.40381270709277, 145.13815116083055, 61.359923201608865, 148.32665990745573, 69.76590736848652" fill="rgb(255,255,255)" fill-opacity="1.0" stroke="black"/><polygon points="83.14875761502462, 153.21827906044666, 94.94802451467642, 156.4276284343149, 97.25781649930447, 115.20109435108343, 90.7956418799523, 113.75632311749875" fill="rgb(255,255,255)" fill-opacity="1.0" stroke="black"/><polygon points="80.32279803554357, 98.23718976534272, 80.02239912763045, 102.67417277576817, 51.57525917635382, 71.51060159648046, 53.91454301837506, 62.9107843068019" fill="rgb(255,255,255)" fill-opacity="1.0" stroke="black"/><polygon points="94.94802451467642, 156.4276284343149, 107.46432074376366, 156.07191576527816, 104.05440289649357, 115.04185278135284, 97.25781649930447, 115.20109435108343" fill="rgb(255,255,255)" fill-opacity="1.0" stroke="black"/><polygon points="118.75477878768524, 106.23194550165954, 120.0747073981111, 101.79842132652178, 148.32665990745573, 69.76590736848652, 146.77179636613496, 78.8532242382641" fill="rgb(255,255,255)" fill-opacity="1.0" stroke="black"/><polygon points="80.02239912763045, 102.67417277576817, 81.74006377863962, 107.06109759797476, 54.15412199285174, 80.62571620743624, 51.57525917635382, 71.51060159648046" fill="rgb(255,255,255)" fill-opacity="1.0" stroke="black"/><polygon points="115.4316728809353, 110.22820657150183, 118.75477878768524, 106.23194550165954, 146.77179636613496, 78.8532242382641, 139.77288725587044, 87.62276796130513" fill="rgb(255,255,255)" fill-opacity="1.0" stroke="black"/><polygon points="81.74006377863962, 107.06109759797476, 85.43302559753846, 110.91448972662266, 62.23863671506652, 89.18819448686304, 54.15412199285174, 80.62571620743624" fill="rgb(255,255,255)" fill-opacity="1.0" stroke="black"/><polygon points="60.17983983077491, 55.53290166650592, 53.91454301837506, 62.9107843068019, 51.57525917635382, 71.51060159648046, 54.15412199285174, 80.62571620743624, 62.23863671506652, 89.18819448686304, 75.55455474366842, 95.86791506768645, 92.62517317412113, 99.39110271289367, 110.88875084717267, 98.99842174647537, 127.40094523673294, 94.77756686612895, 139.77288725587044, 87.62276796130513, 146.77179636613496, 78.8532242382641, 148.32665990745573, 69.76590736848652, 145.13815116083055, 61.359923201608865, 138.2322538252294, 54.2744607367888, 128.65459476137028, 48.856002940178854, 117.33242059735257, 45.26210144806626, 105.05395989067128, 43.55020691191194, 92.51001756060853, 43.73531378913805, 80.36164340048852, 45.81617328512206, 69.31379053888251, 49.77250916802453" fill="rgb(255,255,255)" fill-opacity="1.0" stroke="black"/><polygon points="110.35766785665903, 113.30177457242723, 115.4316728809353, 110.22820657150183, 139.77288725587044, 87.62276796130513, 127.40094523673294, 94.77756686612895" fill="rgb(255,255,255)" fill-opacity="1.0" stroke="black"/><polygon points="85.43302559753846, 110.91448972662266, 90.7956418799523, 113.75632311749875, 75.55455474366842, 95.86791506768645, 62.23863671506652, 89.18819448686304" fill="rgb(255,255,255)" fill-opacity="1.0" stroke="black"/><polygon points="104.05440289649357, 115.04185278135284, 110.35766785665903, 113.30177457242723, 127.40094523673294, 94.77756686612895, 110.88875084717267, 98.99842174647537" fill="rgb(255,255,255)" fill-opacity="1.0" stroke="black"/><polygon points="90.7956418799523, 113.75632311749875, 97.25781649930447, 115.20109435108343, 92.62517317412113, 99.39110271289367, 75.55455474366842, 95.86791506768645" fill="rgb(255,255,255)" fill-opacity="1.0" stroke="black"/><polygon points="97.25781649930447, 115.20109435108343, 104.05440289649357, 115.04185278135284, 110.88875084717267, 98.99842174647537, 92.62517317412113, 99.39110271289367" fill="rgb(255,255,255)" fill-opacity="1.0" stroke="black"/></svg>