<svg height="200" width="200" version="1.1" xmlns="http://www.w3.org/2000/svg" id="example"><polygon points="123.83899000097402, 69.61271759547557, 126.34152665137954, 69.06932248725323, 132.30459896650933, 69.87516414496383, 130.0792118815727, 71.33828972529025" fill="rgb(255,255,255)" fill-opacity="1.0" stroke="black"/><polygon points="130.0792118815727, 71.33828972529025, 132.30459896650933, 69.87516414496383, 138.00028919836373, 70.64487214374125, 135.99256960386495, 72.97347601745348" fill="rgb(255,255,255)" fill-opacity="1.0" stroke="black"/><polygon points="117.24403225086361, 67.78905242640886, 120.09179145770315, 68.22474158959312, 126.34152665137954, 69.06932248725323, 123.83899000097402, 69.61271759547557" fill="rgb(255,255,255)" fill-opacity="1.0" stroke="black"/><polygon points="132.30459896650933, 69.87516414496383, 134.77268368414047, 68.25247211568859, 140.2452284933481, 68.04113487242455, 138.00028919836373, 70.64487214374125" fill="rgb(255,255,255)" fill-opacity="1.0" stroke="black"/><polygon points="126.34152665137954, 69.06932248725323, 129.09336544836628, 68.47179447875965, 134.77268368414047, 68.25247211568859, 132.30459896650933, 69.87516414496383" fill="rgb(255,255,255)" fill-opacity="1.0" stroke="black"/><polygon points="110.26320538815769, 65.85868512411807, 113.53421316259148, 67.33855918484647, 120.09179145770315, 68.22474158959312, 117.24403225086361, 67.78905242640886" fill="rgb(255,255,255)" fill-opacity="1.0" stroke="black"/><polygon points="120.09179145770315, 68.22474158959312, 123.19532910610442, 68.69956323803001, 129.09336544836628, 68.47179447875965, 126.34152665137954, 69.06932248725323" fill="rgb(255,255,255)" fill-opacity="1.0" stroke="black"/><polygon points="102.8616231821567, 63.81196880287371, 106.64547230928659, 66.40762391265781, 113.53421316259148, 67.33855918484647, 110.26320538815769, 65.85868512411807" fill="rgb(255,255,255)" fill-opacity="1.0" stroke="black"/><polygon points="134.77268368414047, 68.25247211568859, 137.52545824187612, 66.44260501456387, 142.7720697947054, 65.1104405370607, 140.2452284933481, 68.04113487242455" fill="rgb(255,255,255)" fill-opacity="1.0" stroke="black"/><polygon points="113.53421316259148, 67.33855918484647, 117.06569190313596, 68.93627589618939, 123.19532910610442, 68.69956323803001, 120.09179145770315, 68.22474158959312" fill="rgb(255,255,255)" fill-opacity="1.0" stroke="black"/><polygon points="129.09336544836628, 68.47179447875965, 132.13371237448112, 67.81162047224433, 137.52545824187612, 66.44260501456387, 134.77268368414047, 68.25247211568859" fill="rgb(255,255,255)" fill-opacity="1.0" stroke="black"/><polygon points="95.00006333299946, 61.63805754905235, 99.39983312858955, 65.42845787542376, 106.64547230928659, 66.40762391265781, 102.8616231821567, 63.81196880287371" fill="rgb(255,255,255)" fill-opacity="1.0" stroke="black"/><polygon points="106.64547230928659, 66.40762391265781, 110.69053907720527, 69.18246980973254, 117.06569190313596, 68.93627589618939, 113.53421316259148, 67.33855918484647" fill="rgb(255,255,255)" fill-opacity="1.0" stroke="black"/><polygon points="123.19532910610442, 68.69956323803001, 126.59072556654638, 69.21903744040492, 132.13371237448112, 67.81162047224433, 129.09336544836628, 68.47179447875965" fill="rgb(255,255,255)" fill-opacity="1.0" stroke="black"/><polygon points="117.06569190313596, 68.93627589618939, 120.89004373157468, 70.66649467287368, 126.59072556654638, 69.21903744040492, 123.19532910610442, 68.69956323803001" fill="rgb(255,255,255)" fill-opacity="1.0" stroke="black"/><polygon points="86.63427219560413, 59.3247141605068, 91.76882224959785, 64.39721321968955, 99.39983312858955, 65.42845787542376, 95.00006333299946, 61.63805754905235" fill="rgb(255,255,255)" fill-opacity="1.0" stroke="black"/><polygon points="137.52545824187612, 66.44260501456387, 140.61519523603795, 64.4111951698502, 145.63746888909586, 61.78707832591746, 142.7720697947054, 65.1104405370607" fill="rgb(255,255,255)" fill-opacity="1.0" stroke="black"/><polygon points="99.39983312858955, 65.42845787542376, 104.05481840638731, 69.43872626126151, 110.69053907720527, 69.18246980973254, 106.64547230928659, 66.40762391265781" fill="rgb(255,255,255)" fill-opacity="1.0" stroke="black"/><polygon points="132.13371237448112, 67.81162047224433, 135.51044906106947, 67.07840355933729, 140.61519523603795, 64.4111951698502, 137.52545824187612, 66.44260501456387" fill="rgb(255,255,255)" fill-opacity="1.0" stroke="black"/><polygon points="110.69053907720527, 69.18246980973254, 115.02484025327415, 72.15572551232978, 120.89004373157468, 70.66649467287368, 117.06569190313596, 68.93627589618939" fill="rgb(255,255,255)" fill-opacity="1.0" stroke="black"/><polygon points="91.76882224959785, 64.39721321968955, 97.14222155751159, 69.70567504153993, 104.05481840638731, 69.43872626126151, 99.39983312858955, 65.42845787542376" fill="rgb(255,255,255)" fill-opacity="1.0" stroke="black"/><polygon points="126.59072556654638, 69.21903744040492, 130.32118208097103, 69.78977371373924, 135.51044906106947, 67.07840355933729, 132.13371237448112, 67.81162047224433" fill="rgb(255,255,255)" fill-opacity="1.0" stroke="black"/><polygon points="77.71413128854402, 56.85807966613109, 83.72085474493453, 63.30962160039894, 91.76882224959785, 64.39721321968955, 86.63427219560413, 59.3247141605068" fill="rgb(255,255,255)" fill-opacity="1.0" stroke="black"/><polygon points="104.05481840638731, 69.43872626126151, 108.98788871401086, 73.68856481480832, 115.02484025327415, 72.15572551232978, 110.69053907720527, 69.18246980973254" fill="rgb(255,255,255)" fill-opacity="1.0" stroke="black"/><polygon points="120.89004373157468, 70.66649467287368, 125.04527761823852, 72.54641158814235, 130.32118208097103, 69.78977371373924, 126.59072556654638, 69.21903744040492" fill="rgb(255,255,255)" fill-opacity="1.0" stroke="black"/><polygon points="83.72085474493453, 63.30962160039894, 89.93505026587805, 69.9839996173283, 97.14222155751159, 69.70567504153993, 91.76882224959785, 64.39721321968955" fill="rgb(255,255,255)" fill-opacity="1.0" stroke="black"/><polygon points="97.14222155751159, 69.70567504153993, 102.77153319192291, 75.266956491545, 108.98788871401086, 73.68856481480832, 104.05481840638731, 69.43872626126151" fill="rgb(255,255,255)" fill-opacity="1.0" stroke="black"/><polygon points="115.02484025327415, 72.15572551232978, 119.6805477223575, 75.3494603774809, 125.04527761823852, 72.54641158814235, 120.89004373157468, 70.66649467287368" fill="rgb(255,255,255)" fill-opacity="1.0" stroke="black"/><polygon points="68.1826524340768, 54.222395457798314, 75.22079715587604, 62.160935128691534, 83.72085474493453, 63.30962160039894, 77.71413128854402, 56.85807966613109" fill="rgb(255,255,255)" fill-opacity="1.0" stroke="black"/><polygon points="140.61519523603795, 64.4111951698502, 144.10779876610977, 62.11491260338073, 148.91435367377562, 57.98646462257864, 145.63746888909586, 61.78707832591746" fill="rgb(255,255,255)" fill-opacity="1.0" stroke="black"/><polygon points="108.98788871401086, 73.68856481480832, 114.22473014444469, 78.20010209727415, 119.6805477223575, 75.3494603774809, 115.02484025327415, 72.15572551232978" fill="rgb(255,255,255)" fill-opacity="1.0" stroke="black"/><polygon points="135.51044906106947, 67.07840355933729, 139.28267304326022, 66.25931143586757, 144.10779876610977, 62.11491260338073, 140.61519523603795, 64.4111951698502" fill="rgb(255,255,255)" fill-opacity="1.0" stroke="black"/><polygon points="89.93505026587805, 69.9839996173283, 96.36765586999395, 76.89296173333986, 102.77153319192291, 75.266956491545, 97.14222155751159, 69.70567504153993" fill="rgb(255,255,255)" fill-opacity="1.0" stroke="black"/><polygon points="75.22079715587604, 62.160935128691534, 82.41406503460391, 70.27444297427121, 89.93505026587805, 69.9839996173283, 83.72085474493453, 63.30962160039894" fill="rgb(255,255,255)" fill-opacity="1.0" stroke="black"/><polygon points="130.32118208097103, 69.78977371373924, 134.43886867039203, 70.41975374157693, 139.28267304326022, 66.25931143586757, 135.51044906106947, 67.07840355933729" fill="rgb(255,255,255)" fill-opacity="1.0" stroke="black"/><polygon points="102.77153319192291, 75.266956491545, 108.67548515646676, 81.0995592455711, 114.22473014444469, 78.20010209727415, 108.98788871401086, 73.68856481480832" fill="rgb(255,255,255)" fill-opacity="1.0" stroke="black"/><polygon points="125.04527761823852, 72.54641158814235, 129.57627697616752, 74.59633286053575, 134.43886867039203, 70.41975374157693, 130.32118208097103, 69.78977371373924" fill="rgb(255,255,255)" fill-opacity="1.0" stroke="black"/><polygon points="57.97475896432922, 51.399666264421654, 66.22945474889188, 60.9458570804338, 75.22079715587604, 62.160935128691534, 68.1826524340768, 54.222395457798314" fill="rgb(255,255,255)" fill-opacity="1.0" stroke="black"/><polygon points="82.41406503460391, 70.27444297427121, 89.76764166893514, 78.56876799060429, 96.36765586999395, 76.89296173333986, 89.93505026587805, 69.9839996173283" fill="rgb(255,255,255)" fill-opacity="1.0" stroke="black"/><polygon points="119.6805477223575, 75.3494603774809, 124.69478844461932, 78.7891428582406, 129.57627697616752, 74.59633286053575, 125.04527761823852, 72.54641158814235" fill="rgb(255,255,255)" fill-opacity="1.0" stroke="black"/><polygon points="96.36765586999395, 76.89296173333986, 103.03039220564183, 84.04909655101171, 108.67548515646676, 81.0995592455711, 102.77153319192291, 75.266956491545" fill="rgb(255,255,255)" fill-opacity="1.0" stroke="black"/><polygon points="114.22473014444469, 78.20010209727415, 119.79429270692859, 82.9982785327196, 124.69478844461932, 78.7891428582406, 119.6805477223575, 75.3494603774809" fill="rgb(255,255,255)" fill-opacity="1.0" stroke="black"/><polygon points="66.22945474889188, 60.9458570804338, 74.55831363036485, 70.57781424000228, 82.41406503460391, 70.27444297427121, 75.22079715587604, 62.160935128691534" fill="rgb(255,255,255)" fill-opacity="1.0" stroke="black"/><polygon points="89.76764166893514, 78.56876799060429, 97.28694639397234, 87.05002281225602, 103.03039220564183, 84.04909655101171, 96.36765586999395, 76.89296173333986" fill="rgb(255,255,255)" fill-opacity="1.0" stroke="black"/><polygon points="108.67548515646676, 81.0995592455711, 114.87467853310669, 87.22383542167715, 119.79429270692859, 82.9982785327196, 114.22473014444469, 78.20010209727415" fill="rgb(255,255,255)" fill-opacity="1.0" stroke="black"/><polygon points="74.55831363036485, 70.57781424000228, 82.96233957987374, 80.29669879135832, 89.76764166893514, 78.56876799060429, 82.41406503460391, 70.27444297427121" fill="rgb(255,255,255)" fill-opacity="1.0" stroke="black"/><polygon points="103.03039220564183, 84.04909655101171, 109.9358338235797, 91.46590980972225, 114.87467853310669, 87.22383542167715, 108.67548515646676, 81.0995592455711" fill="rgb(255,255,255)" fill-opacity="1.0" stroke="black"/><polygon points="82.96233957987374, 80.29669879135832, 91.44255477215296, 90.10369283440185, 97.28694639397234, 87.05002281225602, 89.76764166893514, 78.56876799060429" fill="rgb(255,255,255)" fill-opacity="1.0" stroke="black"/><polygon points="97.28694639397234, 87.05002281225602, 104.97764560067367, 95.72459873568178, 109.9358338235797, 91.46590980972225, 103.03039220564183, 84.04909655101171" fill="rgb(255,255,255)" fill-opacity="1.0" stroke="black"/><polygon points="144.10779876610977, 62.11491260338073, 148.08755780988344, 59.49833982829139, 152.69821795928556, 53.59784329468877, 148.91435367377562, 57.98646462257864" fill="rgb(255,255,255)" fill-opacity="1.0" stroke="black"/><polygon points="139.28267304326022, 66.25931143586757, 143.52418608740268, 65.33831895438894, 148.08755780988344, 59.49833982829139, 144.10779876610977, 62.11491260338073" fill="rgb(255,255,255)" fill-opacity="1.0" stroke="black"/><polygon points="134.43886867039203, 70.41975374157693, 139.0073789954073, 71.11870695213074, 143.52418608740268, 65.33831895438894, 139.28267304326022, 66.25931143586757" fill="rgb(255,255,255)" fill-opacity="1.0" stroke="black"/><polygon points="129.57627697616752, 74.59633286053575, 134.53642743371412, 76.84041129312335, 139.0073789954073, 71.11870695213074, 134.43886867039203, 70.41975374157693" fill="rgb(255,255,255)" fill-opacity="1.0" stroke="black"/><polygon points="91.44255477215296, 90.10369283440185, 100, 100, 104.97764560067367, 95.72459873568178, 97.28694639397234, 87.05002281225602" fill="rgb(255,255,255)" fill-opacity="1.0" stroke="black"/><polygon points="124.69478844461932, 78.7891428582406, 130.11063662727832, 82.50432111636444, 134.53642743371412, 76.84041129312335, 129.57627697616752, 74.59633286053575" fill="rgb(255,255,255)" fill-opacity="1.0" stroke="black"/><polygon points="119.79429270692859, 82.9982785327196, 125.72932576626823, 88.11130768885731, 130.11063662727832, 82.50432111636444, 124.69478844461932, 78.7891428582406" fill="rgb(255,255,255)" fill-opacity="1.0" stroke="black"/><polygon points="109.9358338235797, 91.46590980972225, 117.09748838292127, 99.15790945708022, 121.3918276569379, 93.66222485240716, 114.87467853310669, 87.22383542167715" fill="rgb(255,255,255)" fill-opacity="1.0" stroke="black"/><polygon points="114.87467853310669, 87.22383542167715, 121.3918276569379, 93.66222485240716, 125.72932576626823, 88.11130768885731, 119.79429270692859, 82.9982785327196" fill="rgb(255,255,255)" fill-opacity="1.0" stroke="black"/><polygon points="100, 100, 108.63573510010526, 109.98684594244031, 112.84566697658668, 104.59918178178798, 104.97764560067367, 95.72459873568178" fill="rgb(255,255,255)" fill-opacity="1.0" stroke="black"/><polygon points="104.97764560067367, 95.72459873568178, 112.84566697658668, 104.59918178178798, 117.09748838292127, 99.15790945708022, 109.9358338235797, 91.46590980972225" fill="rgb(255,255,255)" fill-opacity="1.0" stroke="black"/><polygon points="117.35083939062294, 120.06547884546201, 126.14641212086228, 130.2371699423043, 129.13878597155312, 122.976691284187, 120.8972147431035, 113.68076988250063" fill="rgb(255,255,255)" fill-opacity="1.0" stroke="black"/><polygon points="112.84566697658668, 104.59918178178798, 120.8972147431035, 113.68076988250063, 124.52988484008891, 107.1407003685724, 117.09748838292127, 99.15790945708022" fill="rgb(255,255,255)" fill-opacity="1.0" stroke="black"/><polygon points="108.63573510010526, 109.98684594244031, 117.35083939062294, 120.06547884546201, 120.8972147431035, 113.68076988250063, 112.84566697658668, 104.59918178178798" fill="rgb(255,255,255)" fill-opacity="1.0" stroke="black"/><polygon points="126.14641212086228, 130.2371699423043, 135.02357293349317, 140.50321405022652, 137.57718806831005, 132.4946242696469, 129.13878597155312, 122.976691284187" fill="rgb(255,255,255)" fill-opacity="1.0" stroke="black"/><polygon points="117.09748838292127, 99.15790945708022, 124.52988484008891, 107.1407003685724, 128.25203821925265, 100.43952982698234, 121.3918276569379, 93.66222485240716" fill="rgb(255,255,255)" fill-opacity="1.0" stroke="black"/><polygon points="135.02357293349317, 140.50321405022652, 143.98346233967382, 150.86493011997237, 146.21955752781767, 142.2426183102239, 137.57718806831005, 132.4946242696469" fill="rgb(255,255,255)" fill-opacity="1.0" stroke="black"/><polygon points="121.3918276569379, 93.66222485240716, 128.25203821925265, 100.43952982698234, 132.0670224631432, 93.5712314449492, 125.72932576626823, 88.11130768885731" fill="rgb(255,255,255)" fill-opacity="1.0" stroke="black"/><polygon points="120.8972147431035, 113.68076988250063, 129.13878597155312, 122.976691284187, 132.24867183225047, 115.43109001663113, 124.52988484008891, 107.1407003685724" fill="rgb(255,255,255)" fill-opacity="1.0" stroke="black"/><polygon points="130.11063662727832, 82.50432111636444, 135.9783542408909, 86.52947399504079, 139.98973012045582, 79.30760236936784, 134.53642743371412, 76.84041129312335" fill="rgb(255,255,255)" fill-opacity="1.0" stroke="black"/><polygon points="125.72932576626823, 88.11130768885731, 132.0670224631432, 93.5712314449492, 135.9783542408909, 86.52947399504079, 130.11063662727832, 82.50432111636444" fill="rgb(255,255,255)" fill-opacity="1.0" stroke="black"/><polygon points="129.13878597155312, 122.976691284187, 137.57718806831005, 132.4946242696469, 140.2707276571233, 124.04720659482041, 132.24867183225047, 115.43109001663113" fill="rgb(255,255,255)" fill-opacity="1.0" stroke="black"/><polygon points="124.52988484008891, 107.1407003685724, 132.24867183225047, 115.43109001663113, 135.4831304756361, 107.58323439342989, 128.25203821925265, 100.43952982698234" fill="rgb(255,255,255)" fill-opacity="1.0" stroke="black"/><polygon points="139.0073789954073, 71.11870695213074, 144.1050382212908, 71.89861660073782, 148.32837078463203, 64.29514923176049, 143.52418608740268, 65.33831895438894" fill="rgb(255,255,255)" fill-opacity="1.0" stroke="black"/><polygon points="134.53642743371412, 76.84041129312335, 139.98973012045582, 79.30760236936784, 144.1050382212908, 71.89861660073782, 139.0073789954073, 71.11870695213074" fill="rgb(255,255,255)" fill-opacity="1.0" stroke="black"/><polygon points="137.57718806831005, 132.4946242696469, 146.21955752781767, 142.2426183102239, 148.61428347576287, 133.00863134421348, 140.2707276571233, 124.04720659482041" fill="rgb(255,255,255)" fill-opacity="1.0" stroke="black"/><polygon points="143.52418608740268, 65.33831895438894, 148.32837078463203, 64.29514923176049, 152.6640377468426, 56.48944087810895, 148.08755780988344, 59.49833982829139" fill="rgb(255,255,255)" fill-opacity="1.0" stroke="black"/><polygon points="128.25203821925265, 100.43952982698234, 135.4831304756361, 107.58323439342989, 138.8497999025412, 99.41459212390282, 132.0670224631432, 93.5712314449492" fill="rgb(255,255,255)" fill-opacity="1.0" stroke="black"/><polygon points="148.08755780988344, 59.49833982829139, 152.6640377468426, 56.48944087810895, 157.11658141044737, 48.47331381555483, 152.69821795928556, 53.59784329468877" fill="rgb(255,255,255)" fill-opacity="1.0" stroke="black"/><polygon points="132.24867183225047, 115.43109001663113, 140.2707276571233, 124.04720659482041, 143.11601633096197, 115.12387688650956, 135.4831304756361, 107.58323439342989" fill="rgb(255,255,255)" fill-opacity="1.0" stroke="black"/><polygon points="132.0670224631432, 93.5712314449492, 138.8497999025412, 99.41459212390282, 142.35695555917903, 90.90508426617461, 135.9783542408909, 86.52947399504079" fill="rgb(255,255,255)" fill-opacity="1.0" stroke="black"/><polygon points="135.9783542408909, 86.52947399504079, 142.35695555917903, 90.90508426617461, 146.01357825334392, 82.03292044024013, 139.98973012045582, 79.30760236936784" fill="rgb(255,255,255)" fill-opacity="1.0" stroke="black"/><polygon points="140.2707276571233, 124.04720659482041, 148.61428347576287, 133.00863134421348, 151.18514107849572, 123.09548632840344, 143.11601633096197, 115.12387688650956" fill="rgb(255,255,255)" fill-opacity="1.0" stroke="black"/><polygon points="135.4831304756361, 107.58323439342989, 143.11601633096197, 115.12387688650956, 146.12624969606225, 105.68325138417404, 138.8497999025412, 99.41459212390282" fill="rgb(255,255,255)" fill-opacity="1.0" stroke="black"/><polygon points="139.98973012045582, 79.30760236936784, 146.01357825334392, 82.03292044024013, 149.82943094297477, 72.77441251376958, 144.1050382212908, 71.89861660073782" fill="rgb(255,255,255)" fill-opacity="1.0" stroke="black"/><polygon points="138.8497999025412, 99.41459212390282, 146.12624969606225, 105.68325138417404, 149.31619895756958, 95.67900496976394, 142.35695555917903, 90.90508426617461" fill="rgb(255,255,255)" fill-opacity="1.0" stroke="black"/><polygon points="144.1050382212908, 71.89861660073782, 149.82943094297477, 72.77441251376958, 153.81514577941476, 63.10376340666238, 148.32837078463203, 64.29514923176049" fill="rgb(255,255,255)" fill-opacity="1.0" stroke="black"/><polygon points="143.11601633096197, 115.12387688650956, 151.18514107849572, 123.09548632840344, 153.95230389314878, 112.42539466916354, 146.12624969606225, 105.68325138417404" fill="rgb(255,255,255)" fill-opacity="1.0" stroke="black"/><polygon points="148.32837078463203, 64.29514923176049, 153.81514577941476, 63.10376340666238, 157.98232303943996, 52.99282704955587, 152.6640377468426, 56.48944087810895" fill="rgb(255,255,255)" fill-opacity="1.0" stroke="black"/><polygon points="142.35695555917903, 90.90508426617461, 149.31619895756958, 95.67900496976394, 152.70245332002648, 85.05911095681569, 146.01357825334392, 82.03292044024013" fill="rgb(255,255,255)" fill-opacity="1.0" stroke="black"/><polygon points="152.6640377468426, 56.48944087810895, 157.98232303943996, 52.99282704955587, 162.34364388464695, 42.41083479263358, 157.11658141044737, 48.47331381555483" fill="rgb(255,255,255)" fill-opacity="1.0" stroke="black"/><polygon points="146.12624969606225, 105.68325138417404, 153.95230389314878, 112.42539466916354, 156.93914858795225, 100.90821667851361, 149.31619895756958, 95.67900496976394" fill="rgb(255,255,255)" fill-opacity="1.0" stroke="black"/><polygon points="146.01357825334392, 82.03292044024013, 152.70245332002648, 85.05911095681569, 156.30370855951105, 73.76493607706686, 149.82943094297477, 72.77441251376958" fill="rgb(255,255,255)" fill-opacity="1.0" stroke="black"/><polygon points="149.82943094297477, 72.77441251376958, 156.30370855951105, 73.76493607706686, 160.14111236422815, 61.73015743113808, 153.81514577941476, 63.10376340666238" fill="rgb(255,255,255)" fill-opacity="1.0" stroke="black"/><polygon points="149.31619895756958, 95.67900496976394, 156.93914858795225, 100.90821667851361, 160.17291694847682, 88.43890889914007, 152.70245332002648, 85.05911095681569" fill="rgb(255,255,255)" fill-opacity="1.0" stroke="black"/><polygon points="153.81514577941476, 63.10376340666238, 160.14111236422815, 61.73015743113808, 164.23867991407442, 48.87945915734079, 157.98232303943996, 52.99282704955587" fill="rgb(255,255,255)" fill-opacity="1.0" stroke="black"/><polygon points="152.70245332002648, 85.05911095681569, 160.17291694847682, 88.43890889914007, 163.68554914809405, 74.89431104004656, 156.30370855951105, 73.76493607706686" fill="rgb(255,255,255)" fill-opacity="1.0" stroke="black"/><polygon points="157.98232303943996, 52.99282704955587, 164.23867991407442, 48.87945915734079, 168.62379695090823, 35.12695471412462, 162.34364388464695, 42.41083479263358" fill="rgb(255,255,255)" fill-opacity="1.0" stroke="black"/><polygon points="156.30370855951105, 73.76493607706686, 163.68554914809405, 74.89431104004656, 167.5147423032473, 60.12906422115233, 160.14111236422815, 61.73015743113808" fill="rgb(255,255,255)" fill-opacity="1.0" stroke="black"/><polygon points="160.14111236422815, 61.73015743113808, 167.5147423032473, 60.12906422115233, 171.7053087265141, 43.97037359275302, 164.23867991407442, 48.87945915734079" fill="rgb(255,255,255)" fill-opacity="1.0" stroke="black"/><polygon points="164.23867991407442, 48.87945915734079, 171.7053087265141, 43.97037359275302, 176.31093777194332, 26.21121471602882, 168.62379695090823, 35.12695471412462" fill="rgb(255,255,255)" fill-opacity="1.0" stroke="black"/></svg>