<svg height="200" width="200" version="1.1" xmlns="http://www.w3.org/2000/svg" id="example"><polygon points="102.10933609742894, 108.89374189158171, 87.8307532840638, 104.27583744787582, 87.21614486406702, 89.89347512320258, 102.2203537867673, 94.14885401869621" fill="rgb(255,255,255)" fill-opacity="1.0" stroke="black"/><polygon points="87.8307532840638, 104.27583744787582, 102.10933609742894, 108.89374189158171, 93.19569000829374, 117.93093123302766, 78.25426703681504, 112.60710835146892" fill="rgb(255,255,255)" fill-opacity="1.0" stroke="black"/><polygon points="87.8307532840638, 104.27583744787582, 78.25426703681504, 112.60710835146892, 77.07243372359846, 97.58322231207018, 87.21614486406702, 89.89347512320258" fill="rgb(255,255,255)" fill-opacity="1.0" stroke="black"/><polygon points="117.57780081190785, 113.89647170559644, 102.10933609742894, 108.89374189158171, 102.2203537867673, 94.14885401869621, 118.54361404333136, 98.77833215774976" fill="rgb(255,255,255)" fill-opacity="1.0" stroke="black"/><polygon points="102.10933609742894, 108.89374189158171, 117.57780081190785, 113.89647170559644, 109.4801622356357, 123.73329999158042, 93.19569000829374, 117.93093123302766" fill="rgb(255,255,255)" fill-opacity="1.0" stroke="black"/><polygon points="102.2203537867673, 94.14885401869621, 87.21614486406702, 89.89347512320258, 86.53615256960249, 73.98107425335132, 102.34370677492105, 77.76564527104568" fill="rgb(255,255,255)" fill-opacity="1.0" stroke="black"/><polygon points="87.21614486406702, 89.89347512320258, 77.07243372359846, 97.58322231207018, 75.75475750081677, 80.83245281986697, 86.53615256960249, 73.98107425335132" fill="rgb(255,255,255)" fill-opacity="1.0" stroke="black"/><polygon points="78.25426703681504, 112.60710835146892, 93.19569000829374, 117.93093123302766, 82.83098525348535, 128.43929093238341, 67.18810515110536, 122.2343547289543" fill="rgb(255,255,255)" fill-opacity="1.0" stroke="black"/><polygon points="78.25426703681504, 112.60710835146892, 67.18810515110536, 122.2343547289543, 65.25799368940567, 106.53951609675126, 77.07243372359846, 97.58322231207018" fill="rgb(255,255,255)" fill-opacity="1.0" stroke="black"/><polygon points="134.3913494146023, 119.33422150343851, 117.57780081190785, 113.89647170559644, 118.54361404333136, 98.77833215774976, 136.36786374877485, 103.83350943602659" fill="rgb(255,255,255)" fill-opacity="1.0" stroke="black"/><polygon points="117.57780081190785, 113.89647170559644, 134.3913494146023, 119.33422150343851, 127.29729067260985, 130.08177404505582, 109.4801622356357, 123.73329999158042" fill="rgb(255,255,255)" fill-opacity="1.0" stroke="black"/><polygon points="118.54361404333136, 98.77833215774976, 102.2203537867673, 94.14885401869621, 102.34370677492105, 77.76564527104568, 119.62173113887387, 81.9022694066651" fill="rgb(255,255,255)" fill-opacity="1.0" stroke="black"/><polygon points="102.34370677492105, 77.76564527104568, 86.53615256960249, 73.98107425335132, 85.77975664654647, 56.28076317340444, 102.48157187932816, 59.45500020014211" fill="rgb(255,255,255)" fill-opacity="1.0" stroke="black"/><polygon points="86.53615256960249, 73.98107425335132, 75.75475750081677, 80.83245281986697, 74.27638905574463, 62.03890656032192, 85.77975664654647, 56.28076317340444" fill="rgb(255,255,255)" fill-opacity="1.0" stroke="black"/><polygon points="93.19569000829374, 117.93093123302766, 109.4801622356357, 123.73329999158042, 100, 135.24958676541536, 82.83098525348535, 128.43929093238341" fill="rgb(255,255,255)" fill-opacity="1.0" stroke="black"/><polygon points="152.73340243572352, 125.2663121919935, 134.3913494146023, 119.33422150343851, 136.36786374877485, 103.83350943602659, 155.91011342582738, 109.37593271702892" fill="rgb(255,255,255)" fill-opacity="1.0" stroke="black"/><polygon points="134.3913494146023, 119.33422150343851, 152.73340243572352, 125.2663121919935, 146.8741354984209, 137.0572578815905, 127.29729067260985, 130.08177404505582" fill="rgb(255,255,255)" fill-opacity="1.0" stroke="black"/><polygon points="77.07243372359846, 97.58322231207018, 65.25799368940567, 106.53951609675126, 63.08661829499352, 88.88282263552283, 75.75475750081677, 80.83245281986697" fill="rgb(255,255,255)" fill-opacity="1.0" stroke="black"/><polygon points="136.36786374877485, 103.83350943602659, 118.54361404333136, 98.77833215774976, 119.62173113887387, 81.9022694066651, 138.58541641638305, 86.4424666286864" fill="rgb(255,255,255)" fill-opacity="1.0" stroke="black"/><polygon points="119.62173113887387, 81.9022694066651, 102.34370677492105, 77.76564527104568, 102.48157187932816, 59.45500020014211, 120.83294911040929, 62.942742118409484" fill="rgb(255,255,255)" fill-opacity="1.0" stroke="black"/><polygon points="67.18810515110536, 122.2343547289543, 82.83098525348535, 128.43929093238341, 70.6294973775717, 140.80989159111866, 54.25536174250488, 133.48547398938902" fill="rgb(255,255,255)" fill-opacity="1.0" stroke="black"/><polygon points="67.18810515110536, 122.2343547289543, 54.25536174250488, 133.48547398938902, 51.32301313625518, 117.10334979150329, 65.25799368940567, 106.53951609675126" fill="rgb(255,255,255)" fill-opacity="1.0" stroke="black"/><polygon points="102.48157187932816, 59.45500020014211, 85.77975664654647, 56.28076317340444, 84.93331358979329, 36.47327220298769, 102.63667012178618, 38.85552449537565" fill="rgb(255,255,255)" fill-opacity="1.0" stroke="black"/><polygon points="109.4801622356357, 123.73329999158042, 127.29729067260985, 130.08177404505582, 118.92993933590077, 142.75837447875827, 100, 135.24958676541536" fill="rgb(255,255,255)" fill-opacity="1.0" stroke="black"/><polygon points="85.77975664654647, 56.28076317340444, 74.27638905574463, 62.03890656032192, 72.60602470871504, 40.804640007329425, 84.93331358979329, 36.47327220298769" fill="rgb(255,255,255)" fill-opacity="1.0" stroke="black"/><polygon points="155.91011342582738, 109.37593271702892, 136.36786374877485, 103.83350943602659, 138.58541641638305, 86.4424666286864, 159.4940950556881, 91.44832510424834" fill="rgb(255,255,255)" fill-opacity="1.0" stroke="black"/><polygon points="146.8741354984209, 137.0572578815905, 152.73340243572352, 125.2663121919935, 155.91011342582738, 109.37593271702892, 149.9579602022644, 120.47901093456316" fill="rgb(255,255,255)" fill-opacity="1.0" stroke="black"/><polygon points="75.75475750081677, 80.83245281986697, 63.08661829499352, 88.88282263552283, 60.62572618132642, 68.87190337946396, 74.27638905574463, 62.03890656032192" fill="rgb(255,255,255)" fill-opacity="1.0" stroke="black"/><polygon points="138.58541641638305, 86.4424666286864, 119.62173113887387, 81.9022694066651, 120.83294911040929, 62.942742118409484, 141.0909629369274, 66.79284683337991" fill="rgb(255,255,255)" fill-opacity="1.0" stroke="black"/><polygon points="82.83098525348535, 128.43929093238341, 100, 135.24958676541536, 88.75020748037898, 148.91558040369947, 70.6294973775717, 140.80989159111866" fill="rgb(255,255,255)" fill-opacity="1.0" stroke="black"/><polygon points="120.83294911040929, 62.942742118409484, 102.48157187932816, 59.45500020014211, 102.63667012178618, 38.85552449537565, 122.20353786767306, 41.488540186962325" fill="rgb(255,255,255)" fill-opacity="1.0" stroke="black"/><polygon points="127.29729067260985, 130.08177404505582, 146.8741354984209, 137.0572578815905, 139.906358600007, 151.0789230259761, 118.92993933590077, 142.75837447875827" fill="rgb(255,255,255)" fill-opacity="1.0" stroke="black"/><polygon points="65.25799368940567, 106.53951609675126, 51.32301313625518, 117.10334979150329, 47.98897294010829, 98.4770989911675, 63.08661829499352, 88.88282263552283" fill="rgb(255,255,255)" fill-opacity="1.0" stroke="black"/><polygon points="84.93331358979329, 36.47327220298769, 72.60602470871504, 40.804640007329425, 91.33149549001804, 43.652662673197966, 102.63667012178618, 38.85552449537565" fill="rgb(255,255,255)" fill-opacity="1.0" stroke="black"/><polygon points="54.25536174250488, 133.48547398938902, 70.6294973775717, 140.80989159111866, 56.055497970230384, 155.58588682238576, 38.94027086389906, 146.8091678504301" fill="rgb(255,255,255)" fill-opacity="1.0" stroke="black"/><polygon points="54.25536174250488, 133.48547398938902, 38.94027086389906, 146.8091678504301, 34.64028993882153, 129.75019294719237, 51.32301313625518, 117.10334979150329" fill="rgb(255,255,255)" fill-opacity="1.0" stroke="black"/><polygon points="159.4940950556881, 91.44832510424834, 138.58541641638305, 86.4424666286864, 141.0909629369274, 66.79284683337991, 163.56903307320096, 71.06488083218275" fill="rgb(255,255,255)" fill-opacity="1.0" stroke="black"/><polygon points="149.9579602022644, 120.47901093456316, 155.91011342582738, 109.37593271702892, 159.4940950556881, 91.44832510424834, 153.47612641369147, 101.5657996287996" fill="rgb(255,255,255)" fill-opacity="1.0" stroke="black"/><polygon points="100, 135.24958676541536, 118.92993933590077, 142.75837447875827, 108.91268773561524, 157.93458626558515, 88.75020748037898, 148.91558040369947" fill="rgb(255,255,255)" fill-opacity="1.0" stroke="black"/><polygon points="74.27638905574463, 62.03890656032192, 60.62572618132642, 68.87190337946396, 57.81327805142118, 46.00228137253956, 72.60602470871504, 40.804640007329425" fill="rgb(255,255,255)" fill-opacity="1.0" stroke="black"/><polygon points="141.0909629369274, 66.79284683337991, 120.83294911040929, 62.942742118409484, 122.20353786767306, 41.488540186962325, 143.9445020297696, 44.41411317761421" fill="rgb(255,255,255)" fill-opacity="1.0" stroke="black"/><polygon points="139.906358600007, 151.0789230259761, 146.8741354984209, 137.0572578815905, 149.9579602022644, 120.47901093456316, 142.79812371594954, 133.8348876310174" fill="rgb(255,255,255)" fill-opacity="1.0" stroke="black"/><polygon points="102.63667012178618, 38.85552449537565, 91.33149549001804, 43.652662673197966, 112.22803534741415, 46.830890865544035, 122.20353786767306, 41.488540186962325" fill="rgb(255,255,255)" fill-opacity="1.0" stroke="black"/><polygon points="63.08661829499352, 88.88282263552283, 47.98897294010829, 98.4770989911675, 44.16463271511625, 77.11169366137057, 60.62572618132642, 68.87190337946396" fill="rgb(255,255,255)" fill-opacity="1.0" stroke="black"/><polygon points="70.6294973775717, 140.80989159111866, 88.75020748037898, 148.91558040369947, 75.18428120671832, 165.39516096751265, 56.055497970230384, 155.58588682238576" fill="rgb(255,255,255)" fill-opacity="1.0" stroke="black"/><polygon points="118.92993933590077, 142.75837447875827, 139.906358600007, 151.0789230259761, 131.48262831983496, 168.03048834978557, 108.91268773561524, 157.93458626558515" fill="rgb(255,255,255)" fill-opacity="1.0" stroke="black"/><polygon points="51.32301313625518, 117.10334979150329, 34.64028993882153, 129.75019294719237, 29.688796752368617, 110.1065248767974, 47.98897294010829, 98.4770989911675" fill="rgb(255,255,255)" fill-opacity="1.0" stroke="black"/><polygon points="163.56903307320096, 71.06488083218275, 141.0909629369274, 66.79284683337991, 143.9445020297696, 44.41411317761421, 168.2432266815246, 47.68387122598986" fill="rgb(255,255,255)" fill-opacity="1.0" stroke="black"/><polygon points="153.47612641369147, 101.5657996287996, 159.4940950556881, 91.44832510424834, 163.56903307320096, 71.06488083218275, 157.52734811169842, 79.78695024640517" fill="rgb(255,255,255)" fill-opacity="1.0" stroke="black"/><polygon points="72.60602470871504, 40.804640007329425, 57.81327805142118, 46.00228137253956, 77.62825351211728, 49.46737561601293, 91.33149549001804, 43.652662673197966" fill="rgb(255,255,255)" fill-opacity="1.0" stroke="black"/><polygon points="38.94027086389906, 146.8091678504301, 56.055497970230384, 155.58588682238576, 52.776057520247576, 138.16344468402605, 34.64028993882153, 129.75019294719237" fill="rgb(255,255,255)" fill-opacity="1.0" stroke="black"/><polygon points="122.20353786767306, 41.488540186962325, 112.22803534741415, 46.830890865544035, 135.69645703341286, 50.40028560464037, 143.9445020297696, 44.41411317761421" fill="rgb(255,255,255)" fill-opacity="1.0" stroke="black"/><polygon points="142.79812371594954, 133.8348876310174, 149.9579602022644, 120.47901093456316, 153.47612641369147, 101.5657996287996, 146.14172713125808, 113.89647170559644" fill="rgb(255,255,255)" fill-opacity="1.0" stroke="black"/><polygon points="88.75020748037898, 148.91558040369947, 108.91268773561524, 157.93458626558515, 96.70416234776728, 176.4305943807804, 75.18428120671832, 165.39516096751265" fill="rgb(255,255,255)" fill-opacity="1.0" stroke="black"/><polygon points="60.62572618132642, 68.87190337946396, 44.16463271511625, 77.11169366137057, 39.73325435917309, 52.354954152240765, 57.81327805142118, 46.00228137253956" fill="rgb(255,255,255)" fill-opacity="1.0" stroke="black"/><polygon points="131.48262831983496, 168.03048834978557, 139.906358600007, 151.0789230259761, 142.79812371594954, 133.8348876310174, 134.0215499585313, 150.20660745247747" fill="rgb(255,255,255)" fill-opacity="1.0" stroke="black"/><polygon points="91.33149549001804, 43.652662673197966, 77.62825351211728, 49.46737561601293, 100, 53.37957879412804, 112.22803534741415, 46.830890865544035" fill="rgb(255,255,255)" fill-opacity="1.0" stroke="black"/><polygon points="47.98897294010829, 98.4770989911675, 29.688796752368617, 110.1065248767974, 23.925583371415225, 87.24258335223931, 44.16463271511625, 77.11169366137057" fill="rgb(255,255,255)" fill-opacity="1.0" stroke="black"/><polygon points="157.52734811169842, 79.78695024640517, 163.56903307320096, 71.06488083218275, 168.2432266815246, 47.68387122598986, 162.24270451429663, 54.43779768656904" fill="rgb(255,255,255)" fill-opacity="1.0" stroke="black"/><polygon points="56.055497970230384, 155.58588682238576, 75.18428120671832, 165.39516096751265, 73.21477971518804, 147.6450458477592, 52.776057520247576, 138.16344468402605" fill="rgb(255,255,255)" fill-opacity="1.0" stroke="black"/><polygon points="143.9445020297696, 44.41411317761421, 135.69645703341286, 50.40028560464037, 162.24270451429663, 54.43779768656904, 168.2432266815246, 47.68387122598986" fill="rgb(255,255,255)" fill-opacity="1.0" stroke="black"/><polygon points="34.64028993882153, 129.75019294719237, 52.776057520247576, 138.16344468402605, 48.96767506220302, 117.93093123302765, 29.688796752368617, 110.1065248767974" fill="rgb(255,255,255)" fill-opacity="1.0" stroke="black"/><polygon points="108.91268773561524, 157.93458626558515, 131.48262831983496, 168.03048834978557, 121.09336097428942, 188.9374189158172, 96.70416234776728, 176.4305943807804" fill="rgb(255,255,255)" fill-opacity="1.0" stroke="black"/><polygon points="146.14172713125808, 113.89647170559644, 153.47612641369147, 101.5657996287996, 157.52734811169842, 79.78695024640517, 150.05204298983926, 90.57866325044309" fill="rgb(255,255,255)" fill-opacity="1.0" stroke="black"/><polygon points="57.81327805142118, 46.00228137253956, 39.73325435917309, 52.354954152240765, 60.67339479369771, 56.66185095203821, 77.62825351211728, 49.46737561601293" fill="rgb(255,255,255)" fill-opacity="1.0" stroke="black"/><polygon points="112.22803534741415, 46.830890865544035, 100, 53.37957879412804, 125.4575046241424, 57.83139620370733, 135.69645703341286, 50.40028560464037" fill="rgb(255,255,255)" fill-opacity="1.0" stroke="black"/><polygon points="134.0215499585313, 150.20660745247747, 142.79812371594954, 133.8348876310174, 146.14172713125808, 113.89647170559644, 137.00589644612177, 129.2557299065188" fill="rgb(255,255,255)" fill-opacity="1.0" stroke="black"/><polygon points="75.18428120671832, 165.39516096751265, 96.70416234776728, 176.4305943807804, 96.42485407215433, 158.41228784725283, 73.21477971518804, 147.6450458477592" fill="rgb(255,255,255)" fill-opacity="1.0" stroke="black"/><polygon points="44.16463271511625, 77.11169366137057, 23.925583371415225, 87.24258335223931, 17.133224743863018, 60.29579512686729, 39.73325435917309, 52.354954152240765" fill="rgb(255,255,255)" fill-opacity="1.0" stroke="black"/><polygon points="52.776057520247576, 138.16344468402605, 73.21477971518804, 147.6450458477592, 70.90570900098012, 126.83456605218622, 48.96767506220302, 117.93093123302765" fill="rgb(255,255,255)" fill-opacity="1.0" stroke="black"/><polygon points="121.09336097428942, 188.9374189158172, 131.48262831983496, 168.03048834978557, 134.0215499585313, 150.20660745247747, 123.01093924467936, 170.7456741375819" fill="rgb(255,255,255)" fill-opacity="1.0" stroke="black"/><polygon points="29.688796752368617, 110.1065248767974, 48.96767506220302, 117.93093123302765, 44.49115533081732, 94.14885401869621, 23.925583371415225, 87.24258335223931" fill="rgb(255,255,255)" fill-opacity="1.0" stroke="black"/><polygon points="77.62825351211728, 49.46737561601293, 60.67339479369771, 56.66185095203821, 84.65937383688042, 61.59520546816981, 100, 53.37957879412804" fill="rgb(255,255,255)" fill-opacity="1.0" stroke="black"/><polygon points="150.05204298983926, 90.57866325044309, 157.52734811169842, 79.78695024640517, 162.24270451429663, 54.43779768656904, 154.6864914148244, 62.942742118409456" fill="rgb(255,255,255)" fill-opacity="1.0" stroke="black"/><polygon points="135.69645703341286, 50.40028560464037, 125.4575046241424, 57.83139620370733, 154.6864914148244, 62.942742118409456, 162.24270451429663, 54.43779768656904" fill="rgb(255,255,255)" fill-opacity="1.0" stroke="black"/><polygon points="96.70416234776728, 176.4305943807804, 121.09336097428942, 188.9374189158172, 123.01093924467936, 170.7456741375819, 96.42485407215433, 158.41228784725283" fill="rgb(255,255,255)" fill-opacity="1.0" stroke="black"/><polygon points="137.00589644612177, 129.2557299065188, 146.14172713125808, 113.89647170559644, 150.05204298983926, 90.57866325044309, 140.56415571978732, 104.27583744787582" fill="rgb(255,255,255)" fill-opacity="1.0" stroke="black"/><polygon points="73.21477971518804, 147.6450458477592, 96.42485407215433, 158.41228784725283, 96.09382204179826, 137.0572578815905, 70.90570900098012, 126.83456605218622" fill="rgb(255,255,255)" fill-opacity="1.0" stroke="black"/><polygon points="39.73325435917309, 52.354954152240765, 17.133224743863018, 60.29579512686729, 39.153766420318995, 65.79330041699336, 60.67339479369771, 56.66185095203821" fill="rgb(255,255,255)" fill-opacity="1.0" stroke="black"/><polygon points="48.96767506220302, 117.93093123302765, 70.90570900098012, 126.83456605218622, 68.16096456711031, 102.09758063480699, 44.49115533081732, 94.14885401869621" fill="rgb(255,255,255)" fill-opacity="1.0" stroke="black"/><polygon points="100, 53.37957879412804, 84.65937383688042, 61.59520546816981, 112.40785939664084, 67.30241951624365, 125.4575046241424, 57.83139620370733" fill="rgb(255,255,255)" fill-opacity="1.0" stroke="black"/><polygon points="123.01093924467936, 170.7456741375819, 134.0215499585313, 150.20660745247747, 137.00589644612177, 129.2557299065188, 125.3120331691473, 148.91558040369947" fill="rgb(255,255,255)" fill-opacity="1.0" stroke="black"/><polygon points="23.925583371415225, 87.24258335223931, 44.49115533081732, 94.14885401869621, 39.153766420318995, 65.79330041699336, 17.133224743863018, 60.29579512686729" fill="rgb(255,255,255)" fill-opacity="1.0" stroke="black"/><polygon points="96.42485407215433, 158.41228784725283, 123.01093924467936, 170.7456741375819, 125.3120331691473, 148.91558040369947, 96.09382204179826, 137.0572578815905" fill="rgb(255,255,255)" fill-opacity="1.0" stroke="black"/><polygon points="60.67339479369771, 56.66185095203821, 39.153766420318995, 65.79330041699336, 64.84439837618432, 72.2070565888071, 84.65937383688042, 61.59520546816981" fill="rgb(255,255,255)" fill-opacity="1.0" stroke="black"/><polygon points="140.56415571978732, 104.27583744787582, 150.05204298983926, 90.57866325044309, 154.6864914148244, 62.942742118409456, 144.87949143465832, 73.98107425335134" fill="rgb(255,255,255)" fill-opacity="1.0" stroke="black"/><polygon points="70.90570900098012, 126.83456605218622, 96.09382204179826, 137.0572578815905, 95.69523245422664, 111.34405853518075, 68.16096456711031, 102.09758063480699" fill="rgb(255,255,255)" fill-opacity="1.0" stroke="black"/><polygon points="125.4575046241424, 57.83139620370733, 112.40785939664084, 67.30241951624365, 144.87949143465832, 73.98107425335134, 154.6864914148244, 62.942742118409456" fill="rgb(255,255,255)" fill-opacity="1.0" stroke="black"/><polygon points="44.49115533081732, 94.14885401869621, 68.16096456711031, 102.09758063480699, 64.84439837618432, 72.2070565888071, 39.153766420318995, 65.79330041699336" fill="rgb(255,255,255)" fill-opacity="1.0" stroke="black"/><polygon points="125.3120331691473, 148.91558040369947, 137.00589644612177, 129.2557299065188, 140.56415571978732, 104.27583744787582, 128.12448129905255, 122.2343547289543" fill="rgb(255,255,255)" fill-opacity="1.0" stroke="black"/><polygon points="84.65937383688042, 61.59520546816981, 64.84439837618432, 72.2070565888071, 95.20605432402513, 79.78695024640517, 112.40785939664084, 67.30241951624365" fill="rgb(255,255,255)" fill-opacity="1.0" stroke="black"/><polygon points="96.09382204179826, 137.0572578815905, 125.3120331691473, 148.91558040369947, 128.12448129905255, 122.2343547289543, 95.69523245422664, 111.34405853518075" fill="rgb(255,255,255)" fill-opacity="1.0" stroke="black"/><polygon points="68.16096456711031, 102.09758063480699, 95.69523245422664, 111.34405853518075, 95.20605432402513, 79.78695024640517, 64.84439837618432, 72.2070565888071" fill="rgb(255,255,255)" fill-opacity="1.0" stroke="black"/><polygon points="128.12448129905255, 122.2343547289543, 140.56415571978732, 104.27583744787582, 144.87949143465832, 73.98107425335134, 131.64004146143412, 88.88282263552286" fill="rgb(255,255,255)" fill-opacity="1.0" stroke="black"/><polygon points="112.40785939664084, 67.30241951624365, 95.20605432402513, 79.78695024640517, 131.64004146143412, 88.88282263552286, 144.87949143465832, 73.98107425335134" fill="rgb(255,255,255)" fill-opacity="1.0" stroke="black"/><polygon points="95.69523245422664, 111.34405853518075, 128.12448129905255, 122.2343547289543, 131.64004146143412, 88.88282263552286, 95.20605432402513, 79.78695024640517" fill="rgb(255,255,255)" fill-opacity="1.0" stroke="black"/></svg>