<svg height="200" width="200" version="1.1" xmlns="http://www.w3.org/2000/svg" id="example"><polygon points="86.53615256960249, 73.98107425335132, 75.75475750081677, 80.83245281986697, 92.37589362375081, 85.26639144466881, 102.34370677492105, 77.76564527104568" fill="rgb(255,255,255)" fill-opacity="1.0" stroke="black"/><polygon points="102.34370677492105, 77.76564527104568, 92.37589362375081, 85.26639144466881, 110.6801827717921, 90.14933651248857, 119.62173113887387, 81.9022694066651" fill="rgb(255,255,255)" fill-opacity="1.0" stroke="black"/><polygon points="75.75475750081677, 80.83245281986697, 63.08661829499352, 88.88282263552283, 80.57190436578607, 94.14885401869621, 92.37589362375081, 85.26639144466881" fill="rgb(255,255,255)" fill-opacity="1.0" stroke="black"/><polygon points="119.62173113887387, 81.9022694066651, 110.6801827717921, 90.14933651248857, 130.9369294289578, 95.55312905420912, 138.58541641638305, 86.4424666286864" fill="rgb(255,255,255)" fill-opacity="1.0" stroke="black"/><polygon points="92.37589362375081, 85.26639144466881, 80.57190436578607, 94.14885401869621, 100, 100, 110.6801827717921, 90.14933651248857" fill="rgb(255,255,255)" fill-opacity="1.0" stroke="black"/><polygon points="138.58541641638305, 86.4424666286864, 130.9369294289578, 95.55312905420912, 153.47612641369147, 101.5657996287996, 159.4940950556881, 91.44832510424834" fill="rgb(255,255,255)" fill-opacity="1.0" stroke="black"/><polygon points="63.08661829499352, 88.88282263552283, 47.98897294010829, 98.4770989911675, 66.37290279461108, 104.83355537585962, 80.57190436578607, 94.14885401869621" fill="rgb(255,255,255)" fill-opacity="1.0" stroke="black"/><polygon points="110.6801827717921, 90.14933651248857, 100, 100, 121.71375394412145, 106.53951609675126, 130.9369294289578, 95.55312905420912" fill="rgb(255,255,255)" fill-opacity="1.0" stroke="black"/><polygon points="80.57190436578607, 94.14885401869621, 66.37290279461108, 104.83355537585962, 87.01947016966804, 111.97234485405231, 100, 100" fill="rgb(255,255,255)" fill-opacity="1.0" stroke="black"/><polygon points="130.9369294289578, 95.55312905420912, 121.71375394412145, 106.53951609675126, 146.14172713125808, 113.89647170559644, 153.47612641369147, 101.5657996287996" fill="rgb(255,255,255)" fill-opacity="1.0" stroke="black"/><polygon points="47.98897294010829, 98.4770989911675, 29.688796752368617, 110.1065248767974, 48.96767506220302, 117.93093123302765, 66.37290279461108, 104.83355537585962" fill="rgb(255,255,255)" fill-opacity="1.0" stroke="black"/><polygon points="100, 100, 87.01947016966804, 111.97234485405231, 110.3737840857161, 120.04736901790962, 121.71375394412145, 106.53951609675126" fill="rgb(255,255,255)" fill-opacity="1.0" stroke="black"/><polygon points="66.37290279461108, 104.83355537585962, 48.96767506220302, 117.93093123302765, 70.90570900098012, 126.83456605218622, 87.01947016966804, 111.97234485405231" fill="rgb(255,255,255)" fill-opacity="1.0" stroke="black"/><polygon points="121.71375394412145, 106.53951609675126, 110.3737840857161, 120.04736901790962, 137.00589644612177, 129.2557299065188, 146.14172713125808, 113.89647170559644" fill="rgb(255,255,255)" fill-opacity="1.0" stroke="black"/><polygon points="87.01947016966804, 111.97234485405231, 70.90570900098012, 126.83456605218622, 96.09382204179826, 137.0572578815905, 110.3737840857161, 120.04736901790962" fill="rgb(255,255,255)" fill-opacity="1.0" stroke="black"/><polygon points="110.3737840857161, 120.04736901790962, 96.09382204179826, 137.0572578815905, 125.3120331691473, 148.91558040369947, 137.00589644612177, 129.2557299065188" fill="rgb(255,255,255)" fill-opacity="1.0" stroke="black"/></svg>