<svg height="200" width="200" version="1.1" xmlns="http://www.w3.org/2000/svg" id="example"><line stroke="black" x1="87.8307532840638" y1="104.27583744787582" x2="102.10933609742894" y2="108.89374189158171"/><line stroke="black" x1="102.10933609742894" y1="108.89374189158171" x2="93.19569000829374" y2="117.93093123302766"/><line stroke="black" x1="93.19569000829374" y1="117.93093123302766" x2="78.25426703681504" y2="112.60710835146892"/><line stroke="black" x1="78.25426703681504" y1="112.60710835146892" x2="87.8307532840638" y2="104.27583744787582"/><line stroke="black" x1="93.19569000829374" y1="117.93093123302766" x2="82.83098525348535" y2="128.43929093238341"/><line stroke="black" x1="82.83098525348535" y1="128.43929093238341" x2="67.18810515110536" y2="122.2343547289543"/><line stroke="black" x1="67.18810515110536" y1="122.2343547289543" x2="78.25426703681504" y2="112.60710835146892"/><line stroke="black" x1="82.83098525348535" y1="128.43929093238341" x2="70.6294973775717" y2="140.80989159111866"/><line stroke="black" x1="70.6294973775717" y1="140.80989159111866" x2="54.25536174250488" y2="133.48547398938902"/><line stroke="black" x1="54.25536174250488" y1="133.48547398938902" x2="67.18810515110536" y2="122.2343547289543"/><line stroke="black" x1="70.6294973775717" y1="140.80989159111866" x2="56.055497970230384" y2="155.58588682238576"/><line stroke="black" x1="56.055497970230384" y1="155.58588682238576" x2="38.94027086389906" y2="146.8091678504301"/><line stroke="black" x1="38.94027086389906" y1="146.8091678504301" x2="54.25536174250488" y2="133.48547398938902"/><line stroke="black" x1="102.10933609742894" y1="108.89374189158171" x2="117.57780081190785" y2="113.89647170559644"/><line stroke="black" x1="117.57780081190785" y1="113.89647170559644" x2="109.4801622356357" y2="123.73329999158042"/><line stroke="black" x1="109.4801622356357" y1="123.73329999158042" x2="93.19569000829374" y2="117.93093123302766"/><line stroke="black" x1="109.4801622356357" y1="123.73329999158042" x2="100" y2="135.24958676541536"/><line stroke="black" x1="100" y1="135.24958676541536" x2="82.83098525348535" y2="128.43929093238341"/><line stroke="black" x1="100" y1="135.24958676541536" x2="88.75020748037898" y2="148.91558040369947"/><line stroke="black" x1="88.75020748037898" y1="148.91558040369947" x2="70.6294973775717" y2="140.80989159111866"/><line stroke="black" x1="88.75020748037898" y1="148.91558040369947" x2="75.18428120671832" y2="165.39516096751265"/><line stroke="black" x1="75.18428120671832" y1="165.39516096751265" x2="56.055497970230384" y2="155.58588682238576"/><line stroke="black" x1="117.57780081190785" y1="113.89647170559644" x2="134.3913494146023" y2="119.33422150343851"/><line stroke="black" x1="134.3913494146023" y1="119.33422150343851" x2="127.29729067260985" y2="130.08177404505582"/><line stroke="black" x1="127.29729067260985" y1="130.08177404505582" x2="109.4801622356357" y2="123.73329999158042"/><line stroke="black" x1="127.29729067260985" y1="130.08177404505582" x2="118.92993933590077" y2="142.75837447875827"/><line stroke="black" x1="118.92993933590077" y1="142.75837447875827" x2="100" y2="135.24958676541536"/><line stroke="black" x1="118.92993933590077" y1="142.75837447875827" x2="108.91268773561524" y2="157.93458626558515"/><line stroke="black" x1="108.91268773561524" y1="157.93458626558515" x2="88.75020748037898" y2="148.91558040369947"/><line stroke="black" x1="108.91268773561524" y1="157.93458626558515" x2="96.70416234776728" y2="176.4305943807804"/><line stroke="black" x1="96.70416234776728" y1="176.4305943807804" x2="75.18428120671832" y2="165.39516096751265"/><line stroke="black" x1="134.3913494146023" y1="119.33422150343851" x2="152.73340243572352" y2="125.2663121919935"/><line stroke="black" x1="152.73340243572352" y1="125.2663121919935" x2="146.8741354984209" y2="137.0572578815905"/><line stroke="black" x1="146.8741354984209" y1="137.0572578815905" x2="127.29729067260985" y2="130.08177404505582"/><line stroke="black" x1="146.8741354984209" y1="137.0572578815905" x2="139.906358600007" y2="151.0789230259761"/><line stroke="black" x1="139.906358600007" y1="151.0789230259761" x2="118.92993933590077" y2="142.75837447875827"/><line stroke="black" x1="139.906358600007" y1="151.0789230259761" x2="131.48262831983496" y2="168.03048834978557"/><line stroke="black" x1="131.48262831983496" y1="168.03048834978557" x2="108.91268773561524" y2="157.93458626558515"/><line stroke="black" x1="131.48262831983496" y1="168.03048834978557" x2="121.09336097428942" y2="188.9374189158172"/><line stroke="black" x1="121.09336097428942" y1="188.9374189158172" x2="96.70416234776728" y2="176.4305943807804"/><line stroke="black" x1="78.25426703681504" y1="112.60710835146892" x2="77.07243372359846" y2="97.58322231207018"/><line stroke="black" x1="77.07243372359846" y1="97.58322231207018" x2="87.21614486406702" y2="89.89347512320258"/><line stroke="black" x1="87.21614486406702" y1="89.89347512320258" x2="87.8307532840638" y2="104.27583744787582"/><line stroke="black" x1="67.18810515110536" y1="122.2343547289543" x2="65.25799368940567" y2="106.53951609675126"/><line stroke="black" x1="65.25799368940567" y1="106.53951609675126" x2="77.07243372359846" y2="97.58322231207018"/><line stroke="black" x1="54.25536174250488" y1="133.48547398938902" x2="51.32301313625518" y2="117.10334979150329"/><line stroke="black" x1="51.32301313625518" y1="117.10334979150329" x2="65.25799368940567" y2="106.53951609675126"/><line stroke="black" x1="38.94027086389906" y1="146.8091678504301" x2="34.64028993882153" y2="129.75019294719237"/><line stroke="black" x1="34.64028993882153" y1="129.75019294719237" x2="51.32301313625518" y2="117.10334979150329"/><line stroke="black" x1="56.055497970230384" y1="155.58588682238576" x2="52.776057520247576" y2="138.16344468402605"/><line stroke="black" x1="52.776057520247576" y1="138.16344468402605" x2="34.64028993882153" y2="129.75019294719237"/><line stroke="black" x1="75.18428120671832" y1="165.39516096751265" x2="73.21477971518804" y2="147.6450458477592"/><line stroke="black" x1="73.21477971518804" y1="147.6450458477592" x2="52.776057520247576" y2="138.16344468402605"/><line stroke="black" x1="96.70416234776728" y1="176.4305943807804" x2="96.42485407215433" y2="158.41228784725283"/><line stroke="black" x1="96.42485407215433" y1="158.41228784725283" x2="73.21477971518804" y2="147.6450458477592"/><line stroke="black" x1="121.09336097428942" y1="188.9374189158172" x2="123.01093924467936" y2="170.7456741375819"/><line stroke="black" x1="123.01093924467936" y1="170.7456741375819" x2="96.42485407215433" y2="158.41228784725283"/><line stroke="black" x1="131.48262831983496" y1="168.03048834978557" x2="134.0215499585313" y2="150.20660745247747"/><line stroke="black" x1="134.0215499585313" y1="150.20660745247747" x2="123.01093924467936" y2="170.7456741375819"/><line stroke="black" x1="139.906358600007" y1="151.0789230259761" x2="142.79812371594954" y2="133.8348876310174"/><line stroke="black" x1="142.79812371594954" y1="133.8348876310174" x2="134.0215499585313" y2="150.20660745247747"/><line stroke="black" x1="146.8741354984209" y1="137.0572578815905" x2="149.9579602022644" y2="120.47901093456316"/><line stroke="black" x1="149.9579602022644" y1="120.47901093456316" x2="142.79812371594954" y2="133.8348876310174"/><line stroke="black" x1="152.73340243572352" y1="125.2663121919935" x2="155.91011342582738" y2="109.37593271702892"/><line stroke="black" x1="155.91011342582738" y1="109.37593271702892" x2="149.9579602022644" y2="120.47901093456316"/><line stroke="black" x1="134.3913494146023" y1="119.33422150343851" x2="136.36786374877485" y2="103.83350943602659"/><line stroke="black" x1="136.36786374877485" y1="103.83350943602659" x2="155.91011342582738" y2="109.37593271702892"/><line stroke="black" x1="117.57780081190785" y1="113.89647170559644" x2="118.54361404333136" y2="98.77833215774976"/><line stroke="black" x1="118.54361404333136" y1="98.77833215774976" x2="136.36786374877485" y2="103.83350943602659"/><line stroke="black" x1="102.10933609742894" y1="108.89374189158171" x2="102.2203537867673" y2="94.14885401869621"/><line stroke="black" x1="102.2203537867673" y1="94.14885401869621" x2="118.54361404333136" y2="98.77833215774976"/><line stroke="black" x1="87.21614486406702" y1="89.89347512320258" x2="102.2203537867673" y2="94.14885401869621"/><line stroke="black" x1="77.07243372359846" y1="97.58322231207018" x2="75.75475750081677" y2="80.83245281986697"/><line stroke="black" x1="75.75475750081677" y1="80.83245281986697" x2="86.53615256960249" y2="73.98107425335132"/><line stroke="black" x1="86.53615256960249" y1="73.98107425335132" x2="87.21614486406702" y2="89.89347512320258"/><line stroke="black" x1="65.25799368940567" y1="106.53951609675126" x2="63.08661829499352" y2="88.88282263552283"/><line stroke="black" x1="63.08661829499352" y1="88.88282263552283" x2="75.75475750081677" y2="80.83245281986697"/><line stroke="black" x1="51.32301313625518" y1="117.10334979150329" x2="47.98897294010829" y2="98.4770989911675"/><line stroke="black" x1="47.98897294010829" y1="98.4770989911675" x2="63.08661829499352" y2="88.88282263552283"/><line stroke="black" x1="34.64028993882153" y1="129.75019294719237" x2="29.688796752368617" y2="110.1065248767974"/><line stroke="black" x1="29.688796752368617" y1="110.1065248767974" x2="47.98897294010829" y2="98.4770989911675"/><line stroke="black" x1="52.776057520247576" y1="138.16344468402605" x2="48.96767506220302" y2="117.93093123302765"/><line stroke="black" x1="48.96767506220302" y1="117.93093123302765" x2="29.688796752368617" y2="110.1065248767974"/><line stroke="black" x1="73.21477971518804" y1="147.6450458477592" x2="70.90570900098012" y2="126.83456605218622"/><line stroke="black" x1="70.90570900098012" y1="126.83456605218622" x2="48.96767506220302" y2="117.93093123302765"/><line stroke="black" x1="96.42485407215433" y1="158.41228784725283" x2="96.09382204179826" y2="137.0572578815905"/><line stroke="black" x1="96.09382204179826" y1="137.0572578815905" x2="70.90570900098012" y2="126.83456605218622"/><line stroke="black" x1="123.01093924467936" y1="170.7456741375819" x2="125.3120331691473" y2="148.91558040369947"/><line stroke="black" x1="125.3120331691473" y1="148.91558040369947" x2="96.09382204179826" y2="137.0572578815905"/><line stroke="black" x1="134.0215499585313" y1="150.20660745247747" x2="137.00589644612177" y2="129.2557299065188"/><line stroke="black" x1="137.00589644612177" y1="129.2557299065188" x2="125.3120331691473" y2="148.91558040369947"/><line stroke="black" x1="142.79812371594954" y1="133.8348876310174" x2="146.14172713125808" y2="113.89647170559644"/><line stroke="black" x1="146.14172713125808" y1="113.89647170559644" x2="137.00589644612177" y2="129.2557299065188"/><line stroke="black" x1="149.9579602022644" y1="120.47901093456316" x2="153.47612641369147" y2="101.5657996287996"/><line stroke="black" x1="153.47612641369147" y1="101.5657996287996" x2="146.14172713125808" y2="113.89647170559644"/><line stroke="black" x1="155.91011342582738" y1="109.37593271702892" x2="159.4940950556881" y2="91.44832510424834"/><line stroke="black" x1="159.4940950556881" y1="91.44832510424834" x2="153.47612641369147" y2="101.5657996287996"/><line stroke="black" x1="136.36786374877485" y1="103.83350943602659" x2="138.58541641638305" y2="86.4424666286864"/><line stroke="black" x1="138.58541641638305" y1="86.4424666286864" x2="159.4940950556881" y2="91.44832510424834"/><line stroke="black" x1="118.54361404333136" y1="98.77833215774976" x2="119.62173113887387" y2="81.9022694066651"/><line stroke="black" x1="119.62173113887387" y1="81.9022694066651" x2="138.58541641638305" y2="86.4424666286864"/><line stroke="black" x1="102.2203537867673" y1="94.14885401869621" x2="102.34370677492105" y2="77.76564527104568"/><line stroke="black" x1="102.34370677492105" y1="77.76564527104568" x2="119.62173113887387" y2="81.9022694066651"/><line stroke="black" x1="86.53615256960249" y1="73.98107425335132" x2="102.34370677492105" y2="77.76564527104568"/><line stroke="black" x1="75.75475750081677" y1="80.83245281986697" x2="74.27638905574463" y2="62.03890656032192"/><line stroke="black" x1="74.27638905574463" y1="62.03890656032192" x2="85.77975664654647" y2="56.28076317340444"/><line stroke="black" x1="85.77975664654647" y1="56.28076317340444" x2="86.53615256960249" y2="73.98107425335132"/><line stroke="black" x1="63.08661829499352" y1="88.88282263552283" x2="60.62572618132642" y2="68.87190337946396"/><line stroke="black" x1="60.62572618132642" y1="68.87190337946396" x2="74.27638905574463" y2="62.03890656032192"/><line stroke="black" x1="47.98897294010829" y1="98.4770989911675" x2="44.16463271511625" y2="77.11169366137057"/><line stroke="black" x1="44.16463271511625" y1="77.11169366137057" x2="60.62572618132642" y2="68.87190337946396"/><line stroke="black" x1="29.688796752368617" y1="110.1065248767974" x2="23.925583371415225" y2="87.24258335223931"/><line stroke="black" x1="23.925583371415225" y1="87.24258335223931" x2="44.16463271511625" y2="77.11169366137057"/><line stroke="black" x1="48.96767506220302" y1="117.93093123302765" x2="44.49115533081732" y2="94.14885401869621"/><line stroke="black" x1="44.49115533081732" y1="94.14885401869621" x2="23.925583371415225" y2="87.24258335223931"/><line stroke="black" x1="70.90570900098012" y1="126.83456605218622" x2="68.16096456711031" y2="102.09758063480699"/><line stroke="black" x1="68.16096456711031" y1="102.09758063480699" x2="44.49115533081732" y2="94.14885401869621"/><line stroke="black" x1="96.09382204179826" y1="137.0572578815905" x2="95.69523245422664" y2="111.34405853518075"/><line stroke="black" x1="95.69523245422664" y1="111.34405853518075" x2="68.16096456711031" y2="102.09758063480699"/><line stroke="black" x1="125.3120331691473" y1="148.91558040369947" x2="128.12448129905255" y2="122.2343547289543"/><line stroke="black" x1="128.12448129905255" y1="122.2343547289543" x2="95.69523245422664" y2="111.34405853518075"/><line stroke="black" x1="137.00589644612177" y1="129.2557299065188" x2="140.56415571978732" y2="104.27583744787582"/><line stroke="black" x1="140.56415571978732" y1="104.27583744787582" x2="128.12448129905255" y2="122.2343547289543"/><line stroke="black" x1="146.14172713125808" y1="113.89647170559644" x2="150.05204298983926" y2="90.57866325044309"/><line stroke="black" x1="150.05204298983926" y1="90.57866325044309" x2="140.56415571978732" y2="104.27583744787582"/><line stroke="black" x1="153.47612641369147" y1="101.5657996287996" x2="157.52734811169842" y2="79.78695024640517"/><line stroke="black" x1="157.52734811169842" y1="79.78695024640517" x2="150.05204298983926" y2="90.57866325044309"/><line stroke="black" x1="159.4940950556881" y1="91.44832510424834" x2="163.56903307320096" y2="71.06488083218275"/><line stroke="black" x1="163.56903307320096" y1="71.06488083218275" x2="157.52734811169842" y2="79.78695024640517"/><line stroke="black" x1="138.58541641638305" y1="86.4424666286864" x2="141.0909629369274" y2="66.79284683337991"/><line stroke="black" x1="141.0909629369274" y1="66.79284683337991" x2="163.56903307320096" y2="71.06488083218275"/><line stroke="black" x1="119.62173113887387" y1="81.9022694066651" x2="120.83294911040929" y2="62.942742118409484"/><line stroke="black" x1="120.83294911040929" y1="62.942742118409484" x2="141.0909629369274" y2="66.79284683337991"/><line stroke="black" x1="102.34370677492105" y1="77.76564527104568" x2="102.48157187932816" y2="59.45500020014211"/><line stroke="black" x1="102.48157187932816" y1="59.45500020014211" x2="120.83294911040929" y2="62.942742118409484"/><line stroke="black" x1="85.77975664654647" y1="56.28076317340444" x2="102.48157187932816" y2="59.45500020014211"/><line stroke="black" x1="84.93331358979329" y1="36.47327220298769" x2="72.60602470871504" y2="40.804640007329425"/><line stroke="black" x1="72.60602470871504" y1="40.804640007329425" x2="91.33149549001804" y2="43.652662673197966"/><line stroke="black" x1="91.33149549001804" y1="43.652662673197966" x2="102.63667012178618" y2="38.85552449537565"/><line stroke="black" x1="102.63667012178618" y1="38.85552449537565" x2="84.93331358979329" y2="36.47327220298769"/><line stroke="black" x1="72.60602470871504" y1="40.804640007329425" x2="57.81327805142118" y2="46.00228137253956"/><line stroke="black" x1="57.81327805142118" y1="46.00228137253956" x2="77.62825351211728" y2="49.46737561601293"/><line stroke="black" x1="77.62825351211728" y1="49.46737561601293" x2="91.33149549001804" y2="43.652662673197966"/><line stroke="black" x1="57.81327805142118" y1="46.00228137253956" x2="39.73325435917309" y2="52.354954152240765"/><line stroke="black" x1="39.73325435917309" y1="52.354954152240765" x2="60.67339479369771" y2="56.66185095203821"/><line stroke="black" x1="60.67339479369771" y1="56.66185095203821" x2="77.62825351211728" y2="49.46737561601293"/><line stroke="black" x1="39.73325435917309" y1="52.354954152240765" x2="17.133224743863018" y2="60.29579512686729"/><line stroke="black" x1="17.133224743863018" y1="60.29579512686729" x2="39.153766420318995" y2="65.79330041699336"/><line stroke="black" x1="39.153766420318995" y1="65.79330041699336" x2="60.67339479369771" y2="56.66185095203821"/><line stroke="black" x1="91.33149549001804" y1="43.652662673197966" x2="112.22803534741415" y2="46.830890865544035"/><line stroke="black" x1="112.22803534741415" y1="46.830890865544035" x2="122.20353786767306" y2="41.488540186962325"/><line stroke="black" x1="122.20353786767306" y1="41.488540186962325" x2="102.63667012178618" y2="38.85552449537565"/><line stroke="black" x1="77.62825351211728" y1="49.46737561601293" x2="100" y2="53.37957879412804"/><line stroke="black" x1="100" y1="53.37957879412804" x2="112.22803534741415" y2="46.830890865544035"/><line stroke="black" x1="60.67339479369771" y1="56.66185095203821" x2="84.65937383688042" y2="61.59520546816981"/><line stroke="black" x1="84.65937383688042" y1="61.59520546816981" x2="100" y2="53.37957879412804"/><line stroke="black" x1="39.153766420318995" y1="65.79330041699336" x2="64.84439837618432" y2="72.2070565888071"/><line stroke="black" x1="64.84439837618432" y1="72.2070565888071" x2="84.65937383688042" y2="61.59520546816981"/><line stroke="black" x1="112.22803534741415" y1="46.830890865544035" x2="135.69645703341286" y2="50.40028560464037"/><line stroke="black" x1="135.69645703341286" y1="50.40028560464037" x2="143.9445020297696" y2="44.41411317761421"/><line stroke="black" x1="143.9445020297696" y1="44.41411317761421" x2="122.20353786767306" y2="41.488540186962325"/><line stroke="black" x1="100" y1="53.37957879412804" x2="125.4575046241424" y2="57.83139620370733"/><line stroke="black" x1="125.4575046241424" y1="57.83139620370733" x2="135.69645703341286" y2="50.40028560464037"/><line stroke="black" x1="84.65937383688042" y1="61.59520546816981" x2="112.40785939664084" y2="67.30241951624365"/><line stroke="black" x1="112.40785939664084" y1="67.30241951624365" x2="125.4575046241424" y2="57.83139620370733"/><line stroke="black" x1="64.84439837618432" y1="72.2070565888071" x2="95.20605432402513" y2="79.78695024640517"/><line stroke="black" x1="95.20605432402513" y1="79.78695024640517" x2="112.40785939664084" y2="67.30241951624365"/><line stroke="black" x1="135.69645703341286" y1="50.40028560464037" x2="162.24270451429663" y2="54.43779768656904"/><line stroke="black" x1="162.24270451429663" y1="54.43779768656904" x2="168.2432266815246" y2="47.68387122598986"/><line stroke="black" x1="168.2432266815246" y1="47.68387122598986" x2="143.9445020297696" y2="44.41411317761421"/><line stroke="black" x1="125.4575046241424" y1="57.83139620370733" x2="154.6864914148244" y2="62.942742118409456"/><line stroke="black" x1="154.6864914148244" y1="62.942742118409456" x2="162.24270451429663" y2="54.43779768656904"/><line stroke="black" x1="112.40785939664084" y1="67.30241951624365" x2="144.87949143465832" y2="73.98107425335134"/><line stroke="black" x1="144.87949143465832" y1="73.98107425335134" x2="154.6864914148244" y2="62.942742118409456"/><line stroke="black" x1="95.20605432402513" y1="79.78695024640517" x2="131.64004146143412" y2="88.88282263552286"/><line stroke="black" x1="131.64004146143412" y1="88.88282263552286" x2="144.87949143465832" y2="73.98107425335134"/><line stroke="black" x1="74.27638905574463" y1="62.03890656032192" x2="72.60602470871504" y2="40.804640007329425"/><line stroke="black" x1="84.93331358979329" y1="36.47327220298769" x2="85.77975664654647" y2="56.28076317340444"/><line stroke="black" x1="60.62572618132642" y1="68.87190337946396" x2="57.81327805142118" y2="46.00228137253956"/><line stroke="black" x1="44.16463271511625" y1="77.11169366137057" x2="39.73325435917309" y2="52.354954152240765"/><line stroke="black" x1="23.925583371415225" y1="87.24258335223931" x2="17.133224743863018" y2="60.29579512686729"/><line stroke="black" x1="44.49115533081732" y1="94.14885401869621" x2="39.153766420318995" y2="65.79330041699336"/><line stroke="black" x1="68.16096456711031" y1="102.09758063480699" x2="64.84439837618432" y2="72.2070565888071"/><line stroke="black" x1="95.69523245422664" y1="111.34405853518075" x2="95.20605432402513" y2="79.78695024640517"/><line stroke="black" x1="128.12448129905255" y1="122.2343547289543" x2="131.64004146143412" y2="88.88282263552286"/><line stroke="black" x1="140.56415571978732" y1="104.27583744787582" x2="144.87949143465832" y2="73.98107425335134"/><line stroke="black" x1="150.05204298983926" y1="90.57866325044309" x2="154.6864914148244" y2="62.942742118409456"/><line stroke="black" x1="157.52734811169842" y1="79.78695024640517" x2="162.24270451429663" y2="54.43779768656904"/><line stroke="black" x1="163.56903307320096" y1="71.06488083218275" x2="168.2432266815246" y2="47.68387122598986"/><line stroke="black" x1="141.0909629369274" y1="66.79284683337991" x2="143.9445020297696" y2="44.41411317761421"/><line stroke="black" x1="120.83294911040929" y1="62.942742118409484" x2="122.20353786767306" y2="41.488540186962325"/><line stroke="black" x1="102.48157187932816" y1="59.45500020014211" x2="102.63667012178618" y2="38.85552449537565"/></svg>