<svg height="200" width="200" version="1.1" xmlns="http://www.w3.org/2000/svg" id="example"><line stroke="black" x1="86.53615256960249" y1="73.98107425335132" x2="75.75475750081677" y2="80.83245281986697"/><line stroke="black" x1="75.75475750081677" y1="80.83245281986697" x2="92.37589362375081" y2="85.26639144466881"/><line stroke="black" x1="92.37589362375081" y1="85.26639144466881" x2="102.34370677492105" y2="77.76564527104568"/><line stroke="black" x1="102.34370677492105" y1="77.76564527104568" x2="86.53615256960249" y2="73.98107425335132"/><line stroke="black" x1="75.75475750081677" y1="80.83245281986697" x2="63.08661829499352" y2="88.88282263552283"/><line stroke="black" x1="63.08661829499352" y1="88.88282263552283" x2="80.57190436578607" y2="94.14885401869621"/><line stroke="black" x1="80.57190436578607" y1="94.14885401869621" x2="92.37589362375081" y2="85.26639144466881"/><line stroke="black" x1="63.08661829499352" y1="88.88282263552283" x2="47.98897294010829" y2="98.4770989911675"/><line stroke="black" x1="47.98897294010829" y1="98.4770989911675" x2="66.37290279461108" y2="104.83355537585962"/><line stroke="black" x1="66.37290279461108" y1="104.83355537585962" x2="80.57190436578607" y2="94.14885401869621"/><line stroke="black" x1="47.98897294010829" y1="98.4770989911675" x2="29.688796752368617" y2="110.1065248767974"/><line stroke="black" x1="29.688796752368617" y1="110.1065248767974" x2="48.96767506220302" y2="117.93093123302765"/><line stroke="black" x1="48.96767506220302" y1="117.93093123302765" x2="66.37290279461108" y2="104.83355537585962"/><line stroke="black" x1="92.37589362375081" y1="85.26639144466881" x2="110.6801827717921" y2="90.14933651248857"/><line stroke="black" x1="110.6801827717921" y1="90.14933651248857" x2="119.62173113887387" y2="81.9022694066651"/><line stroke="black" x1="119.62173113887387" y1="81.9022694066651" x2="102.34370677492105" y2="77.76564527104568"/><line stroke="black" x1="80.57190436578607" y1="94.14885401869621" x2="100" y2="100"/><line stroke="black" x1="100" y1="100" x2="110.6801827717921" y2="90.14933651248857"/><line stroke="black" x1="66.37290279461108" y1="104.83355537585962" x2="87.01947016966804" y2="111.97234485405231"/><line stroke="black" x1="87.01947016966804" y1="111.97234485405231" x2="100" y2="100"/><line stroke="black" x1="48.96767506220302" y1="117.93093123302765" x2="70.90570900098012" y2="126.83456605218622"/><line stroke="black" x1="70.90570900098012" y1="126.83456605218622" x2="87.01947016966804" y2="111.97234485405231"/><line stroke="black" x1="110.6801827717921" y1="90.14933651248857" x2="130.9369294289578" y2="95.55312905420912"/><line stroke="black" x1="130.9369294289578" y1="95.55312905420912" x2="138.58541641638305" y2="86.4424666286864"/><line stroke="black" x1="138.58541641638305" y1="86.4424666286864" x2="119.62173113887387" y2="81.9022694066651"/><line stroke="black" x1="100" y1="100" x2="121.71375394412145" y2="106.53951609675126"/><line stroke="black" x1="121.71375394412145" y1="106.53951609675126" x2="130.9369294289578" y2="95.55312905420912"/><line stroke="black" x1="87.01947016966804" y1="111.97234485405231" x2="110.3737840857161" y2="120.04736901790962"/><line stroke="black" x1="110.3737840857161" y1="120.04736901790962" x2="121.71375394412145" y2="106.53951609675126"/><line stroke="black" x1="70.90570900098012" y1="126.83456605218622" x2="96.09382204179826" y2="137.0572578815905"/><line stroke="black" x1="96.09382204179826" y1="137.0572578815905" x2="110.3737840857161" y2="120.04736901790962"/><line stroke="black" x1="130.9369294289578" y1="95.55312905420912" x2="153.47612641369147" y2="101.5657996287996"/><line stroke="black" x1="153.47612641369147" y1="101.5657996287996" x2="159.4940950556881" y2="91.44832510424834"/><line stroke="black" x1="159.4940950556881" y1="91.44832510424834" x2="138.58541641638305" y2="86.4424666286864"/><line stroke="black" x1="121.71375394412145" y1="106.53951609675126" x2="146.14172713125808" y2="113.89647170559644"/><line stroke="black" x1="146.14172713125808" y1="113.89647170559644" x2="153.47612641369147" y2="101.5657996287996"/><line stroke="black" x1="110.3737840857161" y1="120.04736901790962" x2="137.00589644612177" y2="129.2557299065188"/><line stroke="black" x1="137.00589644612177" y1="129.2557299065188" x2="146.14172713125808" y2="113.89647170559644"/><line stroke="black" x1="96.09382204179826" y1="137.0572578815905" x2="125.3120331691473" y2="148.91558040369947"/><line stroke="black" x1="125.3120331691473" y1="148.91558040369947" x2="137.00589644612177" y2="129.2557299065188"/></svg>