<svg height="200" width="200" version="1.1" xmlns="http://www.w3.org/2000/svg" id="example"><polygon points="100.37100999952553, 103.9750248372741, 91.49500988589733, 104.9702295123808, 88.19758660085083, 90.03844694085859, 100.51392314448056, 88.75633763878447" fill="rgb(255,255,255)" fill-opacity="1.0" stroke="black"/><polygon points="109.22172635269642, 105.14921235089871, 100.37100999952553, 103.9750248372741, 100.51392314448056, 88.75633763878447, 112.80119371740429, 90.26952021198072" fill="rgb(255,255,255)" fill-opacity="1.0" stroke="black"/><polygon points="100.19904373681699, 119.11645085196237, 95.4470312518664, 119.68718707807177, 91.49500988589733, 104.9702295123808, 100.37100999952553, 103.9750248372741" fill="rgb(255,255,255)" fill-opacity="1.0" stroke="black"/><polygon points="104.93473551680611, 119.78956897500348, 100.19904373681699, 119.11645085196237, 100.37100999952553, 103.9750248372741, 109.22172635269642, 105.14921235089871" fill="rgb(255,255,255)" fill-opacity="1.0" stroke="black"/><polygon points="91.49500988589733, 104.9702295123808, 83.207414185588, 108.09590595573886, 76.5637790395891, 94.09553196568554, 88.19758660085083, 90.03844694085859" fill="rgb(255,255,255)" fill-opacity="1.0" stroke="black"/><polygon points="95.4470312518664, 119.68718707807177, 91.07120332713677, 121.46374555351164, 83.207414185588, 108.09590595573886, 91.49500988589733, 104.9702295123808" fill="rgb(255,255,255)" fill-opacity="1.0" stroke="black"/><polygon points="117.43272968756544, 108.44667008592856, 109.22172635269642, 105.14921235089871, 112.80119371740429, 90.26952021198072, 124.3452256876925, 94.55371253174157" fill="rgb(255,255,255)" fill-opacity="1.0" stroke="black"/><polygon points="109.26214235581382, 121.66161368917788, 104.93473551680611, 119.78956897500348, 109.22172635269642, 105.14921235089871, 117.43272968756544, 108.44667008592856" fill="rgb(255,255,255)" fill-opacity="1.0" stroke="black"/><polygon points="100.51392314448056, 88.75633763878447, 88.19758660085083, 90.03844694085859, 85.64119289334673, 75.20468361802813, 100.62436497159253, 73.76345566449078" fill="rgb(255,255,255)" fill-opacity="1.0" stroke="black"/><polygon points="112.80119371740429, 90.26952021198072, 100.51392314448056, 88.75633763878447, 100.62436497159253, 73.76345566449078, 115.57785048892389, 75.4648637000284" fill="rgb(255,255,255)" fill-opacity="1.0" stroke="black"/><polygon points="88.19758660085083, 90.03844694085859, 76.5637790395891, 94.09553196568554, 71.36071955429901, 79.79197048754014, 85.64119289334673, 75.20468361802813" fill="rgb(255,255,255)" fill-opacity="1.0" stroke="black"/><polygon points="124.3452256876925, 94.55371253174157, 112.80119371740429, 90.26952021198072, 115.57785048892389, 75.4648637000284, 129.76504078272612, 80.31259377853293" fill="rgb(255,255,255)" fill-opacity="1.0" stroke="black"/><polygon points="91.07120332713677, 121.46374555351164, 87.45068039621154, 124.32328974406647, 76.13682358937454, 113.21732430583182, 83.207414185588, 108.09590595573886" fill="rgb(255,255,255)" fill-opacity="1.0" stroke="black"/><polygon points="83.207414185588, 108.09590595573886, 76.13682358937454, 113.21732430583182, 66.38129703962072, 100.84416845364849, 76.5637790395891, 94.09553196568554" fill="rgb(255,255,255)" fill-opacity="1.0" stroke="black"/><polygon points="100.19904373681699, 119.11645085196237, 99.99999999999999, 133.8426747543433, 95.4470312518664, 119.68718707807177" fill="rgb(255,255,255)" fill-opacity="1.0" stroke="black"/><polygon points="104.93473551680611, 119.78956897500348, 99.99999999999999, 133.8426747543433, 100.19904373681699, 119.11645085196237" fill="rgb(255,255,255)" fill-opacity="1.0" stroke="black"/><polygon points="112.80400540082454, 124.60254297378619, 109.26214235581382, 121.66161368917788, 117.43272968756544, 108.44667008592856, 124.37383629499952, 113.72355100141964" fill="rgb(255,255,255)" fill-opacity="1.0" stroke="black"/><polygon points="124.37383629499952, 113.72355100141964, 117.43272968756544, 108.44667008592856, 124.3452256876925, 94.55371253174157, 134.37021416274973, 101.51816732134759" fill="rgb(255,255,255)" fill-opacity="1.0" stroke="black"/><polygon points="95.4470312518664, 119.68718707807177, 99.99999999999999, 133.8426747543433, 91.07120332713677, 121.46374555351164" fill="rgb(255,255,255)" fill-opacity="1.0" stroke="black"/><polygon points="109.26214235581382, 121.66161368917788, 99.99999999999999, 133.8426747543433, 104.93473551680611, 119.78956897500348" fill="rgb(255,255,255)" fill-opacity="1.0" stroke="black"/><polygon points="91.07120332713677, 121.46374555351164, 99.99999999999999, 133.8426747543433, 87.45068039621154, 124.32328974406647" fill="rgb(255,255,255)" fill-opacity="1.0" stroke="black"/><polygon points="112.80400540082454, 124.60254297378619, 99.99999999999999, 133.8426747543433, 109.26214235581382, 121.66161368917788" fill="rgb(255,255,255)" fill-opacity="1.0" stroke="black"/><polygon points="76.5637790395891, 94.09553196568554, 66.38129703962072, 100.84416845364849, 58.61147869645242, 87.51360504707617, 71.36071955429901, 79.79197048754014" fill="rgb(255,255,255)" fill-opacity="1.0" stroke="black"/><polygon points="134.37021416274973, 101.51816732134759, 124.3452256876925, 94.55371253174157, 129.76504078272612, 80.31259377853293, 142.34523469660073, 88.2911046267934" fill="rgb(255,255,255)" fill-opacity="1.0" stroke="black"/><polygon points="100.62436497159253, 73.76345566449078, 85.64119289334673, 75.20468361802813, 83.97484232570088, 60.88186759844882, 100.69618899051022, 59.40017349993326" fill="rgb(255,255,255)" fill-opacity="1.0" stroke="black"/><polygon points="115.57785048892389, 75.4648637000284, 100.62436497159253, 73.76345566449078, 100.69618899051022, 59.40017349993326, 117.38853072588515, 61.149640518863436" fill="rgb(255,255,255)" fill-opacity="1.0" stroke="black"/><polygon points="87.45068039621154, 124.32328974406647, 84.93195146667306, 128.05375090858317, 70.92728173941289, 120.07157445597885, 76.13682358937454, 113.21732430583182" fill="rgb(255,255,255)" fill-opacity="1.0" stroke="black"/><polygon points="76.13682358937454, 113.21732430583182, 70.92728173941289, 120.07157445597885, 58.5176670447374, 110.07824049543413, 66.38129703962072, 100.84416845364849" fill="rgb(255,255,255)" fill-opacity="1.0" stroke="black"/><polygon points="87.45068039621154, 124.32328974406647, 99.99999999999999, 133.8426747543433, 84.93195146667306, 128.05375090858317" fill="rgb(255,255,255)" fill-opacity="1.0" stroke="black"/><polygon points="115.21767466059542, 128.3927182038236, 112.80400540082454, 124.60254297378619, 124.37383629499952, 113.72355100141964, 129.4005750663439, 120.70435728134285" fill="rgb(255,255,255)" fill-opacity="1.0" stroke="black"/><polygon points="115.21767466059542, 128.3927182038236, 99.99999999999999, 133.8426747543433, 112.80400540082454, 124.60254297378619" fill="rgb(255,255,255)" fill-opacity="1.0" stroke="black"/><polygon points="129.4005750663439, 120.70435728134285, 124.37383629499952, 113.72355100141964, 134.37021416274973, 101.51816732134759, 141.99977573256012, 110.94266373789634" fill="rgb(255,255,255)" fill-opacity="1.0" stroke="black"/><polygon points="85.64119289334673, 75.20468361802813, 71.36071955429901, 79.79197048754014, 67.94419065509965, 65.61597162977876, 83.97484232570088, 60.88186759844882" fill="rgb(255,255,255)" fill-opacity="1.0" stroke="black"/><polygon points="129.76504078272612, 80.31259377853293, 115.57785048892389, 75.4648637000284, 117.38853072588515, 61.149640518863436, 133.32686307293403, 66.15499735888122" fill="rgb(255,255,255)" fill-opacity="1.0" stroke="black"/><polygon points="84.93195146667306, 128.05375090858317, 99.99999999999999, 133.8426747543433, 83.80019220356891, 132.35127548506063" fill="rgb(255,255,255)" fill-opacity="1.0" stroke="black"/><polygon points="84.93195146667306, 128.05375090858317, 83.80019220356891, 132.35127548506063, 68.20669224962175, 128.22112347315584, 70.92728173941289, 120.07157445597885" fill="rgb(255,255,255)" fill-opacity="1.0" stroke="black"/><polygon points="116.22466674269933, 132.7207944346771, 99.99999999999999, 133.8426747543433, 115.21767466059542, 128.3927182038236" fill="rgb(255,255,255)" fill-opacity="1.0" stroke="black"/><polygon points="116.22466674269933, 132.7207944346771, 115.21767466059542, 128.3927182038236, 129.4005750663439, 120.70435728134285, 131.8891984275267, 128.9349474155161" fill="rgb(255,255,255)" fill-opacity="1.0" stroke="black"/><polygon points="66.38129703962072, 100.84416845364849, 58.5176670447374, 110.07824049543413, 48.40433219378313, 98.26740648875314, 58.61147869645242, 87.51360504707617" fill="rgb(255,255,255)" fill-opacity="1.0" stroke="black"/><polygon points="83.80019220356891, 132.35127548506063, 99.99999999999999, 133.8426747543433, 84.24043576694966, 136.82660366277764" fill="rgb(255,255,255)" fill-opacity="1.0" stroke="black"/><polygon points="115.65020396375154, 137.19120369199726, 99.99999999999999, 133.8426747543433, 116.22466674269933, 132.7207944346771" fill="rgb(255,255,255)" fill-opacity="1.0" stroke="black"/><polygon points="84.24043576694966, 136.82660366277764, 99.99999999999999, 133.8426747543433, 86.2935625237408, 141.0283897557514" fill="rgb(255,255,255)" fill-opacity="1.0" stroke="black"/><polygon points="113.46721219203764, 141.34918983609077, 99.99999999999999, 133.8426747543433, 115.65020396375154, 137.19120369199726" fill="rgb(255,255,255)" fill-opacity="1.0" stroke="black"/><polygon points="86.2935625237408, 141.0283897557514, 99.99999999999999, 133.8426747543433, 89.81905580951965, 144.48889831426902" fill="rgb(255,255,255)" fill-opacity="1.0" stroke="black"/><polygon points="109.83227832472559, 144.72840282511095, 99.99999999999999, 133.8426747543433, 113.46721219203764, 141.34918983609077" fill="rgb(255,255,255)" fill-opacity="1.0" stroke="black"/><polygon points="89.81905580951965, 144.48889831426902, 99.99999999999999, 133.8426747543433, 94.48149752856499, 146.7900761539989" fill="rgb(255,255,255)" fill-opacity="1.0" stroke="black"/><polygon points="105.09641624368004, 146.91823563917504, 99.99999999999999, 133.8426747543433, 109.83227832472559, 144.72840282511095" fill="rgb(255,255,255)" fill-opacity="1.0" stroke="black"/><polygon points="94.48149752856499, 146.7900761539989, 99.99999999999999, 133.8426747543433, 99.77601058801709, 147.63716237447306" fill="rgb(255,255,255)" fill-opacity="1.0" stroke="black"/><polygon points="99.77601058801709, 147.63716237447306, 99.99999999999999, 133.8426747543433, 105.09641624368004, 146.91823563917504" fill="rgb(255,255,255)" fill-opacity="1.0" stroke="black"/><polygon points="141.99977573256012, 110.94266373789634, 134.37021416274973, 101.51816732134759, 142.34523469660073, 88.2911046267934, 152.2896891096856, 99.28544761389308" fill="rgb(255,255,255)" fill-opacity="1.0" stroke="black"/><polygon points="71.36071955429901, 79.79197048754014, 58.61147869645242, 87.51360504707617, 53.44622095501768, 73.64720455705552, 67.94419065509965, 65.61597162977876" fill="rgb(255,255,255)" fill-opacity="1.0" stroke="black"/><polygon points="70.92728173941289, 120.07157445597885, 68.20669224962175, 128.22112347315584, 53.93459012818611, 121.36978649597829, 58.5176670447374, 110.07824049543413" fill="rgb(255,255,255)" fill-opacity="1.0" stroke="black"/><polygon points="142.34523469660073, 88.2911046267934, 129.76504078272612, 80.31259377853293, 133.32686307293403, 66.15499735888122, 147.6534848690755, 74.46025711053457" fill="rgb(255,255,255)" fill-opacity="1.0" stroke="black"/><polygon points="131.8891984275267, 128.9349474155161, 129.4005750663439, 120.70435728134285, 141.99977573256012, 110.94266373789634, 146.26698791978956, 122.37546932037424" fill="rgb(255,255,255)" fill-opacity="1.0" stroke="black"/><polygon points="83.80019220356891, 132.35127548506063, 84.24043576694966, 136.82660366277764, 68.50731857537014, 137.01088112670405, 68.20669224962175, 128.22112347315584" fill="rgb(255,255,255)" fill-opacity="1.0" stroke="black"/><polygon points="115.65020396375154, 137.19120369199726, 116.22466674269933, 132.7207944346771, 131.8891984275267, 128.9349474155161, 131.32062338681672, 137.74110034008373" fill="rgb(255,255,255)" fill-opacity="1.0" stroke="black"/><polygon points="84.24043576694966, 136.82660366277764, 86.2935625237408, 141.0283897557514, 72.1335585759373, 145.55991471870726, 68.50731857537014, 137.01088112670405" fill="rgb(255,255,255)" fill-opacity="1.0" stroke="black"/><polygon points="113.46721219203764, 141.34918983609077, 115.65020396375154, 137.19120369199726, 131.32062338681672, 137.74110034008373, 127.41649515564552, 146.2248606751762" fill="rgb(255,255,255)" fill-opacity="1.0" stroke="black"/><polygon points="100.69618899051022, 59.40017349993326, 83.97484232570088, 60.88186759844882, 83.43753853460461, 47.74123744102846, 100.71932031548012, 46.32911517492036" fill="rgb(255,255,255)" fill-opacity="1.0" stroke="black"/><polygon points="117.38853072588515, 61.149640518863436, 100.69618899051022, 59.40017349993326, 100.71932031548012, 46.32911517492036, 117.97249963436485, 47.99652569110759" fill="rgb(255,255,255)" fill-opacity="1.0" stroke="black"/><polygon points="83.97484232570088, 60.88186759844882, 67.94419065509965, 65.61597162977876, 66.83831420957233, 52.25861329027191, 83.43753853460461, 47.74123744102846" fill="rgb(255,255,255)" fill-opacity="1.0" stroke="black"/><polygon points="68.20669224962175, 128.22112347315584, 68.50731857537014, 137.01088112670405, 53.59654609164932, 133.9462885735213, 53.93459012818611, 121.36978649597829" fill="rgb(255,255,255)" fill-opacity="1.0" stroke="black"/><polygon points="133.32686307293403, 66.15499735888122, 117.38853072588515, 61.149640518863436, 117.97249963436485, 47.99652569110759, 134.48027241708894, 52.77349990976444" fill="rgb(255,255,255)" fill-opacity="1.0" stroke="black"/><polygon points="58.5176670447374, 110.07824049543413, 53.93459012818611, 121.36978649597829, 41.97293328024997, 111.72225722523142, 48.40433219378313, 98.26740648875314" fill="rgb(255,255,255)" fill-opacity="1.0" stroke="black"/><polygon points="131.32062338681672, 137.74110034008373, 131.8891984275267, 128.9349474155161, 146.26698791978956, 122.37546932037424, 146.2150257289919, 135.01030858888916" fill="rgb(255,255,255)" fill-opacity="1.0" stroke="black"/><polygon points="58.61147869645242, 87.51360504707617, 48.40433219378313, 98.26740648875314, 41.56504086297345, 84.96468763387037, 53.44622095501768, 73.64720455705552" fill="rgb(255,255,255)" fill-opacity="1.0" stroke="black"/><polygon points="86.2935625237408, 141.0283897557514, 89.81905580951965, 144.48889831426902, 79.000286771366, 152.82737863226018, 72.1335585759373, 145.55991471870726" fill="rgb(255,255,255)" fill-opacity="1.0" stroke="black"/><polygon points="146.26698791978956, 122.37546932037424, 141.99977573256012, 110.94266373789634, 152.2896891096856, 99.28544761389308, 158.347286644219, 112.93728409404824" fill="rgb(255,255,255)" fill-opacity="1.0" stroke="black"/><polygon points="109.83227832472559, 144.72840282511095, 113.46721219203764, 141.34918983609077, 127.41649515564552, 146.2248606751762, 120.30096473834759, 153.33819198791574" fill="rgb(255,255,255)" fill-opacity="1.0" stroke="black"/><polygon points="152.2896891096856, 99.28544761389308, 142.34523469660073, 88.2911046267934, 147.6534848690755, 74.46025711053457, 159.25966151953142, 86.04418413491044" fill="rgb(255,255,255)" fill-opacity="1.0" stroke="black"/><polygon points="89.81905580951965, 144.48889831426902, 94.48149752856499, 146.7900761539989, 88.5061488335914, 157.77823747648625, 79.000286771366, 152.82737863226018" fill="rgb(255,255,255)" fill-opacity="1.0" stroke="black"/><polygon points="105.09641624368004, 146.91823563917504, 109.83227832472559, 144.72840282511095, 120.30096473834759, 153.33819198791574, 110.6205106350223, 158.05680874049787" fill="rgb(255,255,255)" fill-opacity="1.0" stroke="black"/><polygon points="67.94419065509965, 65.61597162977876, 53.44622095501768, 73.64720455705552, 51.763408529536356, 59.941594154267136, 66.83831420957233, 52.25861329027191" fill="rgb(255,255,255)" fill-opacity="1.0" stroke="black"/><polygon points="94.48149752856499, 146.7900761539989, 99.77601058801709, 147.63716237447306, 99.5317958493509, 159.62512497099786, 88.5061488335914, 157.77823747648625" fill="rgb(255,255,255)" fill-opacity="1.0" stroke="black"/><polygon points="99.77601058801709, 147.63716237447306, 105.09641624368004, 146.91823563917504, 110.6205106350223, 158.05680874049787, 99.5317958493509, 159.62512497099786" fill="rgb(255,255,255)" fill-opacity="1.0" stroke="black"/><polygon points="147.6534848690755, 74.46025711053457, 133.32686307293403, 66.15499735888122, 134.48027241708894, 52.77349990976444, 149.38401946119853, 60.7207566921478" fill="rgb(255,255,255)" fill-opacity="1.0" stroke="black"/><polygon points="68.50731857537014, 137.01088112670405, 72.1335585759373, 145.55991471870726, 58.25125806336455, 146.5943114995479, 53.59654609164932, 133.9462885735213" fill="rgb(255,255,255)" fill-opacity="1.0" stroke="black"/><polygon points="127.41649515564552, 146.2248606751762, 131.32062338681672, 137.74110034008373, 146.2150257289919, 135.01030858888916, 141.12828009626375, 147.59587829054635" fill="rgb(255,255,255)" fill-opacity="1.0" stroke="black"/><polygon points="53.93459012818611, 121.36978649597829, 53.59654609164932, 133.9462885735213, 40.70454244990405, 127.11820380192916, 41.97293328024997, 111.72225722523142" fill="rgb(255,255,255)" fill-opacity="1.0" stroke="black"/><polygon points="146.2150257289919, 135.01030858888916, 146.26698791978956, 122.37546932037424, 158.347286644219, 112.93728409404824, 159.12678575091402, 128.44114859029432" fill="rgb(255,255,255)" fill-opacity="1.0" stroke="black"/><polygon points="48.40433219378313, 98.26740648875314, 41.97293328024997, 111.72225722523142, 33.70918884074603, 99.34652621221605, 41.56504086297345, 84.96468763387037" fill="rgb(255,255,255)" fill-opacity="1.0" stroke="black"/><polygon points="158.347286644219, 112.93728409404824, 152.2896891096856, 99.28544761389308, 159.25966151953142, 86.04418413491044, 166.70906046232884, 100.65759675673753" fill="rgb(255,255,255)" fill-opacity="1.0" stroke="black"/><polygon points="72.1335585759373, 145.55991471870726, 79.000286771366, 152.82737863226018, 68.08390157505065, 157.6846363880389, 58.25125806336455, 146.5943114995479" fill="rgb(255,255,255)" fill-opacity="1.0" stroke="black"/><polygon points="53.44622095501768, 73.64720455705552, 41.56504086297345, 84.96468763387037, 39.31642088531794, 70.81000313694756, 51.763408529536356, 59.941594154267136" fill="rgb(255,255,255)" fill-opacity="1.0" stroke="black"/><polygon points="100.71932031548012, 46.32911517492036, 83.43753853460461, 47.74123744102846, 84.3771112799111, 36.913785073933326, 100.6788621284312, 35.67347092872873" fill="rgb(255,255,255)" fill-opacity="1.0" stroke="black"/><polygon points="117.97249963436485, 47.99652569110759, 100.71932031548012, 46.32911517492036, 100.6788621284312, 35.67347092872873, 116.95136503488739, 37.137877490232086" fill="rgb(255,255,255)" fill-opacity="1.0" stroke="black"/><polygon points="120.30096473834759, 153.33819198791574, 127.41649515564552, 146.2248606751762, 141.12828009626375, 147.59587829054635, 130.8855049267009, 158.47622543616072" fill="rgb(255,255,255)" fill-opacity="1.0" stroke="black"/><polygon points="159.25966151953142, 86.04418413491044, 147.6534848690755, 74.46025711053457, 149.38401946119853, 60.7207566921478, 161.55323628971547, 71.84922293646918" fill="rgb(255,255,255)" fill-opacity="1.0" stroke="black"/><polygon points="83.43753853460461, 47.74123744102846, 66.83831420957233, 52.25861329027191, 68.77078277289934, 40.87301628706646, 84.3771112799111, 36.913785073933326" fill="rgb(255,255,255)" fill-opacity="1.0" stroke="black"/><polygon points="134.48027241708894, 52.77349990976444, 117.97249963436485, 47.99652569110759, 116.95136503488739, 37.137877490232086, 132.46490321164958, 41.32346278037096" fill="rgb(255,255,255)" fill-opacity="1.0" stroke="black"/><polygon points="79.000286771366, 152.82737863226018, 88.5061488335914, 157.77823747648625, 82.35746279557124, 165.42525235256412, 68.08390157505065, 157.6846363880389" fill="rgb(255,255,255)" fill-opacity="1.0" stroke="black"/><polygon points="110.6205106350223, 158.05680874049787, 120.30096473834759, 153.33819198791574, 130.8855049267009, 158.47622543616072, 116.31112948953468, 165.86537477800292" fill="rgb(255,255,255)" fill-opacity="1.0" stroke="black"/><polygon points="53.59654609164932, 133.9462885735213, 58.25125806336455, 146.5943114995479, 45.86772012963615, 143.05593216257748, 40.70454244990405, 127.11820380192916" fill="rgb(255,255,255)" fill-opacity="1.0" stroke="black"/><polygon points="141.12828009626375, 147.59587829054635, 146.2150257289919, 135.01030858888916, 159.12678575091402, 128.44114859029432, 153.3899662389202, 144.3380610132502" fill="rgb(255,255,255)" fill-opacity="1.0" stroke="black"/><polygon points="66.83831420957233, 52.25861329027191, 51.763408529536356, 59.941594154267136, 54.70055197191017, 47.57701975556816, 68.77078277289934, 40.87301628706646" fill="rgb(255,255,255)" fill-opacity="1.0" stroke="black"/><polygon points="149.38401946119853, 60.7207566921478, 134.48027241708894, 52.77349990976444, 132.46490321164958, 41.32346278037096, 146.36394612379266, 48.25482043700711" fill="rgb(255,255,255)" fill-opacity="1.0" stroke="black"/><polygon points="88.5061488335914, 157.77823747648625, 99.5317958493509, 159.62512497099786, 99.27865101521203, 168.35243048205706, 82.35746279557124, 165.42525235256412" fill="rgb(255,255,255)" fill-opacity="1.0" stroke="black"/><polygon points="99.5317958493509, 159.62512497099786, 110.6205106350223, 158.05680874049787, 116.31112948953468, 165.86537477800292, 99.27865101521203, 168.35243048205706" fill="rgb(255,255,255)" fill-opacity="1.0" stroke="black"/><polygon points="41.97293328024997, 111.72225722523142, 40.70454244990405, 127.11820380192916, 31.578806393812176, 116.11338226970607, 33.70918884074603, 99.34652621221605" fill="rgb(255,255,255)" fill-opacity="1.0" stroke="black"/><polygon points="159.12678575091402, 128.44114859029432, 158.347286644219, 112.93728409404824, 166.70906046232884, 100.65759675673753, 168.285582224004, 117.56987724477379" fill="rgb(255,255,255)" fill-opacity="1.0" stroke="black"/><polygon points="41.56504086297345, 84.96468763387037, 33.70918884074603, 99.34652621221605, 30.9607285164624, 84.6919930608779, 39.31642088531794, 70.81000313694756" fill="rgb(255,255,255)" fill-opacity="1.0" stroke="black"/><polygon points="166.70906046232884, 100.65759675673753, 159.25966151953142, 86.04418413491044, 161.55323628971547, 71.84922293646918, 169.49304023024038, 85.96146007385599" fill="rgb(255,255,255)" fill-opacity="1.0" stroke="black"/><polygon points="58.25125806336455, 146.5943114995479, 68.08390157505065, 157.6846363880389, 58.07619173378742, 157.42166740788366, 45.86772012963615, 143.05593216257748" fill="rgb(255,255,255)" fill-opacity="1.0" stroke="black"/><polygon points="51.763408529536356, 59.941594154267136, 39.31642088531794, 70.81000313694756, 43.23455117671929, 56.9971919491301, 54.70055197191017, 47.57701975556816" fill="rgb(255,255,255)" fill-opacity="1.0" stroke="black"/><polygon points="130.8855049267009, 158.47622543616072, 141.12828009626375, 147.59587829054635, 153.3899662389202, 144.3380610132502, 140.60793169280123, 158.46141184378087" fill="rgb(255,255,255)" fill-opacity="1.0" stroke="black"/><polygon points="161.55323628971547, 71.84922293646918, 149.38401946119853, 60.7207566921478, 146.36394612379266, 48.25482043700711, 157.55741123171393, 57.89407195689404" fill="rgb(255,255,255)" fill-opacity="1.0" stroke="black"/><polygon points="100.6788621284312, 35.67347092872873, 84.3771112799111, 36.913785073933326, 87.23283243754368, 30.208534146450774, 100.55563893184211, 29.24018143814442" fill="rgb(255,255,255)" fill-opacity="1.0" stroke="black"/><polygon points="116.95136503488739, 37.137877490232086, 100.6788621284312, 35.67347092872873, 100.55563893184211, 29.24018143814442, 113.8489081516802, 30.38316814851808" fill="rgb(255,255,255)" fill-opacity="1.0" stroke="black"/><polygon points="84.3771112799111, 36.913785073933326, 68.77078277289934, 40.87301628706646, 74.60562456490132, 33.27952194252447, 87.23283243754368, 30.208534146450774" fill="rgb(255,255,255)" fill-opacity="1.0" stroke="black"/><polygon points="132.46490321164958, 41.32346278037096, 116.95136503488739, 37.137877490232086, 113.8489081516802, 30.38316814851808, 126.3843164644384, 33.62698525236337" fill="rgb(255,255,255)" fill-opacity="1.0" stroke="black"/><polygon points="40.70454244990405, 127.11820380192916, 45.86772012963615, 143.05593216257748, 36.87937399723702, 133.82931098453258, 31.578806393812176, 116.11338226970607" fill="rgb(255,255,255)" fill-opacity="1.0" stroke="black"/><polygon points="153.3899662389202, 144.3380610132502, 159.12678575091402, 128.44114859029432, 168.285582224004, 117.56987724477379, 162.3077960901104, 135.2707049469994" fill="rgb(255,255,255)" fill-opacity="1.0" stroke="black"/><polygon points="68.08390157505065, 157.6846363880389, 82.35746279557124, 165.42525235256412, 76.61211735464919, 167.67289909753686, 58.07619173378742, 157.42166740788366" fill="rgb(255,255,255)" fill-opacity="1.0" stroke="black"/><polygon points="116.31112948953468, 165.86537477800292, 130.8855049267009, 158.47622543616072, 140.60793169280123, 158.46141184378087, 121.63421971778787, 168.26144493936835" fill="rgb(255,255,255)" fill-opacity="1.0" stroke="black"/><polygon points="33.70918884074603, 99.34652621221605, 31.578806393812176, 116.11338226970607, 28.502834853954916, 100.9770276095507, 30.9607285164624, 84.6919930608779" fill="rgb(255,255,255)" fill-opacity="1.0" stroke="black"/><polygon points="168.285582224004, 117.56987724477379, 166.70906046232884, 100.65759675673753, 169.49304023024038, 85.96146007385599, 171.3762689848879, 102.39683031072865" fill="rgb(255,255,255)" fill-opacity="1.0" stroke="black"/><polygon points="68.77078277289934, 40.87301628706646, 54.70055197191017, 47.57701975556816, 63.47067854718959, 38.41069818994788, 74.60562456490132, 33.27952194252447" fill="rgb(255,255,255)" fill-opacity="1.0" stroke="black"/><polygon points="146.36394612379266, 48.25482043700711, 132.46490321164958, 41.32346278037096, 126.3843164644384, 33.62698525236337, 137.35631163555294, 38.92473221027748" fill="rgb(255,255,255)" fill-opacity="1.0" stroke="black"/><polygon points="39.31642088531794, 70.81000313694756, 30.9607285164624, 84.6919930608779, 35.739658273479805, 68.92265156073603, 43.23455117671929, 56.9971919491301" fill="rgb(255,255,255)" fill-opacity="1.0" stroke="black"/><polygon points="169.49304023024038, 85.96146007385599, 161.55323628971547, 71.84922293646918, 157.55741123171393, 57.89407195689404, 164.65328576165072, 70.00728058570195" fill="rgb(255,255,255)" fill-opacity="1.0" stroke="black"/><polygon points="82.35746279557124, 165.42525235256412, 99.27865101521203, 168.35243048205706, 99.04040161972063, 171.5988316163855, 76.61211735464919, 167.67289909753686" fill="rgb(255,255,255)" fill-opacity="1.0" stroke="black"/><polygon points="99.27865101521203, 168.35243048205706, 116.31112948953468, 165.86537477800292, 121.63421971778787, 168.26144493936835, 99.04040161972063, 171.5988316163855" fill="rgb(255,255,255)" fill-opacity="1.0" stroke="black"/><polygon points="45.86772012963615, 143.05593216257748, 58.07619173378742, 157.42166740788366, 50.646918548068996, 150.120383920697, 36.87937399723702, 133.82931098453258" fill="rgb(255,255,255)" fill-opacity="1.0" stroke="black"/><polygon points="54.70055197191017, 47.57701975556816, 43.23455117671929, 56.9971919491301, 54.753405689663694, 45.47821622757863, 63.47067854718959, 38.41069818994788" fill="rgb(255,255,255)" fill-opacity="1.0" stroke="black"/><polygon points="140.60793169280123, 158.46141184378087, 153.3899662389202, 144.3380610132502, 162.3077960901104, 135.2707049469994, 147.83717113576307, 151.3115932212417" fill="rgb(255,255,255)" fill-opacity="1.0" stroke="black"/><polygon points="157.55741123171393, 57.89407195689404, 146.36394612379266, 48.25482043700711, 137.35631163555294, 38.92473221027748, 145.82744137713354, 46.14259858407647" fill="rgb(255,255,255)" fill-opacity="1.0" stroke="black"/><polygon points="31.578806393812176, 116.11338226970607, 36.87937399723702, 133.82931098453258, 33.806937198274476, 118.30306650395576, 28.502834853954916, 100.9770276095507" fill="rgb(255,255,255)" fill-opacity="1.0" stroke="black"/><polygon points="162.3077960901104, 135.2707049469994, 168.285582224004, 117.56987724477379, 171.3762689848879, 102.39683031072865, 165.3595948978092, 119.7181655723274" fill="rgb(255,255,255)" fill-opacity="1.0" stroke="black"/><polygon points="30.9607285164624, 84.6919930608779, 28.502834853954916, 100.9770276095507, 33.83804435808491, 82.76209764925429, 35.739658273479805, 68.92265156073603" fill="rgb(255,255,255)" fill-opacity="1.0" stroke="black"/><polygon points="100.55563893184211, 29.24018143814442, 87.23283243754368, 30.208534146450774, 92.41657262940606, 30.186033613852516, 100.33097624485177, 29.609310643217242" fill="rgb(255,255,255)" fill-opacity="1.0" stroke="black"/><polygon points="113.8489081516802, 30.38316814851808, 100.55563893184211, 29.24018143814442, 100.33097624485177, 29.609310643217242, 108.22175415957007, 30.289692677131995" fill="rgb(255,255,255)" fill-opacity="1.0" stroke="black"/><polygon points="171.3762689848879, 102.39683031072865, 169.49304023024038, 85.96146007385599, 164.65328576165072, 70.00728058570195, 166.01668403421584, 83.96107520940407" fill="rgb(255,255,255)" fill-opacity="1.0" stroke="black"/><polygon points="87.23283243754368, 30.208534146450774, 74.60562456490132, 33.27952194252447, 85.05070704963431, 31.99358531653357, 92.41657262940606, 30.186033613852516" fill="rgb(255,255,255)" fill-opacity="1.0" stroke="black"/><polygon points="126.3843164644384, 33.62698525236337, 113.8489081516802, 30.38316814851808, 108.22175415957007, 30.289692677131995, 115.51641050001183, 32.19607179627275" fill="rgb(255,255,255)" fill-opacity="1.0" stroke="black"/><polygon points="58.07619173378742, 157.42166740788366, 76.61211735464919, 167.67289909753686, 72.278163927083, 161.9375675776161, 50.646918548068996, 150.120383920697" fill="rgb(255,255,255)" fill-opacity="1.0" stroke="black"/><polygon points="121.63421971778787, 168.26144493936835, 140.60793169280123, 158.46141184378087, 147.83717113576307, 151.3115932212417, 125.65333836141923, 162.6209555599695" fill="rgb(255,255,255)" fill-opacity="1.0" stroke="black"/><polygon points="43.23455117671929, 56.9971919491301, 35.739658273479805, 68.92265156073603, 49.51774476341052, 54.194477355489, 54.753405689663694, 45.47821622757863" fill="rgb(255,255,255)" fill-opacity="1.0" stroke="black"/><polygon points="164.65328576165072, 70.00728058570195, 157.55741123171393, 57.89407195689404, 145.82744137713354, 46.14259858407647, 150.72444350834232, 54.974776622950884" fill="rgb(255,255,255)" fill-opacity="1.0" stroke="black"/><polygon points="74.60562456490132, 33.27952194252447, 63.47067854718959, 38.41069818994788, 78.81124969956349, 34.94290829691664, 85.05070704963431, 31.99358531653357" fill="rgb(255,255,255)" fill-opacity="1.0" stroke="black"/><polygon points="137.35631163555294, 38.92473221027748, 126.3843164644384, 33.62698525236337, 115.51641050001183, 32.19607179627275, 121.63664111324168, 35.2336049292895" fill="rgb(255,255,255)" fill-opacity="1.0" stroke="black"/><polygon points="76.61211735464919, 167.67289909753686, 99.04040161972063, 171.5988316163855, 98.85957604269919, 166.50638753853147, 72.278163927083, 161.9375675776161" fill="rgb(255,255,255)" fill-opacity="1.0" stroke="black"/><polygon points="99.04040161972063, 171.5988316163855, 121.63421971778787, 168.26144493936835, 125.65333836141923, 162.6209555599695, 98.85957604269919, 166.50638753853147" fill="rgb(255,255,255)" fill-opacity="1.0" stroke="black"/><polygon points="36.87937399723702, 133.82931098453258, 50.646918548068996, 150.120383920697, 48.07467655371978, 134.34481892130498, 33.806937198274476, 118.30306650395576" fill="rgb(255,255,255)" fill-opacity="1.0" stroke="black"/><polygon points="63.47067854718959, 38.41069818994788, 54.753405689663694, 45.47821622757863, 74.27470743922946, 38.86631778858347, 78.81124969956349, 34.94290829691664" fill="rgb(255,255,255)" fill-opacity="1.0" stroke="black"/><polygon points="147.83717113576307, 151.3115932212417, 162.3077960901104, 135.2707049469994, 165.3595948978092, 119.7181655723274, 150.34249264142133, 135.52193215738924" fill="rgb(255,255,255)" fill-opacity="1.0" stroke="black"/><polygon points="145.82744137713354, 46.14259858407647, 137.35631163555294, 38.92473221027748, 121.63664111324168, 35.2336049292895, 126.00710839168876, 39.22716015541474" fill="rgb(255,255,255)" fill-opacity="1.0" stroke="black"/><polygon points="28.502834853954916, 100.9770276095507, 33.806937198274476, 118.30306650395576, 39.12217012257007, 97.310964328682, 33.83804435808491, 82.76209764925429" fill="rgb(255,255,255)" fill-opacity="1.0" stroke="black"/><polygon points="165.3595948978092, 119.7181655723274, 171.3762689848879, 102.39683031072865, 166.01668403421584, 83.96107520940407, 160.0811809347025, 98.4913565028729" fill="rgb(255,255,255)" fill-opacity="1.0" stroke="black"/><polygon points="35.739658273479805, 68.92265156073603, 33.83804435808491, 82.76209764925429, 48.879060934097176, 63.999813452974394, 49.51774476341052, 54.194477355489" fill="rgb(255,255,255)" fill-opacity="1.0" stroke="black"/><polygon points="166.01668403421584, 83.96107520940407, 164.65328576165072, 70.00728058570195, 150.72444350834232, 54.974776622950884, 150.9360851005161, 64.83413021695074" fill="rgb(255,255,255)" fill-opacity="1.0" stroke="black"/><polygon points="54.753405689663694, 45.47821622757863, 49.51774476341052, 54.194477355489, 71.98240814754574, 43.49604351834495, 74.27470743922946, 38.86631778858347" fill="rgb(255,255,255)" fill-opacity="1.0" stroke="black"/><polygon points="150.72444350834232, 54.974776622950884, 145.82744137713354, 46.14259858407647, 126.00710839168876, 39.22716015541474, 128.0920326534623, 43.89976111274018" fill="rgb(255,255,255)" fill-opacity="1.0" stroke="black"/><polygon points="100.33097624485177, 29.609310643217242, 92.41657262940606, 30.186033613852516, 99.99999999999999, 39.66616761451155" fill="rgb(255,255,255)" fill-opacity="1.0" stroke="black"/><polygon points="108.22175415957007, 30.289692677131995, 100.33097624485177, 29.609310643217242, 99.99999999999999, 39.66616761451155" fill="rgb(255,255,255)" fill-opacity="1.0" stroke="black"/><polygon points="50.646918548068996, 150.120383920697, 72.278163927083, 161.9375675776161, 70.763685943976, 146.04723551451133, 48.07467655371978, 134.34481892130498" fill="rgb(255,255,255)" fill-opacity="1.0" stroke="black"/><polygon points="92.41657262940606, 30.186033613852516, 85.05070704963431, 31.99358531653357, 99.99999999999999, 39.66616761451155" fill="rgb(255,255,255)" fill-opacity="1.0" stroke="black"/><polygon points="115.51641050001183, 32.19607179627275, 108.22175415957007, 30.289692677131995, 99.99999999999999, 39.66616761451155" fill="rgb(255,255,255)" fill-opacity="1.0" stroke="black"/><polygon points="125.65333836141923, 162.6209555599695, 147.83717113576307, 151.3115932212417, 150.34249264142133, 135.52193215738924, 127.05854789809817, 146.72569601267259" fill="rgb(255,255,255)" fill-opacity="1.0" stroke="black"/><polygon points="85.05070704963431, 31.99358531653357, 78.81124969956349, 34.94290829691664, 99.99999999999999, 39.66616761451155" fill="rgb(255,255,255)" fill-opacity="1.0" stroke="black"/><polygon points="121.63664111324168, 35.2336049292895, 115.51641050001183, 32.19607179627275, 99.99999999999999, 39.66616761451155" fill="rgb(255,255,255)" fill-opacity="1.0" stroke="black"/><polygon points="33.806937198274476, 118.30306650395576, 48.07467655371978, 134.34481892130498, 52.51397969185162, 110.62313081995693, 39.12217012257007, 97.310964328682" fill="rgb(255,255,255)" fill-opacity="1.0" stroke="black"/><polygon points="78.81124969956349, 34.94290829691664, 74.27470743922946, 38.86631778858347, 99.99999999999999, 39.66616761451155" fill="rgb(255,255,255)" fill-opacity="1.0" stroke="black"/><polygon points="33.83804435808491, 82.76209764925429, 39.12217012257007, 97.310964328682, 53.761706747895644, 73.96578987469297, 48.879060934097176, 63.999813452974394" fill="rgb(255,255,255)" fill-opacity="1.0" stroke="black"/><polygon points="126.00710839168876, 39.22716015541474, 121.63664111324168, 35.2336049292895, 99.99999999999999, 39.66616761451155" fill="rgb(255,255,255)" fill-opacity="1.0" stroke="black"/><polygon points="150.34249264142133, 135.52193215738924, 165.3595948978092, 119.7181655723274, 160.0811809347025, 98.4913565028729, 146.01943763453247, 111.594032115042" fill="rgb(255,255,255)" fill-opacity="1.0" stroke="black"/><polygon points="49.51774476341052, 54.194477355489, 48.879060934097176, 63.999813452974394, 72.36919890702305, 48.447212423971024, 71.98240814754574, 43.49604351834495" fill="rgb(255,255,255)" fill-opacity="1.0" stroke="black"/><polygon points="160.0811809347025, 98.4913565028729, 166.01668403421584, 83.96107520940407, 150.9360851005161, 64.83413021695074, 145.57035282530194, 74.75951559596214" fill="rgb(255,255,255)" fill-opacity="1.0" stroke="black"/><polygon points="72.278163927083, 161.9375675776161, 98.85957604269919, 166.50638753853147, 98.7961620042762, 150.5866766788925, 70.763685943976, 146.04723551451133" fill="rgb(255,255,255)" fill-opacity="1.0" stroke="black"/><polygon points="150.9360851005161, 64.83413021695074, 150.72444350834232, 54.974776622950884, 128.0920326534623, 43.89976111274018, 127.46982116691672, 48.85658094241242" fill="rgb(255,255,255)" fill-opacity="1.0" stroke="black"/><polygon points="98.85957604269919, 166.50638753853147, 125.65333836141923, 162.6209555599695, 127.05854789809817, 146.72569601267259, 98.7961620042762, 150.5866766788925" fill="rgb(255,255,255)" fill-opacity="1.0" stroke="black"/><polygon points="74.27470743922946, 38.86631778858347, 71.98240814754574, 43.49604351834495, 99.99999999999999, 39.66616761451155" fill="rgb(255,255,255)" fill-opacity="1.0" stroke="black"/><polygon points="128.0920326534623, 43.89976111274018, 126.00710839168876, 39.22716015541474, 99.99999999999999, 39.66616761451155" fill="rgb(255,255,255)" fill-opacity="1.0" stroke="black"/><polygon points="71.98240814754574, 43.49604351834495, 72.36919890702305, 48.447212423971024, 99.99999999999999, 39.66616761451155" fill="rgb(255,255,255)" fill-opacity="1.0" stroke="black"/><polygon points="127.46982116691672, 48.85658094241242, 128.0920326534623, 43.89976111274018, 99.99999999999999, 39.66616761451155" fill="rgb(255,255,255)" fill-opacity="1.0" stroke="black"/><polygon points="48.879060934097176, 63.999813452974394, 53.761706747895644, 73.96578987469297, 75.65473690294559, 53.221248913653085, 72.36919890702305, 48.447212423971024" fill="rgb(255,255,255)" fill-opacity="1.0" stroke="black"/><polygon points="48.07467655371978, 134.34481892130498, 70.763685943976, 146.04723551451133, 73.37293617108689, 120.23983951194165, 52.51397969185162, 110.62313081995693" fill="rgb(255,255,255)" fill-opacity="1.0" stroke="black"/><polygon points="145.57035282530194, 74.75951559596214, 150.9360851005161, 64.83413021695074, 127.46982116691672, 48.85658094241242, 123.94425138663775, 53.59087324494175" fill="rgb(255,255,255)" fill-opacity="1.0" stroke="black"/><polygon points="127.05854789809817, 146.72569601267259, 150.34249264142133, 135.52193215738924, 146.01943763453247, 111.594032115042, 124.63779472821217, 120.79495872115555" fill="rgb(255,255,255)" fill-opacity="1.0" stroke="black"/><polygon points="39.12217012257007, 97.310964328682, 52.51397969185162, 110.62313081995693, 64.48565876006002, 82.79225748639752, 53.761706747895644, 73.96578987469297" fill="rgb(255,255,255)" fill-opacity="1.0" stroke="black"/><polygon points="72.36919890702305, 48.447212423971024, 75.65473690294559, 53.221248913653085, 99.99999999999999, 39.66616761451155" fill="rgb(255,255,255)" fill-opacity="1.0" stroke="black"/><polygon points="123.94425138663775, 53.59087324494175, 127.46982116691672, 48.85658094241242, 99.99999999999999, 39.66616761451155" fill="rgb(255,255,255)" fill-opacity="1.0" stroke="black"/><polygon points="75.65473690294559, 53.221248913653085, 81.71987807340359, 57.24780248962077, 99.99999999999999, 39.66616761451155" fill="rgb(255,255,255)" fill-opacity="1.0" stroke="black"/><polygon points="117.66739243772493, 57.52972883458415, 123.94425138663775, 53.59087324494175, 99.99999999999999, 39.66616761451155" fill="rgb(255,255,255)" fill-opacity="1.0" stroke="black"/><polygon points="81.71987807340359, 57.24780248962077, 90.01916525042178, 59.97426467290646, 99.99999999999999, 39.66616761451155" fill="rgb(255,255,255)" fill-opacity="1.0" stroke="black"/><polygon points="109.22118805729303, 60.12727861564434, 117.66739243772493, 57.52972883458415, 99.99999999999999, 39.66616761451155" fill="rgb(255,255,255)" fill-opacity="1.0" stroke="black"/><polygon points="90.01916525042178, 59.97426467290646, 99.59379978942793, 60.9879392055563, 99.99999999999999, 39.66616761451155" fill="rgb(255,255,255)" fill-opacity="1.0" stroke="black"/><polygon points="99.59379978942793, 60.9879392055563, 109.22118805729303, 60.12727861564434, 99.99999999999999, 39.66616761451155" fill="rgb(255,255,255)" fill-opacity="1.0" stroke="black"/><polygon points="146.01943763453247, 111.594032115042, 160.0811809347025, 98.4913565028729, 145.57035282530194, 74.75951559596214, 134.37908631751407, 83.42543234574688" fill="rgb(255,255,255)" fill-opacity="1.0" stroke="black"/><polygon points="70.763685943976, 146.04723551451133, 98.7961620042762, 150.5866766788925, 98.90534335769813, 123.94900836766949, 73.37293617108689, 120.23983951194165" fill="rgb(255,255,255)" fill-opacity="1.0" stroke="black"/><polygon points="98.7961620042762, 150.5866766788925, 127.05854789809817, 146.72569601267259, 124.63779472821217, 120.79495872115555, 98.90534335769813, 123.94900836766949" fill="rgb(255,255,255)" fill-opacity="1.0" stroke="black"/><polygon points="53.761706747895644, 73.96578987469297, 64.48565876006002, 82.79225748639752, 81.71987807340359, 57.24780248962077, 75.65473690294559, 53.221248913653085" fill="rgb(255,255,255)" fill-opacity="1.0" stroke="black"/><polygon points="134.37908631751407, 83.42543234574688, 145.57035282530194, 74.75951559596214, 123.94425138663775, 53.59087324494175, 117.66739243772493, 57.52972883458415" fill="rgb(255,255,255)" fill-opacity="1.0" stroke="black"/><polygon points="52.51397969185162, 110.62313081995693, 73.37293617108689, 120.23983951194165, 80.30384606251606, 89.00209405037924, 64.48565876006002, 82.79225748639752" fill="rgb(255,255,255)" fill-opacity="1.0" stroke="black"/><polygon points="124.63779472821217, 120.79495872115555, 146.01943763453247, 111.594032115042, 134.37908631751407, 83.42543234574688, 118.21317535444153, 89.35640601031281" fill="rgb(255,255,255)" fill-opacity="1.0" stroke="black"/><polygon points="64.48565876006002, 82.79225748639752, 80.30384606251606, 89.00209405037924, 90.01916525042178, 59.97426467290646, 81.71987807340359, 57.24780248962077" fill="rgb(255,255,255)" fill-opacity="1.0" stroke="black"/><polygon points="118.21317535444153, 89.35640601031281, 134.37908631751407, 83.42543234574688, 117.66739243772493, 57.52972883458415, 109.22118805729303, 60.12727861564434" fill="rgb(255,255,255)" fill-opacity="1.0" stroke="black"/><polygon points="80.30384606251606, 89.00209405037924, 99.19368182595898, 91.36105557085435, 99.59379978942793, 60.9879392055563, 90.01916525042178, 59.97426467290646" fill="rgb(255,255,255)" fill-opacity="1.0" stroke="black"/><polygon points="99.19368182595898, 91.36105557085435, 118.21317535444153, 89.35640601031281, 109.22118805729303, 60.12727861564434, 99.59379978942793, 60.9879392055563" fill="rgb(255,255,255)" fill-opacity="1.0" stroke="black"/><polygon points="73.37293617108689, 120.23983951194165, 98.90534335769813, 123.94900836766949, 99.19368182595898, 91.36105557085435, 80.30384606251606, 89.00209405037924" fill="rgb(255,255,255)" fill-opacity="1.0" stroke="black"/><polygon points="98.90534335769813, 123.94900836766949, 124.63779472821217, 120.79495872115555, 118.21317535444153, 89.35640601031281, 99.19368182595898, 91.36105557085435" fill="rgb(255,255,255)" fill-opacity="1.0" stroke="black"/></svg>