<svg height="200" width="200" version="1.1" xmlns="http://www.w3.org/2000/svg" id="example"><line stroke="black" x1="92.67205127096659" y1="74.72559764413748" x2="104.4258695779905" y2="75.09396160269937"/><line stroke="black" x1="104.4258695779905" y1="75.09396160269937" x2="100" y2="43.858711696392845"/><line stroke="black" x1="100" y1="43.858711696392845" x2="92.67205127096659" y2="74.72559764413748"/><line stroke="black" x1="104.4258695779905" y1="75.09396160269937" x2="115.61783637416721" y2="72.55963058527087"/><line stroke="black" x1="115.61783637416721" y1="72.55963058527087" x2="100" y2="43.858711696392845"/><line stroke="black" x1="115.61783637416721" y1="72.55963058527087" x2="124.87408823359532" y2="67.50934089405908"/><line stroke="black" x1="124.87408823359532" y1="67.50934089405908" x2="100" y2="43.858711696392845"/><line stroke="black" x1="124.87408823359532" y1="67.50934089405908" x2="131.19429342015573" y2="60.66692821204799"/><line stroke="black" x1="131.19429342015573" y1="60.66692821204799" x2="100" y2="43.858711696392845"/><line stroke="black" x1="131.19429342015573" y1="60.66692821204799" x2="134.07658848169058" y2="52.9160482220112"/><line stroke="black" x1="134.07658848169058" y1="52.9160482220112" x2="100" y2="43.858711696392845"/><line stroke="black" x1="134.07658848169058" y1="52.9160482220112" x2="133.49694496273034" y2="45.12757235338853"/><line stroke="black" x1="133.49694496273034" y1="45.12757235338853" x2="100" y2="43.858711696392845"/><line stroke="black" x1="133.49694496273034" y1="45.12757235338853" x2="129.79513100663223" y2="38.043386987245015"/><line stroke="black" x1="129.79513100663223" y1="38.043386987245015" x2="100" y2="43.858711696392845"/><line stroke="black" x1="129.79513100663223" y1="38.043386987245015" x2="123.53617588477559" y2="32.22777935156594"/><line stroke="black" x1="123.53617588477559" y1="32.22777935156594" x2="100" y2="43.858711696392845"/><line stroke="black" x1="123.53617588477559" y1="32.22777935156594" x2="115.39574435653468" y2="28.06895332421695"/><line stroke="black" x1="115.39574435653468" y1="28.06895332421695" x2="100" y2="43.858711696392845"/><line stroke="black" x1="115.39574435653468" y1="28.06895332421695" x2="106.08783510279409" y2="25.804733642465578"/><line stroke="black" x1="106.08783510279409" y1="25.804733642465578" x2="100" y2="43.858711696392845"/><line stroke="black" x1="106.08783510279409" y1="25.804733642465578" x2="96.33168108056925" y2="25.551088783868693"/><line stroke="black" x1="96.33168108056925" y1="25.551088783868693" x2="100" y2="43.858711696392845"/><line stroke="black" x1="96.33168108056925" y1="25.551088783868693" x2="86.84472484426358" y2="27.32042709134791"/><line stroke="black" x1="86.84472484426358" y1="27.32042709134791" x2="100" y2="43.858711696392845"/><line stroke="black" x1="86.84472484426358" y1="27.32042709134791" x2="78.34573775153113" y2="31.02374998407828"/><line stroke="black" x1="78.34573775153113" y1="31.02374998407828" x2="100" y2="43.858711696392845"/><line stroke="black" x1="78.34573775153113" y1="31.02374998407828" x2="71.55184419411262" y2="36.4560587965768"/><line stroke="black" x1="71.55184419411262" y1="36.4560587965768" x2="100" y2="43.858711696392845"/><line stroke="black" x1="71.55184419411262" y1="36.4560587965768" x2="67.15334431381963" y2="43.2694766776892"/><line stroke="black" x1="67.15334431381963" y1="43.2694766776892" x2="100" y2="43.858711696392845"/><line stroke="black" x1="67.15334431381963" y1="43.2694766776892" x2="65.75204780899584" y2="50.945158008144574"/><line stroke="black" x1="65.75204780899584" y1="50.945158008144574" x2="100" y2="43.858711696392845"/><line stroke="black" x1="65.75204780899584" y1="50.945158008144574" x2="67.75653253828982" y2="58.78334762966389"/><line stroke="black" x1="67.75653253828982" y1="58.78334762966389" x2="100" y2="43.858711696392845"/><line stroke="black" x1="67.75653253828982" y1="58.78334762966389" x2="73.2462461366691" y2="65.93720644308283"/><line stroke="black" x1="73.2462461366691" y1="65.93720644308283" x2="100" y2="43.858711696392845"/><line stroke="black" x1="73.2462461366691" y1="65.93720644308283" x2="81.84528265971618" y2="71.51173802271913"/><line stroke="black" x1="81.84528265971618" y1="71.51173802271913" x2="100" y2="43.858711696392845"/><line stroke="black" x1="81.84528265971618" y1="71.51173802271913" x2="92.67205127096659" y2="74.72559764413748"/><line stroke="black" x1="85.94649484881872" y1="112.2656435969445" x2="108.49784999563548" y2="113.06476490810006"/><line stroke="black" x1="108.49784999563548" y1="113.06476490810006" x2="104.4258695779905" y2="75.09396160269937"/><line stroke="black" x1="92.67205127096659" y1="74.72559764413748" x2="85.94649484881872" y2="112.2656435969445"/><line stroke="black" x1="108.49784999563548" y1="113.06476490810006" x2="129.74724809013352" y2="107.60438811696542"/><line stroke="black" x1="129.74724809013352" y1="107.60438811696542" x2="115.61783637416721" y2="72.55963058527087"/><line stroke="black" x1="129.74724809013352" y1="107.60438811696542" x2="146.63495763787307" y2="96.97937362550893"/><line stroke="black" x1="146.63495763787307" y1="96.97937362550893" x2="124.87408823359532" y2="67.50934089405908"/><line stroke="black" x1="146.63495763787307" y1="96.97937362550893" x2="157.26810866368237" y2="83.10433295040922"/><line stroke="black" x1="157.26810866368237" y1="83.10433295040922" x2="131.19429342015573" y2="60.66692821204799"/><line stroke="black" x1="157.26810866368237" y1="83.10433295040922" x2="161.11978647235102" y2="68.06815987060395"/><line stroke="black" x1="161.11978647235102" y1="68.06815987060395" x2="134.07658848169058" y2="52.9160482220112"/><line stroke="black" x1="161.11978647235102" y1="68.06815987060395" x2="158.72211071033905" y2="53.64044494418991"/><line stroke="black" x1="158.72211071033905" y1="53.64044494418991" x2="133.49694496273034" y2="45.12757235338853"/><line stroke="black" x1="158.72211071033905" y1="53.64044494418991" x2="151.18036519929458" y2="41.07241076980702"/><line stroke="black" x1="151.18036519929458" y1="41.07241076980702" x2="129.79513100663223" y2="38.043386987245015"/><line stroke="black" x1="151.18036519929458" y1="41.07241076980702" x2="139.77135479447864" y2="31.12727855556389"/><line stroke="black" x1="139.77135479447864" y1="31.12727855556389" x2="123.53617588477559" y2="32.22777935156594"/><line stroke="black" x1="139.77135479447864" y1="31.12727855556389" x2="125.71649073529039" y2="24.211530732924132"/><line stroke="black" x1="125.71649073529039" y1="24.211530732924132" x2="115.39574435653468" y2="28.06895332421695"/><line stroke="black" x1="125.71649073529039" y1="24.211530732924132" x2="110.10562465649396" y2="20.512799664328895"/><line stroke="black" x1="110.10562465649396" y1="20.512799664328895" x2="106.08783510279409" y2="25.804733642465578"/><line stroke="black" x1="110.10562465649396" y1="20.512799664328895" x2="93.91494152944819" y2="20.10132138589239"/><line stroke="black" x1="93.91494152944819" y1="20.10132138589239" x2="96.33168108056925" y2="25.551088783868693"/><line stroke="black" x1="93.91494152944819" y1="20.10132138589239" x2="78.07129735725007" y2="22.983656350913236"/><line stroke="black" x1="78.07129735725007" y1="22.983656350913236" x2="86.84472484426358" y2="27.32042709134791"/><line stroke="black" x1="78.07129735725007" y1="22.983656350913236" x2="63.531530573559145" y2="29.108593322067236"/><line stroke="black" x1="63.531530573559145" y1="29.108593322067236" x2="78.34573775153113" y2="31.02374998407828"/><line stroke="black" x1="63.531530573559145" y1="29.108593322067236" x2="51.352979937988074" y2="38.32546660299562"/><line stroke="black" x1="51.352979937988074" y1="38.32546660299562" x2="71.55184419411262" y2="36.4560587965768"/><line stroke="black" x1="51.352979937988074" y1="38.32546660299562" x2="42.72673270296931" y2="50.294273188630115"/><line stroke="black" x1="42.72673270296931" y1="50.294273188630115" x2="67.15334431381963" y2="43.2694766776892"/><line stroke="black" x1="42.72673270296931" y1="50.294273188630115" x2="38.93024584433129" y2="64.35449583027588"/><line stroke="black" x1="38.93024584433129" y1="64.35449583027588" x2="65.75204780899584" y2="50.945158008144574"/><line stroke="black" x1="38.93024584433129" y1="64.35449583027588" x2="41.14270154523506" y2="79.38552822536393"/><line stroke="black" x1="41.14270154523506" y1="79.38552822536393" x2="67.75653253828982" y2="58.78334762966389"/><line stroke="black" x1="41.14270154523506" y1="79.38552822536393" x2="50.08453498099843" y2="93.73950505780597"/><line stroke="black" x1="50.08453498099843" y1="93.73950505780597" x2="73.2462461366691" y2="65.93720644308283"/><line stroke="black" x1="50.08453498099843" y1="93.73950505780597" x2="65.53464372382962" y2="105.37205571457424"/><line stroke="black" x1="65.53464372382962" y1="105.37205571457424" x2="81.84528265971618" y2="71.51173802271913"/><line stroke="black" x1="65.53464372382962" y1="105.37205571457424" x2="85.94649484881872" y2="112.2656435969445"/><line stroke="black" x1="81.7161710147947" y1="146.14055111111588" x2="111.06398355030464" y2="147.28889450292365"/><line stroke="black" x1="111.06398355030464" y1="147.28889450292365" x2="108.49784999563548" y2="113.06476490810006"/><line stroke="black" x1="85.94649484881872" y1="112.2656435969445" x2="81.7161710147947" y2="146.14055111111588"/><line stroke="black" x1="111.06398355030464" y1="147.28889450292365" x2="138.5360866430888" y2="139.47585543562033"/><line stroke="black" x1="138.5360866430888" y1="139.47585543562033" x2="129.74724809013352" y2="107.60438811696542"/><line stroke="black" x1="138.5360866430888" y1="139.47585543562033" x2="159.82992014471358" y2="124.49518359301767"/><line stroke="black" x1="159.82992014471358" y1="124.49518359301767" x2="146.63495763787307" y2="96.97937362550893"/><line stroke="black" x1="159.82992014471358" y1="124.49518359301767" x2="172.55670651787335" y2="105.36232194637769"/><line stroke="black" x1="172.55670651787335" y1="105.36232194637769" x2="157.26810866368237" y2="83.10433295040922"/><line stroke="black" x1="172.55670651787335" y1="105.36232194637769" x2="176.40556641115467" y2="85.15916130887176"/><line stroke="black" x1="176.40556641115467" y1="85.15916130887176" x2="161.11978647235102" y2="68.06815987060395"/><line stroke="black" x1="176.40556641115467" y1="85.15916130887176" x2="172.48218470001015" y2="66.27296714660193"/><line stroke="black" x1="172.48218470001015" y1="66.27296714660193" x2="158.72211071033905" y2="53.64044494418991"/><line stroke="black" x1="172.48218470001015" y1="66.27296714660193" x2="162.4865450396786" y2="50.205248759302066"/><line stroke="black" x1="162.4865450396786" y1="50.205248759302066" x2="151.18036519929458" y2="41.07241076980702"/><line stroke="black" x1="162.4865450396786" y1="50.205248759302066" x2="148.1430974994702" y2="37.73625389948728"/><line stroke="black" x1="148.1430974994702" y1="37.73625389948728" x2="139.77135479447864" y2="31.12727855556389"/><line stroke="black" x1="148.1430974994702" y1="37.73625389948728" x2="130.9462124941155" y2="29.19006082754879"/><line stroke="black" x1="130.9462124941155" y1="29.19006082754879" x2="125.71649073529039" y2="24.211530732924132"/><line stroke="black" x1="130.9462124941155" y1="29.19006082754879" x2="112.12248944954426" y2="24.660549876416184"/><line stroke="black" x1="112.12248944954426" y1="24.660549876416184" x2="110.10562465649396" y2="20.512799664328895"/><line stroke="black" x1="112.12248944954426" y1="24.660549876416184" x2="92.70304648785358" y2="24.158407934374367"/><line stroke="black" x1="92.70304648785358" y1="24.158407934374367" x2="93.91494152944819" y2="20.10132138589239"/><line stroke="black" x1="92.70304648785358" y1="24.158407934374367" x2="73.63945376022038" y2="27.68322716791033"/><line stroke="black" x1="73.63945376022038" y1="27.68322716791033" x2="78.07129735725007" y2="22.983656350913236"/><line stroke="black" x1="73.63945376022038" y1="27.68322716791033" x2="55.931317795729704" y2="35.23118955092852"/><line stroke="black" x1="55.931317795729704" y1="35.23118955092852" x2="63.531530573559145" y2="29.108593322067236"/><line stroke="black" x1="55.931317795729704" y1="35.23118955092852" x2="40.74720701307688" y2="46.7397985974531"/><line stroke="black" x1="40.74720701307688" y1="46.7397985974531" x2="51.352979937988074" y2="38.32546660299562"/><line stroke="black" x1="40.74720701307688" y1="46.7397985974531" x2="29.51239172382398" y2="61.960629370247545"/><line stroke="black" x1="29.51239172382398" y1="61.960629370247545" x2="42.72673270296931" y2="50.294273188630115"/><line stroke="black" x1="29.51239172382398" y1="61.960629370247545" x2="23.90721805932241" y2="80.2519226175131"/><line stroke="black" x1="23.90721805932241" y1="80.2519226175131" x2="38.93024584433129" y2="64.35449583027588"/><line stroke="black" x1="23.90721805932241" y1="80.2519226175131" x2="25.677902637166138" y2="100.31501360879783"/><line stroke="black" x1="25.677902637166138" y1="100.31501360879783" x2="41.14270154523506" y2="79.38552822536393"/><line stroke="black" x1="25.677902637166138" y1="100.31501360879783" x2="36.149384311120755" y2="119.98454215019039"/><line stroke="black" x1="36.149384311120755" y1="119.98454215019039" x2="50.08453498099843" y2="93.73950505780597"/><line stroke="black" x1="36.149384311120755" y1="119.98454215019039" x2="55.44311474693783" y2="136.30420118464534"/><line stroke="black" x1="55.44311474693783" y1="136.30420118464534" x2="65.53464372382962" y2="105.37205571457424"/><line stroke="black" x1="55.44311474693783" y1="136.30420118464534" x2="81.7161710147947" y2="146.14055111111588"/><line stroke="black" x1="80.67000332301349" y1="168.5019468860927" x2="111.69917709754786" y2="169.79153901431903"/><line stroke="black" x1="111.69917709754786" y1="169.79153901431903" x2="111.06398355030464" y2="147.28889450292365"/><line stroke="black" x1="81.7161710147947" y1="146.14055111111588" x2="80.67000332301349" y2="168.5019468860927"/><line stroke="black" x1="111.69917709754786" y1="169.79153901431903" x2="140.69800021810178" y2="161.0267508319716"/><line stroke="black" x1="140.69800021810178" y1="161.0267508319716" x2="138.5360866430888" y2="139.47585543562033"/><line stroke="black" x1="140.69800021810178" y1="161.0267508319716" x2="163.03671139119632" y2="144.2817932822628"/><line stroke="black" x1="163.03671139119632" y1="144.2817932822628" x2="159.82992014471358" y2="124.49518359301767"/><line stroke="black" x1="163.03671139119632" y1="144.2817932822628" x2="176.2149760664418" y2="123.01069140166592"/><line stroke="black" x1="176.2149760664418" y1="123.01069140166592" x2="172.55670651787335" y2="105.36232194637769"/><line stroke="black" x1="176.2149760664418" y1="123.01069140166592" x2="180.00299852178455" y2="100.68856752686573"/><line stroke="black" x1="180.00299852178455" y1="100.68856752686573" x2="176.40556641115467" y2="85.15916130887176"/><line stroke="black" x1="180.00299852178455" y1="100.68856752686573" x2="175.6702319109573" y2="79.94938277060528"/><line stroke="black" x1="175.6702319109573" y1="79.94938277060528" x2="172.48218470001015" y2="66.27296714660193"/><line stroke="black" x1="175.6702319109573" y1="79.94938277060528" x2="165.07107181945375" y2="62.40162526133642"/><line stroke="black" x1="165.07107181945375" y1="62.40162526133642" x2="162.4865450396786" y2="50.205248759302066"/><line stroke="black" x1="165.07107181945375" y1="62.40162526133642" x2="150.03681735474123" y2="48.844715106554645"/><line stroke="black" x1="150.03681735474123" y1="48.844715106554645" x2="148.1430974994702" y2="37.73625389948728"/><line stroke="black" x1="150.03681735474123" y1="48.844715106554645" x2="132.12065521890673" y2="39.58329858103568"/><line stroke="black" x1="132.12065521890673" y1="39.58329858103568" x2="130.9462124941155" y2="29.19006082754879"/><line stroke="black" x1="132.12065521890673" y1="39.58329858103568" x2="112.5736763327215" y2="34.68471137841203"/><line stroke="black" x1="112.5736763327215" y1="34.68471137841203" x2="112.12248944954426" y2="24.660549876416184"/><line stroke="black" x1="112.5736763327215" y1="34.68471137841203" x2="92.432052969124" y2="34.142079081011246"/><line stroke="black" x1="92.432052969124" y1="34.142079081011246" x2="92.70304648785358" y2="24.158407934374367"/><line stroke="black" x1="92.432052969124" y1="34.142079081011246" x2="72.64546519597613" y2="37.95291681844063"/><line stroke="black" x1="72.64546519597613" y1="37.95291681844063" x2="73.63945376022038" y2="27.68322716791033"/><line stroke="black" x1="72.64546519597613" y1="37.95291681844063" x2="54.21576230678779" y2="46.127446105982585"/><line stroke="black" x1="54.21576230678779" y1="46.127446105982585" x2="55.931317795729704" y2="35.23118955092852"/><line stroke="black" x1="54.21576230678779" y1="46.127446105982585" x2="38.329845020322075" y2="58.628515025621965"/><line stroke="black" x1="38.329845020322075" y1="58.628515025621965" x2="40.74720701307688" y2="46.7397985974531"/><line stroke="black" x1="38.329845020322075" y1="58.628515025621965" x2="26.461777832156642" y2="75.23115298710734"/><line stroke="black" x1="26.461777832156642" y1="75.23115298710734" x2="29.51239172382398" y2="61.960629370247545"/><line stroke="black" x1="26.461777832156642" y1="75.23115298710734" x2="20.38592882462985" y2="95.28802992968457"/><line stroke="black" x1="20.38592882462985" y1="95.28802992968457" x2="23.90721805932241" y2="80.2519226175131"/><line stroke="black" x1="20.38592882462985" y1="95.28802992968457" x2="21.99271430773181" y2="117.42068921320273"/><line stroke="black" x1="21.99271430773181" y1="117.42068921320273" x2="25.677902637166138" y2="100.31501360879783"/><line stroke="black" x1="21.99271430773181" y1="117.42068921320273" x2="32.77505413327889" y2="139.25546352215758"/><line stroke="black" x1="32.77505413327889" y1="139.25546352215758" x2="36.149384311120755" y2="119.98454215019039"/><line stroke="black" x1="32.77505413327889" y1="139.25546352215758" x2="52.96708015512651" y2="157.47493376127483"/><line stroke="black" x1="52.96708015512651" y1="157.47493376127483" x2="55.44311474693783" y2="136.30420118464534"/><line stroke="black" x1="52.96708015512651" y1="157.47493376127483" x2="80.67000332301349" y2="168.5019468860927"/><line stroke="black" x1="82.20644218550099" y1="177.74380223332685" x2="110.76638907086047" y2="178.95922168183992"/><line stroke="black" x1="110.76638907086047" y1="178.95922168183992" x2="111.69917709754786" y2="169.79153901431903"/><line stroke="black" x1="80.67000332301349" y1="168.5019468860927" x2="82.20644218550099" y2="177.74380223332685"/><line stroke="black" x1="110.76638907086047" y1="178.95922168183992" x2="137.52136271920415" y2="170.68571252936144"/><line stroke="black" x1="137.52136271920415" y1="170.68571252936144" x2="140.69800021810178" y2="161.0267508319716"/><line stroke="black" x1="137.52136271920415" y1="170.68571252936144" x2="158.31950948492798" y2="154.79519882600934"/><line stroke="black" x1="158.31950948492798" y1="154.79519882600934" x2="163.03671139119632" y2="144.2817932822628"/><line stroke="black" x1="158.31950948492798" y1="154.79519882600934" x2="170.82596612393067" y2="134.44866050943006"/><line stroke="black" x1="170.82596612393067" y1="134.44866050943006" x2="176.2149760664418" y2="123.01069140166592"/><line stroke="black" x1="170.82596612393067" y1="134.44866050943006" x2="174.6956083885987" y2="112.90078059927029"/><line stroke="black" x1="174.6956083885987" y1="112.90078059927029" x2="180.00299852178455" y2="100.68856752686573"/><line stroke="black" x1="174.6956083885987" y1="112.90078059927029" x2="170.9601716554523" y2="92.69860620548631"/><line stroke="black" x1="170.9601716554523" y1="92.69860620548631" x2="175.6702319109573" y2="79.94938277060528"/><line stroke="black" x1="170.9601716554523" y1="92.69860620548631" x2="161.24806367116943" y2="75.46628987446861"/><line stroke="black" x1="161.24806367116943" y1="75.46628987446861" x2="165.07107181945375" y2="62.40162526133642"/><line stroke="black" x1="161.24806367116943" y1="75.46628987446861" x2="147.23302528362817" y2="62.064918437024346"/><line stroke="black" x1="147.23302528362817" y1="62.064918437024346" x2="150.03681735474123" y2="48.844715106554645"/><line stroke="black" x1="147.23302528362817" y1="62.064918437024346" x2="130.38069097983796" y2="52.86519457417887"/><line stroke="black" x1="130.38069097983796" y1="52.86519457417887" x2="132.12065521890673" y2="39.58329858103568"/><line stroke="black" x1="130.38069097983796" y1="52.86519457417887" x2="111.90500519709721" y2="47.98452455215667"/><line stroke="black" x1="111.90500519709721" y1="47.98452455215667" x2="112.5736763327215" y2="34.68471137841203"/><line stroke="black" x1="111.90500519709721" y1="47.98452455215667" x2="92.8336878144643" y2="47.44324872761058"/><line stroke="black" x1="92.8336878144643" y1="47.44324872761058" x2="92.432052969124" y2="34.142079081011246"/><line stroke="black" x1="92.8336878144643" y1="47.44324872761058" x2="74.11824891686656" y2="51.241909028999544"/><line stroke="black" x1="74.11824891686656" y1="51.241909028999544" x2="72.64546519597613" y2="37.95291681844063"/><line stroke="black" x1="74.11824891686656" y1="51.241909028999544" x2="56.75624610423389" y2="59.36951264458244"/><line stroke="black" x1="56.75624610423389" y1="59.36951264458244" x2="54.21576230678779" y2="46.127446105982585"/><line stroke="black" x1="56.75624610423389" y1="59.36951264458244" x2="41.90651314257685" y2="71.74422156051278"/><line stroke="black" x1="41.90651314257685" y1="71.74422156051278" x2="38.329845020322075" y2="58.628515025621965"/><line stroke="black" x1="41.90651314257685" y1="71.74422156051278" x2="30.97024720313203" y2="88.07777706259112"/><line stroke="black" x1="30.97024720313203" y1="88.07777706259112" x2="26.461777832156642" y2="75.23115298710734"/><line stroke="black" x1="30.97024720313203" y1="88.07777706259112" x2="25.582888894510315" y2="107.6570929939331"/><line stroke="black" x1="25.582888894510315" y1="107.6570929939331" x2="20.38592882462985" y2="95.28802992968457"/><line stroke="black" x1="25.582888894510315" y1="107.6570929939331" x2="27.42342347212118" y2="129.07149359036092"/><line stroke="black" x1="27.42342347212118" y1="129.07149359036092" x2="21.99271430773181" y2="117.42068921320273"/><line stroke="black" x1="27.42342347212118" y1="129.07149359036092" x2="37.74037505511277" y2="150.00365604748208"/><line stroke="black" x1="37.74037505511277" y1="150.00365604748208" x2="32.77505413327889" y2="139.25546352215758"/><line stroke="black" x1="37.74037505511277" y1="150.00365604748208" x2="56.606134636773994" y2="167.32438712231175"/><line stroke="black" x1="56.606134636773994" y1="167.32438712231175" x2="52.96708015512651" y2="157.47493376127483"/><line stroke="black" x1="56.606134636773994" y1="167.32438712231175" x2="82.20644218550099" y2="177.74380223332685"/><line stroke="black" x1="85.26857283758069" y1="176.52395301582078" x2="108.90882619250917" y2="177.52654299423259"/><line stroke="black" x1="108.90882619250917" y1="177.52654299423259" x2="110.76638907086047" y2="178.95922168183992"/><line stroke="black" x1="82.20644218550099" y1="177.74380223332685" x2="85.26857283758069" y2="176.52395301582078"/><line stroke="black" x1="108.90882619250917" y1="177.52654299423259" x2="131.16076305141723" y2="170.6805826128594"/><line stroke="black" x1="131.16076305141723" y1="170.6805826128594" x2="137.52136271920415" y2="170.68571252936144"/><line stroke="black" x1="131.16076305141723" y1="170.6805826128594" x2="148.77444910563818" y2="157.39102080723424"/><line stroke="black" x1="148.77444910563818" y1="157.39102080723424" x2="158.31950948492798" y2="154.79519882600934"/><line stroke="black" x1="148.77444910563818" y1="157.39102080723424" x2="159.77320895018462" y2="140.0989168385877"/><line stroke="black" x1="159.77320895018462" y1="140.0989168385877" x2="170.82596612393067" y2="134.44866050943006"/><line stroke="black" x1="159.77320895018462" y1="140.0989168385877" x2="163.6526241908307" y2="121.43921982439828"/><line stroke="black" x1="163.6526241908307" y1="121.43921982439828" x2="174.6956083885987" y2="112.90078059927029"/><line stroke="black" x1="163.6526241908307" y1="121.43921982439828" x2="161.02639279258847" y2="103.61185569451129"/><line stroke="black" x1="161.02639279258847" y1="103.61185569451129" x2="170.9601716554523" y2="92.69860620548631"/><line stroke="black" x1="161.02639279258847" y1="103.61185569451129" x2="153.09100477844987" y2="88.14364727532482"/><line stroke="black" x1="153.09100477844987" y1="88.14364727532482" x2="161.24806367116943" y2="75.46628987446861"/><line stroke="black" x1="153.09100477844987" y1="88.14364727532482" x2="141.19619919964575" y2="75.94381261177338"/><line stroke="black" x1="141.19619919964575" y1="75.94381261177338" x2="147.23302528362817" y2="62.064918437024346"/><line stroke="black" x1="141.19619919964575" y1="75.94381261177338" x2="126.61094859528235" y2="67.48102152953507"/><line stroke="black" x1="126.61094859528235" y1="67.48102152953507" x2="130.38069097983796" y2="52.86519457417887"/><line stroke="black" x1="126.61094859528235" y1="67.48102152953507" x2="110.45147730069512" y2="62.96189001492195"/><line stroke="black" x1="110.45147730069512" y1="62.96189001492195" x2="111.90500519709721" y2="47.98452455215667"/><line stroke="black" x1="110.45147730069512" y1="62.96189001492195" x2="93.70706516523144" y2="62.45944450850544"/><line stroke="black" x1="93.70706516523144" y1="62.45944450850544" x2="92.8336878144643" y2="47.44324872761058"/><line stroke="black" x1="93.70706516523144" y1="62.45944450850544" x2="77.31264586057819" y2="65.98025699829401"/><line stroke="black" x1="77.31264586057819" y1="65.98025699829401" x2="74.11824891686656" y2="51.241909028999544"/><line stroke="black" x1="77.31264586057819" y1="65.98025699829401" x2="62.236140672128506" y2="73.471785323325"/><line stroke="black" x1="62.236140672128506" y1="73.471785323325" x2="56.75624610423389" y2="59.36951264458244"/><line stroke="black" x1="62.236140672128506" y1="73.471785323325" x2="49.5571656269091" y2="84.77038824793881"/><line stroke="black" x1="49.5571656269091" y1="84.77038824793881" x2="41.90651314257685" y2="71.74422156051278"/><line stroke="black" x1="49.5571656269091" y1="84.77038824793881" x2="40.50845225799471" y2="99.48796984294314"/><line stroke="black" x1="40.50845225799471" y1="99.48796984294314" x2="30.97024720313203" y2="88.07777706259112"/><line stroke="black" x1="40.50845225799471" y1="99.48796984294314" x2="36.434119737800664" y2="116.8432830427514"/><line stroke="black" x1="36.434119737800664" y1="116.8432830427514" x2="25.582888894510315" y2="107.6570929939331"/><line stroke="black" x1="36.434119737800664" y1="116.8432830427514" x2="38.60166224177247" y2="135.47625153263152"/><line stroke="black" x1="38.60166224177247" y1="135.47625153263152" x2="27.42342347212118" y2="129.07149359036092"/><line stroke="black" x1="38.60166224177247" y1="135.47625153263152" x2="47.819454470592895" y2="153.34693159094948"/><line stroke="black" x1="47.819454470592895" y1="153.34693159094948" x2="37.74037505511277" y2="150.00365604748208"/><line stroke="black" x1="47.819454470592895" y1="153.34693159094948" x2="63.90882697216993" y2="167.88496715967057"/><line stroke="black" x1="63.90882697216993" y1="167.88496715967057" x2="56.606134636773994" y2="167.32438712231175"/><line stroke="black" x1="63.90882697216993" y1="167.88496715967057" x2="85.26857283758069" y2="176.52395301582078"/><line stroke="black" x1="88.98720184282448" y1="168.44288550936324" x2="106.65567703395962" y2="169.17642296745777"/><line stroke="black" x1="106.65567703395962" y1="169.17642296745777" x2="108.90882619250917" y2="177.52654299423259"/><line stroke="black" x1="85.26857283758069" y1="176.52395301582078" x2="88.98720184282448" y2="168.44288550936324"/><line stroke="black" x1="106.65567703395962" y1="169.17642296745777" x2="123.38314472836917" y2="164.14865420616883"/><line stroke="black" x1="123.38314472836917" y1="164.14865420616883" x2="131.16076305141723" y2="170.6805826128594"/><line stroke="black" x1="123.38314472836917" y1="164.14865420616883" x2="136.91856636564248" y2="154.26011188408202"/><line stroke="black" x1="136.91856636564248" y1="154.26011188408202" x2="148.77444910563818" y2="157.39102080723424"/><line stroke="black" x1="136.91856636564248" y1="154.26011188408202" x2="145.76121556825072" y2="141.13310841108012"/><line stroke="black" x1="145.76121556825072" y1="141.13310841108012" x2="159.77320895018462" y2="140.0989168385877"/><line stroke="black" x1="145.76121556825072" y1="141.13310841108012" x2="149.3401147318966" y2="126.62690587893701"/><line stroke="black" x1="149.3401147318966" y1="126.62690587893701" x2="163.6526241908307" y2="121.43921982439828"/><line stroke="black" x1="149.3401147318966" y1="126.62690587893701" x2="147.87592366129124" y2="112.42506084162223"/><line stroke="black" x1="147.87592366129124" y1="112.42506084162223" x2="161.02639279258847" y2="103.61185569451129"/><line stroke="black" x1="147.87592366129124" y1="112.42506084162223" x2="142.0917659644533" y2="99.82159439026046"/><line stroke="black" x1="142.0917659644533" y1="99.82159439026046" x2="153.09100477844987" y2="88.14364727532482"/><line stroke="black" x1="142.0917659644533" y1="99.82159439026046" x2="132.93649442671418" y2="89.69123861925698"/><line stroke="black" x1="132.93649442671418" y1="89.69123861925698" x2="141.19619919964575" y2="75.94381261177338"/><line stroke="black" x1="132.93649442671418" y1="89.69123861925698" x2="121.4006246576329" y2="82.5631307342249"/><line stroke="black" x1="121.4006246576329" y1="82.5631307342249" x2="126.61094859528235" y2="67.48102152953507"/><line stroke="black" x1="121.4006246576329" y1="82.5631307342249" x2="108.43158859986191" y2="78.72228267642258"/><line stroke="black" x1="108.43158859986191" y1="78.72228267642258" x2="110.45147730069512" y2="62.96189001492195"/><line stroke="black" x1="108.43158859986191" y1="78.72228267642258" x2="94.92148125259604" y2="78.29375503089086"/><line stroke="black" x1="94.92148125259604" y1="78.29375503089086" x2="93.70706516523144" y2="62.45944450850544"/><line stroke="black" x1="94.92148125259604" y1="78.29375503089086" x2="81.73570206786923" y2="81.29029573034754"/><line stroke="black" x1="81.73570206786923" y1="81.29029573034754" x2="77.31264586057819" y2="65.98025699829401"/><line stroke="black" x1="81.73570206786923" y1="81.29029573034754" x2="69.7560357577413" y2="87.61770941858347"/><line stroke="black" x1="69.7560357577413" y1="87.61770941858347" x2="62.236140672128506" y2="73.471785323325"/><line stroke="black" x1="69.7560357577413" y1="87.61770941858347" x2="59.91515554122437" y2="97.03751932144988"/><line stroke="black" x1="59.91515554122437" y1="97.03751932144988" x2="49.5571656269091" y2="84.77038824793881"/><line stroke="black" x1="59.91515554122437" y1="97.03751932144988" x2="53.19737603966973" y2="109.09083231945503"/><line stroke="black" x1="53.19737603966973" y1="109.09083231945503" x2="40.50845225799471" y2="99.48796984294314"/><line stroke="black" x1="53.19737603966973" y1="109.09083231945503" x2="50.57501718815593" y2="122.99817570307677"/><line stroke="black" x1="50.57501718815593" y1="122.99817570307677" x2="36.434119737800664" y2="116.8432830427514"/><line stroke="black" x1="50.57501718815593" y1="122.99817570307677" x2="52.85046985457993" y2="137.57287465991502"/><line stroke="black" x1="52.85046985457993" y1="137.57287465991502" x2="38.60166224177247" y2="135.47625153263152"/><line stroke="black" x1="52.85046985457993" y1="137.57287465991502" x2="60.39855636132765" y2="151.21677582044222"/><line stroke="black" x1="60.39855636132765" y1="151.21677582044222" x2="47.819454470592895" y2="153.34693159094948"/><line stroke="black" x1="60.39855636132765" y1="151.21677582044222" x2="72.86788835593927" y2="162.0826595662205"/><line stroke="black" x1="72.86788835593927" y1="162.0826595662205" x2="63.90882697216993" y2="167.88496715967057"/><line stroke="black" x1="72.86788835593927" y1="162.0826595662205" x2="88.98720184282448" y2="168.44288550936324"/><line stroke="black" x1="92.83487820534843" y1="156.35826491487236" x2="104.32740428069552" y2="156.82014158612503"/><line stroke="black" x1="104.32740428069552" y1="156.82014158612503" x2="106.65567703395962" y2="169.17642296745777"/><line stroke="black" x1="88.98720184282448" y1="168.44288550936324" x2="92.83487820534843" y2="156.35826491487236"/><line stroke="black" x1="104.32740428069552" y1="156.82014158612503" x2="115.2733510500785" y2="153.64191727661975"/><line stroke="black" x1="115.2733510500785" y1="153.64191727661975" x2="123.38314472836917" y2="164.14865420616883"/><line stroke="black" x1="115.2733510500785" y1="153.64191727661975" x2="124.33488430494978" y2="147.30481445628914"/><line stroke="black" x1="124.33488430494978" y1="147.30481445628914" x2="136.91856636564248" y2="154.26011188408202"/><line stroke="black" x1="124.33488430494978" y1="147.30481445628914" x2="130.53415240239863" y2="138.71109884408963"/><line stroke="black" x1="130.53415240239863" y1="138.71109884408963" x2="145.76121556825072" y2="141.13310841108012"/><line stroke="black" x1="130.53415240239863" y1="138.71109884408963" x2="133.37535725331333" y2="128.96545750151523"/><line stroke="black" x1="133.37535725331333" y1="128.96545750151523" x2="149.3401147318966" y2="126.62690587893701"/><line stroke="black" x1="133.37535725331333" y1="128.96545750151523" x2="132.82732714642296" y2="119.16082098015286"/><line stroke="black" x1="132.82732714642296" y1="119.16082098015286" x2="147.87592366129124" y2="112.42506084162223"/><line stroke="black" x1="132.82732714642296" y1="119.16082098015286" x2="129.21545884039566" y2="110.23256703008968"/><line stroke="black" x1="129.21545884039566" y1="110.23256703008968" x2="142.0917659644533" y2="99.82159439026046"/><line stroke="black" x1="129.21545884039566" y1="110.23256703008968" x2="123.08862353453674" y2="102.89582017928036"/><line stroke="black" x1="123.08862353453674" y1="102.89582017928036" x2="132.93649442671418" y2="89.69123861925698"/><line stroke="black" x1="123.08862353453674" y1="102.89582017928036" x2="115.10783177239468" y2="97.64516828558551"/><line stroke="black" x1="115.10783177239468" y1="97.64516828558551" x2="121.4006246576329" y2="82.5631307342249"/><line stroke="black" x1="115.10783177239468" y1="97.64516828558551" x2="105.97503140919638" y2="94.78510129982827"/><line stroke="black" x1="105.97503140919638" y1="94.78510129982827" x2="108.43158859986191" y2="78.72228267642258"/><line stroke="black" x1="105.97503140919638" y1="94.78510129982827" x2="96.3995822254489" y2="94.46464554921367"/><line stroke="black" x1="96.3995822254489" y1="94.46464554921367" x2="94.92148125259604" y2="78.29375503089086"/><line stroke="black" x1="96.3995822254489" y1="94.46464554921367" x2="87.08999342717007" y2="96.69977201672863"/><line stroke="black" x1="87.08999342717007" y1="96.69977201672863" x2="81.73570206786923" y2="81.29029573034754"/><line stroke="black" x1="87.08999342717007" y1="96.69977201672863" x2="78.75553198600194" y2="101.37604071377987"/><line stroke="black" x1="78.75553198600194" y1="101.37604071377987" x2="69.7560357577413" y2="87.61770941858347"/><line stroke="black" x1="78.75553198600194" y1="101.37604071377987" x2="72.10189712841697" y2="108.23070760380143"/><line stroke="black" x1="72.10189712841697" y1="108.23070760380143" x2="59.91515554122437" y2="97.03751932144988"/><line stroke="black" x1="72.10189712841697" y1="108.23070760380143" x2="67.80535397107892" y2="116.81999151752693"/><line stroke="black" x1="67.80535397107892" y1="116.81999151752693" x2="53.19737603966973" y2="109.09083231945503"/><line stroke="black" x1="67.80535397107892" y1="116.81999151752693" x2="66.45171452719181" y2="126.48548508544751"/><line stroke="black" x1="66.45171452719181" y1="126.48548508544751" x2="50.57501718815593" y2="122.99817570307677"/><line stroke="black" x1="66.45171452719181" y1="126.48548508544751" x2="68.43430135332527" y2="136.34383061496683"/><line stroke="black" x1="68.43430135332527" y1="136.34383061496683" x2="52.85046985457993" y2="137.57287465991502"/><line stroke="black" x1="68.43430135332527" y1="136.34383061496683" x2="73.82303116893871" y2="145.33109550524182"/><line stroke="black" x1="73.82303116893871" y1="145.33109550524182" x2="60.39855636132765" y2="151.21677582044222"/><line stroke="black" x1="73.82303116893871" y1="145.33109550524182" x2="82.24429401269686" y2="152.32742645120328"/><line stroke="black" x1="82.24429401269686" y1="152.32742645120328" x2="72.86788835593927" y2="162.0826595662205"/><line stroke="black" x1="82.24429401269686" y1="152.32742645120328" x2="92.83487820534843" y2="156.35826491487236"/><line stroke="black" x1="96.54492769247307" y1="142.10856664364084" x2="102.08535956358149" y2="142.32258765191577"/><line stroke="black" x1="102.08535956358149" y1="142.32258765191577" x2="104.32740428069552" y2="156.82014158612503"/><line stroke="black" x1="92.83487820534843" y1="156.35826491487236" x2="96.54492769247307" y2="142.10856664364084"/><line stroke="black" x1="102.08535956358149" y1="142.32258765191577" x2="107.39296719204192" y2="140.84427666349364"/><line stroke="black" x1="107.39296719204192" y1="140.84427666349364" x2="115.2733510500785" y2="153.64191727661975"/><line stroke="black" x1="107.39296719204192" y1="140.84427666349364" x2="111.88474119102221" y2="137.85697570114326"/><line stroke="black" x1="111.88474119102221" y1="137.85697570114326" x2="124.33488430494978" y2="147.30481445628914"/><line stroke="black" x1="111.88474119102221" y1="137.85697570114326" x2="115.09587932476741" y2="133.71929185049225"/><line stroke="black" x1="115.09587932476741" y1="133.71929185049225" x2="130.53415240239863" y2="138.71109884408963"/><line stroke="black" x1="115.09587932476741" y1="133.71929185049225" x2="116.7340980364878" y2="128.90200293164764"/><line stroke="black" x1="116.7340980364878" y1="128.90200293164764" x2="133.37535725331333" y2="128.96545750151523"/><line stroke="black" x1="116.7340980364878" y1="128.90200293164764" x2="116.69707915810844" y2="123.9159578143085"/><line stroke="black" x1="116.69707915810844" y1="123.9159578143085" x2="132.82732714642296" y2="119.16082098015286"/><line stroke="black" x1="116.69707915810844" y1="123.9159578143085" x2="115.05803576983105" y2="119.24860675863218"/><line stroke="black" x1="115.05803576983105" y1="119.24860675863218" x2="129.21545884039566" y2="110.23256703008968"/><line stroke="black" x1="115.05803576983105" y1="119.24860675863218" x2="112.03197373738007" y2="115.3190703477452"/><line stroke="black" x1="112.03197373738007" y1="115.3190703477452" x2="123.08862353453674" y2="102.89582017928036"/><line stroke="black" x1="112.03197373738007" y1="115.3190703477452" x2="107.93591100520908" y2="112.45297888737319"/><line stroke="black" x1="107.93591100520908" y1="112.45297888737319" x2="115.10783177239468" y2="97.64516828558551"/><line stroke="black" x1="107.93591100520908" y1="112.45297888737319" x2="103.15230972601721" y2="110.87244839063803"/><line stroke="black" x1="103.15230972601721" y1="110.87244839063803" x2="105.97503140919638" y2="94.78510129982827"/><line stroke="black" x1="103.15230972601721" y1="110.87244839063803" x2="98.09955931450968" y2="110.6944969458646"/><line stroke="black" x1="98.09955931450968" y1="110.6944969458646" x2="96.3995822254489" y2="94.46464554921367"/><line stroke="black" x1="98.09955931450968" y1="110.6944969458646" x2="93.20880384896255" y2="111.93205810893195"/><line stroke="black" x1="93.20880384896255" y1="111.93205810893195" x2="87.08999342717007" y2="96.69977201672863"/><line stroke="black" x1="93.20880384896255" y1="111.93205810893195" x2="88.90359907056052" y2="114.49417468151967"/><line stroke="black" x1="88.90359907056052" y1="114.49417468151967" x2="78.75553198600194" y2="101.37604071377987"/><line stroke="black" x1="88.90359907056052" y1="114.49417468151967" x2="85.57784406991044" y2="118.184982967709"/><line stroke="black" x1="85.57784406991044" y1="118.184982967709" x2="72.10189712841697" y2="108.23070760380143"/><line stroke="black" x1="85.57784406991044" y1="118.184982967709" x2="83.5680539293044" y2="122.70417875976182"/><line stroke="black" x1="83.5680539293044" y1="122.70417875976182" x2="67.80535397107892" y2="116.81999151752693"/><line stroke="black" x1="83.5680539293044" y1="122.70417875976182" x2="83.11839441846625" y2="127.65430345549447"/><line stroke="black" x1="83.11839441846625" y1="127.65430345549447" x2="66.45171452719181" y2="126.48548508544751"/><line stroke="black" x1="83.11839441846625" y1="127.65430345549447" x2="84.341046354738" y2="132.56155279089762"/><line stroke="black" x1="84.341046354738" y1="132.56155279089762" x2="68.43430135332527" y2="136.34383061496683"/><line stroke="black" x1="84.341046354738" y1="132.56155279089762" x2="87.17982083187233" y2="136.91559816634543"/><line stroke="black" x1="87.17982083187233" y1="136.91559816634543" x2="73.82303116893871" y2="145.33109550524182"/><line stroke="black" x1="87.17982083187233" y1="136.91559816634543" x2="91.38959576475611" y2="140.22899930004382"/><line stroke="black" x1="91.38959576475611" y1="140.22899930004382" x2="82.24429401269686" y2="152.32742645120328"/><line stroke="black" x1="91.38959576475611" y1="140.22899930004382" x2="96.54492769247307" y2="142.10856664364084"/><line stroke="black" x1="96.54492769247307" y1="142.10856664364084" x2="100" y2="126.75413014354406"/><line stroke="black" x1="100" y1="126.75413014354406" x2="102.08535956358149" y2="142.32258765191577"/><line stroke="black" x1="100" y1="126.75413014354406" x2="107.39296719204192" y2="140.84427666349364"/><line stroke="black" x1="100" y1="126.75413014354406" x2="111.88474119102221" y2="137.85697570114326"/><line stroke="black" x1="100" y1="126.75413014354406" x2="115.09587932476741" y2="133.71929185049225"/><line stroke="black" x1="100" y1="126.75413014354406" x2="116.7340980364878" y2="128.90200293164764"/><line stroke="black" x1="100" y1="126.75413014354406" x2="116.69707915810844" y2="123.9159578143085"/><line stroke="black" x1="100" y1="126.75413014354406" x2="115.05803576983105" y2="119.24860675863218"/><line stroke="black" x1="100" y1="126.75413014354406" x2="112.03197373738007" y2="115.3190703477452"/><line stroke="black" x1="100" y1="126.75413014354406" x2="107.93591100520908" y2="112.45297888737319"/><line stroke="black" x1="100" y1="126.75413014354406" x2="103.15230972601721" y2="110.87244839063803"/><line stroke="black" x1="100" y1="126.75413014354406" x2="98.09955931450968" y2="110.6944969458646"/><line stroke="black" x1="100" y1="126.75413014354406" x2="93.20880384896255" y2="111.93205810893195"/><line stroke="black" x1="100" y1="126.75413014354406" x2="88.90359907056052" y2="114.49417468151967"/><line stroke="black" x1="100" y1="126.75413014354406" x2="85.57784406991044" y2="118.184982967709"/><line stroke="black" x1="100" y1="126.75413014354406" x2="83.5680539293044" y2="122.70417875976182"/><line stroke="black" x1="100" y1="126.75413014354406" x2="83.11839441846625" y2="127.65430345549447"/><line stroke="black" x1="100" y1="126.75413014354406" x2="84.341046354738" y2="132.56155279089762"/><line stroke="black" x1="100" y1="126.75413014354406" x2="87.17982083187233" y2="136.91559816634543"/><line stroke="black" x1="100" y1="126.75413014354406" x2="91.38959576475611" y2="140.22899930004382"/></svg>