<svg height="200" width="200" version="1.1" xmlns="http://www.w3.org/2000/svg" id="example"><polygon points="115.87097671207015, 76.77157558544228, 98.80560377528398, 75.59764469379174, 98.89498841023924, 81.54434529949037, 114.67200546657259, 82.68586891674859" fill="rgb(255,255,255)" fill-opacity="1.0" stroke="black"/><polygon points="116.78998537614112, 70.61336820809836, 98.73718325536832, 69.43816630662539, 98.80560377528398, 75.59764469379174, 115.87097671207015, 76.77157558544228" fill="rgb(255,255,255)" fill-opacity="1.0" stroke="black"/><polygon points="98.80560377528398, 75.59764469379174, 81.77398347609495, 77.15361149498791, 83.15506241815051, 83.05698159537789, 98.89498841023924, 81.54434529949037" fill="rgb(255,255,255)" fill-opacity="1.0" stroke="black"/><polygon points="98.73718325536832, 69.43816630662539, 80.7149237370041, 70.99611524026074, 81.77398347609495, 77.15361149498791, 98.80560377528398, 75.59764469379174" fill="rgb(255,255,255)" fill-opacity="1.0" stroke="black"/><polygon points="114.67200546657259, 82.68586891674859, 98.89498841023924, 81.54434529949037, 98.99954082357564, 86.8724938619239, 113.27190669619334, 87.95069756675684" fill="rgb(255,255,255)" fill-opacity="1.0" stroke="black"/><polygon points="98.89498841023924, 81.54434529949037, 83.15506241815051, 83.05698159537789, 84.7669469890878, 88.3008093430317, 98.99954082357564, 86.8724938619239" fill="rgb(255,255,255)" fill-opacity="1.0" stroke="black"/><polygon points="117.35988826254989, 64.6308555649158, 98.69479408053752, 63.4824517731152, 98.73718325536832, 69.43816630662539, 116.78998537614112, 70.61336820809836" fill="rgb(255,255,255)" fill-opacity="1.0" stroke="black"/><polygon points="98.69479408053752, 63.4824517731152, 80.0579680350273, 65.00505515611141, 80.7149237370041, 70.99611524026074, 98.73718325536832, 69.43816630662539" fill="rgb(255,255,255)" fill-opacity="1.0" stroke="black"/><polygon points="132.4662597465908, 80.72454267451705, 115.87097671207015, 76.77157558544228, 114.67200546657259, 82.68586891674859, 129.93643232484956, 86.51689351627951" fill="rgb(255,255,255)" fill-opacity="1.0" stroke="black"/><polygon points="134.41421378855048, 74.58077594987738, 116.78998537614112, 70.61336820809836, 115.87097671207015, 76.77157558544228, 132.4662597465908, 80.72454267451705" fill="rgb(255,255,255)" fill-opacity="1.0" stroke="black"/><polygon points="81.77398347609495, 77.15361149498791, 65.29035809535547, 81.50414078943258, 68.01121411617198, 87.27011781286325, 83.15506241815051, 83.05698159537789" fill="rgb(255,255,255)" fill-opacity="1.0" stroke="black"/><polygon points="80.7149237370041, 70.99611524026074, 63.19343198069467, 75.36507726940016, 65.29035809535547, 81.50414078943258, 81.77398347609495, 77.15361149498791" fill="rgb(255,255,255)" fill-opacity="1.0" stroke="black"/><polygon points="129.93643232484956, 86.51689351627951, 114.67200546657259, 82.68586891674859, 113.27190669619334, 87.95069756675684, 126.9986419886772, 91.55515746704923" fill="rgb(255,255,255)" fill-opacity="1.0" stroke="black"/><polygon points="83.15506241815051, 83.05698159537789, 68.01121411617198, 87.27011781286325, 71.16737971132825, 92.26129954958715, 84.7669469890878, 88.3008093430317" fill="rgb(255,255,255)" fill-opacity="1.0" stroke="black"/><polygon points="135.62607361325902, 68.51397165555161, 117.35988826254989, 64.6308555649158, 116.78998537614112, 70.61336820809836, 134.41421378855048, 74.58077594987738" fill="rgb(255,255,255)" fill-opacity="1.0" stroke="black"/><polygon points="113.27190669619334, 87.95069756675684, 98.99954082357564, 86.8724938619239, 99.11246531667258, 91.1750098570297, 111.76250571215579, 92.16323345354573" fill="rgb(255,255,255)" fill-opacity="1.0" stroke="black"/><polygon points="98.99954082357564, 86.8724938619239, 84.7669469890878, 88.3008093430317, 86.50361773981959, 92.48371687914579, 99.11246531667258, 91.1750098570297" fill="rgb(255,255,255)" fill-opacity="1.0" stroke="black"/><polygon points="80.0579680350273, 65.00505515611141, 61.88806701987257, 69.28274006374554, 63.19343198069467, 75.36507726940016, 80.7149237370041, 70.99611524026074" fill="rgb(255,255,255)" fill-opacity="1.0" stroke="black"/><polygon points="117.52123114535462, 59.270762094279974, 98.68279905104146, 58.171703832732334, 98.69479408053752, 63.4824517731152, 117.35988826254989, 64.6308555649158" fill="rgb(255,255,255)" fill-opacity="1.0" stroke="black"/><polygon points="98.68279905104146, 58.171703832732334, 79.87195171600227, 59.62893164608175, 80.0579680350273, 65.00505515611141, 98.69479408053752, 63.4824517731152" fill="rgb(255,255,255)" fill-opacity="1.0" stroke="black"/><polygon points="126.9986419886772, 91.55515746704923, 113.27190669619334, 87.95069756675684, 111.76250571215579, 92.16323345354573, 123.85114338254033, 95.45308211289323" fill="rgb(255,255,255)" fill-opacity="1.0" stroke="black"/><polygon points="84.7669469890878, 88.3008093430317, 71.16737971132825, 92.26129954958715, 74.54472459629426, 96.09511160119351, 86.50361773981959, 92.48371687914579" fill="rgb(255,255,255)" fill-opacity="1.0" stroke="black"/><polygon points="135.96969960113458, 62.98870162169388, 117.52123114535462, 59.270762094279974, 117.35988826254989, 64.6308555649158, 135.62607361325902, 68.51397165555161" fill="rgb(255,255,255)" fill-opacity="1.0" stroke="black"/><polygon points="79.87195171600227, 59.62893164608175, 61.51781192832819, 63.725075820823434, 61.88806701987257, 69.28274006374554, 80.0579680350273, 65.00505515611141" fill="rgb(255,255,255)" fill-opacity="1.0" stroke="black"/><polygon points="111.76250571215579, 92.16323345354573, 99.11246531667258, 91.1750098570297, 99.22560820855354, 94.04379452497777, 110.25310524336615, 94.92417858412345" fill="rgb(255,255,255)" fill-opacity="1.0" stroke="black"/><polygon points="99.11246531667258, 91.1750098570297, 86.50361773981959, 92.48371687914579, 88.23919984322039, 95.20932414671009, 99.22560820855354, 94.04379452497777" fill="rgb(255,255,255)" fill-opacity="1.0" stroke="black"/><polygon points="147.94625981727663, 87.60558578863898, 132.4662597465908, 80.72454267451705, 129.93643232484956, 86.51689351627951, 144.0132205841466, 93.13888486828378" fill="rgb(255,255,255)" fill-opacity="1.0" stroke="black"/><polygon points="150.99875288734356, 81.52455790631214, 134.41421378855048, 74.58077594987738, 132.4662597465908, 80.72454267451705, 147.94625981727663, 87.60558578863898" fill="rgb(255,255,255)" fill-opacity="1.0" stroke="black"/><polygon points="144.0132205841466, 93.13888486828378, 129.93643232484956, 86.51689351627951, 126.9986419886772, 91.55515746704923, 139.48969019914512, 97.73490318816418" fill="rgb(255,255,255)" fill-opacity="1.0" stroke="black"/><polygon points="117.2292186904775, 55.01048365425564, 98.70451051375218, 53.97636545651014, 98.68279905104146, 58.171703832732334, 117.52123114535462, 59.270762094279974" fill="rgb(255,255,255)" fill-opacity="1.0" stroke="black"/><polygon points="98.70451051375218, 53.97636545651014, 80.20861116950866, 55.347406823150465, 79.87195171600227, 59.62893164608175, 98.68279905104146, 58.171703832732334" fill="rgb(255,255,255)" fill-opacity="1.0" stroke="black"/><polygon points="65.29035809535547, 81.50414078943258, 50.032432534855516, 88.80897832934487, 54.16699393095404, 94.29091542144839, 68.01121411617198, 87.27011781286325" fill="rgb(255,255,255)" fill-opacity="1.0" stroke="black"/><polygon points="63.19343198069467, 75.36507726940016, 46.81909122129018, 82.74385928459186, 50.032432534855516, 88.80897832934487, 65.29035809535547, 81.50414078943258" fill="rgb(255,255,255)" fill-opacity="1.0" stroke="black"/><polygon points="123.85114338254033, 95.45308211289323, 111.76250571215579, 92.16323345354573, 110.25310524336615, 94.92417858412345, 120.72382999643946, 97.84280346906729" fill="rgb(255,255,255)" fill-opacity="1.0" stroke="black"/><polygon points="68.01121411617198, 87.27011781286325, 54.16699393095404, 94.29091542144839, 58.914348377604476, 98.80350511353421, 71.16737971132825, 92.26129954958715" fill="rgb(255,255,255)" fill-opacity="1.0" stroke="black"/><polygon points="152.90844306175595, 75.33325021264355, 135.62607361325902, 68.51397165555161, 134.41421378855048, 74.58077594987738, 150.99875288734356, 81.52455790631214" fill="rgb(255,255,255)" fill-opacity="1.0" stroke="black"/><polygon points="86.50361773981959, 92.48371687914579, 74.54472459629426, 96.09511160119351, 77.89619974205473, 98.41020553954468, 88.23919984322039, 95.20932414671009" fill="rgb(255,255,255)" fill-opacity="1.0" stroke="black"/><polygon points="139.48969019914512, 97.73490318816418, 126.9986419886772, 91.55515746704923, 123.85114338254033, 95.45308211289323, 134.6946479715283, 101.04445631235254" fill="rgb(255,255,255)" fill-opacity="1.0" stroke="black"/><polygon points="61.88806701987257, 69.28274006374554, 44.80679340360075, 76.53372538881004, 46.81909122129018, 82.74385928459186, 63.19343198069467, 75.36507726940016" fill="rgb(255,255,255)" fill-opacity="1.0" stroke="black"/><polygon points="135.34795047561175, 58.50588747239439, 117.2292186904775, 55.01048365425564, 117.52123114535462, 59.270762094279974, 135.96969960113458, 62.98870162169388" fill="rgb(255,255,255)" fill-opacity="1.0" stroke="black"/><polygon points="71.16737971132825, 92.26129954958715, 58.914348377604476, 98.80350511353421, 63.937382705785105, 102.00510299100326, 74.54472459629426, 96.09511160119351" fill="rgb(255,255,255)" fill-opacity="1.0" stroke="black"/><polygon points="80.20861116950866, 55.347406823150465, 62.1877057872998, 59.19766413080811, 61.51781192832819, 63.725075820823434, 79.87195171600227, 59.62893164608175" fill="rgb(255,255,255)" fill-opacity="1.0" stroke="black"/><polygon points="153.45144005211432, 69.52417595131149, 135.96969960113458, 62.98870162169388, 135.62607361325902, 68.51397165555161, 152.90844306175595, 75.33325021264355" fill="rgb(255,255,255)" fill-opacity="1.0" stroke="black"/><polygon points="110.25310524336615, 94.92417858412345, 99.22560820855354, 94.04379452497777, 99.3292329375537, 95.09348316170532, 108.87324021005722, 95.86139267205557" fill="rgb(255,255,255)" fill-opacity="1.0" stroke="black"/><polygon points="99.22560820855354, 94.04379452497777, 88.23919984322039, 95.20932414671009, 89.82488467157259, 96.10981805933581, 99.3292329375537, 95.09348316170532" fill="rgb(255,255,255)" fill-opacity="1.0" stroke="black"/><polygon points="134.6946479715283, 101.04445631235254, 123.85114338254033, 95.45308211289323, 120.72382999643946, 97.84280346906729, 129.98216817097233, 102.76054729664361" fill="rgb(255,255,255)" fill-opacity="1.0" stroke="black"/><polygon points="61.51781192832819, 63.725075820823434, 44.23434284846833, 70.6755175976169, 44.80679340360075, 76.53372538881004, 61.88806701987257, 69.28274006374554" fill="rgb(255,255,255)" fill-opacity="1.0" stroke="black"/><polygon points="74.54472459629426, 96.09511160119351, 63.937382705785105, 102.00510299100326, 68.86466325169943, 103.60009723833227, 77.89619974205473, 98.41020553954468" fill="rgb(255,255,255)" fill-opacity="1.0" stroke="black"/><polygon points="120.72382999643946, 97.84280346906729, 110.25310524336615, 94.92417858412345, 108.87324021005722, 95.86139267205557, 117.8823955824382, 98.39746039015955" fill="rgb(255,255,255)" fill-opacity="1.0" stroke="black"/><polygon points="116.4647463746745, 52.33895410028788, 98.76138823772435, 51.37831161514609, 98.70451051375218, 53.97636545651014, 117.2292186904775, 55.01048365425564" fill="rgb(255,255,255)" fill-opacity="1.0" stroke="black"/><polygon points="98.76138823772435, 51.37831161514609, 81.08977334027117, 52.651736020736394, 80.20861116950866, 55.347406823150465, 98.70451051375218, 53.97636545651014" fill="rgb(255,255,255)" fill-opacity="1.0" stroke="black"/><polygon points="88.23919984322039, 95.20932414671009, 77.89619974205473, 98.41020553954468, 80.93767211600634, 98.88877043763972, 89.82488467157259, 96.10981805933581" fill="rgb(255,255,255)" fill-opacity="1.0" stroke="black"/><polygon points="133.72394779467652, 55.57907957518685, 116.4647463746745, 52.33895410028788, 117.2292186904775, 55.01048365425564, 135.34795047561175, 58.50588747239439" fill="rgb(255,255,255)" fill-opacity="1.0" stroke="black"/><polygon points="81.08977334027117, 52.651736020736394, 63.936674236238034, 56.21907027279113, 62.1877057872998, 59.19766413080811, 80.20861116950866, 55.347406823150465" fill="rgb(255,255,255)" fill-opacity="1.0" stroke="black"/><polygon points="155.96211108403799, 102.65897498650305, 144.0132205841466, 93.13888486828378, 139.48969019914512, 97.73490318816418, 149.8416719071078, 106.50854076535758" fill="rgb(255,255,255)" fill-opacity="1.0" stroke="black"/><polygon points="161.3576994712588, 97.60672542734115, 147.94625981727663, 87.60558578863898, 144.0132205841466, 93.13888486828378, 155.96211108403799, 102.65897498650305" fill="rgb(255,255,255)" fill-opacity="1.0" stroke="black"/><polygon points="152.46943941455356, 64.6395262693612, 135.34795047561175, 58.50588747239439, 135.96969960113458, 62.98870162169388, 153.45144005211432, 69.52417595131149" fill="rgb(255,255,255)" fill-opacity="1.0" stroke="black"/><polygon points="165.5937088210964, 91.70294148132731, 150.99875288734356, 81.52455790631214, 147.94625981727663, 87.60558578863898, 161.3576994712588, 97.60672542734115" fill="rgb(255,255,255)" fill-opacity="1.0" stroke="black"/><polygon points="149.8416719071078, 106.50854076535758, 139.48969019914512, 97.73490318816418, 134.6946479715283, 101.04445631235254, 143.45129069923684, 108.87821951175383" fill="rgb(255,255,255)" fill-opacity="1.0" stroke="black"/><polygon points="129.98216817097233, 102.76054729664361, 120.72382999643946, 97.84280346906729, 117.8823955824382, 98.39746039015955, 125.7445480152824, 102.63724583084921" fill="rgb(255,255,255)" fill-opacity="1.0" stroke="black"/><polygon points="62.1877057872998, 59.19766413080811, 45.269519622782425, 65.71867252215495, 44.23434284846833, 70.6755175976169, 61.51781192832819, 63.725075820823434" fill="rgb(255,255,255)" fill-opacity="1.0" stroke="black"/><polygon points="54.16699393095404, 94.29091542144839, 42.61068947042924, 104.2188538471334, 48.948665252527675, 107.93383661157259, 58.914348377604476, 98.80350511353421" fill="rgb(255,255,255)" fill-opacity="1.0" stroke="black"/><polygon points="50.032432534855516, 88.80897832934487, 37.010660305546274, 99.25778888957481, 42.61068947042924, 104.2188538471334, 54.16699393095404, 94.29091542144839" fill="rgb(255,255,255)" fill-opacity="1.0" stroke="black"/><polygon points="77.89619974205473, 98.41020553954468, 68.86466325169943, 103.60009723833227, 73.2876171768305, 103.35690671659717, 80.93767211600634, 98.88877043763972" fill="rgb(255,255,255)" fill-opacity="1.0" stroke="black"/><polygon points="46.81909122129018, 82.74385928459186, 32.60580364098411, 93.39316332684398, 37.010660305546274, 99.25778888957481, 50.032432534855516, 88.80897832934487" fill="rgb(255,255,255)" fill-opacity="1.0" stroke="black"/><polygon points="58.914348377604476, 98.80350511353421, 48.948665252527675, 107.93383661157259, 55.549936009624076, 110.13941468215329, 63.937382705785105, 102.00510299100326" fill="rgb(255,255,255)" fill-opacity="1.0" stroke="black"/><polygon points="108.87324021005722, 95.86139267205557, 99.3292329375537, 95.09348316170532, 99.41224625572302, 94.01863315393236, 107.76959545636329, 94.68564426448509" fill="rgb(255,255,255)" fill-opacity="1.0" stroke="black"/><polygon points="99.3292329375537, 95.09348316170532, 89.82488467157259, 96.10981805933581, 91.0924950214311, 94.90122604527429, 99.41224625572302, 94.01863315393236" fill="rgb(255,255,255)" fill-opacity="1.0" stroke="black"/><polygon points="168.26565741700415, 85.38244235610225, 152.90844306175595, 75.33325021264355, 150.99875288734356, 81.52455790631214, 165.5937088210964, 91.70294148132731" fill="rgb(255,255,255)" fill-opacity="1.0" stroke="black"/><polygon points="143.45129069923684, 108.87821951175383, 134.6946479715283, 101.04445631235254, 129.98216817097233, 102.76054729664361, 137.2664325810476, 109.56153680514676" fill="rgb(255,255,255)" fill-opacity="1.0" stroke="black"/><polygon points="117.8823955824382, 98.39746039015955, 108.87324021005722, 95.86139267205557, 107.76959545636329, 94.68564426448509, 115.62168397069176, 96.88179599505663" fill="rgb(255,255,255)" fill-opacity="1.0" stroke="black"/><polygon points="89.82488467157259, 96.10981805933581, 80.93767211600634, 98.88877043763972, 83.35507226630476, 97.30607051633358, 91.0924950214311, 94.90122604527429" fill="rgb(255,255,255)" fill-opacity="1.0" stroke="black"/><polygon points="115.25093800026515, 51.7013138582887, 98.85181125539344, 50.8170130337534, 98.76138823772435, 51.37831161514609, 116.4647463746745, 52.33895410028788" fill="rgb(255,255,255)" fill-opacity="1.0" stroke="black"/><polygon points="98.85181125539344, 50.8170130337534, 82.48828367805004, 51.98894358965234, 81.08977334027117, 52.651736020736394, 98.76138823772435, 51.37831161514609" fill="rgb(255,255,255)" fill-opacity="1.0" stroke="black"/><polygon points="44.80679340360075, 76.53372538881004, 29.823567475593883, 87.05738295455387, 32.60580364098411, 93.39316332684398, 46.81909122129018, 82.74385928459186" fill="rgb(255,255,255)" fill-opacity="1.0" stroke="black"/><polygon points="63.937382705785105, 102.00510299100326, 55.549936009624076, 110.13941468215329, 61.923158969271995, 110.64689211233578, 68.86466325169943, 103.60009723833227" fill="rgb(255,255,255)" fill-opacity="1.0" stroke="black"/><polygon points="149.91467662102596, 61.23906151880837, 133.72394779467652, 55.57907957518685, 135.34795047561175, 58.50588747239439, 152.46943941455356, 64.6395262693612" fill="rgb(255,255,255)" fill-opacity="1.0" stroke="black"/><polygon points="131.15635284746818, 54.67387084255927, 115.25093800026515, 51.7013138582887, 116.4647463746745, 52.33895410028788, 133.72394779467652, 55.57907957518685" fill="rgb(255,255,255)" fill-opacity="1.0" stroke="black"/><polygon points="169.0284894748263, 79.169727699164, 153.45144005211432, 69.52417595131149, 152.90844306175595, 75.33325021264355, 168.26565741700415, 85.38244235610225" fill="rgb(255,255,255)" fill-opacity="1.0" stroke="black"/><polygon points="82.48828367805004, 51.98894358965234, 66.69952113850353, 55.25917985997606, 63.936674236238034, 56.21907027279113, 81.08977334027117, 52.651736020736394" fill="rgb(255,255,255)" fill-opacity="1.0" stroke="black"/><polygon points="125.7445480152824, 102.63724583084921, 117.8823955824382, 98.39746039015955, 115.62168397069176, 96.88179599505663, 122.40255027049196, 100.53052321039061" fill="rgb(255,255,255)" fill-opacity="1.0" stroke="black"/><polygon points="63.936674236238034, 56.21907027279113, 47.960737089619876, 62.23150289317695, 45.269519622782425, 65.71867252215495, 62.1877057872998, 59.19766413080811" fill="rgb(255,255,255)" fill-opacity="1.0" stroke="black"/><polygon points="137.2664325810476, 109.56153680514676, 129.98216817097233, 102.76054729664361, 125.7445480152824, 102.63724583084921, 131.78387026311344, 108.4326451272306" fill="rgb(255,255,255)" fill-opacity="1.0" stroke="black"/><polygon points="80.93767211600634, 98.88877043763972, 73.2876171768305, 103.35690671659717, 76.77056659312156, 101.1470461675948, 83.35507226630476, 97.30607051633358" fill="rgb(255,255,255)" fill-opacity="1.0" stroke="black"/><polygon points="44.23434284846833, 70.6755175976169, 29.02871077095872, 80.77908440496802, 29.823567475593883, 87.05738295455387, 44.80679340360075, 76.53372538881004" fill="rgb(255,255,255)" fill-opacity="1.0" stroke="black"/><polygon points="68.86466325169943, 103.60009723833227, 61.923158969271995, 110.64689211233578, 67.55979562757581, 109.35030898659254, 73.2876171768305, 103.35690671659717" fill="rgb(255,255,255)" fill-opacity="1.0" stroke="black"/><polygon points="107.76959545636329, 94.68564426448509, 99.41224625572302, 94.01863315393236, 99.46324620903087, 90.68616805555976, 107.09233613921091, 91.27979240180571" fill="rgb(255,255,255)" fill-opacity="1.0" stroke="black"/><polygon points="99.41224625572302, 94.01863315393236, 91.0924950214311, 94.90122604527429, 91.87008565266392, 91.47154482974136, 99.46324620903087, 90.68616805555976" fill="rgb(255,255,255)" fill-opacity="1.0" stroke="black"/><polygon points="115.62168397069176, 96.88179599505663, 107.76959545636329, 94.68564426448509, 107.09233613921091, 91.27979240180571, 114.23959582259151, 93.2306747395113" fill="rgb(255,255,255)" fill-opacity="1.0" stroke="black"/><polygon points="91.0924950214311, 94.90122604527429, 83.35507226630476, 97.30607051633358, 84.83187696438397, 93.6069231829897, 91.87008565266392, 91.47154482974136" fill="rgb(255,255,255)" fill-opacity="1.0" stroke="black"/><polygon points="113.6711167755027, 53.401141319912625, 98.96971072286873, 52.59278506819979, 98.85181125539344, 50.8170130337534, 115.25093800026515, 51.7013138582887" fill="rgb(255,255,255)" fill-opacity="1.0" stroke="black"/><polygon points="98.96971072286873, 52.59278506819979, 84.30744597356899, 53.663717648567, 82.48828367805004, 51.98894358965234, 98.85181125539344, 50.8170130337534" fill="rgb(255,255,255)" fill-opacity="1.0" stroke="black"/><polygon points="167.64992562056878, 73.66727963707062, 152.46943941455356, 64.6395262693612, 153.45144005211432, 69.52417595131149, 169.0284894748263, 79.169727699164" fill="rgb(255,255,255)" fill-opacity="1.0" stroke="black"/><polygon points="156.85552552901828, 117.7432634128551, 149.8416719071078, 106.50854076535758, 143.45129069923684, 108.87821951175383, 149.0802693845205, 118.73439903627272" fill="rgb(255,255,255)" fill-opacity="1.0" stroke="black"/><polygon points="164.44796599835908, 115.05723785010606, 155.96211108403799, 102.65897498650305, 149.8416719071078, 106.50854076535758, 156.85552552901828, 117.7432634128551" fill="rgb(255,255,255)" fill-opacity="1.0" stroke="black"/><polygon points="145.9054058780025, 59.82945007070413, 131.15635284746818, 54.67387084255927, 133.72394779467652, 55.57907957518685, 149.91467662102596, 61.23906151880837" fill="rgb(255,255,255)" fill-opacity="1.0" stroke="black"/><polygon points="131.78387026311344, 108.4326451272306, 125.7445480152824, 102.63724583084921, 122.40255027049196, 100.53052321039061, 127.51183340422487, 105.47239511776264" fill="rgb(255,255,255)" fill-opacity="1.0" stroke="black"/><polygon points="171.26273193069764, 110.82731848486989, 161.3576994712588, 97.60672542734115, 155.96211108403799, 102.65897498650305, 164.44796599835908, 115.05723785010606" fill="rgb(255,255,255)" fill-opacity="1.0" stroke="black"/><polygon points="127.83449996374881, 56.1064939158106, 113.6711167755027, 53.401141319912625, 115.25093800026515, 51.7013138582887, 131.15635284746818, 54.67387084255927" fill="rgb(255,255,255)" fill-opacity="1.0" stroke="black"/><polygon points="45.269519622782425, 65.71867252215495, 30.464974127817545, 75.1706944902699, 29.02871077095872, 80.77908440496802, 44.23434284846833, 70.6755175976169" fill="rgb(255,255,255)" fill-opacity="1.0" stroke="black"/><polygon points="84.30744597356899, 53.663717648567, 70.26976773749574, 56.63703532671997, 66.69952113850353, 55.25917985997606, 82.48828367805004, 51.98894358965234" fill="rgb(255,255,255)" fill-opacity="1.0" stroke="black"/><polygon points="149.0802693845205, 118.73439903627272, 143.45129069923684, 108.87821951175383, 137.2664325810476, 109.56153680514676, 141.69879252503927, 117.97405974928745" fill="rgb(255,255,255)" fill-opacity="1.0" stroke="black"/><polygon points="122.40255027049196, 100.53052321039061, 115.62168397069176, 96.88179599505663, 114.23959582259151, 93.2306747395113, 120.37217254646828, 96.45960832564928" fill="rgb(255,255,255)" fill-opacity="1.0" stroke="black"/><polygon points="73.2876171768305, 103.35690671659717, 67.55979562757581, 109.35030898659254, 71.94350930707138, 106.25012596834469, 76.77056659312156, 101.1470461675948" fill="rgb(255,255,255)" fill-opacity="1.0" stroke="black"/><polygon points="66.69952113850353, 55.25917985997606, 52.178660275372536, 60.72863636376121, 47.960737089619876, 62.23150289317695, 63.936674236238034, 56.21907027279113" fill="rgb(255,255,255)" fill-opacity="1.0" stroke="black"/><polygon points="83.35507226630476, 97.30607051633358, 76.77056659312156, 101.1470461675948, 78.88433726079867, 97.00368894262763, 84.83187696438397, 93.6069231829897" fill="rgb(255,255,255)" fill-opacity="1.0" stroke="black"/><polygon points="48.948665252527675, 107.93383661157259, 42.51323020429574, 119.48438947566054, 50.450045213212725, 120.24462434257835, 55.549936009624076, 110.13941468215329" fill="rgb(255,255,255)" fill-opacity="1.0" stroke="black"/><polygon points="42.61068947042924, 104.2188538471334, 34.73973691055136, 116.99994853081364, 42.51323020429574, 119.48438947566054, 48.948665252527675, 107.93383661157259" fill="rgb(255,255,255)" fill-opacity="1.0" stroke="black"/><polygon points="176.69469829332107, 105.3167085001911, 165.5937088210964, 91.70294148132731, 161.3576994712588, 97.60672542734115, 171.26273193069764, 110.82731848486989" fill="rgb(255,255,255)" fill-opacity="1.0" stroke="black"/><polygon points="37.010660305546274, 99.25778888957481, 27.742777675613127, 112.9192896257928, 34.73973691055136, 116.99994853081364, 42.61068947042924, 104.2188538471334" fill="rgb(255,255,255)" fill-opacity="1.0" stroke="black"/><polygon points="55.549936009624076, 110.13941468215329, 50.450045213212725, 120.24462434257835, 57.962663151352366, 119.24913610521442, 61.923158969271995, 110.64689211233578" fill="rgb(255,255,255)" fill-opacity="1.0" stroke="black"/><polygon points="141.69879252503927, 117.97405974928745, 137.2664325810476, 109.56153680514676, 131.78387026311344, 108.4326451272306, 135.27047436698726, 115.49424500861217" fill="rgb(255,255,255)" fill-opacity="1.0" stroke="black"/><polygon points="107.09233613921091, 91.27979240180571, 99.46324620903087, 90.68616805555976, 99.47261488334365, 85.24461838207833, 106.96798783593388, 85.80337819784702" fill="rgb(255,255,255)" fill-opacity="1.0" stroke="black"/><polygon points="99.46324620903087, 90.68616805555976, 91.87008565266392, 91.47154482974136, 92.01283156700264, 85.9838496266309, 99.47261488334365, 85.24461838207833" fill="rgb(255,255,255)" fill-opacity="1.0" stroke="black"/><polygon points="32.60580364098411, 93.39316332684398, 22.152197481458224, 107.48768459397084, 27.742777675613127, 112.9192896257928, 37.010660305546274, 99.25778888957481" fill="rgb(255,255,255)" fill-opacity="1.0" stroke="black"/><polygon points="164.08442146913478, 69.51062312022489, 149.91467662102596, 61.23906151880837, 152.46943941455356, 64.6395262693612, 167.64992562056878, 73.66727963707062" fill="rgb(255,255,255)" fill-opacity="1.0" stroke="black"/><polygon points="114.23959582259151, 93.2306747395113, 107.09233613921091, 91.27979240180571, 106.96798783593388, 85.80337819784702, 113.98626642512836, 87.63905374824397" fill="rgb(255,255,255)" fill-opacity="1.0" stroke="black"/><polygon points="91.87008565266392, 91.47154482974136, 84.83187696438397, 93.6069231829897, 85.10247899791236, 87.99297256149283, 92.01283156700264, 85.9838496266309" fill="rgb(255,255,255)" fill-opacity="1.0" stroke="black"/><polygon points="61.923158969271995, 110.64689211233578, 57.962663151352366, 119.24913610521442, 64.48761890034011, 116.55439832573862, 67.55979562757581, 109.35030898659254" fill="rgb(255,255,255)" fill-opacity="1.0" stroke="black"/><polygon points="111.87923225321441, 57.47519551394055, 99.10372473931643, 56.741006540055196, 98.96971072286873, 52.59278506819979, 113.6711167755027, 53.401141319912625" fill="rgb(255,255,255)" fill-opacity="1.0" stroke="black"/><polygon points="99.10372473931643, 56.741006540055196, 86.36935457155738, 57.71331842724601, 84.30744597356899, 53.663717648567, 98.96971072286873, 52.59278506819979" fill="rgb(255,255,255)" fill-opacity="1.0" stroke="black"/><polygon points="180.15874295023468, 98.92344365551715, 168.26565741700415, 85.38244235610225, 165.5937088210964, 91.70294148132731, 176.69469829332107, 105.3167085001911" fill="rgb(255,255,255)" fill-opacity="1.0" stroke="black"/><polygon points="127.51183340422487, 105.47239511776264, 122.40255027049196, 100.53052321039061, 120.37217254646828, 96.45960832564928, 124.93838669273103, 100.80859631017515" fill="rgb(255,255,255)" fill-opacity="1.0" stroke="black"/><polygon points="140.77197478368072, 60.75551622479455, 127.83449996374881, 56.1064939158106, 131.15635284746818, 54.67387084255927, 145.9054058780025, 59.82945007070413" fill="rgb(255,255,255)" fill-opacity="1.0" stroke="black"/><polygon points="47.960737089619876, 62.23150289317695, 34.1760941171669, 70.88133081241745, 30.464974127817545, 75.1706944902699, 45.269519622782425, 65.71867252215495" fill="rgb(255,255,255)" fill-opacity="1.0" stroke="black"/><polygon points="124.09382637238313, 59.920140299356774, 111.87923225321441, 57.47519551394055, 113.6711167755027, 53.401141319912625, 127.83449996374881, 56.1064939158106" fill="rgb(255,255,255)" fill-opacity="1.0" stroke="black"/><polygon points="76.77056659312156, 101.1470461675948, 71.94350930707138, 106.25012596834469, 74.58069595379125, 101.49048968681048, 78.88433726079867, 97.00368894262763" fill="rgb(255,255,255)" fill-opacity="1.0" stroke="black"/><polygon points="86.36935457155738, 57.71331842724601, 74.28447102633189, 60.3974247081307, 70.26976773749574, 56.63703532671997, 84.30744597356899, 53.663717648567" fill="rgb(255,255,255)" fill-opacity="1.0" stroke="black"/><polygon points="120.37217254646828, 96.45960832564928, 114.23959582259151, 93.2306747395113, 113.98626642512836, 87.63905374824397, 120.0010577740547, 90.67519172659824" fill="rgb(255,255,255)" fill-opacity="1.0" stroke="black"/><polygon points="70.26976773749574, 56.63703532671997, 57.56947936401823, 61.560808725495036, 52.178660275372536, 60.72863636376121, 66.69952113850353, 55.25917985997606" fill="rgb(255,255,255)" fill-opacity="1.0" stroke="black"/><polygon points="135.27047436698726, 115.49424500861217, 131.78387026311344, 108.4326451272306, 127.51183340422487, 105.47239511776264, 130.3346218788708, 111.42389354319774" fill="rgb(255,255,255)" fill-opacity="1.0" stroke="black"/><polygon points="29.823567475593883, 87.05738295455387, 18.580780721819412, 101.09348492567035, 22.152197481458224, 107.48768459397084, 32.60580364098411, 93.39316332684398" fill="rgb(255,255,255)" fill-opacity="1.0" stroke="black"/><polygon points="84.83187696438397, 93.6069231829897, 78.88433726079867, 97.00368894262763, 79.2705118794212, 91.18652655309506, 85.10247899791236, 87.99297256149283" fill="rgb(255,255,255)" fill-opacity="1.0" stroke="black"/><polygon points="67.55979562757581, 109.35030898659254, 64.48761890034011, 116.55439832573862, 69.48661172562277, 112.31082443642349, 71.94350930707138, 106.25012596834469" fill="rgb(255,255,255)" fill-opacity="1.0" stroke="black"/><polygon points="106.96798783593388, 85.80337819784702, 99.47261488334365, 85.24461838207833, 99.43536924328087, 78.20264858063557, 107.4624583054336, 78.7671641805953" fill="rgb(255,255,255)" fill-opacity="1.0" stroke="black"/><polygon points="99.47261488334365, 85.24461838207833, 92.01283156700264, 85.9838496266309, 91.44515950281983, 78.94957124358473, 99.43536924328087, 78.20264858063557" fill="rgb(255,255,255)" fill-opacity="1.0" stroke="black"/><polygon points="181.15313604704687, 92.19439641360252, 169.0284894748263, 79.169727699164, 168.26565741700415, 85.38244235610225, 180.15874295023468, 98.92344365551715" fill="rgb(255,255,255)" fill-opacity="1.0" stroke="black"/><polygon points="113.98626642512836, 87.63905374824397, 106.96798783593388, 85.80337819784702, 107.4624583054336, 78.7671641805953, 114.99441699875842, 80.62427504821052" fill="rgb(255,255,255)" fill-opacity="1.0" stroke="black"/><polygon points="110.09085749940084, 63.588169811959716, 99.23778313801768, 62.9242652375512, 99.10372473931643, 56.741006540055196, 111.87923225321441, 57.47519551394055" fill="rgb(255,255,255)" fill-opacity="1.0" stroke="black"/><polygon points="99.23778313801768, 62.9242652375512, 88.42569547241015, 63.80317073839089, 86.36935457155738, 57.71331842724601, 99.10372473931643, 56.741006540055196" fill="rgb(255,255,255)" fill-opacity="1.0" stroke="black"/><polygon points="92.01283156700264, 85.9838496266309, 85.10247899791236, 87.99297256149283, 84.02542782411699, 80.98277264831088, 91.44515950281983, 78.94957124358473" fill="rgb(255,255,255)" fill-opacity="1.0" stroke="black"/><polygon points="158.54923515370461, 67.28038002802174, 145.9054058780025, 59.82945007070413, 149.91467662102596, 61.23906151880837, 164.08442146913478, 69.51062312022489" fill="rgb(255,255,255)" fill-opacity="1.0" stroke="black"/><polygon points="120.38886364536312, 65.78814083678367, 110.09085749940084, 63.588169811959716, 111.87923225321441, 57.47519551394055, 124.09382637238313, 59.920140299356774" fill="rgb(255,255,255)" fill-opacity="1.0" stroke="black"/><polygon points="124.93838669273103, 100.80859631017515, 120.37217254646828, 96.45960832564928, 120.0010577740547, 90.67519172659824, 124.46978728110491, 94.76034451802742" fill="rgb(255,255,255)" fill-opacity="1.0" stroke="black"/><polygon points="135.062490042258, 64.0783217624365, 124.09382637238313, 59.920140299356774, 127.83449996374881, 56.1064939158106, 140.77197478368072, 60.75551622479455" fill="rgb(255,255,255)" fill-opacity="1.0" stroke="black"/><polygon points="29.02871077095872, 80.77908440496802, 17.554668410591535, 94.28464020308098, 18.580780721819412, 101.09348492567035, 29.823567475593883, 87.05738295455387" fill="rgb(255,255,255)" fill-opacity="1.0" stroke="black"/><polygon points="88.42569547241015, 63.80317073839089, 78.25492753254264, 66.21565533750146, 74.28447102633189, 60.3974247081307, 86.36935457155738, 57.71331842724601" fill="rgb(255,255,255)" fill-opacity="1.0" stroke="black"/><polygon points="130.3346218788708, 111.42389354319774, 127.51183340422487, 105.47239511776264, 124.93838669273103, 100.80859631017515, 127.39164041808033, 106.00930606678341" fill="rgb(255,255,255)" fill-opacity="1.0" stroke="black"/><polygon points="52.178660275372536, 60.72863636376121, 39.927022130171665, 68.5056386417665, 34.1760941171669, 70.88133081241745, 47.960737089619876, 62.23150289317695" fill="rgb(255,255,255)" fill-opacity="1.0" stroke="black"/><polygon points="78.88433726079867, 97.00368894262763, 74.58069595379125, 101.49048968681048, 75.06061627025534, 95.40043742104933, 79.2705118794212, 91.18652655309506" fill="rgb(255,255,255)" fill-opacity="1.0" stroke="black"/><polygon points="120.0010577740547, 90.67519172659824, 113.98626642512836, 87.63905374824397, 114.99441699875842, 80.62427504821052, 121.47986049826898, 83.704393160981" fill="rgb(255,255,255)" fill-opacity="1.0" stroke="black"/><polygon points="150.39057049494073, 130.08152532778348, 149.0802693845205, 118.73439903627272, 141.69879252503927, 117.97405974928745, 142.3540192927523, 127.46553589109975" fill="rgb(255,255,255)" fill-opacity="1.0" stroke="black"/><polygon points="159.04598104053872, 130.95593941874696, 156.85552552901828, 117.7432634128551, 149.0802693845205, 118.73439903627272, 150.39057049494073, 130.08152532778348" fill="rgb(255,255,255)" fill-opacity="1.0" stroke="black"/><polygon points="74.28447102633189, 60.3974247081307, 63.55238780049206, 64.79308767191364, 57.56947936401823, 61.560808725495036, 70.26976773749574, 56.63703532671997" fill="rgb(255,255,255)" fill-opacity="1.0" stroke="black"/><polygon points="107.4624583054336, 78.7671641805953, 99.43536924328087, 78.20264858063557, 99.35371198639758, 70.41286559538932, 108.54763385309323, 71.0165243706852" fill="rgb(255,255,255)" fill-opacity="1.0" stroke="black"/><polygon points="99.43536924328087, 78.20264858063557, 91.44515950281983, 78.94957124358473, 90.19892587438906, 71.21175925002333, 99.35371198639758, 70.41286559538932" fill="rgb(255,255,255)" fill-opacity="1.0" stroke="black"/><polygon points="71.94350930707138, 106.25012596834469, 69.48661172562277, 112.31082443642349, 72.4626807118376, 106.78093495690739, 74.58069595379125, 101.49048968681048" fill="rgb(255,255,255)" fill-opacity="1.0" stroke="black"/><polygon points="85.10247899791236, 87.99297256149283, 79.2705118794212, 91.18652655309506, 77.73136336445712, 84.22418385808048, 84.02542782411699, 80.98277264831088" fill="rgb(255,255,255)" fill-opacity="1.0" stroke="black"/><polygon points="167.6925471371465, 129.94530421910855, 164.44796599835908, 115.05723785010606, 156.85552552901828, 117.7432634128551, 159.04598104053872, 130.95593941874696" fill="rgb(255,255,255)" fill-opacity="1.0" stroke="black"/><polygon points="108.54763385309323, 71.0165243706852, 99.35371198639758, 70.41286559538932, 99.23778313801768, 62.9242652375512, 110.09085749940084, 63.588169811959716" fill="rgb(255,255,255)" fill-opacity="1.0" stroke="black"/><polygon points="99.35371198639758, 70.41286559538932, 90.19892587438906, 71.21175925002333, 88.42569547241015, 63.80317073839089, 99.23778313801768, 62.9242652375512" fill="rgb(255,255,255)" fill-opacity="1.0" stroke="black"/><polygon points="142.3540192927523, 127.46553589109975, 141.69879252503927, 117.97405974928745, 135.27047436698726, 115.49424500861217, 135.49400282828867, 123.32280701876445" fill="rgb(255,255,255)" fill-opacity="1.0" stroke="black"/><polygon points="114.99441699875842, 80.62427504821052, 107.4624583054336, 78.7671641805953, 108.54763385309323, 71.0165243706852, 117.21432346722645, 73.00835408466911" fill="rgb(255,255,255)" fill-opacity="1.0" stroke="black"/><polygon points="91.44515950281983, 78.94957124358473, 84.02542782411699, 80.98277264831088, 81.6522752483759, 73.39391199318463, 90.19892587438906, 71.21175925002333" fill="rgb(255,255,255)" fill-opacity="1.0" stroke="black"/><polygon points="179.35786477390684, 85.81114515451584, 167.64992562056878, 73.66727963707062, 169.0284894748263, 79.169727699164, 181.15313604704687, 92.19439641360252" fill="rgb(255,255,255)" fill-opacity="1.0" stroke="black"/><polygon points="50.450045213212725, 120.24462434257835, 49.83706103779449, 131.73211633779812, 57.90281964264543, 128.82930497415342, 57.962663151352366, 119.24913610521442" fill="rgb(255,255,255)" fill-opacity="1.0" stroke="black"/><polygon points="42.51323020429574, 119.48438947566054, 41.12206896897172, 132.90330818180976, 49.83706103779449, 131.73211633779812, 50.450045213212725, 120.24462434257835" fill="rgb(255,255,255)" fill-opacity="1.0" stroke="black"/><polygon points="117.21432346722645, 73.00835408466911, 108.54763385309323, 71.0165243706852, 110.09085749940084, 63.588169811959716, 120.38886364536312, 65.78814083678367" fill="rgb(255,255,255)" fill-opacity="1.0" stroke="black"/><polygon points="90.19892587438906, 71.21175925002333, 81.6522752483759, 73.39391199318463, 78.25492753254264, 66.21565533750146, 88.42569547241015, 63.80317073839089" fill="rgb(255,255,255)" fill-opacity="1.0" stroke="black"/><polygon points="57.962663151352366, 119.24913610521442, 57.90281964264543, 128.82930497415342, 64.76796468651791, 124.43578347989967, 64.48761890034011, 116.55439832573862" fill="rgb(255,255,255)" fill-opacity="1.0" stroke="black"/><polygon points="34.73973691055136, 116.99994853081364, 32.386715820930455, 132.16830012903947, 41.12206896897172, 132.90330818180976, 42.51323020429574, 119.48438947566054" fill="rgb(255,255,255)" fill-opacity="1.0" stroke="black"/><polygon points="175.62277552061795, 127.00309625751244, 171.26273193069764, 110.82731848486989, 164.44796599835908, 115.05723785010606, 167.6925471371465, 129.94530421910855" fill="rgb(255,255,255)" fill-opacity="1.0" stroke="black"/><polygon points="151.56748088668564, 67.37939728817784, 140.77197478368072, 60.75551622479455, 145.9054058780025, 59.82945007070413, 158.54923515370461, 67.28038002802174" fill="rgb(255,255,255)" fill-opacity="1.0" stroke="black"/><polygon points="135.49400282828867, 123.32280701876445, 135.27047436698726, 115.49424500861217, 130.3346218788708, 111.42389354319774, 130.31202876947538, 117.93346627797845" fill="rgb(255,255,255)" fill-opacity="1.0" stroke="black"/><polygon points="129.4804417591272, 69.4915600476175, 120.38886364536312, 65.78814083678367, 124.09382637238313, 59.920140299356774, 135.062490042258, 64.0783217624365" fill="rgb(255,255,255)" fill-opacity="1.0" stroke="black"/><polygon points="121.47986049826898, 83.704393160981, 114.99441699875842, 80.62427504821052, 117.21432346722645, 73.00835408466911, 124.7542310905884, 76.3321606221869" fill="rgb(255,255,255)" fill-opacity="1.0" stroke="black"/><polygon points="30.464974127817545, 75.1706944902699, 19.406914357923878, 87.75507221960343, 17.554668410591535, 94.28464020308098, 29.02871077095872, 80.77908440496802" fill="rgb(255,255,255)" fill-opacity="1.0" stroke="black"/><polygon points="78.25492753254264, 66.21565533750146, 69.38871902696314, 70.12337288361249, 63.55238780049206, 64.79308767191364, 74.28447102633189, 60.3974247081307" fill="rgb(255,255,255)" fill-opacity="1.0" stroke="black"/><polygon points="124.46978728110491, 94.76034451802742, 120.0010577740547, 90.67519172659824, 121.47986049826898, 83.704393160981, 126.34030614248151, 87.86557799949823" fill="rgb(255,255,255)" fill-opacity="1.0" stroke="black"/><polygon points="64.48761890034011, 116.55439832573862, 64.76796468651791, 124.43578347989967, 69.94176727762031, 118.85149208962743, 69.48661172562277, 112.31082443642349" fill="rgb(255,255,255)" fill-opacity="1.0" stroke="black"/><polygon points="84.02542782411699, 80.98277264831088, 77.73136336445712, 84.22418385808048, 74.32018024994514, 76.89558396625529, 81.6522752483759, 73.39391199318463" fill="rgb(255,255,255)" fill-opacity="1.0" stroke="black"/><polygon points="127.39164041808033, 106.00930606678341, 124.93838669273103, 100.80859631017515, 124.46978728110491, 94.76034451802742, 126.85818094211648, 99.6392864454916" fill="rgb(255,255,255)" fill-opacity="1.0" stroke="black"/><polygon points="57.56947936401823, 61.560808725495036, 47.163059650215665, 68.45807174312102, 39.927022130171665, 68.5056386417665, 52.178660275372536, 60.72863636376121" fill="rgb(255,255,255)" fill-opacity="1.0" stroke="black"/><polygon points="27.742777675613127, 112.9192896257928, 24.34921305008414, 129.4470540760209, 32.386715820930455, 132.16830012903947, 34.73973691055136, 116.99994853081364" fill="rgb(255,255,255)" fill-opacity="1.0" stroke="black"/><polygon points="74.58069595379125, 101.49048968681048, 72.4626807118376, 106.78093495690739, 73.0017737086917, 100.36259440622386, 75.06061627025534, 95.40043742104933" fill="rgb(255,255,255)" fill-opacity="1.0" stroke="black"/><polygon points="79.2705118794212, 91.18652655309506, 75.06061627025534, 95.40043742104933, 73.1443823959721, 88.51934447953478, 77.73136336445712, 84.22418385808048" fill="rgb(255,255,255)" fill-opacity="1.0" stroke="black"/><polygon points="124.7542310905884, 76.3321606221869, 117.21432346722645, 73.00835408466911, 120.38886364536312, 65.78814083678367, 129.4804417591272, 69.4915600476175" fill="rgb(255,255,255)" fill-opacity="1.0" stroke="black"/><polygon points="182.0620542372399, 122.22459018545621, 176.69469829332107, 105.3167085001911, 171.26273193069764, 110.82731848486989, 175.62277552061795, 127.00309625751244" fill="rgb(255,255,255)" fill-opacity="1.0" stroke="black"/><polygon points="81.6522752483759, 73.39391199318463, 74.32018024994514, 76.89558396625529, 69.38871902696314, 70.12337288361249, 78.25492753254264, 66.21565533750146" fill="rgb(255,255,255)" fill-opacity="1.0" stroke="black"/><polygon points="130.31202876947538, 117.93346627797845, 130.3346218788708, 111.42389354319774, 127.39164041808033, 106.00930606678341, 127.25686325339267, 111.65218622764776" fill="rgb(255,255,255)" fill-opacity="1.0" stroke="black"/><polygon points="174.75093726956374, 80.52778174567116, 164.08442146913478, 69.51062312022489, 167.64992562056878, 73.66727963707062, 179.35786477390684, 85.81114515451584" fill="rgb(255,255,255)" fill-opacity="1.0" stroke="black"/><polygon points="143.9380167010023, 69.9100397537351, 135.062490042258, 64.0783217624365, 140.77197478368072, 60.75551622479455, 151.56748088668564, 67.37939728817784" fill="rgb(255,255,255)" fill-opacity="1.0" stroke="black"/><polygon points="69.48661172562277, 112.31082443642349, 69.94176727762031, 118.85149208962743, 72.98727138769875, 112.44419281209659, 72.4626807118376, 106.78093495690739" fill="rgb(255,255,255)" fill-opacity="1.0" stroke="black"/><polygon points="126.34030614248151, 87.86557799949823, 121.47986049826898, 83.704393160981, 124.7542310905884, 76.3321606221869, 130.51323815580005, 80.86314411643016" fill="rgb(255,255,255)" fill-opacity="1.0" stroke="black"/><polygon points="22.152197481458224, 107.48768459397084, 17.80455671178709, 124.80357716947861, 24.34921305008414, 129.4470540760209, 27.742777675613127, 112.9192896257928" fill="rgb(255,255,255)" fill-opacity="1.0" stroke="black"/><polygon points="63.55238780049206, 64.79308767191364, 55.04772988180202, 70.84956259324716, 47.163059650215665, 68.45807174312102, 57.56947936401823, 61.560808725495036" fill="rgb(255,255,255)" fill-opacity="1.0" stroke="black"/><polygon points="77.73136336445712, 84.22418385808048, 73.1443823959721, 88.51934447953478, 68.86440954327513, 81.57929098883316, 74.32018024994514, 76.89558396625529" fill="rgb(255,255,255)" fill-opacity="1.0" stroke="black"/><polygon points="34.1760941171669, 70.88133081241745, 24.154083943068194, 82.27981317428268, 19.406914357923878, 87.75507221960343, 30.464974127817545, 75.1706944902699" fill="rgb(255,255,255)" fill-opacity="1.0" stroke="black"/><polygon points="126.85818094211648, 99.6392864454916, 124.46978728110491, 94.76034451802742, 126.34030614248151, 87.86557799949823, 128.99206294370785, 92.86084128122236" fill="rgb(255,255,255)" fill-opacity="1.0" stroke="black"/><polygon points="186.22454720349737, 115.902365712075, 180.15874295023468, 98.92344365551715, 176.69469829332107, 105.3167085001911, 182.0620542372399, 122.22459018545621" fill="rgb(255,255,255)" fill-opacity="1.0" stroke="black"/><polygon points="75.06061627025534, 95.40043742104933, 73.0017737086917, 100.36259440622386, 70.84468686781287, 93.60377117215015, 73.1443823959721, 88.51934447953478" fill="rgb(255,255,255)" fill-opacity="1.0" stroke="black"/><polygon points="136.61343215920292, 74.60612500135875, 129.4804417591272, 69.4915600476175, 135.062490042258, 64.0783217624365, 143.9380167010023, 69.9100397537351" fill="rgb(255,255,255)" fill-opacity="1.0" stroke="black"/><polygon points="130.51323815580005, 80.86314411643016, 124.7542310905884, 76.3321606221869, 129.4804417591272, 69.4915600476175, 136.61343215920292, 74.60612500135875" fill="rgb(255,255,255)" fill-opacity="1.0" stroke="black"/><polygon points="127.25686325339267, 111.65218622764776, 127.39164041808033, 106.00930606678341, 126.85818094211648, 99.6392864454916, 126.70580027648816, 104.92534221870778" fill="rgb(255,255,255)" fill-opacity="1.0" stroke="black"/><polygon points="138.45593263532137, 137.146868260545, 142.3540192927523, 127.46553589109975, 135.49400282828867, 123.32280701876445, 131.92668183977634, 131.1604590879657" fill="rgb(255,255,255)" fill-opacity="1.0" stroke="black"/><polygon points="146.26312313219728, 141.91127076405618, 150.39057049494073, 130.08152532778348, 142.3540192927523, 127.46553589109975, 138.45593263532137, 137.146868260545" fill="rgb(255,255,255)" fill-opacity="1.0" stroke="black"/><polygon points="69.38871902696314, 70.12337288361249, 62.59514562671748, 75.4215887023662, 55.04772988180202, 70.84956259324716, 63.55238780049206, 64.79308767191364" fill="rgb(255,255,255)" fill-opacity="1.0" stroke="black"/><polygon points="167.7011671635357, 77.05357400217501, 158.54923515370461, 67.28038002802174, 164.08442146913478, 69.51062312022489, 174.75093726956374, 80.52778174567116" fill="rgb(255,255,255)" fill-opacity="1.0" stroke="black"/><polygon points="74.32018024994514, 76.89558396625529, 68.86440954327513, 81.57929098883316, 62.59514562671748, 75.4215887023662, 69.38871902696314, 70.12337288361249" fill="rgb(255,255,255)" fill-opacity="1.0" stroke="black"/><polygon points="131.92668183977634, 131.1604590879657, 135.49400282828867, 123.32280701876445, 130.31202876947538, 117.93346627797845, 127.07475503662853, 124.3594546405122" fill="rgb(255,255,255)" fill-opacity="1.0" stroke="black"/><polygon points="72.4626807118376, 106.78093495690739, 72.98727138769875, 112.44419281209659, 73.53620988493243, 105.66662641392296, 73.0017737086917, 100.36259440622386" fill="rgb(255,255,255)" fill-opacity="1.0" stroke="black"/><polygon points="154.8686613180321, 145.0586947848386, 159.04598104053872, 130.95593941874696, 150.39057049494073, 130.08152532778348, 146.26312313219728, 141.91127076405618" fill="rgb(255,255,255)" fill-opacity="1.0" stroke="black"/><polygon points="57.90281964264543, 128.82930497415342, 62.474842314854364, 138.4446922781308, 68.88496740238168, 132.2000298155969, 64.76796468651791, 124.43578347989967" fill="rgb(255,255,255)" fill-opacity="1.0" stroke="black"/><polygon points="49.83706103779449, 131.73211633779812, 54.789018135633086, 143.51718683362438, 62.474842314854364, 138.4446922781308, 57.90281964264543, 128.82930497415342" fill="rgb(255,255,255)" fill-opacity="1.0" stroke="black"/><polygon points="18.580780721819412, 101.09348492567035, 13.565199520787473, 118.50807164612432, 17.80455671178709, 124.80357716947861, 22.152197481458224, 107.48768459397084" fill="rgb(255,255,255)" fill-opacity="1.0" stroke="black"/><polygon points="64.76796468651791, 124.43578347989967, 68.88496740238168, 132.2000298155969, 73.63801153133274, 125.20503692774352, 69.94176727762031, 118.85149208962743" fill="rgb(255,255,255)" fill-opacity="1.0" stroke="black"/><polygon points="39.927022130171665, 68.5056386417665, 31.401889156914276, 78.59215372669657, 24.154083943068194, 82.27981317428268, 34.1760941171669, 70.88133081241745" fill="rgb(255,255,255)" fill-opacity="1.0" stroke="black"/><polygon points="41.12206896897172, 132.90330818180976, 46.29054493747788, 146.99965733879267, 54.789018135633086, 143.51718683362438, 49.83706103779449, 131.73211633779812" fill="rgb(255,255,255)" fill-opacity="1.0" stroke="black"/><polygon points="127.07475503662853, 124.3594546405122, 130.31202876947538, 117.93346627797845, 127.25686325339267, 111.65218622764776, 124.24586099960943, 117.17654527272995" fill="rgb(255,255,255)" fill-opacity="1.0" stroke="black"/><polygon points="128.99206294370785, 92.86084128122236, 126.34030614248151, 87.86557799949823, 130.51323815580005, 80.86314411643016, 133.7957796501372, 86.36487347050009" fill="rgb(255,255,255)" fill-opacity="1.0" stroke="black"/><polygon points="163.67690797431214, 146.21474210234305, 167.6925471371465, 129.94530421910855, 159.04598104053872, 130.95593941874696, 154.8686613180321, 145.0586947848386" fill="rgb(255,255,255)" fill-opacity="1.0" stroke="black"/><polygon points="187.4276271126844, 108.57076846762965, 181.15313604704687, 92.19439641360252, 180.15874295023468, 98.92344365551715, 186.22454720349737, 115.902365712075" fill="rgb(255,255,255)" fill-opacity="1.0" stroke="black"/><polygon points="69.94176727762031, 118.85149208962743, 73.63801153133274, 125.20503692774352, 76.40518722840636, 117.90010658575456, 72.98727138769875, 112.44419281209659" fill="rgb(255,255,255)" fill-opacity="1.0" stroke="black"/><polygon points="73.1443823959721, 88.51934447953478, 70.84468686781287, 93.60377117215015, 65.98218313508238, 87.1890304092598, 68.86440954327513, 81.57929098883316" fill="rgb(255,255,255)" fill-opacity="1.0" stroke="black"/><polygon points="158.98179587653402, 75.90180847370883, 151.56748088668564, 67.37939728817784, 158.54923515370461, 67.28038002802174, 167.7011671635357, 77.05357400217501" fill="rgb(255,255,255)" fill-opacity="1.0" stroke="black"/><polygon points="126.70580027648816, 104.92534221870778, 126.85818094211648, 99.6392864454916, 128.99206294370785, 92.86084128122236, 128.9151182223603, 98.30452928903999" fill="rgb(255,255,255)" fill-opacity="1.0" stroke="black"/><polygon points="73.0017737086917, 100.36259440622386, 73.53620988493243, 105.66662641392296, 71.33470563109621, 99.07056332302618, 70.84468686781287, 93.60377117215015" fill="rgb(255,255,255)" fill-opacity="1.0" stroke="black"/><polygon points="32.386715820930455, 132.16830012903947, 37.56273561642058, 148.4852778288134, 46.29054493747788, 146.99965733879267, 41.12206896897172, 132.90330818180976" fill="rgb(255,255,255)" fill-opacity="1.0" stroke="black"/><polygon points="124.24586099960943, 117.17654527272995, 127.25686325339267, 111.65218622764776, 126.70580027648816, 104.92534221870778, 123.73808322190165, 110.0926257773319" fill="rgb(255,255,255)" fill-opacity="1.0" stroke="black"/><polygon points="133.7957796501372, 86.36487347050009, 130.51323815580005, 80.86314411643016, 136.61343215920292, 74.60612500135875, 140.9275376854926, 80.92128039975861" fill="rgb(255,255,255)" fill-opacity="1.0" stroke="black"/><polygon points="17.554668410591535, 94.28464020308098, 12.338621384569992, 111.08843517574992, 13.565199520787473, 118.50807164612432, 18.580780721819412, 101.09348492567035" fill="rgb(255,255,255)" fill-opacity="1.0" stroke="black"/><polygon points="47.163059650215665, 68.45807174312102, 40.338580547668265, 77.2266767663067, 31.401889156914276, 78.59215372669657, 39.927022130171665, 68.5056386417665" fill="rgb(255,255,255)" fill-opacity="1.0" stroke="black"/><polygon points="72.98727138769875, 112.44419281209659, 76.40518722840636, 117.90010658575456, 76.90157025687884, 110.76885188795598, 73.53620988493243, 105.66662641392296" fill="rgb(255,255,255)" fill-opacity="1.0" stroke="black"/><polygon points="68.86440954327513, 81.57929098883316, 65.98218313508238, 87.1890304092598, 58.74637447649598, 81.87736930601122, 62.59514562671748, 75.4215887023662" fill="rgb(255,255,255)" fill-opacity="1.0" stroke="black"/><polygon points="149.66711093984756, 77.25714685789696, 143.9380167010023, 69.9100397537351, 151.56748088668564, 67.37939728817784, 158.98179587653402, 75.90180847370883" fill="rgb(255,255,255)" fill-opacity="1.0" stroke="black"/><polygon points="171.94801582178323, 145.06581113061884, 175.62277552061795, 127.00309625751244, 167.6925471371465, 129.94530421910855, 163.67690797431214, 146.21474210234305" fill="rgb(255,255,255)" fill-opacity="1.0" stroke="black"/><polygon points="140.9275376854926, 80.92128039975861, 136.61343215920292, 74.60612500135875, 143.9380167010023, 69.9100397537351, 149.66711093984756, 77.25714685789696" fill="rgb(255,255,255)" fill-opacity="1.0" stroke="black"/><polygon points="185.25826063415903, 101.0046085354308, 179.35786477390684, 85.81114515451584, 181.15313604704687, 92.19439641360252, 187.4276271126844, 108.57076846762965" fill="rgb(255,255,255)" fill-opacity="1.0" stroke="black"/><polygon points="124.468274804013, 138.01526210191392, 131.92668183977634, 131.1604590879657, 127.07475503662853, 124.3594546405122, 120.6236081322373, 129.90635298994266" fill="rgb(255,255,255)" fill-opacity="1.0" stroke="black"/><polygon points="129.71693353277996, 145.76484111528362, 138.45593263532137, 137.146868260545, 131.92668183977634, 131.1604590879657, 124.468274804013, 138.01526210191392" fill="rgb(255,255,255)" fill-opacity="1.0" stroke="black"/><polygon points="55.04772988180202, 70.84956259324716, 49.85184962568193, 78.38388604171227, 40.338580547668265, 77.2266767663067, 47.163059650215665, 68.45807174312102" fill="rgb(255,255,255)" fill-opacity="1.0" stroke="black"/><polygon points="128.9151182223603, 98.30452928903999, 128.99206294370785, 92.86084128122236, 133.7957796501372, 86.36487347050009, 133.93809536440432, 92.43963282953686" fill="rgb(255,255,255)" fill-opacity="1.0" stroke="black"/><polygon points="62.59514562671748, 75.4215887023662, 58.74637447649598, 81.87736930601122, 49.85184962568193, 78.38388604171227, 55.04772988180202, 70.84956259324716" fill="rgb(255,255,255)" fill-opacity="1.0" stroke="black"/><polygon points="120.6236081322373, 129.90635298994266, 127.07475503662853, 124.3594546405122, 124.24586099960943, 117.17654527272995, 118.40349883893187, 121.90878839402582" fill="rgb(255,255,255)" fill-opacity="1.0" stroke="black"/><polygon points="24.34921305008414, 129.4470540760209, 29.34018065236945, 147.61942787520118, 37.56273561642058, 148.4852778288134, 32.386715820930455, 132.16830012903947" fill="rgb(255,255,255)" fill-opacity="1.0" stroke="black"/><polygon points="136.10845326305173, 152.66590484149168, 146.26312313219728, 141.91127076405618, 138.45593263532137, 137.146868260545, 129.71693353277996, 145.76484111528362" fill="rgb(255,255,255)" fill-opacity="1.0" stroke="black"/><polygon points="68.88496740238168, 132.2000298155969, 76.85808741685037, 138.831386968554, 80.50845878067106, 130.56226867920998, 73.63801153133274, 125.20503692774352" fill="rgb(255,255,255)" fill-opacity="1.0" stroke="black"/><polygon points="62.474842314854364, 138.4446922781308, 71.86613320859806, 146.80042996941557, 76.85808741685037, 138.831386968554, 68.88496740238168, 132.2000298155969" fill="rgb(255,255,255)" fill-opacity="1.0" stroke="black"/><polygon points="70.84468686781287, 93.60377117215015, 71.33470563109621, 99.07056332302618, 66.32250592770038, 93.30118965784986, 65.98218313508238, 87.1890304092598" fill="rgb(255,255,255)" fill-opacity="1.0" stroke="black"/><polygon points="73.63801153133274, 125.20503692774352, 80.50845878067106, 130.56226867920998, 82.6139668778533, 122.46616162571104, 76.40518722840636, 117.90010658575456" fill="rgb(255,255,255)" fill-opacity="1.0" stroke="black"/><polygon points="54.789018135633086, 143.51718683362438, 65.77385730653313, 153.97278214124918, 71.86613320859806, 146.80042996941557, 62.474842314854364, 138.4446922781308" fill="rgb(255,255,255)" fill-opacity="1.0" stroke="black"/><polygon points="123.73808322190165, 110.0926257773319, 126.70580027648816, 104.92534221870778, 128.9151182223603, 98.30452928903999, 125.77841186801211, 103.65795483076299" fill="rgb(255,255,255)" fill-opacity="1.0" stroke="black"/><polygon points="19.406914357923878, 87.75507221960343, 14.549942680997784, 103.33300386383625, 12.338621384569992, 111.08843517574992, 17.554668410591535, 94.28464020308098" fill="rgb(255,255,255)" fill-opacity="1.0" stroke="black"/><polygon points="73.53620988493243, 105.66662641392296, 76.90157025687884, 110.76885188795598, 74.90644348389431, 104.36090055524645, 71.33470563109621, 99.07056332302618" fill="rgb(255,255,255)" fill-opacity="1.0" stroke="black"/><polygon points="178.80417589993831, 141.4393335872053, 182.0620542372399, 122.22459018545621, 175.62277552061795, 127.00309625751244, 171.94801582178323, 145.06581113061884" fill="rgb(255,255,255)" fill-opacity="1.0" stroke="black"/><polygon points="118.40349883893187, 121.90878839402582, 124.24586099960943, 117.17654527272995, 123.73808322190165, 110.0926257773319, 118.00665588827893, 114.51291200032702" fill="rgb(255,255,255)" fill-opacity="1.0" stroke="black"/><polygon points="143.3037337537201, 158.18068176511525, 154.8686613180321, 145.0586947848386, 146.26312313219728, 141.91127076405618, 136.10845326305173, 152.66590484149168" fill="rgb(255,255,255)" fill-opacity="1.0" stroke="black"/><polygon points="179.74560394894021, 94.13767050157172, 174.75093726956374, 80.52778174567116, 179.35786477390684, 85.81114515451584, 185.25826063415903, 101.0046085354308" fill="rgb(255,255,255)" fill-opacity="1.0" stroke="black"/><polygon points="76.40518722840636, 117.90010658575456, 82.6139668778533, 122.46616162571104, 82.9901396703614, 115.0331734641334, 76.90157025687884, 110.76885188795598" fill="rgb(255,255,255)" fill-opacity="1.0" stroke="black"/><polygon points="133.93809536440432, 92.43963282953686, 133.7957796501372, 86.36487347050009, 140.9275376854926, 80.92128039975861, 141.52422969579612, 88.03138310632903" fill="rgb(255,255,255)" fill-opacity="1.0" stroke="black"/><polygon points="46.29054493747788, 146.99965733879267, 58.897838777796395, 159.7952487355702, 65.77385730653313, 153.97278214124918, 54.789018135633086, 143.51718683362438" fill="rgb(255,255,255)" fill-opacity="1.0" stroke="black"/><polygon points="17.80455671178709, 124.80357716947861, 22.504368143396448, 144.18483840100714, 29.34018065236945, 147.61942787520118, 24.34921305008414, 129.4470540760209" fill="rgb(255,255,255)" fill-opacity="1.0" stroke="black"/><polygon points="65.98218313508238, 87.1890304092598, 66.32250592770038, 93.30118965784986, 58.73419759212669, 89.05168361450748, 58.74637447649598, 81.87736930601122" fill="rgb(255,255,255)" fill-opacity="1.0" stroke="black"/><polygon points="113.69042045434736, 142.81465124097983, 124.468274804013, 138.01526210191392, 120.6236081322373, 129.90635298994266, 111.49033376905169, 133.75002480357495" fill="rgb(255,255,255)" fill-opacity="1.0" stroke="black"/><polygon points="111.49033376905169, 133.75002480357495, 120.6236081322373, 129.90635298994266, 118.40349883893187, 121.90878839402582, 110.22836699189622, 125.16838399597887" fill="rgb(255,255,255)" fill-opacity="1.0" stroke="black"/><polygon points="116.72436026455355, 151.88438806716138, 129.71693353277996, 145.76484111528362, 124.468274804013, 138.01526210191392, 113.69042045434736, 142.81465124097983" fill="rgb(255,255,255)" fill-opacity="1.0" stroke="black"/><polygon points="24.154083943068194, 82.27981317428268, 20.160805613134336, 96.20653301483864, 14.549942680997784, 103.33300386383625, 19.406914357923878, 87.75507221960343" fill="rgb(255,255,255)" fill-opacity="1.0" stroke="black"/><polygon points="76.85808741685037, 138.831386968554, 88.00954695367032, 143.26632699218578, 89.94045871518712, 134.1100794303385, 80.50845878067106, 130.56226867920998" fill="rgb(255,255,255)" fill-opacity="1.0" stroke="black"/><polygon points="80.50845878067106, 130.56226867920998, 89.94045871518712, 134.1100794303385, 91.04733205035168, 125.47290999028029, 82.6139668778533, 122.46616162571104" fill="rgb(255,255,255)" fill-opacity="1.0" stroke="black"/><polygon points="71.86613320859806, 146.80042996941557, 85.34427255144364, 152.46399186969296, 88.00954695367032, 143.26632699218578, 76.85808741685037, 138.831386968554" fill="rgb(255,255,255)" fill-opacity="1.0" stroke="black"/><polygon points="118.00665588827893, 114.51291200032702, 123.73808322190165, 110.0926257773319, 125.77841186801211, 103.65795483076299, 119.60428981897095, 108.2628371658988" fill="rgb(255,255,255)" fill-opacity="1.0" stroke="black"/><polygon points="125.77841186801211, 103.65795483076299, 128.9151182223603, 98.30452928903999, 133.93809536440432, 92.43963282953686, 130.46270489885765, 98.49578212706389" fill="rgb(255,255,255)" fill-opacity="1.0" stroke="black"/><polygon points="171.45793602785992, 88.89479399804885, 167.7011671635357, 77.05357400217501, 174.75093726956374, 80.52778174567116, 179.74560394894021, 94.13767050157172" fill="rgb(255,255,255)" fill-opacity="1.0" stroke="black"/><polygon points="150.83699700283114, 161.71618801613, 163.67690797431214, 146.21474210234305, 154.8686613180321, 145.0586947848386, 143.3037337537201, 158.18068176511525" fill="rgb(255,255,255)" fill-opacity="1.0" stroke="black"/><polygon points="71.33470563109621, 99.07056332302618, 74.90644348389431, 104.36090055524645, 70.32003744269822, 99.29713765486277, 66.32250592770038, 93.30118965784986" fill="rgb(255,255,255)" fill-opacity="1.0" stroke="black"/><polygon points="110.22836699189622, 125.16838399597887, 118.40349883893187, 121.90878839402582, 118.00665588827893, 114.51291200032702, 110.00344052059666, 117.55437208616863" fill="rgb(255,255,255)" fill-opacity="1.0" stroke="black"/><polygon points="141.52422969579612, 88.03138310632903, 140.9275376854926, 80.92128039975861, 149.66711093984756, 77.25714685789696, 151.03695663067745, 85.7292528403217" fill="rgb(255,255,255)" fill-opacity="1.0" stroke="black"/><polygon points="76.90157025687884, 110.76885188795598, 82.9901396703614, 115.0331734641334, 81.47537870115984, 108.80637262893912, 74.90644348389431, 104.36090055524645" fill="rgb(255,255,255)" fill-opacity="1.0" stroke="black"/><polygon points="120.46717509540406, 160.43457314593357, 136.10845326305173, 152.66590484149168, 129.71693353277996, 145.76484111528362, 116.72436026455355, 151.88438806716138" fill="rgb(255,255,255)" fill-opacity="1.0" stroke="black"/><polygon points="183.3047714275489, 135.41835604943466, 186.22454720349737, 115.902365712075, 182.0620542372399, 122.22459018545621, 178.80417589993831, 141.4393335872053" fill="rgb(255,255,255)" fill-opacity="1.0" stroke="black"/><polygon points="82.6139668778533, 122.46616162571104, 91.04733205035168, 125.47290999028029, 91.24456229284762, 117.83838329908521, 82.9901396703614, 115.0331734641334" fill="rgb(255,255,255)" fill-opacity="1.0" stroke="black"/><polygon points="65.77385730653313, 153.97278214124918, 82.0522146535516, 161.17615164244242, 85.34427255144364, 152.46399186969296, 71.86613320859806, 146.80042996941557" fill="rgb(255,255,255)" fill-opacity="1.0" stroke="black"/><polygon points="58.74637447649598, 81.87736930601122, 58.73419759212669, 89.05168361450748, 49.1872348354621, 86.96284858403394, 49.85184962568193, 78.38388604171227" fill="rgb(255,255,255)" fill-opacity="1.0" stroke="black"/><polygon points="37.56273561642058, 148.4852778288134, 51.678764227950666, 163.64835404583533, 58.897838777796395, 159.7952487355702, 46.29054493747788, 146.99965733879267" fill="rgb(255,255,255)" fill-opacity="1.0" stroke="black"/><polygon points="100.91870374639673, 144.68756613188472, 113.69042045434736, 142.81465124097983, 111.49033376905169, 133.75002480357495, 100.76979183787861, 135.24115269279662" fill="rgb(255,255,255)" fill-opacity="1.0" stroke="black"/><polygon points="100.76979183787861, 135.24115269279662, 111.49033376905169, 133.75002480357495, 110.22836699189622, 125.16838399597887, 100.68459800027134, 126.4286403376566" fill="rgb(255,255,255)" fill-opacity="1.0" stroke="black"/><polygon points="31.401889156914276, 78.59215372669657, 28.573481857599802, 90.67281679627868, 20.160805613134336, 96.20653301483864, 24.154083943068194, 82.27981317428268" fill="rgb(255,255,255)" fill-opacity="1.0" stroke="black"/><polygon points="88.00954695367032, 143.26632699218578, 100.91870374639673, 144.68756613188472, 100.76979183787861, 135.24115269279662, 89.94045871518712, 134.1100794303385" fill="rgb(255,255,255)" fill-opacity="1.0" stroke="black"/><polygon points="89.94045871518712, 134.1100794303385, 100.76979183787861, 135.24115269279662, 100.68459800027134, 126.4286403376566, 91.04733205035168, 125.47290999028029" fill="rgb(255,255,255)" fill-opacity="1.0" stroke="black"/><polygon points="161.44778382943423, 85.98326963756801, 158.98179587653402, 75.90180847370883, 167.7011671635357, 77.05357400217501, 171.45793602785992, 88.89479399804885" fill="rgb(255,255,255)" fill-opacity="1.0" stroke="black"/><polygon points="151.03695663067745, 85.7292528403217, 149.66711093984756, 77.25714685789696, 158.98179587653402, 75.90180847370883, 161.44778382943423, 85.98326963756801" fill="rgb(255,255,255)" fill-opacity="1.0" stroke="black"/><polygon points="101.12486487403409, 154.29193950087333, 116.72436026455355, 151.88438806716138, 113.69042045434736, 142.81465124097983, 100.91870374639673, 144.68756613188472" fill="rgb(255,255,255)" fill-opacity="1.0" stroke="black"/><polygon points="85.34427255144364, 152.46399186969296, 101.12486487403409, 154.29193950087333, 100.91870374639673, 144.68756613188472, 88.00954695367032, 143.26632699218578" fill="rgb(255,255,255)" fill-opacity="1.0" stroke="black"/><polygon points="13.565199520787473, 118.50807164612432, 18.00728555086304, 138.2262953635269, 22.504368143396448, 144.18483840100714, 17.80455671178709, 124.80357716947861" fill="rgb(255,255,255)" fill-opacity="1.0" stroke="black"/><polygon points="100.68459800027134, 126.4286403376566, 110.22836699189622, 125.16838399597887, 110.00344052059666, 117.55437208616863, 100.6694304227491, 118.72957928152164" fill="rgb(255,255,255)" fill-opacity="1.0" stroke="black"/><polygon points="91.04733205035168, 125.47290999028029, 100.68459800027134, 126.4286403376566, 100.6694304227491, 118.72957928152164, 91.24456229284762, 117.83838329908521" fill="rgb(255,255,255)" fill-opacity="1.0" stroke="black"/><polygon points="49.85184962568193, 78.38388604171227, 49.1872348354621, 86.96284858403394, 38.69854378040786, 87.4745312291203, 40.338580547668265, 77.2266767663067" fill="rgb(255,255,255)" fill-opacity="1.0" stroke="black"/><polygon points="40.338580547668265, 77.2266767663067, 38.69854378040786, 87.4745312291203, 28.573481857599802, 90.67281679627868, 31.401889156914276, 78.59215372669657" fill="rgb(255,255,255)" fill-opacity="1.0" stroke="black"/><polygon points="110.00344052059666, 117.55437208616863, 118.00665588827893, 114.51291200032702, 119.60428981897095, 108.2628371658988, 110.91016075366021, 111.4449935033319" fill="rgb(255,255,255)" fill-opacity="1.0" stroke="black"/><polygon points="130.46270489885765, 98.49578212706389, 133.93809536440432, 92.43963282953686, 141.52422969579612, 88.03138310632903, 137.65962338380797, 95.2673693126331" fill="rgb(255,255,255)" fill-opacity="1.0" stroke="black"/><polygon points="124.74542308122614, 167.84337306569478, 143.3037337537201, 158.18068176511525, 136.10845326305173, 152.66590484149168, 120.46717509540406, 160.43457314593357" fill="rgb(255,255,255)" fill-opacity="1.0" stroke="black"/><polygon points="82.9901396703614, 115.0331734641334, 91.24456229284762, 117.83838329908521, 90.44939241073222, 111.74271484495246, 81.47537870115984, 108.80637262893912" fill="rgb(255,255,255)" fill-opacity="1.0" stroke="black"/><polygon points="119.60428981897095, 108.2628371658988, 125.77841186801211, 103.65795483076299, 130.46270489885765, 98.49578212706389, 123.3032718800585, 103.77156165457544" fill="rgb(255,255,255)" fill-opacity="1.0" stroke="black"/><polygon points="158.07134591462142, 162.66339056434637, 171.94801582178323, 145.06581113061884, 163.67690797431214, 146.21474210234305, 150.83699700283114, 161.71618801613" fill="rgb(255,255,255)" fill-opacity="1.0" stroke="black"/><polygon points="66.32250592770038, 93.30118965784986, 70.32003744269822, 99.29713765486277, 63.25748114693658, 96.23613300172839, 58.73419759212669, 89.05168361450748" fill="rgb(255,255,255)" fill-opacity="1.0" stroke="black"/><polygon points="101.38049814950382, 163.52155063547423, 120.46717509540406, 160.43457314593357, 116.72436026455355, 151.88438806716138, 101.12486487403409, 154.29193950087333" fill="rgb(255,255,255)" fill-opacity="1.0" stroke="black"/><polygon points="184.6157837960412, 127.45612862700052, 187.4276271126844, 108.57076846762965, 186.22454720349737, 115.902365712075, 183.3047714275489, 135.41835604943466" fill="rgb(255,255,255)" fill-opacity="1.0" stroke="black"/><polygon points="58.897838777796395, 159.7952487355702, 78.28372149593716, 168.7739809587769, 82.0522146535516, 161.17615164244242, 65.77385730653313, 153.97278214124918" fill="rgb(255,255,255)" fill-opacity="1.0" stroke="black"/><polygon points="74.90644348389431, 104.36090055524645, 81.47537870115984, 108.80637262893912, 77.96477351686798, 104.39839466721034, 70.32003744269822, 99.29713765486277" fill="rgb(255,255,255)" fill-opacity="1.0" stroke="black"/><polygon points="82.0522146535516, 161.17615164244242, 101.38049814950382, 163.52155063547423, 101.12486487403409, 154.29193950087333, 85.34427255144364, 152.46399186969296" fill="rgb(255,255,255)" fill-opacity="1.0" stroke="black"/><polygon points="29.34018065236945, 147.61942787520118, 44.726732123244936, 164.88396544034336, 51.678764227950666, 163.64835404583533, 37.56273561642058, 148.4852778288134" fill="rgb(255,255,255)" fill-opacity="1.0" stroke="black"/><polygon points="100.6694304227491, 118.72957928152164, 110.00344052059666, 117.55437208616863, 110.91016075366021, 111.4449935033319, 100.73060502300378, 112.67756747415758" fill="rgb(255,255,255)" fill-opacity="1.0" stroke="black"/><polygon points="91.24456229284762, 117.83838329908521, 100.6694304227491, 118.72957928152164, 100.73060502300378, 112.67756747415758, 90.44939241073222, 111.74271484495246" fill="rgb(255,255,255)" fill-opacity="1.0" stroke="black"/><polygon points="12.338621384569992, 111.08843517574992, 16.695825517679662, 130.1788056506091, 18.00728555086304, 138.2262953635269, 13.565199520787473, 118.50807164612432" fill="rgb(255,255,255)" fill-opacity="1.0" stroke="black"/><polygon points="137.65962338380797, 95.2673693126331, 141.52422969579612, 88.03138310632903, 151.03695663067745, 85.7292528403217, 146.89863521226758, 94.57723394886833" fill="rgb(255,255,255)" fill-opacity="1.0" stroke="black"/><polygon points="110.91016075366021, 111.4449935033319, 119.60428981897095, 108.2628371658988, 123.3032718800585, 103.77156165457544, 113.0217786500918, 107.45383875563756" fill="rgb(255,255,255)" fill-opacity="1.0" stroke="black"/><polygon points="182.25512730570253, 118.42232789984689, 185.25826063415903, 101.0046085354308, 187.4276271126844, 108.57076846762965, 184.6157837960412, 127.45612862700052" fill="rgb(255,255,255)" fill-opacity="1.0" stroke="black"/><polygon points="58.73419759212669, 89.05168361450748, 63.25748114693658, 96.23613300172839, 54.162372194611464, 95.77959343029667, 49.1872348354621, 86.96284858403394" fill="rgb(255,255,255)" fill-opacity="1.0" stroke="black"/><polygon points="129.29990117768804, 173.36239170955565, 150.83699700283114, 161.71618801613, 143.3037337537201, 158.18068176511525, 124.74542308122614, 167.84337306569478" fill="rgb(255,255,255)" fill-opacity="1.0" stroke="black"/><polygon points="81.47537870115984, 108.80637262893912, 90.44939241073222, 111.74271484495246, 88.59654514944278, 107.79989331878423, 77.96477351686798, 104.39839466721034" fill="rgb(255,255,255)" fill-opacity="1.0" stroke="black"/><polygon points="101.67447894773841, 171.72677545283875, 124.74542308122614, 167.84337306569478, 120.46717509540406, 160.43457314593357, 101.38049814950382, 163.52155063547423" fill="rgb(255,255,255)" fill-opacity="1.0" stroke="black"/><polygon points="123.3032718800585, 103.77156165457544, 130.46270489885765, 98.49578212706389, 137.65962338380797, 95.2673693126331, 129.07214357712277, 101.6947471253607" fill="rgb(255,255,255)" fill-opacity="1.0" stroke="black"/><polygon points="78.28372149593716, 168.7739809587769, 101.67447894773841, 171.72677545283875, 101.38049814950382, 163.52155063547423, 82.0522146535516, 161.17615164244242" fill="rgb(255,255,255)" fill-opacity="1.0" stroke="black"/><polygon points="164.18970469750997, 160.50790736351053, 178.80417589993831, 141.4393335872053, 171.94801582178323, 145.06581113061884, 158.07134591462142, 162.66339056434637" fill="rgb(255,255,255)" fill-opacity="1.0" stroke="black"/><polygon points="51.678764227950666, 163.64835404583533, 74.26546558356709, 174.4946079409971, 78.28372149593716, 168.7739809587769, 58.897838777796395, 159.7952487355702" fill="rgb(255,255,255)" fill-opacity="1.0" stroke="black"/><polygon points="70.32003744269822, 99.29713765486277, 77.96477351686798, 104.39839466721034, 72.47991961363358, 102.46622543841141, 63.25748114693658, 96.23613300172839" fill="rgb(255,255,255)" fill-opacity="1.0" stroke="black"/><polygon points="14.549942680997784, 103.33300386383625, 19.056809386346053, 120.92433144687702, 16.695825517679662, 130.1788056506091, 12.338621384569992, 111.08843517574992" fill="rgb(255,255,255)" fill-opacity="1.0" stroke="black"/><polygon points="146.89863521226758, 94.57723394886833, 151.03695663067745, 85.7292528403217, 161.44778382943423, 85.98326963756801, 157.2938400037553, 96.81442838659353" fill="rgb(255,255,255)" fill-opacity="1.0" stroke="black"/><polygon points="100.73060502300378, 112.67756747415758, 110.91016075366021, 111.4449935033319, 113.0217786500918, 107.45383875563756, 100.87339491556786, 108.88823838617647" fill="rgb(255,255,255)" fill-opacity="1.0" stroke="black"/><polygon points="90.44939241073222, 111.74271484495246, 100.73060502300378, 112.67756747415758, 100.87339491556786, 108.88823838617647, 88.59654514944278, 107.79989331878423" fill="rgb(255,255,255)" fill-opacity="1.0" stroke="black"/><polygon points="22.504368143396448, 144.18483840100714, 38.83224117302465, 162.9390347481813, 44.726732123244936, 164.88396544034336, 29.34018065236945, 147.61942787520118" fill="rgb(255,255,255)" fill-opacity="1.0" stroke="black"/><polygon points="176.32304632093553, 109.50700737548205, 179.74560394894021, 94.13767050157172, 185.25826063415903, 101.0046085354308, 182.25512730570253, 118.42232789984689" fill="rgb(255,255,255)" fill-opacity="1.0" stroke="black"/><polygon points="49.1872348354621, 86.96284858403394, 54.162372194611464, 95.77959343029667, 43.8904612091086, 98.3108644877611, 38.69854378040786, 87.4745312291203" fill="rgb(255,255,255)" fill-opacity="1.0" stroke="black"/><polygon points="157.2938400037553, 96.81442838659353, 161.44778382943423, 85.98326963756801, 171.45793602785992, 88.89479399804885, 167.5807683297914, 101.96808473364818" fill="rgb(255,255,255)" fill-opacity="1.0" stroke="black"/><polygon points="167.5807683297914, 101.96808473364818, 171.45793602785992, 88.89479399804885, 179.74560394894021, 94.13767050157172, 176.32304632093553, 109.50700737548205" fill="rgb(255,255,255)" fill-opacity="1.0" stroke="black"/><polygon points="20.160805613134336, 96.20653301483864, 24.980222061095823, 111.69465280575275, 19.056809386346053, 120.92433144687702, 14.549942680997784, 103.33300386383625" fill="rgb(255,255,255)" fill-opacity="1.0" stroke="black"/><polygon points="113.0217786500918, 107.45383875563756, 123.3032718800585, 103.77156165457544, 129.07214357712277, 101.6947471253607, 116.34973495588817, 106.250881843309" fill="rgb(255,255,255)" fill-opacity="1.0" stroke="black"/><polygon points="133.74796586442295, 176.14090164145756, 158.07134591462142, 162.66339056434637, 150.83699700283114, 161.71618801613, 129.29990117768804, 173.36239170955565" fill="rgb(255,255,255)" fill-opacity="1.0" stroke="black"/><polygon points="129.07214357712277, 101.6947471253607, 137.65962338380797, 95.2673693126331, 146.89863521226758, 94.57723394886833, 136.63437498062055, 102.63489199715775" fill="rgb(255,255,255)" fill-opacity="1.0" stroke="black"/><polygon points="77.96477351686798, 104.39839466721034, 88.59654514944278, 107.79989331878423, 85.67353455366286, 106.68207030082995, 72.47991961363358, 102.46622543841141" fill="rgb(255,255,255)" fill-opacity="1.0" stroke="black"/><polygon points="38.69854378040786, 87.4745312291203, 43.8904612091086, 98.3108644877611, 33.68505568724751, 103.80377177390815, 28.573481857599802, 90.67281679627868" fill="rgb(255,255,255)" fill-opacity="1.0" stroke="black"/><polygon points="101.98954474469129, 178.09955270114264, 129.29990117768804, 173.36239170955565, 124.74542308122614, 167.84337306569478, 101.67447894773841, 171.72677545283875" fill="rgb(255,255,255)" fill-opacity="1.0" stroke="black"/><polygon points="168.26749606833764, 155.02188574433586, 183.3047714275489, 135.41835604943466, 178.80417589993831, 141.4393335872053, 164.18970469750997, 160.50790736351053" fill="rgb(255,255,255)" fill-opacity="1.0" stroke="black"/><polygon points="74.26546558356709, 174.4946079409971, 101.98954474469129, 178.09955270114264, 101.67447894773841, 171.72677545283875, 78.28372149593716, 168.7739809587769" fill="rgb(255,255,255)" fill-opacity="1.0" stroke="black"/><polygon points="28.573481857599802, 90.67281679627868, 33.68505568724751, 103.80377177390815, 24.980222061095823, 111.69465280575275, 20.160805613134336, 96.20653301483864" fill="rgb(255,255,255)" fill-opacity="1.0" stroke="black"/><polygon points="63.25748114693658, 96.23613300172839, 72.47991961363358, 102.46622543841141, 65.27190403772359, 103.61493643542687, 54.162372194611464, 95.77959343029667" fill="rgb(255,255,255)" fill-opacity="1.0" stroke="black"/><polygon points="44.726732123244936, 164.88396544034336, 70.33466297760134, 177.46312754210177, 74.26546558356709, 174.4946079409971, 51.678764227950666, 163.64835404583533" fill="rgb(255,255,255)" fill-opacity="1.0" stroke="black"/><polygon points="18.00728555086304, 138.2262953635269, 34.896047115215865, 157.53833352836958, 38.83224117302465, 162.9390347481813, 22.504368143396448, 144.18483840100714" fill="rgb(255,255,255)" fill-opacity="1.0" stroke="black"/><polygon points="100.87339491556786, 108.88823838617647, 113.0217786500918, 107.45383875563756, 116.34973495588817, 106.250881843309, 101.09935745929155, 108.04156343879912" fill="rgb(255,255,255)" fill-opacity="1.0" stroke="black"/><polygon points="88.59654514944278, 107.79989331878423, 100.87339491556786, 108.88823838617647, 101.09935745929155, 108.04156343879912, 85.67353455366286, 106.68207030082995" fill="rgb(255,255,255)" fill-opacity="1.0" stroke="black"/><polygon points="136.63437498062055, 102.63489199715775, 146.89863521226758, 94.57723394886833, 157.2938400037553, 96.81442838659353, 145.36062136091053, 106.95840690409847" fill="rgb(255,255,255)" fill-opacity="1.0" stroke="black"/><polygon points="169.46467281860896, 146.49324670790452, 184.6157837960412, 127.45612862700052, 183.3047714275489, 135.41835604943466, 168.26749606833764, 155.02188574433586" fill="rgb(255,255,255)" fill-opacity="1.0" stroke="black"/><polygon points="116.34973495588817, 106.250881843309, 129.07214357712277, 101.6947471253607, 136.63437498062055, 102.63489199715775, 120.7775418324702, 108.46357957117027" fill="rgb(255,255,255)" fill-opacity="1.0" stroke="black"/><polygon points="54.162372194611464, 95.77959343029667, 65.27190403772359, 103.61493643542687, 56.92877858321255, 108.21098191975518, 43.8904612091086, 98.3108644877611" fill="rgb(255,255,255)" fill-opacity="1.0" stroke="black"/><polygon points="137.56805650447302, 175.35070244598552, 164.18970469750997, 160.50790736351053, 158.07134591462142, 162.66339056434637, 133.74796586442295, 176.14090164145756" fill="rgb(255,255,255)" fill-opacity="1.0" stroke="black"/><polygon points="72.47991961363358, 102.46622543841141, 85.67353455366286, 106.68207030082995, 81.77902523805227, 109.02033205742036, 65.27190403772359, 103.61493643542687" fill="rgb(255,255,255)" fill-opacity="1.0" stroke="black"/><polygon points="102.29936453461195, 181.68735767184566, 133.74796586442295, 176.14090164145756, 129.29990117768804, 173.36239170955565, 101.98954474469129, 178.09955270114264" fill="rgb(255,255,255)" fill-opacity="1.0" stroke="black"/><polygon points="16.695825517679662, 130.1788056506091, 33.739283240646465, 148.9418708030483, 34.896047115215865, 157.53833352836958, 18.00728555086304, 138.2262953635269" fill="rgb(255,255,255)" fill-opacity="1.0" stroke="black"/><polygon points="70.33466297760134, 177.46312754210177, 102.29936453461195, 181.68735767184566, 101.98954474469129, 178.09955270114264, 74.26546558356709, 174.4946079409971" fill="rgb(255,255,255)" fill-opacity="1.0" stroke="black"/><polygon points="38.83224117302465, 162.9390347481813, 66.9537230148087, 176.818213632495, 70.33466297760134, 177.46312754210177, 44.726732123244936, 164.88396544034336" fill="rgb(255,255,255)" fill-opacity="1.0" stroke="black"/><polygon points="145.36062136091053, 106.95840690409847, 157.2938400037553, 96.81442838659353, 167.5807683297914, 101.96808473364818, 154.2318274225022, 114.55586981340443" fill="rgb(255,255,255)" fill-opacity="1.0" stroke="black"/><polygon points="167.31203999771913, 135.86882337749793, 182.25512730570253, 118.42232789984689, 184.6157837960412, 127.45612862700052, 169.46467281860896, 146.49324670790452" fill="rgb(255,255,255)" fill-opacity="1.0" stroke="black"/><polygon points="101.09935745929155, 108.04156343879912, 116.34973495588817, 106.250881843309, 120.7775418324702, 108.46357957117027, 101.40176108422772, 110.78159290525923" fill="rgb(255,255,255)" fill-opacity="1.0" stroke="black"/><polygon points="85.67353455366286, 106.68207030082995, 101.09935745929155, 108.04156343879912, 101.40176108422772, 110.78159290525923, 81.77902523805227, 109.02033205742036" fill="rgb(255,255,255)" fill-opacity="1.0" stroke="black"/><polygon points="43.8904612091086, 98.3108644877611, 56.92877858321255, 108.21098191975518, 48.41878781075598, 116.13396758176088, 33.68505568724751, 103.80377177390815" fill="rgb(255,255,255)" fill-opacity="1.0" stroke="black"/><polygon points="19.056809386346053, 120.92433144687702, 35.81887268746642, 138.10480758394218, 33.739283240646465, 148.9418708030483, 16.695825517679662, 130.1788056506091" fill="rgb(255,255,255)" fill-opacity="1.0" stroke="black"/><polygon points="154.2318274225022, 114.55586981340443, 167.5807683297914, 101.96808473364818, 176.32304632093553, 109.50700737548205, 161.9626313334554, 124.65792230266052" fill="rgb(255,255,255)" fill-opacity="1.0" stroke="black"/><polygon points="161.9626313334554, 124.65792230266052, 176.32304632093553, 109.50700737548205, 182.25512730570253, 118.42232789984689, 167.31203999771913, 135.86882337749793" fill="rgb(255,255,255)" fill-opacity="1.0" stroke="black"/><polygon points="120.7775418324702, 108.46357957117027, 136.63437498062055, 102.63489199715775, 145.36062136091053, 106.95840690409847, 125.98125945361333, 114.46924798995116" fill="rgb(255,255,255)" fill-opacity="1.0" stroke="black"/><polygon points="140.14430651223236, 170.44657207747338, 168.26749606833764, 155.02188574433586, 164.18970469750997, 160.50790736351053, 137.56805650447302, 175.35070244598552" fill="rgb(255,255,255)" fill-opacity="1.0" stroke="black"/><polygon points="65.27190403772359, 103.61493643542687, 81.77902523805227, 109.02033205742036, 77.1940442953012, 115.1944623960353, 56.92877858321255, 108.21098191975518" fill="rgb(255,255,255)" fill-opacity="1.0" stroke="black"/><polygon points="33.68505568724751, 103.80377177390815, 48.41878781075598, 116.13396758176088, 40.97941066423147, 126.58235564314539, 24.980222061095823, 111.69465280575275" fill="rgb(255,255,255)" fill-opacity="1.0" stroke="black"/><polygon points="24.980222061095823, 111.69465280575275, 40.97941066423147, 126.58235564314539, 35.81887268746642, 138.10480758394218, 19.056809386346053, 120.92433144687702" fill="rgb(255,255,255)" fill-opacity="1.0" stroke="black"/><polygon points="34.896047115215865, 157.53833352836958, 64.67097595428977, 171.97957356205637, 66.9537230148087, 176.818213632495, 38.83224117302465, 162.9390347481813" fill="rgb(255,255,255)" fill-opacity="1.0" stroke="black"/><polygon points="102.56712913457267, 181.5203161107852, 137.56805650447302, 175.35070244598552, 133.74796586442295, 176.14090164145756, 102.29936453461195, 181.68735767184566" fill="rgb(255,255,255)" fill-opacity="1.0" stroke="black"/><polygon points="66.9537230148087, 176.818213632495, 102.56712913457267, 181.5203161107852, 102.29936453461195, 181.68735767184566, 70.33466297760134, 177.46312754210177" fill="rgb(255,255,255)" fill-opacity="1.0" stroke="black"/><polygon points="101.40176108422772, 110.78159290525923, 120.7775418324702, 108.46357957117027, 125.98125945361333, 114.46924798995116, 101.75975520226885, 117.49770753278193" fill="rgb(255,255,255)" fill-opacity="1.0" stroke="black"/><polygon points="81.77902523805227, 109.02033205742036, 101.40176108422772, 110.78159290525923, 101.75975520226885, 117.49770753278193, 77.1940442953012, 115.1944623960353" fill="rgb(255,255,255)" fill-opacity="1.0" stroke="black"/><polygon points="125.98125945361333, 114.46924798995116, 145.36062136091053, 106.95840690409847, 154.2318274225022, 114.55586981340443, 131.37804531398652, 124.09876301935982" fill="rgb(255,255,255)" fill-opacity="1.0" stroke="black"/><polygon points="140.9053045962762, 161.51973289568525, 169.46467281860896, 146.49324670790452, 168.26749606833764, 155.02188574433586, 140.14430651223236, 170.44657207747338" fill="rgb(255,255,255)" fill-opacity="1.0" stroke="black"/><polygon points="56.92877858321255, 108.21098191975518, 77.1940442953012, 115.1944623960353, 72.42977922980414, 125.03045988913219, 48.41878781075598, 116.13396758176088" fill="rgb(255,255,255)" fill-opacity="1.0" stroke="black"/><polygon points="33.739283240646465, 148.9418708030483, 63.99626546932904, 163.0154503463524, 64.67097595428977, 171.97957356205637, 34.896047115215865, 157.53833352836958" fill="rgb(255,255,255)" fill-opacity="1.0" stroke="black"/><polygon points="102.74859460598016, 176.90122652935236, 140.14430651223236, 170.44657207747338, 137.56805650447302, 175.35070244598552, 102.56712913457267, 181.5203161107852" fill="rgb(255,255,255)" fill-opacity="1.0" stroke="black"/><polygon points="131.37804531398652, 124.09876301935982, 154.2318274225022, 114.55586981340443, 161.9626313334554, 124.65792230266052, 136.17129658099464, 136.3819064756397" fill="rgb(255,255,255)" fill-opacity="1.0" stroke="black"/><polygon points="64.67097595428977, 171.97957356205637, 102.74859460598016, 176.90122652935236, 102.56712913457267, 181.5203161107852, 66.9537230148087, 176.818213632495" fill="rgb(255,255,255)" fill-opacity="1.0" stroke="black"/><polygon points="139.53848093605384, 149.56165244217382, 167.31203999771913, 135.86882337749793, 169.46467281860896, 146.49324670790452, 140.9053045962762, 161.51973289568525" fill="rgb(255,255,255)" fill-opacity="1.0" stroke="black"/><polygon points="48.41878781075598, 116.13396758176088, 72.42977922980414, 125.03045988913219, 68.19045954694249, 137.53778270850685, 40.97941066423147, 126.58235564314539" fill="rgb(255,255,255)" fill-opacity="1.0" stroke="black"/><polygon points="101.75975520226885, 117.49770753278193, 125.98125945361333, 114.46924798995116, 131.37804531398652, 124.09876301935982, 102.13403164307113, 128.00165579308137" fill="rgb(255,255,255)" fill-opacity="1.0" stroke="black"/><polygon points="35.81887268746642, 138.10480758394218, 65.20797474786386, 150.92086917272118, 63.99626546932904, 163.0154503463524, 33.739283240646465, 148.9418708030483" fill="rgb(255,255,255)" fill-opacity="1.0" stroke="black"/><polygon points="136.17129658099464, 136.3819064756397, 161.9626313334554, 124.65792230266052, 167.31203999771913, 135.86882337749793, 139.53848093605384, 149.56165244217382" fill="rgb(255,255,255)" fill-opacity="1.0" stroke="black"/><polygon points="77.1940442953012, 115.1944623960353, 101.75975520226885, 117.49770753278193, 102.13403164307113, 128.00165579308137, 72.42977922980414, 125.03045988913219" fill="rgb(255,255,255)" fill-opacity="1.0" stroke="black"/><polygon points="40.97941066423147, 126.58235564314539, 68.19045954694249, 137.53778270850685, 65.20797474786386, 150.92086917272118, 35.81887268746642, 138.10480758394218" fill="rgb(255,255,255)" fill-opacity="1.0" stroke="black"/><polygon points="102.80233501830686, 167.82020997638375, 140.9053045962762, 161.51973289568525, 140.14430651223236, 170.44657207747338, 102.74859460598016, 176.90122652935236" fill="rgb(255,255,255)" fill-opacity="1.0" stroke="black"/><polygon points="63.99626546932904, 163.0154503463524, 102.80233501830686, 167.82020997638375, 102.74859460598016, 176.90122652935236, 64.67097595428977, 171.97957356205637" fill="rgb(255,255,255)" fill-opacity="1.0" stroke="black"/><polygon points="102.13403164307113, 128.00165579308137, 131.37804531398652, 124.09876301935982, 136.17129658099464, 136.3819064756397, 102.46904343710787, 141.23740740645766" fill="rgb(255,255,255)" fill-opacity="1.0" stroke="black"/><polygon points="72.42977922980414, 125.03045988913219, 102.13403164307113, 128.00165579308137, 102.46904343710787, 141.23740740645766, 68.19045954694249, 137.53778270850685" fill="rgb(255,255,255)" fill-opacity="1.0" stroke="black"/><polygon points="102.70585706949468, 155.28256390237962, 139.53848093605384, 149.56165244217382, 140.9053045962762, 161.51973289568525, 102.80233501830686, 167.82020997638375" fill="rgb(255,255,255)" fill-opacity="1.0" stroke="black"/><polygon points="65.20797474786386, 150.92086917272118, 102.70585706949468, 155.28256390237962, 102.80233501830686, 167.82020997638375, 63.99626546932904, 163.0154503463524" fill="rgb(255,255,255)" fill-opacity="1.0" stroke="black"/><polygon points="102.46904343710787, 141.23740740645766, 136.17129658099464, 136.3819064756397, 139.53848093605384, 149.56165244217382, 102.70585706949468, 155.28256390237962" fill="rgb(255,255,255)" fill-opacity="1.0" stroke="black"/><polygon points="68.19045954694249, 137.53778270850685, 102.46904343710787, 141.23740740645766, 102.70585706949468, 155.28256390237962, 65.20797474786386, 150.92086917272118" fill="rgb(255,255,255)" fill-opacity="1.0" stroke="black"/></svg>