<svg height="200" width="200" version="1.1" xmlns="http://www.w3.org/2000/svg" id="example"><line stroke="black" x1="146.85166593193637" y1="41.0689666236278" x2="124.49031998403095" y2="29.11580770294816"/><line stroke="black" x1="124.49031998403095" y1="29.11580770294816" x2="136.75123023126463" y2="46.28588750806949"/><line stroke="black" x1="136.75123023126463" y1="46.28588750806949" x2="146.85166593193637" y2="41.0689666236278"/><line stroke="black" x1="124.49031998403095" y1="29.11580770294816" x2="99.99999999999999" y2="24.19325330520786"/><line stroke="black" x1="99.99999999999999" y1="24.19325330520786" x2="109.72547278804308" y2="35.391300968016196"/><line stroke="black" x1="109.72547278804308" y1="35.391300968016196" x2="124.49031998403095" y2="29.11580770294816"/><line stroke="black" x1="109.72547278804308" y1="35.391300968016196" x2="120.14513236779707" y2="59.00018422175211"/><line stroke="black" x1="120.14513236779707" y1="59.00018422175211" x2="136.75123023126463" y2="46.28588750806949"/><line stroke="black" x1="136.75123023126463" y1="46.28588750806949" x2="109.72547278804308" y2="35.391300968016196"/><line stroke="black" x1="99.99999999999999" y1="24.19325330520786" x2="76.80528109532369" y2="26.634975756179415"/><line stroke="black" x1="76.80528109532369" y1="26.634975756179415" x2="78.32935591703347" y2="33.50848091499668"/><line stroke="black" x1="78.32935591703347" y1="33.50848091499668" x2="99.99999999999999" y2="24.19325330520786"/><line stroke="black" x1="76.80528109532369" y1="26.634975756179415" x2="57.67152939888276" y2="35.38765808632331"/><line stroke="black" x1="57.67152939888276" y1="35.38765808632331" x2="55.045997136040924" y2="40.55668897964523"/><line stroke="black" x1="55.045997136040924" y1="40.55668897964523" x2="76.80528109532369" y2="26.634975756179415"/><line stroke="black" x1="55.045997136040924" y1="40.55668897964523" x2="56.752662324332306" y2="53.574282767492775"/><line stroke="black" x1="56.752662324332306" y1="53.574282767492775" x2="78.32935591703347" y2="33.50848091499668"/><line stroke="black" x1="78.32935591703347" y1="33.50848091499668" x2="55.045997136040924" y2="40.55668897964523"/><line stroke="black" x1="56.752662324332306" y1="53.574282767492775" x2="63.97532367481074" y2="74.74474881907811"/><line stroke="black" x1="63.97532367481074" y1="74.74474881907811" x2="86.27527136883523" y2="52.69785333798836"/><line stroke="black" x1="86.27527136883523" y1="52.69785333798836" x2="56.752662324332306" y2="53.574282767492775"/><line stroke="black" x1="63.97532367481074" y1="74.74474881907811" x2="76.56693548993385" y2="101.66338105248357"/><line stroke="black" x1="76.56693548993385" y1="101.66338105248357" x2="98.74692562554719" y2="78.57081336561431"/><line stroke="black" x1="98.74692562554719" y1="78.57081336561431" x2="63.97532367481074" y2="74.74474881907811"/><line stroke="black" x1="98.74692562554719" y1="78.57081336561431" x2="120.14513236779707" y2="59.00018422175211"/><line stroke="black" x1="120.14513236779707" y1="59.00018422175211" x2="86.27527136883523" y2="52.69785333798836"/><line stroke="black" x1="86.27527136883523" y1="52.69785333798836" x2="98.74692562554719" y2="78.57081336561431"/><line stroke="black" x1="78.32935591703347" y1="33.50848091499668" x2="109.72547278804308" y2="35.391300968016196"/><line stroke="black" x1="86.27527136883523" y1="52.69785333798836" x2="78.32935591703347" y2="33.50848091499668"/><line stroke="black" x1="109.72547278804308" y1="35.391300968016196" x2="86.27527136883523" y2="52.69785333798836"/><line stroke="black" x1="146.85166593193637" y1="41.0689666236278" x2="160.88685907698923" y2="60.68142208642507"/><line stroke="black" x1="160.88685907698923" y1="60.68142208642507" x2="159.85691355363053" y2="51.086374040950716"/><line stroke="black" x1="159.85691355363053" y1="51.086374040950716" x2="146.85166593193637" y2="41.0689666236278"/><line stroke="black" x1="160.88685907698923" y1="60.68142208642507" x2="169.43257061108739" y2="85.62500844800891"/><line stroke="black" x1="169.43257061108739" y1="85.62500844800891" x2="171.63200188392724" y2="71.53101061197168"/><line stroke="black" x1="171.63200188392724" y1="71.53101061197168" x2="160.88685907698923" y2="60.68142208642507"/><line stroke="black" x1="171.63200188392724" y1="71.53101061197168" x2="165.79608784255106" y2="63.4637853291311"/><line stroke="black" x1="165.79608784255106" y1="63.4637853291311" x2="159.85691355363053" y2="51.086374040950716"/><line stroke="black" x1="159.85691355363053" y1="51.086374040950716" x2="171.63200188392724" y2="71.53101061197168"/><line stroke="black" x1="169.43257061108739" y1="85.62500844800891" x2="170.85659289003038" y2="112.22388229206432"/><line stroke="black" x1="170.85659289003038" y1="112.22388229206432" x2="177.01942451182964" y2="99.22106029952138"/><line stroke="black" x1="177.01942451182964" y1="99.22106029952138" x2="169.43257061108739" y2="85.62500844800891"/><line stroke="black" x1="170.85659289003038" y1="112.22388229206432" x2="165.15496449830061" y2="136.35949008262804"/><line stroke="black" x1="165.15496449830061" y1="136.35949008262804" x2="173.77822753789985" y2="123.01768480416449"/><line stroke="black" x1="173.77822753789985" y1="123.01768480416449" x2="170.85659289003038" y2="112.22388229206432"/><line stroke="black" x1="173.77822753789985" y1="123.01768480416449" x2="174.83414250721822" y2="110.05133360029643"/><line stroke="black" x1="174.83414250721822" y1="110.05133360029643" x2="177.01942451182964" y2="99.22106029952138"/><line stroke="black" x1="177.01942451182964" y1="99.22106029952138" x2="173.77822753789985" y2="123.01768480416449"/><line stroke="black" x1="174.83414250721822" y1="110.05133360029643" x2="170.07886003329625" y2="98.57964252399208"/><line stroke="black" x1="170.07886003329625" y1="98.57964252399208" x2="174.2325739365212" y2="85.94204642415879"/><line stroke="black" x1="174.2325739365212" y1="85.94204642415879" x2="174.83414250721822" y2="110.05133360029643"/><line stroke="black" x1="170.07886003329625" y1="98.57964252399208" x2="161.26307754444994" y2="89.08739841295699"/><line stroke="black" x1="161.26307754444994" y1="89.08739841295699" x2="165.80259898855286" y2="76.49960059631064"/><line stroke="black" x1="165.80259898855286" y1="76.49960059631064" x2="170.07886003329625" y2="98.57964252399208"/><line stroke="black" x1="165.80259898855286" y1="76.49960059631064" x2="165.79608784255106" y2="63.4637853291311"/><line stroke="black" x1="165.79608784255106" y1="63.4637853291311" x2="174.2325739365212" y2="85.94204642415879"/><line stroke="black" x1="174.2325739365212" y1="85.94204642415879" x2="165.80259898855286" y2="76.49960059631064"/><line stroke="black" x1="177.01942451182964" y1="99.22106029952138" x2="171.63200188392724" y2="71.53101061197168"/><line stroke="black" x1="174.2325739365212" y1="85.94204642415879" x2="177.01942451182964" y2="99.22106029952138"/><line stroke="black" x1="171.63200188392724" y1="71.53101061197168" x2="174.2325739365212" y2="85.94204642415879"/><line stroke="black" x1="159.85691355363053" y1="51.086374040950716" x2="139.7976817685369" y2="33.865512322835826"/><line stroke="black" x1="139.7976817685369" y1="33.865512322835826" x2="146.85166593193637" y2="41.0689666236278"/><line stroke="black" x1="165.79608784255106" y1="63.4637853291311" x2="150.6988296770929" y2="45.27848184014158"/><line stroke="black" x1="150.6988296770929" y1="45.27848184014158" x2="159.85691355363053" y2="51.086374040950716"/><line stroke="black" x1="150.6988296770929" y1="45.27848184014158" x2="130.96166799364056" y2="33.30442882536414"/><line stroke="black" x1="130.96166799364056" y1="33.30442882536414" x2="139.7976817685369" y2="33.865512322835826"/><line stroke="black" x1="139.7976817685369" y1="33.865512322835826" x2="150.6988296770929" y2="45.27848184014158"/><line stroke="black" x1="165.80259898855286" y1="76.49960059631064" x2="155.03294672519368" y2="60.557844974567075"/><line stroke="black" x1="155.03294672519368" y1="60.557844974567075" x2="165.79608784255106" y2="63.4637853291311"/><line stroke="black" x1="161.26307754444994" y1="89.08739841295699" x2="153.05598559318395" y2="74.14202457883623"/><line stroke="black" x1="153.05598559318395" y1="74.14202457883623" x2="165.80259898855286" y2="76.49960059631064"/><line stroke="black" x1="153.05598559318395" y1="74.14202457883623" x2="141.7137524295534" y2="61.569539016053085"/><line stroke="black" x1="141.7137524295534" y1="61.569539016053085" x2="155.03294672519368" y2="60.557844974567075"/><line stroke="black" x1="155.03294672519368" y1="60.557844974567075" x2="153.05598559318395" y2="74.14202457883623"/><line stroke="black" x1="141.7137524295534" y1="61.569539016053085" x2="127.92926607347877" y2="51.83404008718847"/><line stroke="black" x1="127.92926607347877" y1="51.83404008718847" x2="138.61663861879057" y2="46.23813407100096"/><line stroke="black" x1="138.61663861879057" y1="46.23813407100096" x2="141.7137524295534" y2="61.569539016053085"/><line stroke="black" x1="127.92926607347877" y1="51.83404008718847" x2="112.37692747552475" y2="45.30855591809336"/><line stroke="black" x1="112.37692747552475" y1="45.30855591809336" x2="121.57335212703218" y2="37.628966337637024"/><line stroke="black" x1="121.57335212703218" y1="37.628966337637024" x2="127.92926607347877" y2="51.83404008718847"/><line stroke="black" x1="121.57335212703218" y1="37.628966337637024" x2="130.96166799364056" y2="33.30442882536414"/><line stroke="black" x1="130.96166799364056" y1="33.30442882536414" x2="138.61663861879057" y2="46.23813407100096"/><line stroke="black" x1="138.61663861879057" y1="46.23813407100096" x2="121.57335212703218" y2="37.628966337637024"/><line stroke="black" x1="155.03294672519368" y1="60.557844974567075" x2="150.6988296770929" y2="45.27848184014158"/><line stroke="black" x1="138.61663861879057" y1="46.23813407100096" x2="155.03294672519368" y2="60.557844974567075"/><line stroke="black" x1="150.6988296770929" y1="45.27848184014158" x2="138.61663861879057" y2="46.23813407100096"/><line stroke="black" x1="136.75123023126463" y1="46.28588750806949" x2="160.88685907698923" y2="60.68142208642507"/><line stroke="black" x1="120.14513236779707" y1="59.00018422175211" x2="149.97526227592914" y2="71.11383088926365"/><line stroke="black" x1="149.97526227592914" y1="71.11383088926365" x2="136.75123023126463" y2="46.28588750806949"/><line stroke="black" x1="149.97526227592914" y1="71.11383088926365" x2="169.43257061108739" y2="85.62500844800891"/><line stroke="black" x1="160.88685907698923" y1="60.68142208642507" x2="149.97526227592914" y2="71.11383088926365"/><line stroke="black" x1="98.74692562554719" y1="78.57081336561431" x2="128.69445765678785" y2="92.10575993745755"/><line stroke="black" x1="128.69445765678785" y1="92.10575993745755" x2="120.14513236779707" y2="59.00018422175211"/><line stroke="black" x1="76.56693548993385" y1="101.66338105248357" x2="105.54404894630981" y2="115.3455551016163"/><line stroke="black" x1="105.54404894630981" y1="115.3455551016163" x2="98.74692562554719" y2="78.57081336561431"/><line stroke="black" x1="105.54404894630981" y1="115.3455551016163" x2="132.88553144731893" y2="126.72583908957363"/><line stroke="black" x1="132.88553144731893" y1="126.72583908957363" x2="128.69445765678785" y2="92.10575993745755"/><line stroke="black" x1="128.69445765678785" y1="92.10575993745755" x2="105.54404894630981" y2="115.3455551016163"/><line stroke="black" x1="132.88553144731893" y1="126.72583908957363" x2="153.43986838738903" y2="133.8361310748117"/><line stroke="black" x1="153.43986838738903" y1="133.8361310748117" x2="156.49350972702968" y2="105.11055355014459"/><line stroke="black" x1="156.49350972702968" y1="105.11055355014459" x2="132.88553144731893" y2="126.72583908957363"/><line stroke="black" x1="153.43986838738903" y1="133.8361310748117" x2="165.15496449830061" y2="136.35949008262804"/><line stroke="black" x1="170.85659289003038" y1="112.22388229206432" x2="153.43986838738903" y2="133.8361310748117"/><line stroke="black" x1="169.43257061108739" y1="85.62500844800891" x2="156.49350972702968" y2="105.11055355014459"/><line stroke="black" x1="156.49350972702968" y1="105.11055355014459" x2="170.85659289003038" y2="112.22388229206432"/><line stroke="black" x1="128.69445765678785" y1="92.10575993745755" x2="149.97526227592914" y2="71.11383088926365"/><line stroke="black" x1="156.49350972702968" y1="105.11055355014459" x2="128.69445765678785" y2="92.10575993745755"/><line stroke="black" x1="149.97526227592914" y1="71.11383088926365" x2="156.49350972702968" y2="105.11055355014459"/><line stroke="black" x1="139.7976817685369" y1="33.865512322835826" x2="124.49031998403095" y2="29.11580770294816"/><line stroke="black" x1="130.96166799364056" y1="33.30442882536414" x2="118.07646003305624" y2="25.002273449002644"/><line stroke="black" x1="118.07646003305624" y1="25.002273449002644" x2="139.7976817685369" y2="33.865512322835826"/><line stroke="black" x1="118.07646003305624" y1="25.002273449002644" x2="99.99999999999999" y2="24.19325330520786"/><line stroke="black" x1="124.49031998403095" y1="29.11580770294816" x2="118.07646003305624" y2="25.002273449002644"/><line stroke="black" x1="121.57335212703218" y1="37.628966337637024" x2="109.01047509517107" y2="28.4901915338271"/><line stroke="black" x1="109.01047509517107" y1="28.4901915338271" x2="130.96166799364056" y2="33.30442882536414"/><line stroke="black" x1="112.37692747552475" y1="45.30855591809336" x2="100.70386569100076" y2="36.34195377803883"/><line stroke="black" x1="100.70386569100076" y1="36.34195377803883" x2="121.57335212703218" y2="37.628966337637024"/><line stroke="black" x1="100.70386569100076" y1="36.34195377803883" x2="87.24235259382753" y2="30.84441615748338"/><line stroke="black" x1="87.24235259382753" y1="30.84441615748338" x2="109.01047509517107" y2="28.4901915338271"/><line stroke="black" x1="109.01047509517107" y1="28.4901915338271" x2="100.70386569100076" y2="36.34195377803883"/><line stroke="black" x1="87.24235259382753" y1="30.84441615748338" x2="72.54730628337383" y2="30.076758731348264"/><line stroke="black" x1="72.54730628337383" y1="30.076758731348264" x2="92.39932947237143" y2="23.77485805665424"/><line stroke="black" x1="92.39932947237143" y1="23.77485805665424" x2="87.24235259382753" y2="30.84441615748338"/><line stroke="black" x1="72.54730628337383" y1="30.076758731348264" x2="57.67152939888276" y2="35.38765808632331"/><line stroke="black" x1="76.80528109532369" y1="26.634975756179415" x2="72.54730628337383" y2="30.076758731348264"/><line stroke="black" x1="99.99999999999999" y1="24.19325330520786" x2="92.39932947237143" y2="23.77485805665424"/><line stroke="black" x1="92.39932947237143" y1="23.77485805665424" x2="76.80528109532369" y2="26.634975756179415"/><line stroke="black" x1="109.01047509517107" y1="28.4901915338271" x2="118.07646003305624" y2="25.002273449002644"/><line stroke="black" x1="92.39932947237143" y1="23.77485805665424" x2="109.01047509517107" y2="28.4901915338271"/><line stroke="black" x1="118.07646003305624" y1="25.002273449002644" x2="92.39932947237143" y2="23.77485805665424"/><line stroke="black" x1="131.69670860964752" y1="148.38347677439282" x2="115.8643824967492" y2="150.1791296230193"/><line stroke="black" x1="115.8643824967492" y1="150.1791296230193" x2="127.72809834848724" y2="136.66525490777957"/><line stroke="black" x1="127.72809834848724" y1="136.66525490777957" x2="131.69670860964752" y2="148.38347677439282"/><line stroke="black" x1="115.8643824967492" y1="150.1791296230193" x2="99.99999999999999" y2="148.72833534304309"/><line stroke="black" x1="99.99999999999999" y1="148.72833534304309" x2="112.22891688180552" y2="137.5216932695884"/><line stroke="black" x1="112.22891688180552" y1="137.5216932695884" x2="115.8643824967492" y2="150.1791296230193"/><line stroke="black" x1="112.22891688180552" y1="137.5216932695884" x2="122.66131570712628" y2="124.32676533814812"/><line stroke="black" x1="122.66131570712628" y1="124.32676533814812" x2="127.72809834848724" y2="136.66525490777957"/><line stroke="black" x1="127.72809834848724" y1="136.66525490777957" x2="112.22891688180552" y2="137.5216932695884"/><line stroke="black" x1="99.99999999999999" y1="148.72833534304309" x2="84.68960171634474" y2="144.31404803166004"/><line stroke="black" x1="84.68960171634474" y1="144.31404803166004" x2="94.80989557194079" y2="134.47913559012866"/><line stroke="black" x1="94.80989557194079" y1="134.47913559012866" x2="99.99999999999999" y2="148.72833534304309"/><line stroke="black" x1="84.68960171634474" y1="144.31404803166004" x2="70.44028001782696" y2="137.18085174167166"/><line stroke="black" x1="70.44028001782696" y1="137.18085174167166" x2="80.4377408461767" y2="128.5914072038563"/><line stroke="black" x1="80.4377408461767" y1="128.5914072038563" x2="84.68960171634474" y2="144.31404803166004"/><line stroke="black" x1="80.4377408461767" y1="128.5914072038563" x2="90.54035784073659" y2="119.25247145449056"/><line stroke="black" x1="90.54035784073659" y1="119.25247145449056" x2="94.80989557194079" y2="134.47913559012866"/><line stroke="black" x1="94.80989557194079" y1="134.47913559012866" x2="80.4377408461767" y2="128.5914072038563"/><line stroke="black" x1="90.54035784073659" y1="119.25247145449056" x2="100.55099646073604" y2="109.42274954521754"/><line stroke="black" x1="100.55099646073604" y1="109.42274954521754" x2="106.54867198489653" y2="122.56993569749683"/><line stroke="black" x1="106.54867198489653" y1="122.56993569749683" x2="90.54035784073659" y2="119.25247145449056"/><line stroke="black" x1="100.55099646073604" y1="109.42274954521754" x2="110.33790312792742" y2="99.26617057798744"/><line stroke="black" x1="110.33790312792742" y1="99.26617057798744" x2="116.80116452058036" y2="111.77852720365897"/><line stroke="black" x1="116.80116452058036" y1="111.77852720365897" x2="100.55099646073604" y2="109.42274954521754"/><line stroke="black" x1="116.80116452058036" y1="111.77852720365897" x2="122.66131570712628" y2="124.32676533814812"/><line stroke="black" x1="122.66131570712628" y1="124.32676533814812" x2="106.54867198489653" y2="122.56993569749683"/><line stroke="black" x1="106.54867198489653" y1="122.56993569749683" x2="116.80116452058036" y2="111.77852720365897"/><line stroke="black" x1="94.80989557194079" y1="134.47913559012866" x2="112.22891688180552" y2="137.5216932695884"/><line stroke="black" x1="106.54867198489653" y1="122.56993569749683" x2="94.80989557194079" y2="134.47913559012866"/><line stroke="black" x1="112.22891688180552" y1="137.5216932695884" x2="106.54867198489653" y2="122.56993569749683"/><line stroke="black" x1="131.69670860964752" y1="148.38347677439282" x2="143.12344104313019" y2="151.749869363774"/><line stroke="black" x1="143.12344104313019" y1="151.749869363774" x2="123.86491553933408" y2="160.78500945436298"/><line stroke="black" x1="123.86491553933408" y1="160.78500945436298" x2="131.69670860964752" y2="148.38347677439282"/><line stroke="black" x1="143.12344104313019" y1="151.749869363774" x2="153.46972714286684" y2="151.65525411090164"/><line stroke="black" x1="153.46972714286684" y1="151.65525411090164" x2="134.5036192568702" y2="164.5217440635401"/><line stroke="black" x1="134.5036192568702" y1="164.5217440635401" x2="143.12344104313019" y2="151.749869363774"/><line stroke="black" x1="134.5036192568702" y1="164.5217440635401" x2="112.99246828026442" y2="170.4284811196731"/><line stroke="black" x1="112.99246828026442" y1="170.4284811196731" x2="123.86491553933408" y2="160.78500945436298"/><line stroke="black" x1="123.86491553933408" y1="160.78500945436298" x2="134.5036192568702" y2="164.5217440635401"/><line stroke="black" x1="153.46972714286684" y1="151.65525411090164" x2="161.42630941584048" y2="146.90822012699266"/><line stroke="black" x1="161.42630941584048" y1="146.90822012699266" x2="144.1919616140137" y2="163.4074366650372"/><line stroke="black" x1="144.1919616140137" y1="163.4074366650372" x2="153.46972714286684" y2="151.65525411090164"/><line stroke="black" x1="161.42630941584048" y1="146.90822012699266" x2="165.15496449830061" y2="136.35949008262804"/><line stroke="black" x1="165.15496449830061" y1="136.35949008262804" x2="148.50689713429952" y2="155.89761261410985"/><line stroke="black" x1="148.50689713429952" y1="155.89761261410985" x2="161.42630941584048" y2="146.90822012699266"/><line stroke="black" x1="148.50689713429952" y1="155.89761261410985" x2="127.12986502245592" y2="169.79974760292416"/><line stroke="black" x1="127.12986502245592" y1="169.79974760292416" x2="144.1919616140137" y2="163.4074366650372"/><line stroke="black" x1="144.1919616140137" y1="163.4074366650372" x2="148.50689713429952" y2="155.89761261410985"/><line stroke="black" x1="127.12986502245592" y1="169.79974760292416" x2="104.23085142173764" y2="176.33551791665587"/><line stroke="black" x1="104.23085142173764" y1="176.33551791665587" x2="120.29412516955205" y2="174.28883351781255"/><line stroke="black" x1="120.29412516955205" y1="174.28883351781255" x2="127.12986502245592" y2="169.79974760292416"/><line stroke="black" x1="104.23085142173764" y1="176.33551791665587" x2="82.93825775029458" y2="175.39280843609407"/><line stroke="black" x1="82.93825775029458" y1="175.39280843609407" x2="99.16121830910288" y2="175.85993227393234"/><line stroke="black" x1="99.16121830910288" y1="175.85993227393234" x2="104.23085142173764" y2="176.33551791665587"/><line stroke="black" x1="99.16121830910288" y1="175.85993227393234" x2="112.99246828026442" y2="170.4284811196731"/><line stroke="black" x1="112.99246828026442" y1="170.4284811196731" x2="120.29412516955205" y2="174.28883351781255"/><line stroke="black" x1="120.29412516955205" y1="174.28883351781255" x2="99.16121830910288" y2="175.85993227393234"/><line stroke="black" x1="144.1919616140137" y1="163.4074366650372" x2="134.5036192568702" y2="164.5217440635401"/><line stroke="black" x1="120.29412516955205" y1="174.28883351781255" x2="144.1919616140137" y2="163.4074366650372"/><line stroke="black" x1="134.5036192568702" y1="164.5217440635401" x2="120.29412516955205" y2="174.28883351781255"/><line stroke="black" x1="131.69670860964752" y1="148.38347677439282" x2="143.9624753493211" y2="136.52304410226827"/><line stroke="black" x1="143.9624753493211" y1="136.52304410226827" x2="143.12344104313019" y2="151.749869363774"/><line stroke="black" x1="143.9624753493211" y1="136.52304410226827" x2="153.29528327894698" y2="122.24173267252415"/><line stroke="black" x1="153.29528327894698" y1="122.24173267252415" x2="155.99660196823055" y2="137.29729651436867"/><line stroke="black" x1="155.99660196823055" y1="137.29729651436867" x2="143.9624753493211" y2="136.52304410226827"/><line stroke="black" x1="155.99660196823055" y1="137.29729651436867" x2="153.46972714286684" y2="151.65525411090164"/><line stroke="black" x1="143.12344104313019" y1="151.749869363774" x2="155.99660196823055" y2="137.29729651436867"/><line stroke="black" x1="153.29528327894698" y1="122.24173267252415" x2="159.21043310389518" y2="106.18651668364022"/><line stroke="black" x1="159.21043310389518" y1="106.18651668364022" x2="166.0306132310444" y2="117.64059672902209"/><line stroke="black" x1="166.0306132310444" y1="117.64059672902209" x2="153.29528327894698" y2="122.24173267252415"/><line stroke="black" x1="159.21043310389518" y1="106.18651668364022" x2="161.26307754444994" y2="89.08739841295699"/><line stroke="black" x1="170.07886003329625" y1="98.57964252399208" x2="159.21043310389518" y2="106.18651668364022"/><line stroke="black" x1="174.83414250721822" y1="110.05133360029643" x2="166.0306132310444" y2="117.64059672902209"/><line stroke="black" x1="166.0306132310444" y1="117.64059672902209" x2="170.07886003329625" y2="98.57964252399208"/><line stroke="black" x1="173.77822753789985" y1="123.01768480416449" x2="167.55394759772108" y2="132.8471702112851"/><line stroke="black" x1="167.55394759772108" y1="132.8471702112851" x2="174.83414250721822" y2="110.05133360029643"/><line stroke="black" x1="161.42630941584048" y1="146.90822012699266" x2="173.77822753789985" y2="123.01768480416449"/><line stroke="black" x1="153.46972714286684" y1="151.65525411090164" x2="167.55394759772108" y2="132.8471702112851"/><line stroke="black" x1="167.55394759772108" y1="132.8471702112851" x2="161.42630941584048" y2="146.90822012699266"/><line stroke="black" x1="166.0306132310444" y1="117.64059672902209" x2="155.99660196823055" y2="137.29729651436867"/><line stroke="black" x1="167.55394759772108" y1="132.8471702112851" x2="166.0306132310444" y2="117.64059672902209"/><line stroke="black" x1="155.99660196823055" y1="137.29729651436867" x2="167.55394759772108" y2="132.8471702112851"/><line stroke="black" x1="123.86491553933408" y1="160.78500945436298" x2="115.8643824967492" y2="150.1791296230193"/><line stroke="black" x1="112.99246828026442" y1="170.4284811196731" x2="106.10017305058868" y2="161.17704417917636"/><line stroke="black" x1="106.10017305058868" y1="161.17704417917636" x2="123.86491553933408" y2="160.78500945436298"/><line stroke="black" x1="106.10017305058868" y1="161.17704417917636" x2="99.99999999999999" y2="148.72833534304309"/><line stroke="black" x1="115.8643824967492" y1="150.1791296230193" x2="106.10017305058868" y2="161.17704417917636"/><line stroke="black" x1="99.16121830910288" y1="175.85993227393234" x2="91.27262286631716" y2="169.26305890087644"/><line stroke="black" x1="91.27262286631716" y1="169.26305890087644" x2="112.99246828026442" y2="170.4284811196731"/><line stroke="black" x1="82.93825775029458" y1="175.39280843609407" x2="75.56502923925652" y2="170.64430112126695"/><line stroke="black" x1="75.56502923925652" y1="170.64430112126695" x2="99.16121830910288" y2="175.85993227393234"/><line stroke="black" x1="75.56502923925652" y1="170.64430112126695" x2="71.39004900500882" y2="161.6296584305861"/><line stroke="black" x1="71.39004900500882" y1="161.6296584305861" x2="91.27262286631716" y2="169.26305890087644"/><line stroke="black" x1="91.27262286631716" y1="169.26305890087644" x2="75.56502923925652" y2="170.64430112126695"/><line stroke="black" x1="71.39004900500882" y1="161.6296584305861" x2="69.8635133066371" y2="150.0798292585699"/><line stroke="black" x1="69.8635133066371" y1="150.0798292585699" x2="86.22555379884585" y2="157.14902960515784"/><line stroke="black" x1="86.22555379884585" y1="157.14902960515784" x2="71.39004900500882" y2="161.6296584305861"/><line stroke="black" x1="69.8635133066371" y1="150.0798292585699" x2="70.44028001782696" y2="137.18085174167166"/><line stroke="black" x1="84.68960171634474" y1="144.31404803166004" x2="69.8635133066371" y2="150.0798292585699"/><line stroke="black" x1="99.99999999999999" y1="148.72833534304309" x2="86.22555379884585" y2="157.14902960515784"/><line stroke="black" x1="86.22555379884585" y1="157.14902960515784" x2="84.68960171634474" y2="144.31404803166004"/><line stroke="black" x1="91.27262286631716" y1="169.26305890087644" x2="106.10017305058868" y2="161.17704417917636"/><line stroke="black" x1="86.22555379884585" y1="157.14902960515784" x2="91.27262286631716" y2="169.26305890087644"/><line stroke="black" x1="106.10017305058868" y1="161.17704417917636" x2="86.22555379884585" y2="157.14902960515784"/><line stroke="black" x1="127.72809834848724" y1="136.66525490777957" x2="143.9624753493211" y2="136.52304410226827"/><line stroke="black" x1="122.66131570712628" y1="124.32676533814812" x2="138.4640583825179" y2="124.3246777059848"/><line stroke="black" x1="138.4640583825179" y1="124.3246777059848" x2="127.72809834848724" y2="136.66525490777957"/><line stroke="black" x1="138.4640583825179" y1="124.3246777059848" x2="153.29528327894698" y2="122.24173267252415"/><line stroke="black" x1="143.9624753493211" y1="136.52304410226827" x2="138.4640583825179" y2="124.3246777059848"/><line stroke="black" x1="116.80116452058036" y1="111.77852720365897" x2="131.1136461248038" y2="109.69357327723812"/><line stroke="black" x1="131.1136461248038" y1="109.69357327723812" x2="122.66131570712628" y2="124.32676533814812"/><line stroke="black" x1="110.33790312792742" y1="99.26617057798744" x2="124.02919465253336" y2="96.65860776631632"/><line stroke="black" x1="124.02919465253336" y1="96.65860776631632" x2="116.80116452058036" y2="111.77852720365897"/><line stroke="black" x1="124.02919465253336" y1="96.65860776631632" x2="137.36137773938265" y2="94.04644060401685"/><line stroke="black" x1="137.36137773938265" y1="94.04644060401685" x2="131.1136461248038" y2="109.69357327723812"/><line stroke="black" x1="131.1136461248038" y1="109.69357327723812" x2="124.02919465253336" y2="96.65860776631632"/><line stroke="black" x1="137.36137773938265" y1="94.04644060401685" x2="149.97473482915845" y2="91.48861663404928"/><line stroke="black" x1="149.97473482915845" y1="91.48861663404928" x2="146.7392457028097" y2="107.61898816894909"/><line stroke="black" x1="146.7392457028097" y1="107.61898816894909" x2="137.36137773938265" y2="94.04644060401685"/><line stroke="black" x1="149.97473482915845" y1="91.48861663404928" x2="161.26307754444994" y2="89.08739841295699"/><line stroke="black" x1="159.21043310389518" y1="106.18651668364022" x2="149.97473482915845" y2="91.48861663404928"/><line stroke="black" x1="153.29528327894698" y1="122.24173267252415" x2="146.7392457028097" y2="107.61898816894909"/><line stroke="black" x1="146.7392457028097" y1="107.61898816894909" x2="159.21043310389518" y2="106.18651668364022"/><line stroke="black" x1="131.1136461248038" y1="109.69357327723812" x2="138.4640583825179" y2="124.3246777059848"/><line stroke="black" x1="146.7392457028097" y1="107.61898816894909" x2="131.1136461248038" y2="109.69357327723812"/><line stroke="black" x1="138.4640583825179" y1="124.3246777059848" x2="146.7392457028097" y2="107.61898816894909"/><line stroke="black" x1="57.67152939888276" y1="35.38765808632331" x2="40.55401628559113" y2="50.61360244953531"/><line stroke="black" x1="40.55401628559113" y1="50.61360244953531" x2="55.045997136040924" y2="40.55668897964523"/><line stroke="black" x1="40.55401628559113" y1="50.61360244953531" x2="28.70934379330823" y2="70.24825425734389"/><line stroke="black" x1="28.70934379330823" y1="70.24825425734389" x2="37.22352063631021" y2="60.30014272409184"/><line stroke="black" x1="37.22352063631021" y1="60.30014272409184" x2="40.55401628559113" y2="50.61360244953531"/><line stroke="black" x1="37.22352063631021" y1="60.30014272409184" x2="56.752662324332306" y2="53.574282767492775"/><line stroke="black" x1="55.045997136040924" y1="40.55668897964523" x2="37.22352063631021" y2="60.30014272409184"/><line stroke="black" x1="28.70934379330823" y1="70.24825425734389" x2="23.382390353214" y2="91.99471958753003"/><line stroke="black" x1="23.382390353214" y1="91.99471958753003" x2="25.759958039495466" y2="87.89809307244842"/><line stroke="black" x1="25.759958039495466" y1="87.89809307244842" x2="28.70934379330823" y2="70.24825425734389"/><line stroke="black" x1="23.382390353214" y1="91.99471958753003" x2="24.802241795742386" y2="113.39474294164316"/><line stroke="black" x1="24.802241795742386" y1="113.39474294164316" x2="24.607569515005878" y2="112.84036585571174"/><line stroke="black" x1="24.607569515005878" y1="112.84036585571174" x2="23.382390353214" y2="91.99471958753003"/><line stroke="black" x1="24.607569515005878" y1="112.84036585571174" x2="32.422014179799554" y2="110.7685951853262"/><line stroke="black" x1="32.422014179799554" y1="110.7685951853262" x2="25.759958039495466" y2="87.89809307244842"/><line stroke="black" x1="25.759958039495466" y1="87.89809307244842" x2="24.607569515005878" y2="112.84036585571174"/><line stroke="black" x1="32.422014179799554" y1="110.7685951853262" x2="49.95397607305375" y2="106.95917603957714"/><line stroke="black" x1="49.95397607305375" y1="106.95917603957714" x2="40.19275585734404" y2="81.36682852016072"/><line stroke="black" x1="40.19275585734404" y1="81.36682852016072" x2="32.422014179799554" y2="110.7685951853262"/><line stroke="black" x1="49.95397607305375" y1="106.95917603957714" x2="76.56693548993385" y2="101.66338105248357"/><line stroke="black" x1="63.97532367481074" y1="74.74474881907811" x2="49.95397607305375" y2="106.95917603957714"/><line stroke="black" x1="56.752662324332306" y1="53.574282767492775" x2="40.19275585734404" y2="81.36682852016072"/><line stroke="black" x1="40.19275585734404" y1="81.36682852016072" x2="63.97532367481074" y2="74.74474881907811"/><line stroke="black" x1="25.759958039495466" y1="87.89809307244842" x2="37.22352063631021" y2="60.30014272409184"/><line stroke="black" x1="40.19275585734404" y1="81.36682852016072" x2="25.759958039495466" y2="87.89809307244842"/><line stroke="black" x1="37.22352063631021" y1="60.30014272409184" x2="40.19275585734404" y2="81.36682852016072"/><line stroke="black" x1="57.67152939888276" y1="35.38765808632331" x2="52.67390006707764" y2="43.206770383278496"/><line stroke="black" x1="52.67390006707764" y1="43.206770383278496" x2="40.55401628559113" y2="50.61360244953531"/><line stroke="black" x1="52.67390006707764" y1="43.206770383278496" x2="52.03150495749922" y2="53.659295957928634"/><line stroke="black" x1="52.03150495749922" y1="53.659295957928634" x2="38.427602088575206" y2="58.98886894411905"/><line stroke="black" x1="38.427602088575206" y1="58.98886894411905" x2="52.67390006707764" y2="43.206770383278496"/><line stroke="black" x1="38.427602088575206" y1="58.98886894411905" x2="28.70934379330823" y2="70.24825425734389"/><line stroke="black" x1="40.55401628559113" y1="50.61360244953531" x2="38.427602088575206" y2="58.98886894411905"/><line stroke="black" x1="52.03150495749922" y1="53.659295957928634" x2="54.67225173490946" y2="65.38545105997423"/><line stroke="black" x1="54.67225173490946" y1="65.38545105997423" x2="41.267201309858415" y2="71.44199111725479"/><line stroke="black" x1="41.267201309858415" y1="71.44199111725479" x2="52.03150495749922" y2="53.659295957928634"/><line stroke="black" x1="54.67225173490946" y1="65.38545105997423" x2="59.71676377095175" y2="77.52008708094004"/><line stroke="black" x1="59.71676377095175" y1="77.52008708094004" x2="46.95510317021182" y2="83.45079901695559"/><line stroke="black" x1="46.95510317021182" y1="83.45079901695559" x2="54.67225173490946" y2="65.38545105997423"/><line stroke="black" x1="46.95510317021182" y1="83.45079901695559" x2="36.076451377793575" y2="91.41412073967987"/><line stroke="black" x1="36.076451377793575" y1="91.41412073967987" x2="41.267201309858415" y2="71.44199111725479"/><line stroke="black" x1="41.267201309858415" y1="71.44199111725479" x2="46.95510317021182" y2="83.45079901695559"/><line stroke="black" x1="36.076451377793575" y1="91.41412073967987" x2="28.189124727217795" y2="101.4554619396478"/><line stroke="black" x1="28.189124727217795" y1="101.4554619396478" x2="29.23646901954723" y2="81.09496713622929"/><line stroke="black" x1="29.23646901954723" y1="81.09496713622929" x2="36.076451377793575" y2="91.41412073967987"/><line stroke="black" x1="28.189124727217795" y1="101.4554619396478" x2="24.802241795742386" y2="113.39474294164316"/><line stroke="black" x1="23.382390353214" y1="91.99471958753003" x2="28.189124727217795" y2="101.4554619396478"/><line stroke="black" x1="28.70934379330823" y1="70.24825425734389" x2="29.23646901954723" y2="81.09496713622929"/><line stroke="black" x1="29.23646901954723" y1="81.09496713622929" x2="23.382390353214" y2="91.99471958753003"/><line stroke="black" x1="41.267201309858415" y1="71.44199111725479" x2="38.427602088575206" y2="58.98886894411905"/><line stroke="black" x1="29.23646901954723" y1="81.09496713622929" x2="41.267201309858415" y2="71.44199111725479"/><line stroke="black" x1="38.427602088575206" y1="58.98886894411905" x2="29.23646901954723" y2="81.09496713622929"/><line stroke="black" x1="72.54730628337383" y1="30.076758731348264" x2="52.67390006707764" y2="43.206770383278496"/><line stroke="black" x1="87.24235259382753" y1="30.84441615748338" x2="67.72064667154409" y2="39.63763167887058"/><line stroke="black" x1="67.72064667154409" y1="39.63763167887058" x2="72.54730628337383" y2="30.076758731348264"/><line stroke="black" x1="67.72064667154409" y1="39.63763167887058" x2="52.03150495749922" y2="53.659295957928634"/><line stroke="black" x1="52.67390006707764" y1="43.206770383278496" x2="67.72064667154409" y2="39.63763167887058"/><line stroke="black" x1="100.70386569100076" y1="36.34195377803883" x2="84.27537229536095" y2="42.438304685725114"/><line stroke="black" x1="84.27537229536095" y1="42.438304685725114" x2="87.24235259382753" y2="30.84441615748338"/><line stroke="black" x1="112.37692747552475" y1="45.30855591809336" x2="97.19939388050503" y2="49.46981179395783"/><line stroke="black" x1="97.19939388050503" y1="49.46981179395783" x2="100.70386569100076" y2="36.34195377803883"/><line stroke="black" x1="97.19939388050503" y1="49.46981179395783" x2="83.09471080408458" y2="56.50605271892658"/><line stroke="black" x1="83.09471080408458" y1="56.50605271892658" x2="84.27537229536095" y2="42.438304685725114"/><line stroke="black" x1="84.27537229536095" y1="42.438304685725114" x2="97.19939388050503" y2="49.46981179395783"/><line stroke="black" x1="83.09471080408458" y1="56.50605271892658" x2="70.47766278817191" y2="65.9795149468961"/><line stroke="black" x1="70.47766278817191" y1="65.9795149468961" x2="67.37523692602379" y2="53.189391853811685"/><line stroke="black" x1="67.37523692602379" y1="53.189391853811685" x2="83.09471080408458" y2="56.50605271892658"/><line stroke="black" x1="70.47766278817191" y1="65.9795149468961" x2="59.71676377095175" y2="77.52008708094004"/><line stroke="black" x1="54.67225173490946" y1="65.38545105997423" x2="70.47766278817191" y2="65.9795149468961"/><line stroke="black" x1="52.03150495749922" y1="53.659295957928634" x2="67.37523692602379" y2="53.189391853811685"/><line stroke="black" x1="67.37523692602379" y1="53.189391853811685" x2="54.67225173490946" y2="65.38545105997423"/><line stroke="black" x1="84.27537229536095" y1="42.438304685725114" x2="67.72064667154409" y2="39.63763167887058"/><line stroke="black" x1="67.37523692602379" y1="53.189391853811685" x2="84.27537229536095" y2="42.438304685725114"/><line stroke="black" x1="67.72064667154409" y1="39.63763167887058" x2="67.37523692602379" y2="53.189391853811685"/><line stroke="black" x1="70.44028001782696" y1="137.18085174167166" x2="56.25959764697372" y2="135.74360174914963"/><line stroke="black" x1="56.25959764697372" y1="135.74360174914963" x2="64.15170377505177" y2="123.14956050544951"/><line stroke="black" x1="64.15170377505177" y1="123.14956050544951" x2="70.44028001782696" y2="137.18085174167166"/><line stroke="black" x1="56.25959764697372" y1="135.74360174914963" x2="43.15597411405" y2="131.56518268221964"/><line stroke="black" x1="43.15597411405" y1="131.56518268221964" x2="50.3451736109246" y2="119.73451374185542"/><line stroke="black" x1="50.3451736109246" y1="119.73451374185542" x2="56.25959764697372" y2="135.74360174914963"/><line stroke="black" x1="50.3451736109246" y1="119.73451374185542" x2="60.23339043716531" y2="108.23309106210442"/><line stroke="black" x1="60.23339043716531" y1="108.23309106210442" x2="64.15170377505177" y2="123.14956050544951"/><line stroke="black" x1="64.15170377505177" y1="123.14956050544951" x2="50.3451736109246" y2="119.73451374185542"/><line stroke="black" x1="43.15597411405" y1="131.56518268221964" x2="32.174775086757634" y2="124.22274955102516"/><line stroke="black" x1="32.174775086757634" y1="124.22274955102516" x2="36.72843668997052" y2="111.98218857996098"/><line stroke="black" x1="36.72843668997052" y1="111.98218857996098" x2="43.15597411405" y2="131.56518268221964"/><line stroke="black" x1="32.174775086757634" y1="124.22274955102516" x2="24.802241795742386" y2="113.39474294164316"/><line stroke="black" x1="28.189124727217795" y1="101.4554619396478" x2="32.174775086757634" y2="124.22274955102516"/><line stroke="black" x1="36.076451377793575" y1="91.41412073967987" x2="36.72843668997052" y2="111.98218857996098"/><line stroke="black" x1="36.72843668997052" y1="111.98218857996098" x2="28.189124727217795" y2="101.4554619396478"/><line stroke="black" x1="46.95510317021182" y1="83.45079901695559" x2="46.93695701142112" y2="100.53665566931961"/><line stroke="black" x1="46.93695701142112" y1="100.53665566931961" x2="36.076451377793575" y2="91.41412073967987"/><line stroke="black" x1="59.71676377095175" y1="77.52008708094004" x2="58.72577892439052" y2="92.87954444961919"/><line stroke="black" x1="58.72577892439052" y1="92.87954444961919" x2="46.95510317021182" y2="83.45079901695559"/><line stroke="black" x1="58.72577892439052" y1="92.87954444961919" x2="60.23339043716531" y2="108.23309106210442"/><line stroke="black" x1="60.23339043716531" y1="108.23309106210442" x2="46.93695701142112" y2="100.53665566931961"/><line stroke="black" x1="46.93695701142112" y1="100.53665566931961" x2="58.72577892439052" y2="92.87954444961919"/><line stroke="black" x1="36.72843668997052" y1="111.98218857996098" x2="50.3451736109246" y2="119.73451374185542"/><line stroke="black" x1="46.93695701142112" y1="100.53665566931961" x2="36.72843668997052" y2="111.98218857996098"/><line stroke="black" x1="50.3451736109246" y1="119.73451374185542" x2="46.93695701142112" y2="100.53665566931961"/><line stroke="black" x1="64.15170377505177" y1="123.14956050544951" x2="80.4377408461767" y2="128.5914072038563"/><line stroke="black" x1="60.23339043716531" y1="108.23309106210442" x2="74.97004024466254" y2="114.4675508921911"/><line stroke="black" x1="74.97004024466254" y1="114.4675508921911" x2="64.15170377505177" y2="123.14956050544951"/><line stroke="black" x1="74.97004024466254" y1="114.4675508921911" x2="90.54035784073659" y2="119.25247145449056"/><line stroke="black" x1="80.4377408461767" y1="128.5914072038563" x2="74.97004024466254" y2="114.4675508921911"/><line stroke="black" x1="58.72577892439052" y1="92.87954444961919" x2="71.89350496195722" y2="97.45741150279312"/><line stroke="black" x1="71.89350496195722" y1="97.45741150279312" x2="60.23339043716531" y2="108.23309106210442"/><line stroke="black" x1="59.71676377095175" y1="77.52008708094004" x2="72.04803564586595" y2="82.30185892620699"/><line stroke="black" x1="72.04803564586595" y1="82.30185892620699" x2="58.72577892439052" y2="92.87954444961919"/><line stroke="black" x1="72.04803564586595" y1="82.30185892620699" x2="84.75710212494772" y2="87.61220457938916"/><line stroke="black" x1="84.75710212494772" y1="87.61220457938916" x2="71.89350496195722" y2="97.45741150279312"/><line stroke="black" x1="71.89350496195722" y1="97.45741150279312" x2="72.04803564586595" y2="82.30185892620699"/><line stroke="black" x1="84.75710212494772" y1="87.61220457938916" x2="97.57899157014943" y2="93.2988112800703"/><line stroke="black" x1="97.57899157014943" y1="93.2988112800703" x2="87.18276032403632" y2="103.52619896676339"/><line stroke="black" x1="87.18276032403632" y1="103.52619896676339" x2="84.75710212494772" y2="87.61220457938916"/><line stroke="black" x1="97.57899157014943" y1="93.2988112800703" x2="110.33790312792742" y2="99.26617057798744"/><line stroke="black" x1="100.55099646073604" y1="109.42274954521754" x2="97.57899157014943" y2="93.2988112800703"/><line stroke="black" x1="90.54035784073659" y1="119.25247145449056" x2="87.18276032403632" y2="103.52619896676339"/><line stroke="black" x1="87.18276032403632" y1="103.52619896676339" x2="100.55099646073604" y2="109.42274954521754"/><line stroke="black" x1="71.89350496195722" y1="97.45741150279312" x2="74.97004024466254" y2="114.4675508921911"/><line stroke="black" x1="87.18276032403632" y1="103.52619896676339" x2="71.89350496195722" y2="97.45741150279312"/><line stroke="black" x1="74.97004024466254" y1="114.4675508921911" x2="87.18276032403632" y2="103.52619896676339"/><line stroke="black" x1="69.8635133066371" y1="150.0798292585699" x2="56.25959764697372" y2="135.74360174914963"/><line stroke="black" x1="71.39004900500882" y1="161.6296584305861" x2="54.962072713787876" y2="148.61145260298557"/><line stroke="black" x1="54.962072713787876" y1="148.61145260298557" x2="69.8635133066371" y2="150.0798292585699"/><line stroke="black" x1="54.962072713787876" y1="148.61145260298557" x2="43.15597411405" y2="131.56518268221964"/><line stroke="black" x1="56.25959764697372" y1="135.74360174914963" x2="54.962072713787876" y2="148.61145260298557"/><line stroke="black" x1="75.56502923925652" y1="170.64430112126695" x2="56.45556559295453" y2="160.6223153614034"/><line stroke="black" x1="56.45556559295453" y1="160.6223153614034" x2="71.39004900500882" y2="161.6296584305861"/><line stroke="black" x1="82.93825775029458" y1="175.39280843609407" x2="61.22966234521484" y2="166.86214110938687"/><line stroke="black" x1="61.22966234521484" y1="166.86214110938687" x2="75.56502923925652" y2="170.64430112126695"/><line stroke="black" x1="61.22966234521484" y1="166.86214110938687" x2="43.15086565718692" y2="152.3745362640832"/><line stroke="black" x1="43.15086565718692" y1="152.3745362640832" x2="56.45556559295453" y2="160.6223153614034"/><line stroke="black" x1="56.45556559295453" y1="160.6223153614034" x2="61.22966234521484" y2="166.86214110938687"/><line stroke="black" x1="43.15086565718692" y1="152.3745362640832" x2="30.68084734421188" y2="133.7841795897114"/><line stroke="black" x1="30.68084734421188" y1="133.7841795897114" x2="40.09889488801338" y2="142.93116786603278"/><line stroke="black" x1="40.09889488801338" y1="142.93116786603278" x2="43.15086565718692" y2="152.3745362640832"/><line stroke="black" x1="30.68084734421188" y1="133.7841795897114" x2="24.802241795742386" y2="113.39474294164316"/><line stroke="black" x1="32.174775086757634" y1="124.22274955102516" x2="30.68084734421188" y2="133.7841795897114"/><line stroke="black" x1="43.15597411405" y1="131.56518268221964" x2="40.09889488801338" y2="142.93116786603278"/><line stroke="black" x1="40.09889488801338" y1="142.93116786603278" x2="32.174775086757634" y2="124.22274955102516"/><line stroke="black" x1="56.45556559295453" y1="160.6223153614034" x2="54.962072713787876" y2="148.61145260298557"/><line stroke="black" x1="40.09889488801338" y1="142.93116786603278" x2="56.45556559295453" y2="160.6223153614034"/><line stroke="black" x1="54.962072713787876" y1="148.61145260298557" x2="40.09889488801338" y2="142.93116786603278"/><line stroke="black" x1="153.43986838738903" y1="133.8361310748117" x2="148.50689713429952" y2="155.89761261410985"/><line stroke="black" x1="132.88553144731893" y1="126.72583908957363" x2="131.96468257634825" y2="154.10812171244947"/><line stroke="black" x1="131.96468257634825" y1="154.10812171244947" x2="153.43986838738903" y2="133.8361310748117"/><line stroke="black" x1="131.96468257634825" y1="154.10812171244947" x2="127.12986502245592" y2="169.79974760292416"/><line stroke="black" x1="148.50689713429952" y1="155.89761261410985" x2="131.96468257634825" y2="154.10812171244947"/><line stroke="black" x1="105.54404894630981" y1="115.3455551016163" x2="103.2659728854876" y2="145.1289270435811"/><line stroke="black" x1="103.2659728854876" y1="145.1289270435811" x2="132.88553144731893" y2="126.72583908957363"/><line stroke="black" x1="76.56693548993385" y1="101.66338105248357" x2="74.30377275234461" y2="132.00882607600977"/><line stroke="black" x1="74.30377275234461" y1="132.00882607600977" x2="105.54404894630981" y2="115.3455551016163"/><line stroke="black" x1="74.30377275234461" y1="132.00882607600977" x2="75.14453677937321" y2="155.798113085791"/><line stroke="black" x1="75.14453677937321" y1="155.798113085791" x2="103.2659728854876" y2="145.1289270435811"/><line stroke="black" x1="103.2659728854876" y1="145.1289270435811" x2="74.30377275234461" y2="132.00882607600977"/><line stroke="black" x1="75.14453677937321" y1="155.798113085791" x2="78.37424334209312" y2="170.15707429422528"/><line stroke="black" x1="78.37424334209312" y1="170.15707429422528" x2="102.94049757442679" y2="167.82106922745322"/><line stroke="black" x1="102.94049757442679" y1="167.82106922745322" x2="75.14453677937321" y2="155.798113085791"/><line stroke="black" x1="78.37424334209312" y1="170.15707429422528" x2="82.93825775029458" y2="175.39280843609407"/><line stroke="black" x1="104.23085142173764" y1="176.33551791665587" x2="78.37424334209312" y2="170.15707429422528"/><line stroke="black" x1="127.12986502245592" y1="169.79974760292416" x2="102.94049757442679" y2="167.82106922745322"/><line stroke="black" x1="102.94049757442679" y1="167.82106922745322" x2="104.23085142173764" y2="176.33551791665587"/><line stroke="black" x1="103.2659728854876" y1="145.1289270435811" x2="131.96468257634825" y2="154.10812171244947"/><line stroke="black" x1="102.94049757442679" y1="167.82106922745322" x2="103.2659728854876" y2="145.1289270435811"/><line stroke="black" x1="131.96468257634825" y1="154.10812171244947" x2="102.94049757442679" y2="167.82106922745322"/><line stroke="black" x1="149.97473482915845" y1="91.48861663404928" x2="153.05598559318395" y2="74.14202457883623"/><line stroke="black" x1="137.36137773938265" y1="94.04644060401685" x2="141.06416682826685" y2="77.8121972511586"/><line stroke="black" x1="141.06416682826685" y1="77.8121972511586" x2="149.97473482915845" y2="91.48861663404928"/><line stroke="black" x1="141.06416682826685" y1="77.8121972511586" x2="141.7137524295534" y2="61.569539016053085"/><line stroke="black" x1="153.05598559318395" y1="74.14202457883623" x2="141.06416682826685" y2="77.8121972511586"/><line stroke="black" x1="124.02919465253336" y1="96.65860776631632" x2="125.87469422575262" y2="81.87189686547312"/><line stroke="black" x1="125.87469422575262" y1="81.87189686547312" x2="137.36137773938265" y2="94.04644060401685"/><line stroke="black" x1="110.33790312792742" y1="99.26617057798744" x2="111.85369080157031" y2="85.2343021576881"/><line stroke="black" x1="111.85369080157031" y1="85.2343021576881" x2="124.02919465253336" y2="96.65860776631632"/><line stroke="black" x1="111.85369080157031" y1="85.2343021576881" x2="112.76269497545603" y2="71.34898307069273"/><line stroke="black" x1="112.76269497545603" y1="71.34898307069273" x2="125.87469422575262" y2="81.87189686547312"/><line stroke="black" x1="125.87469422575262" y1="81.87189686547312" x2="111.85369080157031" y2="85.2343021576881"/><line stroke="black" x1="112.76269497545603" y1="71.34898307069273" x2="112.98078011792131" y2="57.88847671154028"/><line stroke="black" x1="112.98078011792131" y1="57.88847671154028" x2="127.33742796228795" y2="65.423469663287"/><line stroke="black" x1="127.33742796228795" y1="65.423469663287" x2="112.76269497545603" y2="71.34898307069273"/><line stroke="black" x1="112.98078011792131" y1="57.88847671154028" x2="112.37692747552475" y2="45.30855591809336"/><line stroke="black" x1="127.92926607347877" y1="51.83404008718847" x2="112.98078011792131" y2="57.88847671154028"/><line stroke="black" x1="141.7137524295534" y1="61.569539016053085" x2="127.33742796228795" y2="65.423469663287"/><line stroke="black" x1="127.33742796228795" y1="65.423469663287" x2="127.92926607347877" y2="51.83404008718847"/><line stroke="black" x1="125.87469422575262" y1="81.87189686547312" x2="141.06416682826685" y2="77.8121972511586"/><line stroke="black" x1="127.33742796228795" y1="65.423469663287" x2="125.87469422575262" y2="81.87189686547312"/><line stroke="black" x1="141.06416682826685" y1="77.8121972511586" x2="127.33742796228795" y2="65.423469663287"/><line stroke="black" x1="30.68084734421188" y1="133.7841795897114" x2="24.607569515005878" y2="112.84036585571174"/><line stroke="black" x1="43.15086565718692" y1="152.3745362640832" x2="34.1105688122177" y2="135.60139691965043"/><line stroke="black" x1="34.1105688122177" y1="135.60139691965043" x2="30.68084734421188" y2="133.7841795897114"/><line stroke="black" x1="34.1105688122177" y1="135.60139691965043" x2="32.422014179799554" y2="110.7685951853262"/><line stroke="black" x1="24.607569515005878" y1="112.84036585571174" x2="34.1105688122177" y2="135.60139691965043"/><line stroke="black" x1="61.22966234521484" y1="166.86214110938687" x2="54.46350192806504" y2="157.59481503468245"/><line stroke="black" x1="54.46350192806504" y1="157.59481503468245" x2="43.15086565718692" y2="152.3745362640832"/><line stroke="black" x1="78.37424334209312" y1="170.15707429422528" x2="61.22966234521484" y2="166.86214110938687"/><line stroke="black" x1="75.14453677937321" y1="155.798113085791" x2="54.46350192806504" y2="157.59481503468245"/><line stroke="black" x1="54.46350192806504" y1="157.59481503468245" x2="78.37424334209312" y2="170.15707429422528"/><line stroke="black" x1="74.30377275234461" y1="132.00882607600977" x2="49.72977913239595" y2="135.21988474655546"/><line stroke="black" x1="49.72977913239595" y1="135.21988474655546" x2="75.14453677937321" y2="155.798113085791"/><line stroke="black" x1="49.95397607305375" y1="106.95917603957714" x2="74.30377275234461" y2="132.00882607600977"/><line stroke="black" x1="32.422014179799554" y1="110.7685951853262" x2="49.72977913239595" y2="135.21988474655546"/><line stroke="black" x1="49.72977913239595" y1="135.21988474655546" x2="49.95397607305375" y2="106.95917603957714"/><line stroke="black" x1="54.46350192806504" y1="157.59481503468245" x2="34.1105688122177" y2="135.60139691965043"/><line stroke="black" x1="49.72977913239595" y1="135.21988474655546" x2="54.46350192806504" y2="157.59481503468245"/><line stroke="black" x1="34.1105688122177" y1="135.60139691965043" x2="49.72977913239595" y2="135.21988474655546"/><line stroke="black" x1="70.47766278817191" y1="65.9795149468961" x2="72.04803564586595" y2="82.30185892620699"/><line stroke="black" x1="83.09471080408458" y1="56.50605271892658" x2="83.34141347573755" y2="71.80122702425606"/><line stroke="black" x1="83.34141347573755" y1="71.80122702425606" x2="70.47766278817191" y2="65.9795149468961"/><line stroke="black" x1="83.34141347573755" y1="71.80122702425606" x2="84.75710212494772" y2="87.61220457938916"/><line stroke="black" x1="72.04803564586595" y1="82.30185892620699" x2="83.34141347573755" y2="71.80122702425606"/><line stroke="black" x1="97.19939388050503" y1="49.46981179395783" x2="98.3853725087801" y2="62.75944458824469"/><line stroke="black" x1="98.3853725087801" y1="62.75944458824469" x2="83.09471080408458" y2="56.50605271892658"/><line stroke="black" x1="112.98078011792131" y1="57.88847671154028" x2="97.19939388050503" y2="49.46981179395783"/><line stroke="black" x1="112.76269497545603" y1="71.34898307069273" x2="98.3853725087801" y2="62.75944458824469"/><line stroke="black" x1="98.3853725087801" y1="62.75944458824469" x2="112.98078011792131" y2="57.88847671154028"/><line stroke="black" x1="111.85369080157031" y1="85.2343021576881" x2="98.46914310156238" y2="78.84675356897843"/><line stroke="black" x1="98.46914310156238" y1="78.84675356897843" x2="112.76269497545603" y2="71.34898307069273"/><line stroke="black" x1="97.57899157014943" y1="93.2988112800703" x2="111.85369080157031" y2="85.2343021576881"/><line stroke="black" x1="84.75710212494772" y1="87.61220457938916" x2="98.46914310156238" y2="78.84675356897843"/><line stroke="black" x1="98.46914310156238" y1="78.84675356897843" x2="97.57899157014943" y2="93.2988112800703"/><line stroke="black" x1="98.3853725087801" y1="62.75944458824469" x2="83.34141347573755" y2="71.80122702425606"/><line stroke="black" x1="98.46914310156238" y1="78.84675356897843" x2="98.3853725087801" y2="62.75944458824469"/><line stroke="black" x1="83.34141347573755" y1="71.80122702425606" x2="98.46914310156238" y2="78.84675356897843"/></svg>