# Alias OBJ Model File
# Exported from SketchUp, (c) 2000-2012 Trimble Navigation Limited
# File units = meters

mtllib meshesobj.mtl

g Mesh1 Model

usemtl M_0020_Red
v -3.0388 0 0.97046
vt 119.638 -38.2071
vn 0 -1 -0
v -3.18643 0 0.150893
vt 125.45 -5.94068
v -3.11691 0 -0.678957
vt 122.713 26.7306
v -2.83498 0 -1.46254
vt 111.613 57.5802
v -2.35984 0 -2.14645
vt 92.9072 84.5058
v -1.72389 0 -2.68408
vt 67.8698 105.673
v -0.97046 0 -3.0388
vt 38.2071 119.638
v -0.150893 0 -3.18643
vt 5.94068 125.45
v 0.678957 0 -3.11691
vt -26.7306 122.713
v 1.46254 0 -2.83498
vt -57.5802 111.613
v 2.14645 0 -2.35984
vt -84.5058 92.9072
v 2.68408 0 -1.72389
vt -105.673 67.8698
v 3.0388 0 -0.97046
vt -119.638 38.2071
v 3.18643 0 -0.150893
vt -125.45 5.94068
v 3.11691 0 0.678957
vt -122.713 -26.7306
v 2.83498 0 1.46254
vt -111.613 -57.5802
v 2.35984 0 2.14645
vt -92.9072 -84.5058
v 1.72389 0 2.68408
vt -67.8698 -105.673
v 0.97046 0 3.0388
vt -38.2071 -119.638
v 0.150893 0 3.18643
vt -5.94068 -125.45
v -0.678957 0 3.11691
vt 26.7306 -122.713
v -1.46254 0 2.83498
vt 57.5802 -111.613
v -2.14645 0 2.35984
vt 84.5058 -92.9072
v -2.68408 0 1.72389
vt 105.673 -67.8698
f 1/1/1 2/2/1 3/3/1 4/4/1 5/5/1 6/6/1 7/7/1 8/8/1 9/9/1 10/10/1 11/11/1 12/12/1 13/13/1 14/14/1 15/15/1 16/16/1 17/17/1 18/18/1 19/19/1 20/20/1 21/21/1 22/22/1 23/23/1 24/24/1 

usemtl M_0076_Green
vt -16.3929 0
vn -0.998881 0 0.047302
vt 16.3929 0
vn -0.952602 0 0.30422
v -3.0388 4.84 0.97046
vt 16.3929 190.551
v -3.18643 4.84 0.150893
vt -16.3929 190.551
f 2/25/2 1/26/3 25/27/3 26/28/2 

vn -0.841405 0 0.540405
v -2.68408 4.84 1.72389
f 1/25/3 24/26/4 27/27/4 25/28/3 

vn -0.672868 0 0.739763
v -2.14645 4.84 2.35984
f 24/25/4 23/26/5 28/27/5 27/28/4 

vn -0.458476 0 0.888707
v -1.46254 4.84 2.83498
f 23/25/5 22/26/6 29/27/6 28/28/5 

vn -0.212839 0 0.977087
v -0.678957 4.84 3.11691
f 22/25/6 21/26/7 30/27/7 29/28/6 

vn 0.047302 0 0.998881
v 0.150893 4.84 3.18643
f 21/25/7 20/26/8 31/27/8 30/28/7 

vn 0.30422 0 0.952602
v 0.97046 4.84 3.0388
f 20/25/8 19/26/9 32/27/9 31/28/8 

vn 0.540405 0 0.841405
v 1.72389 4.84 2.68408
f 19/25/9 18/26/10 33/27/10 32/28/9 

vn 0.739763 0 0.672868
v 2.35984 4.84 2.14645
f 18/25/10 17/26/11 34/27/11 33/28/10 

vn 0.888707 0 0.458476
v 2.83498 4.84 1.46254
f 17/25/11 16/26/12 35/27/12 34/28/11 

vn 0.977087 0 0.212839
v 3.11691 4.84 0.678957
f 16/25/12 15/26/13 36/27/13 35/28/12 

vn 0.998881 0 -0.047302
v 3.18643 4.84 -0.150893
f 15/25/13 14/26/14 37/27/14 36/28/13 

vn 0.952602 0 -0.30422
v 3.0388 4.84 -0.97046
f 14/25/14 13/26/15 38/27/15 37/28/14 

vn 0.841405 0 -0.540405
v 2.68408 4.84 -1.72389
f 13/25/15 12/26/16 39/27/16 38/28/15 

vn 0.672868 0 -0.739763
v 2.14645 4.84 -2.35984
f 12/25/16 11/26/17 40/27/17 39/28/16 

vn 0.458476 0 -0.888707
v 1.46254 4.84 -2.83498
f 11/25/17 10/26/18 41/27/18 40/28/17 

vn 0.212839 0 -0.977087
v 0.678957 4.84 -3.11691
f 10/25/18 9/26/19 42/27/19 41/28/18 

vn -0.047302 0 -0.998881
v -0.150893 4.84 -3.18643
f 9/25/19 8/26/20 43/27/20 42/28/19 

vn -0.30422 0 -0.952602
v -0.97046 4.84 -3.0388
f 8/25/20 7/26/21 44/27/21 43/28/20 

vn -0.540405 0 -0.841405
v -1.72389 4.84 -2.68408
f 7/25/21 6/26/22 45/27/22 44/28/21 

vn -0.739763 0 -0.672868
v -2.35984 4.84 -2.14645
f 6/25/22 5/26/23 46/27/23 45/28/22 

vn -0.888707 0 -0.458476
v -2.83498 4.84 -1.46254
f 5/25/23 4/26/24 47/27/24 46/28/23 

vn -0.977087 0 -0.212839
v -3.11691 4.84 -0.678957
f 4/25/24 3/26/25 48/27/25 47/28/24 

f 3/25/25 2/26/2 26/27/2 48/28/25 

usemtl M_0020_Red
vt -125.45 -5.94068
vn 0 1 -0
vt -119.638 -38.2071
vt -105.673 -67.8698
vt -84.5058 -92.9072
vt -57.5802 -111.613
vt -26.7306 -122.713
vt 5.94068 -125.45
vt 38.2071 -119.638
vt 67.8698 -105.673
vt 92.9072 -84.5058
vt 111.613 -57.5802
vt 122.713 -26.7306
vt 125.45 5.94068
vt 119.638 38.2071
vt 105.673 67.8698
vt 84.5058 92.9072
vt 57.5802 111.613
vt 26.7306 122.713
vt -5.94068 125.45
vt -38.2071 119.638
vt -67.8698 105.673
vt -92.9072 84.5058
vt -111.613 57.5802
vt -122.713 26.7306
f 26/29/26 25/30/26 27/31/26 28/32/26 29/33/26 30/34/26 31/35/26 32/36/26 33/37/26 34/38/26 35/39/26 36/40/26 37/41/26 38/42/26 39/43/26 40/44/26 41/45/26 42/46/26 43/47/26 44/48/26 45/49/26 46/50/26 47/51/26 48/52/26 

g Mesh2 Model

v 6.07285 0 -1.97625
vt -239.089 77.805
v -0.400154 0 -10.5589
vt 15.7541 415.706
v 0.535249 0 -10.2894
vt -21.0728 405.095
v 1.43275 0 -9.91243
vt -56.4076 390.253
v 2.28007 0 -9.43317
vt -89.7664 371.384
v 3.06558 0 -8.85819
vt -120.692 348.748
v 3.77854 0 -8.19538
vt -148.761 322.653
v 4.40918 0 -7.45381
vt -173.59 293.457
v 4.94885 0 -6.64364
vt -194.837 261.561
v 5.39018 0 -5.77596
vt -212.212 227.4
v 5.7271 0 -4.86267
vt -225.476 191.444
v 5.95501 0 -3.91626
vt -234.449 154.183
v 6.07079 0 -2.94971
vt -239.008 116.13
f 49/53/1 50/54/1 51/55/1 52/56/1 53/57/1 54/58/1 55/59/1 56/60/1 57/61/1 58/62/1 59/63/1 60/64/1 61/65/1 

usemtl M_0103_Blue
vt -341.382 0
vn -0.798391 0 0.60214
vt 81.846 0
v 6.07285 5.16 -1.97625
vt 81.846 203.15
v -0.400154 5.16 -10.5589
vt -341.382 203.15
f 50/66/27 49/67/27 62/68/27 63/69/27 

usemtl M_0076_Green
vt 77.2994 0
vn 0.999998 0 -0.00211381
vt 115.625 0
vn 0.99816 0 -0.060628
v 6.07079 5.16 -2.94971
vt 115.625 203.15
vt 77.2994 203.15
f 49/70/28 61/71/29 64/72/29 62/73/28 

vt 86.8797 0
vt 125.205 0
vn 0.984241 0 -0.176833
v 5.95501 5.16 -3.91626
vt 125.205 203.15
vt 86.8797 203.15
f 61/74/29 60/75/30 65/76/30 64/77/29 

vt 95.0075 0
vt 133.333 0
vn 0.95684 0 -0.290616
v 5.7271 5.16 -4.86267
vt 133.333 203.15
vt 95.0075 203.15
f 60/78/30 59/79/31 66/80/31 65/81/30 

vt 101.571 0
vt 139.897 0
vn 0.916332 0 -0.400418
v 5.39018 5.16 -5.77596
vt 139.897 203.15
vt 101.571 203.15
f 59/82/31 58/83/32 67/84/32 66/85/31 

vt 106.482 0
vt 144.807 0
vn 0.863274 0 -0.504736
v 4.94885 5.16 -6.64364
vt 144.807 203.15
vt 106.482 203.15
f 58/86/32 57/87/33 68/88/33 67/89/32 

vt 109.671 0
vt 147.996 0
vn 0.798391 0 -0.60214
v 4.40918 5.16 -7.45381
vt 147.996 203.15
vt 109.671 203.15
f 57/90/33 56/91/34 69/92/34 68/93/33 

vt 111.095 0
vt 149.421 0
vn 0.722571 0 -0.691296
v 3.77854 5.16 -8.19538
vt 149.421 203.15
vt 111.095 203.15
f 56/94/34 55/95/35 70/96/35 69/97/34 

vt 110.736 0
vt 149.061 0
vn 0.636855 0 -0.770984
v 3.06558 5.16 -8.85819
vt 149.061 203.15
vt 110.736 203.15
f 55/98/35 54/99/36 71/100/36 70/101/35 

vt 108.597 0
vt 146.922 0
vn 0.542415 0 -0.84011
v 2.28007 5.16 -9.43317
vt 146.922 203.15
vt 108.597 203.15
f 54/102/36 53/103/37 72/104/37 71/105/36 

vt 104.708 0
vt 143.033 0
vn 0.440546 0 -0.89773
v 1.43275 5.16 -9.91243
vt 143.033 203.15
vt 104.708 203.15
f 53/106/37 52/107/38 73/108/38 72/109/37 

vt 99.1223 0
vt 137.448 0
vn 0.332642 0 -0.943053
v 0.535249 5.16 -10.2894
vt 137.448 203.15
vt 99.1223 203.15
f 52/110/38 51/111/39 74/112/39 73/113/38 

vt 91.9165 0
vt 130.242 0
vn 0.276887 0 -0.960903
vt 130.242 203.15
vt 91.9165 203.15
f 51/114/39 50/115/40 63/116/40 74/117/39 

usemtl M_0020_Red
vt -15.7541 415.706
vt 239.089 77.805
vt 239.008 116.13
vt 234.449 154.183
vt 225.476 191.444
vt 212.212 227.4
vt 194.837 261.561
vt 173.59 293.457
vt 148.761 322.653
vt 120.692 348.748
vt 89.7664 371.384
vt 56.4076 390.253
vt 21.0728 405.095
f 63/118/26 62/119/26 64/120/26 65/121/26 66/122/26 67/123/26 68/124/26 69/125/26 70/126/26 71/127/26 72/128/26 73/129/26 74/130/26 

g Mesh3 Model

v -10.7091 0 -2.38859
vt 421.618 94.0392
v -10.7091 0 -6.13859
vt 421.618 241.677
v -7.4615 0 -8.01359
vt 293.76 315.496
v -4.2139 0 -6.13859
vt 165.902 241.677
v -4.2139 0 -2.38859
vt 165.902 94.0392
v -7.4615 0 -0.513594
vt 293.76 20.2203
f 75/131/1 76/132/1 77/133/1 78/134/1 79/135/1 80/136/1 

usemtl M_0103_Blue
vt -241.677 0
vn -1 0 -3.85019e-016
vt -94.0392 0
v -10.7091 4.14 -2.38859
vt -94.0392 162.992
v -10.7091 4.14 -6.13859
vt -241.677 162.992
f 76/137/41 75/138/41 81/139/41 82/140/41 

vt -412.151 0
vn -0.5 0 0.866025
vt -264.514 0
v -7.4615 4.14 -0.513594
vt -264.514 162.992
vt -412.151 162.992
f 75/141/42 80/142/42 83/143/42 81/144/42 

vt -244.293 0
vn 0.5 0 0.866025
vt -96.6555 0
v -4.2139 4.14 -2.38859
vt -96.6555 162.992
vt -244.293 162.992
f 80/145/43 79/146/43 84/147/43 83/148/43 

vt 94.0392 0
vn 1 0 5.77529e-016
vt 241.677 0
v -4.2139 4.14 -6.13859
vt 241.677 162.992
vt 94.0392 162.992
f 79/149/44 78/150/44 85/151/44 84/152/44 

vt 264.514 0
vn 0.5 0 -0.866025
vt 412.151 0
v -7.4615 4.14 -8.01359
vt 412.151 162.992
vt 264.514 162.992
f 78/153/45 77/154/45 86/155/45 85/156/45 

vt 96.6555 0
vn -0.5 0 -0.866025
vt 244.293 0
vt 244.293 162.992
vt 96.6555 162.992
f 77/157/46 76/158/46 82/159/46 86/160/46 

usemtl M_0020_Red
vt -421.618 241.677
vt -421.618 94.0392
vt -293.76 20.2203
vt -165.902 94.0392
vt -165.902 241.677
vt -293.76 315.496
f 82/161/26 81/162/26 83/163/26 84/164/26 85/165/26 86/166/26 

